<?xml version="1.0" encoding="utf-8"?>
<!-- Generator: Adobe Illustrator 19.1.0, SVG Export Plug-In . SVG Version: 6.00 Build 0)  -->
<svg version="1.1" id="Layer_1" xmlns="http://www.w3.org/2000/svg" xmlns:xlink="http://www.w3.org/1999/xlink" x="0px" y="0px"
	 viewBox="0 0 14 40" enable-background="new 0 0 14 40" xml:space="preserve">
<g opacity="0.5">
	<path fill="#FFFFFF" d="M7,2.5c2.5,0,4.5,2,4.5,4.5s-2,4.5-4.5,4.5S2.5,9.5,2.5,7S4.5,2.5,7,2.5 M7,1C3.7,1,1,3.7,1,7s2.7,6,6,6
		s6-2.7,6-6S10.3,1,7,1L7,1z"/>
</g>
<g opacity="0.5">
	<circle fill="#FFFFFF" cx="7" cy="20" r="6"/>
</g>
<g>
	<path fill="#FFFFFF" d="M7,38.2c-2.9,0-5.2-2.4-5.2-5.2s2.4-5.2,5.2-5.2s5.2,2.4,5.2,5.2S9.9,38.2,7,38.2z"/>
	<path fill="#FFFFFF" d="M7,28.5c2.5,0,4.5,2,4.5,4.5s-2,4.5-4.5,4.5s-4.5-2-4.5-4.5S4.5,28.5,7,28.5 M7,27c-3.3,0-6,2.7-6,6
		s2.7,6,6,6s6-2.7,6-6S10.3,27,7,27L7,27z"/>
</g>
</svg>
