<?xml version="1.0" encoding="UTF-8" standalone="no"?>
<!-- Generator: Adobe Illustrator 19.1.0, SVG Export Plug-In . SVG Version: 6.00 Build 0)  -->

<svg
   xmlns:dc="http://purl.org/dc/elements/1.1/"
   xmlns:cc="http://creativecommons.org/ns#"
   xmlns:rdf="http://www.w3.org/1999/02/22-rdf-syntax-ns#"
   xmlns:svg="http://www.w3.org/2000/svg"
   xmlns="http://www.w3.org/2000/svg"
   xmlns:sodipodi="http://sodipodi.sourceforge.net/DTD/sodipodi-0.dtd"
   xmlns:inkscape="http://www.inkscape.org/namespaces/inkscape"
   version="1.1"
   id="Layer_1"
   x="0px"
   y="0px"
   viewBox="0 0 12 36"
   enable-background="new 0 0 14 40"
   xml:space="preserve"
   inkscape:version="0.91 r13725"
   sodipodi:docname="banner-dots.svg"
   width="12"
   height="36"><metadata
     id="metadata21"><rdf:RDF><cc:Work
         rdf:about=""><dc:format>image/svg+xml</dc:format><dc:type
           rdf:resource="http://purl.org/dc/dcmitype/StillImage" /><dc:title></dc:title></cc:Work></rdf:RDF></metadata><defs
     id="defs19" /><sodipodi:namedview
     pagecolor="#ff00ff"
     bordercolor="#666666"
     borderopacity="1"
     objecttolerance="10"
     gridtolerance="10"
     guidetolerance="10"
     inkscape:pageopacity="0"
     inkscape:pageshadow="2"
     inkscape:window-width="1501"
     inkscape:window-height="1013"
     id="namedview17"
     showgrid="false"
     fit-margin-top="0"
     fit-margin-left="0"
     fit-margin-right="0"
     fit-margin-bottom="0"
     inkscape:zoom="54.167431"
     inkscape:cx="-0.79881128"
     inkscape:cy="27.257032"
     inkscape:window-x="0"
     inkscape:window-y="0"
     inkscape:window-maximized="0"
     inkscape:current-layer="Layer_1" /><g
     id="g3"
     style="opacity:0.5"
     transform="translate(-0.97564151,-0.98033704)"><path
       d="m 7,2.5 c 2.5,0 4.5,2 4.5,4.5 0,2.5 -2,4.5 -4.5,4.5 C 4.5,11.5 2.5,9.5 2.5,7 2.5,4.5 4.5,2.5 7,2.5 M 7,1 C 3.7,1 1,3.7 1,7 c 0,3.3 2.7,6 6,6 3.3,0 6,-2.7 6,-6 C 13,3.7 10.3,1 7,1 l 0,0 z"
       id="path5"
       inkscape:connector-curvature="0"
       style="fill:#ffffff" /></g><g
     id="g7"
     transform="translate(-1.00221,-1.9841821)"
     style="opacity:0.5"><circle
       cx="7"
       cy="20"
       r="6"
       id="circle9"
       style="fill:#ffffff" /></g><g
     id="g11"
     transform="translate(-1,-3)"><path
       d="m 7,38.2 c -2.9,0 -5.2,-2.4 -5.2,-5.2 0,-2.8 2.4,-5.2 5.2,-5.2 2.8,0 5.2,2.4 5.2,5.2 0,2.8 -2.3,5.2 -5.2,5.2 z"
       id="path13"
       inkscape:connector-curvature="0"
       style="fill:#ffffff" /><path
       d="m 7,28.5 c 2.5,0 4.5,2 4.5,4.5 0,2.5 -2,4.5 -4.5,4.5 -2.5,0 -4.5,-2 -4.5,-4.5 0,-2.5 2,-4.5 4.5,-4.5 M 7,27 c -3.3,0 -6,2.7 -6,6 0,3.3 2.7,6 6,6 3.3,0 6,-2.7 6,-6 0,-3.3 -2.7,-6 -6,-6 l 0,0 z"
       id="path15"
       inkscape:connector-curvature="0"
       style="fill:#ffffff" /></g></svg>