<svg id="Layer_1" data-name="Layer 1" xmlns="http://www.w3.org/2000/svg" viewBox="0 0 820.56 249.56"><defs><style>.cls-1{fill:#0b3d91;}.cls-2{fill:#8d6e26;}.cls-3{fill:#fff;}</style></defs><title>AMMF logo w type</title><path class="cls-1" d="M242.53,53h19.86L285.1,103.9h6.56v9.84H269.12V103.9h4.66L271,97.59H248.14l-2.68,6.3h5.18v9.84H227.94V103.9h6.56l18.39-41H242.53V53Zm9.32,36H267.4l-7.77-18.13Z"/><path class="cls-1" d="M329.47,53h24.87v9.84H346l-22.28,50.86H317L294.76,62.88H286.3V53h24.87v9.84h-5l14.33,32.9,14.33-32.9h-5.35V53Z"/><path class="cls-1" d="M405.45,69.62V62.88h-19.6v17h14.68v9.5H385.84V103.9h19.6V97.16h9.15v16.58H368.49V103.9h6.65v-41h-6.65V53H414.6V69.62h-9.15Z"/><path class="cls-1" d="M470.62,53h14.59L509,97,532.1,53h14.59v9.84h-8.12l1.12,41h6.91v9.84H522.69V103.9h6.74l-0.17-26.77-17.44,36.61h-6.3l-17.62-36-0.17,26.16h6.82v9.84H470.62V103.9h6.91l1.21-41h-8.12V53Z"/><path class="cls-1" d="M574.31,53h19.86l22.71,50.86h6.56v9.84H600.9V103.9h4.66l-2.76-6.3H579.92l-2.68,6.3h5.18v9.84H559.72V103.9h6.56l18.39-41H574.31V53Zm9.32,36h15.54l-7.77-18.13Z"/><path class="cls-1" d="M636.12,53H662.2c16.15,0,24.26,8.89,24.26,21.59,0,9.41-4.49,16.75-12.26,19.77l7.17,9.5h7.77v9.84H676.36l-13-17.7c-1,.09-2.16.09-3.28,0.09h-6.65v7.77H660v9.84H636.12V103.9h6.65v-41h-6.65V53Zm17.36,9.84V86.63h7.94c10,0,13.47-5.35,13.47-12s-3.37-11.74-13.47-11.74h-7.94Z"/><path class="cls-1" d="M706,53h24v9.84h-6.65v41H730v9.84H706V103.9h6.65v-41H706V53Z"/><path class="cls-1" d="M759.32,53h19.86l22.71,50.86h6.56v9.84H785.92V103.9h4.66l-2.76-6.3H764.93l-2.68,6.3h5.18v9.84H744.73V103.9h6.56l18.39-41H759.32V53Zm9.32,36h15.54l-7.77-18.13Z"/><path class="cls-2" d="M227.67,126.51h10.15l16.51,30.56,16.09-30.56h10.15v6.84h-5.64l0.78,28.52h4.8v6.84H263.87v-6.84h4.68l-0.12-18.61-12.13,25.45h-4.38l-12.25-25-0.12,18.19h4.74v6.84H227.67v-6.84h4.8l0.84-28.52h-5.64v-6.84Z"/><path class="cls-2" d="M321,126.51h16.69v6.84H333.1v17.89c0,12.61-7.14,18.25-17.71,18.25s-17.47-5.64-17.47-18.25V133.35H293.3v-6.84H310v6.84h-4.62v17.89c0,8,3.66,11.41,10,11.41s10.27-3.36,10.27-11.47V133.35H321v-6.84Z"/><path class="cls-2" d="M357.79,161.87h4.56V133.35h-7.74V138h-6.36V126.51h35.48V138h-6.36v-4.68h-7.5v28.52h4.62v6.84H357.79v-6.84Z"/><path class="cls-2" d="M422,126.51h16.69v6.84H434v17.89c0,12.61-7.14,18.25-17.71,18.25s-17.47-5.64-17.47-18.25V133.35h-4.62v-6.84h16.69v6.84H406.3v17.89c0,8,3.66,11.41,10,11.41s10.27-3.36,10.27-11.47V133.35H422v-6.84Z"/><path class="cls-2" d="M456.32,126.51h13.81l15.79,35.36h4.56v6.84H474.81v-6.84h3.24l-1.92-4.38H460.22l-1.86,4.38H462v6.84H446.18v-6.84h4.56l12.79-28.52h-7.2v-6.84Zm6.48,25h10.81l-5.4-12.61Z"/><path class="cls-2" d="M500.21,168.71v-6.84h4.62V133.35h-4.62v-6.84h18.49v6.84h-6.42v28.52h13.63v-4.68h6.36v11.53H500.21Z"/><path class="cls-2" d="M593,138v-4.68H579.35v12.31h10.27v6.6H579.35v9.61h7.51v6.84H567.35v-6.84H572V133.35h-4.62v-6.84H599.4V138H593Z"/><path class="cls-2" d="M637.41,126.51H654.1v6.84h-4.62v17.89c0,12.61-7.14,18.25-17.71,18.25s-17.47-5.64-17.47-18.25V133.35h-4.62v-6.84h16.69v6.84h-4.62v17.89c0,8,3.66,11.41,10,11.41S642,159.29,642,151.18V133.35h-4.62v-6.84Z"/><path class="cls-2" d="M695.36,126.51H712v6.84h-4.62v35.36h-5.58L679,141v20.83h4.62v6.84H666.9v-6.84h4.62V133.35H666.9v-6.84h9L700,154.66V133.35h-4.62v-6.84Z"/><path class="cls-2" d="M725.26,126.51h20.53c13.09,0,22.57,8.82,22.57,21.07,0,12.07-9.66,21.13-22.57,21.13H725.26v-6.84h4.62V133.35h-4.62v-6.84Zm12.13,6.84v28.52h8.46c8.16,0,14.53-5.94,14.53-14.17s-6.06-14.35-14.53-14.35h-8.46Z"/><path class="cls-2" d="M787.17,155.5v0.78c0,4.8,4.32,6.18,8.22,6.18,4.8,0,7-2.46,7-5.16s-1.56-4.5-9.19-7.32c-8.23-3.12-11-7.26-11-12.55,0-6,4.68-11.65,13-11.65,5.46,0,7.2,3.12,7.38,3.42l-0.54-2.7h6.72l0.06,12.43H802v-2c-0.3-3.54-3.12-4.5-6.48-4.5-4.2,0-5.88,2.22-5.88,4.8,0,2.94,2.28,4.8,8.23,7.14,9.43,3.72,12.13,7.38,12.13,12.91,0,7.5-5.7,12.13-13,12.13-8.23,0-10.27-4.2-10.27-4.2l0.54,3.48H780.5l-0.06-13.21h6.72Z"/><polygon class="cls-2" points="174.25 227.24 87.12 197.62 0 227.24 0 0 174.25 0 174.25 227.24"/><polygon class="cls-1" points="163.81 249.56 163.81 0 9.96 0 9.96 249.56 87.12 223.35 163.81 249.56"/><path class="cls-3" d="M87.61,110.86c1.35-2.14,3.76-6.37,9.59-6.37,6.58,0,5,2.22,17.07,2.22V82.95c-6.58.3-11.86-6.4-20.54-2-2.09,1.07-6.12,4.39-6.12,9.19v20.74"/><path class="cls-3" d="M95.66,55.16v0.27a0.35,0.35,0,0,1-.29.38H88.19V49.65a0.28,0.28,0,0,1,.28-0.32h0.25v-1H85.5v1h0.25a0.34,0.34,0,0,1,.25.39v6.11H78.88a0.35,0.35,0,0,1-.28-0.38V55.19h-1v3.7h1V58.64a0.42,0.42,0,0,1,.34-0.42H86V74.3a0.39,0.39,0,0,1-.28.42H85.47v1h3.27v-1H88.5a0.45,0.45,0,0,1-.3-0.45v-16h7.12a0.52,0.52,0,0,1,.35.48V59h1v-3.8h-1Z"/><path class="cls-3" d="M86.65,110.86c-1.35-2.14-3.76-6.37-9.59-6.37-6.58,0-5,2.22-17.07,2.22V82.95c6.58,0.3,11.87-6.4,20.54-2,2.09,1.07,6.12,4.39,6.12,9.19v20.74"/><path class="cls-3" d="M117.42,86.23v23.69H89.72c2.09-1.49,4.47-2.13,7.83-2.13a22.8,22.8,0,0,1,5.36.43c1.74,0.35,3.7.74,13,.63h0.59V84.36h-1.19v23.31c-8.63.08-10.52-.29-12.16-0.61a23.61,23.61,0,0,0-5.6-.46c-4.3,0-7.14,1-9.74,3.32H87.59v1.19h31V86.23h-1.19"/><path class="cls-3" d="M76.7,106.59a23.61,23.61,0,0,0-5.6.46c-1.64.33-3.53,0.69-12.17,0.61V84.36H57.75v24.48h0.59c9.3,0.11,11.27-.28,13-0.63a22.8,22.8,0,0,1,5.36-.43c3.37,0,5.75.64,7.84,2.13H56.83V86.23H55.64v24.88h31v-1.19H86.44c-2.6-2.35-5.43-3.32-9.74-3.32"/><path class="cls-3" d="M57.84,134.55c0.12,0.35.26,0.82,0.42,1.19a0.83,0.83,0,0,0,.53.59l0.44,0.05v0.53c-0.57,0-1.15-.05-1.74-0.05s-1,0-1.74.05v-0.53l0.61-.05A0.49,0.49,0,0,0,56.9,136a5.13,5.13,0,0,0-.27-1.11l-0.61-2H52.26L51.89,134a12.18,12.18,0,0,0-.46,1.82c0,0.36.23,0.43,0.63,0.49l0.49,0.05v0.53c-0.63,0-1.13-.05-1.51-0.05s-1,0-1.5.05v-0.53l0.49-.05a1.1,1.1,0,0,0,.71-0.86l2.33-7.07c0.41-1.22.85-2.51,1.2-3.77h0.42Zm-2.06-2.39L54.13,127l-1.66,5.2h3.31Z"/><path class="cls-3" d="M61.8,134.74l2.39-8.26c0.28-.94,0-1.1-0.34-1.13l-0.68-.05v-0.52c0.47,0,.93,0,1.41,0s0.95,0,1.42,0v0.52l-0.39.05c-0.28,0-.44.42-0.71,1.26L62.62,134c-0.31,1-.6,2-0.84,3.06H61.13c-0.22-1-.5-2-0.77-2.88l-2.46-8.07a0.75,0.75,0,0,0-.58-0.71l-0.47-.05v-0.52c0.58,0,1.15,0,1.74,0s1.17,0,1.74,0v0.52l-0.73.05a0.38,0.38,0,0,0-.39.54Z"/><path class="cls-3" d="M68.06,126.92a4,4,0,0,0-.12-1.31,0.54,0.54,0,0,0-.55-0.26l-0.63-.05v-0.52c0.72,0,1.47,0,2.21,0,1.15,0,2.35,0,3.09,0,0.59,0,1.18,0,1.69,0a15.38,15.38,0,0,0-.21,2.65H73.08v-1.13a0.56,0.56,0,0,0-.11-0.48,6.19,6.19,0,0,0-2.57-.37,3.51,3.51,0,0,0-1.1.14v4.67c0.42,0,.89.05,1.52,0.05a2.82,2.82,0,0,0,1.39-.19,0.83,0.83,0,0,0,.1-0.45l0.07-.91h0.39c0,0.71,0,1.37,0,2s0,1.31,0,1.94H72.38l-0.07-1a0.7,0.7,0,0,0-.1-0.43,2.51,2.51,0,0,0-1.39-.21,12.62,12.62,0,0,0-1.52.05V136a3.47,3.47,0,0,0,1.1.14,9.22,9.22,0,0,0,2.64-.23,4,4,0,0,0,.46-2H74a20.55,20.55,0,0,0-.21,2.87c-0.58,0-1.61.07-2.58,0.05s-2-.05-2.86-0.05c-0.49,0-.93,0-1.4.05v-0.53l0.47-.05a0.58,0.58,0,0,0,.55-0.26,4,4,0,0,0,.12-1.31v-7.84Z"/><path class="cls-3" d="M89.1,134.76a4.15,4.15,0,0,0,.12,1.31,0.55,0.55,0,0,0,.55.26l0.63,0.05v0.53c-0.67,0-1.29-.05-1.9-0.05s-1.26,0-1.75.05v-0.53l0.44-.05a0.59,0.59,0,0,0,.55-0.26,4,4,0,0,0,.12-1.31v-7.93h0c-0.2.47-.38,1-0.55,1.43l-2.33,6.6c-0.24.71-.47,1.48-0.7,2.22H84l-3.63-10.25h0v7.93a4.14,4.14,0,0,0,.12,1.31,0.58,0.58,0,0,0,.55.26l0.58,0.05v0.53c-0.58,0-1-.05-1.57-0.05s-1,0-1.52.05v-0.53l0.58-.05a0.58,0.58,0,0,0,.55-0.26,4.07,4.07,0,0,0,.12-1.31v-7.84a4,4,0,0,0-.12-1.31,0.56,0.56,0,0,0-.55-0.26l-0.58-.05v-0.52c0.41,0,.83,0,1.25,0s0.83,0,1.24,0l3.46,9.7,3.43-9.7c0.41,0,.82,0,1.24,0s0.83,0,1.22,0v0.52l-0.55.05a0.57,0.57,0,0,0-.55.26,4.1,4.1,0,0,0-.12,1.31v7.84Z"/><path class="cls-3" d="M99.43,134.55c0.12,0.35.26,0.82,0.42,1.19a0.81,0.81,0,0,0,.52.59l0.44,0.05v0.53c-0.58,0-1.15-.05-1.74-0.05s-1,0-1.74.05v-0.53l0.61-.05A0.49,0.49,0,0,0,98.5,136a5.1,5.1,0,0,0-.28-1.11l-0.6-2H93.84L93.48,134a12.33,12.33,0,0,0-.46,1.82c0,0.36.23,0.43,0.63,0.49l0.48,0.05v0.53c-0.63,0-1.12-.05-1.5-0.05s-1,0-1.51.05v-0.53l0.48-.05a1.09,1.09,0,0,0,.71-0.86l2.33-7.07c0.4-1.22.85-2.51,1.2-3.77h0.41Zm-2.06-2.39L95.73,127l-1.66,5.2h3.31Z"/><path class="cls-3" d="M104.2,134.76a3.91,3.91,0,0,0,.12,1.31,0.54,0.54,0,0,0,.55.26l0.62,0.05v0.53c-0.68,0-1.29-.05-1.9-0.05s-1.25,0-1.93.05v-0.53l0.62-.05a0.55,0.55,0,0,0,.55-0.26,4.17,4.17,0,0,0,.11-1.31v-7.84a4.11,4.11,0,0,0-.11-1.31,0.57,0.57,0,0,0-.55-0.26l-0.54-.05v-0.52c0.7,0,1.46,0,2.23,0s1.54,0,2.29,0a2.35,2.35,0,0,1,2.65,2.61,3.39,3.39,0,0,1-2.56,3.37l3,5.17a0.9,0.9,0,0,0,.79.46v0.53c-0.34,0-.64-0.05-0.95-0.05s-0.59,0-.89.05c-0.17-.34-0.37-0.63-0.53-0.95l-2.41-4.31c-0.21-.38-0.46-0.71-0.68-1.08l0.08-.21a3.79,3.79,0,0,0,1.16-.07,2.39,2.39,0,0,0,1.7-2.44c0-1.88-1-2.41-2.07-2.41a4,4,0,0,0-1.33.21v9.12Z"/><path class="cls-3" d="M113.21,134.76a4.14,4.14,0,0,0,.12,1.31,0.54,0.54,0,0,0,.55.26l0.63,0.05v0.53c-0.68,0-1.3-.05-1.9-0.05s-1.26,0-1.95.05v-0.53l0.64-.05a0.55,0.55,0,0,0,.55-0.26,4.23,4.23,0,0,0,.12-1.31v-7.84a4.17,4.17,0,0,0-.12-1.31,0.54,0.54,0,0,0-.55-0.26l-0.64-.05v-0.52c0.68,0,1.3,0,1.95,0s1.21,0,1.9,0v0.52l-0.63.05a0.54,0.54,0,0,0-.55.26,4.09,4.09,0,0,0-.12,1.31v7.84Z"/><path class="cls-3" d="M123.3,134.55c0.12,0.35.26,0.82,0.42,1.19a0.82,0.82,0,0,0,.53.59l0.45,0.05v0.53c-0.58,0-1.16-.05-1.75-0.05s-1,0-1.74.05v-0.53l0.62-.05a0.48,0.48,0,0,0,.53-0.35,4.8,4.8,0,0,0-.27-1.11l-0.6-2h-3.77L117.35,134a12.12,12.12,0,0,0-.46,1.82c0,0.36.22,0.43,0.63,0.49l0.49,0.05v0.53c-0.63,0-1.13-.05-1.51-0.05s-1,0-1.5.05v-0.53l0.48-.05a1.11,1.11,0,0,0,.71-0.86l2.33-7.07c0.41-1.22.85-2.51,1.21-3.77h0.42Zm-2.06-2.39L119.6,127l-1.67,5.2h3.31Z"/><path class="cls-3" d="M67.8,157.78a3.8,3.8,0,0,0,.13,1.32,0.6,0.6,0,0,0,.6.26l0.67,0.06v0.52c-0.74,0-1.4-.06-2.05-0.06s-1.36,0-1.9.06v-0.52l0.49-.06a0.61,0.61,0,0,0,.59-0.26,3.7,3.7,0,0,0,.13-1.32v-7.94h0c-0.22.48-.41,1-0.6,1.44l-2.52,6.62c-0.27.72-.51,1.48-0.77,2.22H62.25l-3.93-10.28h0v7.94a3.8,3.8,0,0,0,.13,1.32,0.62,0.62,0,0,0,.6.26l0.62,0.06v0.52c-0.62,0-1.13-.06-1.7-0.06s-1.08,0-1.64.06v-0.52l0.62-.06a0.64,0.64,0,0,0,.6-0.26,4,4,0,0,0,.12-1.32v-7.86a4,4,0,0,0-.12-1.31,0.68,0.68,0,0,0-.6-0.26l-0.62,0v-0.53c0.44,0,.9.06,1.35,0.06s0.91,0,1.35-.06l3.75,9.74,3.72-9.74c0.45,0,.89.06,1.35,0.06s0.91,0,1.32-.06v0.53l-0.59,0a0.67,0.67,0,0,0-.6.26,3.86,3.86,0,0,0-.13,1.31v7.86Z"/><path class="cls-3" d="M71.35,149.92a3.81,3.81,0,0,0-.13-1.31,0.63,0.63,0,0,0-.6-0.26l-0.68,0v-0.53c0.74,0,1.4.06,2.1,0.06s1.32,0,2.06-.06v0.53l-0.68,0a0.62,0.62,0,0,0-.6.26,3.84,3.84,0,0,0-.13,1.31v6c0,2.48,1,3.2,2.93,3.2,1.53,0,2.92-.72,2.92-3.62v-5.61a3.88,3.88,0,0,0-.13-1.31,0.67,0.67,0,0,0-.6-0.26l-0.62,0v-0.53c0.57,0,1.13.06,1.65,0.06s1.07,0,1.7-.06v0.53l-0.63,0a0.67,0.67,0,0,0-.59.26,3.94,3.94,0,0,0-.12,1.31V155c0,3.75-1.15,5.25-4,5.25-2.41,0-3.83-.9-3.83-4.1v-6.22Z"/><path class="cls-3" d="M84.78,150.38c0-.67,0-1.23-0.06-1.75h-2.2a0.49,0.49,0,0,0-.57.58l-0.06,1.38H81.45c0-.94,0-1.9-0.1-2.82,1,0,2,.06,3.07.06h2.06c1,0,2-.06,3.06-0.06-0.07.91-.1,1.87-0.1,2.82H89l-0.06-1.38a0.48,0.48,0,0,0-.57-0.58h-2.2c0,0.52-.05,1.08-0.05,1.75v7.4a3.76,3.76,0,0,0,.13,1.32,0.6,0.6,0,0,0,.6.26l0.69,0.06v0.52c-0.74,0-1.41-.06-2.06-0.06s-1.37,0-2.1.06v-0.52l0.68-.06a0.59,0.59,0,0,0,.59-0.26,3.7,3.7,0,0,0,.13-1.32v-7.4Z"/><path class="cls-3" d="M91.66,149.92a3.76,3.76,0,0,0-.12-1.31,0.61,0.61,0,0,0-.59-0.26l-0.69,0v-0.53c0.74,0,1.4.06,2.1,0.06s1.32,0,2.06-.06v0.53l-0.68,0a0.63,0.63,0,0,0-.6.26,3.92,3.92,0,0,0-.13,1.31v6c0,2.48,1.05,3.2,2.92,3.2,1.54,0,2.93-.72,2.93-3.62v-5.61a3.94,3.94,0,0,0-.12-1.31,0.68,0.68,0,0,0-.6-0.26l-0.62,0v-0.53c0.57,0,1.13.06,1.64,0.06s1.08,0,1.7-.06v0.53l-0.62,0a0.67,0.67,0,0,0-.6.26,3.83,3.83,0,0,0-.12,1.31V155c0,3.75-1.15,5.25-4,5.25-2.41,0-3.84-.9-3.84-4.1v-6.22Z"/><path class="cls-3" d="M108.37,157.57c0.13,0.35.28,0.83,0.45,1.19a0.85,0.85,0,0,0,.57.59l0.48,0.06v0.52c-0.62,0-1.25-.06-1.89-0.06s-1.12,0-1.89.06v-0.52l0.67-.06a0.53,0.53,0,0,0,.58-0.35,4.56,4.56,0,0,0-.3-1.12l-0.66-2h-4.08l-0.4,1.17a11.56,11.56,0,0,0-.5,1.82c0,0.37.24,0.44,0.67,0.49l0.53,0.06v0.52c-0.68,0-1.22-.06-1.64-0.06s-1.09,0-1.63.06v-0.52l0.52-.06a1.11,1.11,0,0,0,.77-0.86l2.53-7.09c0.44-1.23.92-2.52,1.31-3.78h0.45Zm-2.23-2.4L104.35,150l-1.79,5.22h3.58Z"/><path class="cls-3" d="M112.68,159.06a4.06,4.06,0,0,0,1.2.14c1.17,0,2.9-.05,3.14-0.33a3.77,3.77,0,0,0,.3-1.12l0.17-.88h0.45c-0.08,1-.18,2.14-0.3,3-0.62,0-1.75.07-2.79,0.06-1.28,0-2.21-.06-3.1-0.06-0.48,0-.84,0-1.21.06v-0.4l0.45-.29a1.24,1.24,0,0,0,.35-1v-8.3a3.58,3.58,0,0,0-.14-1.31,0.6,0.6,0,0,0-.59-0.26l-0.68,0v-0.53c0.74,0,1.41.06,2.1,0.06s1.32,0,2.07-.06v0.53l-0.68,0a0.61,0.61,0,0,0-.59.26,3.74,3.74,0,0,0-.14,1.31v9.14Z"/><path class="cls-3" d="M65.09,173.86a3.78,3.78,0,0,0,.12,1.31,0.59,0.59,0,0,0,.6.26l0.68,0.06V176c-0.74,0-1.4,0-2.06,0s-1.36,0-2.1,0v-0.52l0.68-.06a0.59,0.59,0,0,0,.59-0.26,3.78,3.78,0,0,0,.12-1.31V166a3.78,3.78,0,0,0-.12-1.31,0.59,0.59,0,0,0-.59-0.26l-0.68-.06v-0.53c0.78,0,1.59.05,2.4,0.05s2.25-.05,3.06-0.05c0.64,0,1.28,0,1.83.05a14.48,14.48,0,0,0-.22,2.66h-0.5v-1.14a0.52,0.52,0,0,0-.13-0.47,6.47,6.47,0,0,0-2.5-.36,3.85,3.85,0,0,0-1.19.14v4.67c0.45,0,1,.06,1.65.06a3.34,3.34,0,0,0,1.5-.19,0.77,0.77,0,0,0,.11-0.46l0.07-.91h0.43c0,0.72,0,1.38,0,2s0,1.32,0,1.95H68.42l-0.07-1a0.64,0.64,0,0,0-.11-0.43,2.87,2.87,0,0,0-1.5-.22,13.77,13.77,0,0,0-1.65.06v3.62Z"/><path class="cls-3" d="M71.77,166a3.68,3.68,0,0,0-.13-1.31,0.59,0.59,0,0,0-.59-0.26l-0.68-.06v-0.53c0.74,0,1.4.05,2.1,0.05s1.32,0,2.06-.05v0.53l-0.68.06a0.61,0.61,0,0,0-.6.26,3.81,3.81,0,0,0-.12,1.31v6c0,2.49,1,3.21,2.92,3.21,1.53,0,2.92-.72,2.92-3.63V166a3.73,3.73,0,0,0-.13-1.31,0.63,0.63,0,0,0-.6-0.26l-0.62-.06v-0.53c0.57,0,1.14.05,1.65,0.05s1.08,0,1.7-.05v0.53l-0.62.06a0.63,0.63,0,0,0-.6.26,3.91,3.91,0,0,0-.12,1.31v5.06c0,3.74-1.15,5.25-4,5.25-2.41,0-3.83-.9-3.83-4.1V166Z"/><path class="cls-3" d="M83.11,166a3.89,3.89,0,0,0-.12-1.31,0.64,0.64,0,0,0-.6-0.26l-0.62-.06v-0.53c0.62,0,1.19.05,1.7,0.05,0.26,0,.51,0,0.77-0.05L91,174.18h0V166a3.9,3.9,0,0,0-.12-1.31,0.63,0.63,0,0,0-.6-0.26l-0.62-.06v-0.53c0.57,0,1.14.05,1.65,0.05s1.08,0,1.71-.05v0.53l-0.63.06a0.63,0.63,0,0,0-.6.26,3.74,3.74,0,0,0-.12,1.31v9.66c0,0.21,0,.44,0,0.65L90.49,176l-6.69-10.24h0v8.07a3.75,3.75,0,0,0,.13,1.31,0.63,0.63,0,0,0,.6.26l0.62,0.06V176c-0.62,0-1.13,0-1.7,0s-1.08,0-1.64,0v-0.52l0.62-.06a0.64,0.64,0,0,0,.6-0.26,3.89,3.89,0,0,0,.12-1.31V166Z"/><path class="cls-3" d="M95.21,166a3.79,3.79,0,0,0-.13-1.31,0.63,0.63,0,0,0-.6-0.26l-0.57-.06v-0.53c1,0,1.86.05,2.8,0.05s1.84,0,2.47-.05c2.91-.09,5.08,1.94,5.08,5.34,0,2.88-1.33,5.35-3.05,6.22a6,6,0,0,1-3,.61c-0.57,0-1.19,0-1.84,0s-1.26,0-1.92,0v-0.4l0.43-.28a1.25,1.25,0,0,0,.36-1V166Zm1.35,9.1a6.63,6.63,0,0,0,1.61.14,4.45,4.45,0,0,0,2.31-.51c1.56-.89,2.26-2.7,2.26-5.05,0-4.35-2-5.13-4.57-5.13a6.85,6.85,0,0,0-1.61.14V175.1Z"/><path class="cls-3" d="M110.76,166.75l-0.08-1a1.18,1.18,0,0,0-.62-1.05,2.64,2.64,0,0,0-1.54-.42,2.27,2.27,0,0,0-2.1,2.56c0,1.19.56,1.93,2.34,2.17,2,0.26,3.27.88,3.27,2.87a4.18,4.18,0,0,1-4.29,4.43,5.19,5.19,0,0,1-2.43-.67,18.94,18.94,0,0,0,.1-2.68h0.46l0.11,1.17c0.07,0.74,1.19,1.4,2.31,1.4a2.55,2.55,0,0,0,2.54-2.7c0-1.66-1.05-2.13-2.5-2.34-2.23-.32-3.11-1.17-3.11-3a3.66,3.66,0,0,1,3.63-4,5.71,5.71,0,0,1,2.58.73,14.21,14.21,0,0,0-.2,2.47h-0.46Z"/><path class="cls-3" d="M141.32,189.52h-9.9v-57a53.42,53.42,0,0,1,4.41,7.21,56.91,56.91,0,0,1,2.43,5.7l0.19,0.51a49.47,49.47,0,0,1,2.87,14.7v28.85m-96.52,0v-88c0-10.25,3.68-23.13,5.46-27.76l0.37-1a106.86,106.86,0,0,1,4.59-10.71A99.87,99.87,0,0,1,65.58,45.81a94.44,94.44,0,0,1,12.93-13.6c3.57-3.07,7.26-5.8,8.6-6.78,1.35,1,5,3.71,8.6,6.78a93.89,93.89,0,0,1,12.93,13.6A99.26,99.26,0,0,1,119,62.07a106,106,0,0,1,4.6,10.72l0.37,1c1.78,4.63,5.45,17.5,5.45,27.76v88H44.8Zm86.62-78.37c0.88,2.11,1.58,3.94,2.12,5.35l0.5,1.27a133,133,0,0,1,7,29.88c-0.29-1-.56-1.78-0.78-2.34l-0.19-.5a56.21,56.21,0,0,0-2.51-5.89,55,55,0,0,0-5.67-9l-0.52-.63V111.1ZM42.81,129.4l-0.42.5a55,55,0,0,0-5.67,9,60.4,60.4,0,0,0-2.52,5.91l-0.18.48c-0.25.65-.57,1.62-0.9,2.77a132.24,132.24,0,0,1,7.09-30.3l0.49-1.27c0.53-1.39,1.23-3.2,2.1-5.29V129.4Zm0,60.12H33V160.66A49.29,49.29,0,0,1,35.9,146l0.18-.5a56.92,56.92,0,0,1,2.43-5.71,52.81,52.81,0,0,1,4.3-7.07v56.83Zm100.69,2V155c0-14.07-5.12-31.72-7.6-38l-0.49-1.27c-0.88-2.29-2.2-5.68-4-9.63V101.5c0-10.54-3.76-23.74-5.59-28.48h0l-0.36-1a110.25,110.25,0,0,0-4.68-10.9,101.33,101.33,0,0,0-10.57-16.6A96.13,96.13,0,0,0,97,30.7c-4.5-3.87-9.27-7.27-9.32-7.3L87.12,23l-0.59.4s-4.81,3.42-9.31,7.3A96.07,96.07,0,0,0,64,44.58a101.89,101.89,0,0,0-10.57,16.6,110.19,110.19,0,0,0-4.68,10.9l-0.36,1C46.57,77.77,42.81,91,42.81,101.5v4.65c-1.79,3.91-3.08,7.29-4,9.57L38.36,117c-2.48,6.33-7.61,24-7.61,38v36.47H143.5Z"/><rect class="cls-3" x="49.91" y="142.03" width="74.41" height="0.66"/><rect class="cls-3" x="49.91" y="119.03" width="74.41" height="0.66"/><rect class="cls-3" x="49.91" y="181.13" width="74.41" height="0.66"/></svg>