<?xml version="1.0" encoding="utf-8"?>
<!-- Generator: Adobe Illustrator 19.1.0, SVG Export Plug-In . SVG Version: 6.00 Build 0)  -->
<svg version="1.0" id="Layer_1" xmlns="http://www.w3.org/2000/svg" xmlns:xlink="http://www.w3.org/1999/xlink" x="0px" y="0px"
	 viewBox="-210 320 191 154" enable-background="new -210 320 191 154" xml:space="preserve">
<path opacity="0.5" fill="#B3E3FA" enable-background="new    " d="M-161.1,392.2c1-0.5,2.9-0.5,3.3-0.5c20.4,0,35.7,15.7,35.7,35.7
	c0,19.5-15.2,35.7-35.7,35.7c-27.1,0-38.5-20.4-38.5-47.1c0-29.9,15.7-58,53.2-85.1l13.8,16.2c-16.1,12.3-31.8,35.2-31.8,44.2V392.2
	z M-71.7,392.2c1-0.5,2.9-0.5,3.3-0.5c20.4,0,35.7,15.7,35.7,35.7c0,19.5-15.2,35.7-35.7,35.7c-27.1,0-38.5-20.4-38.5-47.1
	c0-29.9,15.7-58,53.2-85.1l13.8,16.2c-16.2,12.4-31.8,35.2-31.8,44.2V392.2z"/>
</svg>
