<?xml version="1.0" encoding="utf-8"?>
<!-- Generator: Adobe Illustrator 19.1.0, SVG Export Plug-In . SVG Version: 6.00 Build 0)  -->
<svg version="1.0" id="Layer_1" xmlns="http://www.w3.org/2000/svg" xmlns:xlink="http://www.w3.org/1999/xlink" x="0px" y="0px"
	 viewBox="0 0 191 154" enable-background="new 0 0 191 154" xml:space="preserve">
<path opacity="0.5" fill="#B3E3FA" d="M52.7,81.8c-1,0.5-2.9,0.5-3.3,0.5c-20.4,0-35.7-15.7-35.7-35.7c0-19.5,15.2-35.7,35.7-35.7
	c27.1,0,38.5,20.4,38.5,47.1c0,29.9-15.7,58-53.2,85.1l-13.8-16.2C37,114.6,52.7,91.7,52.7,82.7V81.8z M142.1,81.8
	c-1,0.5-2.9,0.5-3.3,0.5c-20.4,0-35.7-15.7-35.7-35.7c0-19.5,15.2-35.7,35.7-35.7c27.1,0,38.5,20.4,38.5,47.1
	c0,29.9-15.7,58-53.2,85.1l-13.8-16.2c16.2-12.4,31.8-35.2,31.8-44.2V81.8z"/>
</svg>
