<?xml version="1.0" encoding="utf-8"?>
<!-- Generator: Adobe Illustrator 21.1.0, SVG Export Plug-In . SVG Version: 6.00 Build 0)  -->
<svg version="1.1" id="Layer_1" xmlns="http://www.w3.org/2000/svg" xmlns:xlink="http://www.w3.org/1999/xlink" x="0px" y="0px"
	 viewBox="0 0 958 176" style="enable-background:new 0 0 958 176;" xml:space="preserve">
<style type="text/css">
	.st0{fill:#A27E2D;}
	.st1{fill:#21448D;}
	.st2{fill:#FFFFFF;}
	.st3{fill:none;}
</style>
<g>
	<g>
		<g>
			<g>
				<g>
					<g>
						<polygon class="st0" points="242,140.3 201.6,126.6 161.3,140.3 161.3,35 242,35 						"/>
						<polygon class="st1" points="202,138.6 237.7,150.7 237.7,35 165.6,35 165.6,151 						"/>
						<g>
							<g>
								<g>
									<g>
										<g>
											<path class="st2" d="M201.9,86.4c0.7-0.9,1.7-3,4.4-3c3.1,0,2.3,1.1,7.9,1.1v-11c-3.1,0.1-5.5-3-9.6-0.9
												c-0.9,0.5-2.8,2-2.8,4.3L201.9,86.4"/>
											<g>
												<path class="st2" d="M205.5,60.5L205.5,60.5c0,0.3,0,0.3-0.1,0.3c0,0-3.1,0-3.4,0c0-0.1,0-2.8,0-2.8
													c0-0.1,0-0.1,0.1-0.1h0.1v-0.5h-1.5v0.5h0.1l0.1,0.1c0,0,0,2.7,0,2.8c-0.3,0-3.4,0-3.4,0c-0.1,0-0.1-0.1-0.1-0.1v-0.1
													h-0.5v1.7h0.5v-0.1c0-0.1,0.1-0.1,0.1-0.1s3.1,0,3.2,0c0,0.3,0,7.4,0,7.4c0,0.1-0.1,0.1-0.1,0.1h-0.1v0.5h1.5v-0.5H202
													c0,0-0.1-0.1-0.1-0.3c0,0,0-7.3,0-7.4c0.1,0,3.4,0,3.4,0s0.1,0.1,0.1,0.3v0.1h0.5v-1.7H205.5z"/>
											</g>
											<path class="st2" d="M201.4,86.4c-0.7-0.9-1.7-3-4.4-3c-3.1,0-2.3,1.1-7.9,1.1v-11c3.1,0.1,5.5-3,9.6-0.9
												c0.9,0.5,2.8,2,2.8,4.3L201.4,86.4"/>
											<path class="st2" d="M215.6,74.9c0,0,0,10.5,0,11c-0.4,0-9.8,0-12.9,0c0.9-0.7,2-0.9,3.6-0.9c1.5,0,1.9,0.1,2.4,0.1
												c0.8,0.1,1.7,0.4,6.1,0.3h0.3V74.1h-0.5c0,0,0,10.2,0,10.8c-4,0-4.8-0.1-5.7-0.3c-0.5-0.1-1.1-0.3-2.6-0.3
												c-2,0-3.4,0.4-4.6,1.5h-0.1v0.5H216V74.8h-0.4"/>
											<path class="st2" d="M196.8,84.4c-1.5,0-2,0.1-2.6,0.3c-0.8,0.1-1.6,0.3-5.7,0.3c0-0.5,0-10.8,0-10.8h-0.5v11.3h0.3
												c4.3,0,5.2-0.1,6.1-0.3c0.5-0.1,0.9-0.1,2.4-0.1c1.6,0,2.7,0.3,3.6,0.9c-3.1,0-12.4,0-12.9,0c0-0.5,0-11,0-11H187v11.6
												h14.4V86c0,0,0,0-0.1,0C200.2,84.9,198.8,84.4,196.8,84.4"/>
										</g>
									</g>
									<g>
										<path class="st2" d="M188.1,97.4c0,0.1,0.1,0.4,0.1,0.5c0,0.1,0.1,0.3,0.3,0.3h0.3v0.3c-0.3,0-0.5,0-0.8,0s-0.5,0-0.8,0
											v-0.3h0.3c0.1,0,0.3,0,0.3-0.1c0-0.1,0-0.3-0.1-0.5l-0.3-0.9h-1.7l-0.1,0.5c0,0.1-0.3,0.7-0.3,0.8c0,0.1,0.1,0.1,0.3,0.3
											h0.3v0.3c-0.3,0-0.5,0-0.7,0c-0.3,0-0.4,0-0.7,0v-0.3h0.3c0.1,0,0.3-0.1,0.3-0.4l1.1-3.2c0.1-0.5,0.4-1.2,0.5-1.7h0.1
											L188.1,97.4z M187.1,96.3l-0.8-2.4l-0.8,2.4H187.1z"/>
										<path class="st2" d="M189.9,97.6l1.1-3.8c0.1-0.4,0-0.5-0.1-0.5h-0.3V93c0.3,0,0.4,0,0.7,0s0.4,0,0.7,0v0.3h-0.1
											c-0.1,0-0.3,0.1-0.3,0.5l-1.1,3.4c-0.1,0.4-0.3,0.9-0.4,1.5h-0.3c-0.1-0.5-0.3-0.9-0.4-1.3l-1.1-3.8
											c-0.1-0.3-0.1-0.3-0.3-0.3h-0.3V93c0.3,0,0.5,0,0.8,0s0.5,0,0.8,0v0.3H189c-0.1,0-0.3,0-0.1,0.3L189.9,97.6z"/>
										<path class="st2" d="M192.8,93.9c0-0.3,0-0.5,0-0.7c0-0.1-0.1-0.1-0.3-0.1h-0.3v-0.3c0.3,0,0.7,0,1.1,0c0.5,0,1.1,0,1.5,0
											c0.3,0,0.5,0,0.8,0c0,0.4-0.1,0.8-0.1,1.2h-0.3v-0.5c0-0.1,0-0.1,0-0.3c-0.3-0.1-0.8-0.1-1.2-0.1c-0.1,0-0.4,0-0.5,0v2.2
											c0.1,0,0.4,0,0.7,0c0.4,0,0.5,0,0.7-0.1c0,0,0-0.1,0-0.3v-0.4h0.1c0,0.3,0,0.7,0,0.9s0,0.7,0,0.9h-0.1v-0.5
											c0-0.1,0-0.1,0-0.1c-0.1,0-0.3-0.1-0.7-0.1c-0.3,0-0.5,0-0.7,0v2.3c0.1,0,0.4,0,0.5,0c0.5,0,1.1,0,1.2-0.1
											c0.1,0,0.1-0.4,0.3-0.9h0.3c0,0.4-0.1,0.9-0.1,1.3c-0.3,0-0.8,0-1.2,0c-0.4,0-0.9,0-1.3,0c-0.3,0-0.4,0-0.7,0v-0.3h0.3
											c0.1,0,0.3,0,0.3-0.1c0-0.1,0-0.3,0-0.7v-3.1H192.8z"/>
										<path class="st2" d="M202.6,97.6c0,0.3,0,0.5,0,0.7s0.1,0.1,0.3,0.1h0.3v0.3c-0.3,0-0.5,0-0.9,0c-0.3,0-0.5,0-0.8,0v-0.3
											h0.3c0.1,0,0.3,0,0.3-0.1s0-0.3,0-0.7v-3.6l0,0c-0.1,0.3-0.1,0.4-0.3,0.7l-1.1,3.1c-0.1,0.3-0.3,0.7-0.3,1.1h-0.1
											l-1.7-4.7l0,0v3.6c0,0.3,0,0.5,0,0.7s0.1,0.1,0.3,0.1h0.3v0.3c-0.3,0-0.5,0-0.7,0c-0.3,0-0.4,0-0.7,0v-0.3h0.3
											c0.1,0,0.3,0,0.3-0.1s0-0.3,0-0.7v-3.6c0-0.3,0-0.5,0-0.7c0-0.1-0.1-0.1-0.3-0.1h-0.3V93c0.1,0,0.4,0,0.5,0s0.4,0,0.5,0
											l1.7,4.4L202,93c0.1,0,0.4,0,0.5,0s0.4,0,0.5,0v0.3h-0.3c-0.1,0-0.3,0-0.3,0.1c0,0.1,0,0.3,0,0.7L202.6,97.6L202.6,97.6z"
											/>
										<path class="st2" d="M207.3,97.4c0,0.1,0.1,0.4,0.1,0.5c0,0.1,0.1,0.3,0.3,0.3h0.3v0.3c-0.3,0-0.5,0-0.8,0s-0.5,0-0.8,0
											v-0.3h0.3c0.1,0,0.3,0,0.3-0.1c0-0.1-0.1-0.3-0.1-0.5l-0.3-0.9h-1.7l-0.1,0.5c0,0.1-0.3,0.7-0.3,0.8
											c0,0.1,0.1,0.1,0.3,0.3h0.3v0.3c-0.3,0-0.5,0-0.7,0c-0.3,0-0.4,0-0.7,0v-0.3h0.3c0.1,0,0.3-0.1,0.3-0.4l1.1-3.2
											c0.1-0.5,0.4-1.2,0.5-1.7h0.1L207.3,97.4z M206.4,96.3l-0.8-2.4l-0.8,2.4H206.4z"/>
										<path class="st2" d="M209.6,97.6c0,0.3,0,0.5,0,0.7s0.1,0.1,0.3,0.1h0.3v0.3c-0.3,0-0.5,0-0.9,0c-0.3,0-0.5,0-0.9,0v-0.3
											h0.3c0.1,0,0.3,0,0.3-0.1s0-0.3,0-0.7v-3.6c0-0.3,0-0.5,0-0.7c0-0.1-0.1-0.1-0.3-0.1h-0.3v-0.3c0.3,0,0.7,0,1.1,0
											c0.4,0,0.7,0,1.1,0c0.9,0,1.2,0.7,1.2,1.2c0,0.9-0.5,1.3-1.2,1.6l1.3,2.4c0.1,0.1,0.3,0.1,0.4,0.3v0.3c-0.1,0-0.3,0-0.4,0
											c-0.1,0-0.3,0-0.4,0c-0.1-0.1-0.1-0.3-0.3-0.4l-1.1-2c-0.1-0.1-0.3-0.3-0.3-0.5v-0.1c0.1,0,0.4,0,0.5,0
											c0.4-0.1,0.8-0.5,0.8-1.1c0-0.8-0.5-1.1-0.9-1.1c-0.3,0-0.4,0-0.7,0.1v4H209.6z"/>
										<path class="st2" d="M213.8,97.6c0,0.3,0,0.5,0,0.7s0.1,0.1,0.3,0.1h0.3v0.3c-0.3,0-0.5,0-0.9,0c-0.3,0-0.5,0-0.9,0v-0.3
											h0.3c0.1,0,0.3,0,0.3-0.1s0-0.3,0-0.7v-3.6c0-0.3,0-0.5,0-0.7c0-0.1-0.1-0.1-0.3-0.1h-0.3v-0.3c0.3,0,0.5,0,0.9,0
											c0.3,0,0.5,0,0.9,0v0.3H214c-0.1,0-0.3,0-0.3,0.1c0,0.1,0,0.3,0,0.7V97.6z"/>
										<path class="st2" d="M218.5,97.4c0,0.1,0.1,0.4,0.1,0.5c0,0.1,0.1,0.3,0.3,0.3h0.3v0.3c-0.3,0-0.5,0-0.8,0
											c-0.3,0-0.5,0-0.8,0v-0.3h0.3c0.1,0,0.3,0,0.3-0.1c0-0.1,0-0.3-0.1-0.5l-0.3-0.9h-1.7l-0.1,0.5c0,0.1-0.3,0.7-0.3,0.8
											c0,0.1,0.1,0.1,0.3,0.3h0.3v0.3c-0.3,0-0.5,0-0.7,0c-0.3,0-0.4,0-0.7,0v-0.3h0.3c0.1,0,0.3-0.1,0.3-0.4l1.1-3.2
											c0.1-0.5,0.4-1.2,0.5-1.7h0.1L218.5,97.4z M217.5,96.3l-0.8-2.4l-0.8,2.4H217.5z"/>
									</g>
									<g>
										<path class="st2" d="M192.6,108.2c0,0.3,0,0.5,0,0.7s0.1,0.1,0.3,0.1h0.3v0.3c-0.4,0-0.7,0-0.9,0s-0.7,0-0.9,0V109h0.3
											c0.1,0,0.3,0,0.3-0.1s0-0.3,0-0.7v-3.6l0,0c-0.1,0.3-0.1,0.4-0.3,0.7l-1.2,3.1c-0.1,0.3-0.3,0.7-0.4,1.1h-0.1l-1.9-4.7
											l0,0v3.6c0,0.3,0,0.5,0,0.7s0.1,0.1,0.3,0.1h0.3v0.3c-0.3,0-0.5,0-0.8,0s-0.5,0-0.8,0v-0.3h0.3c0.1,0,0.3,0,0.3-0.1
											s0-0.3,0-0.7v-3.6c0-0.3,0-0.5,0-0.7c0-0.1-0.1-0.1-0.3-0.1h-0.3v-0.3c0.3,0,0.4,0,0.7,0s0.4,0,0.7,0l1.7,4.6l1.7-4.6
											c0.3,0,0.4,0,0.7,0s0.4,0,0.7,0v0.3h-0.3c-0.1,0-0.3,0-0.3,0.1c0,0.1,0,0.3,0,0.7v3.5H192.6z"/>
										<path class="st2" d="M194.4,104.6c0-0.3,0-0.5,0-0.7c0-0.1-0.1-0.1-0.3-0.1h-0.3v-0.3c0.4,0,0.7,0,0.9,0s0.7,0,0.9,0v0.3
											h-0.3c-0.1,0-0.3,0-0.3,0.1c0,0.1,0,0.3,0,0.7v2.8c0,1.2,0.5,1.5,1.3,1.5c0.7,0,1.3-0.3,1.3-1.6v-2.6c0-0.3,0-0.5,0-0.7
											s-0.1-0.1-0.3-0.1h-0.3v-0.3c0.3,0,0.5,0,0.8,0s0.5,0,0.8,0v0.3h-0.3c-0.1,0-0.3,0-0.3,0.1s0,0.3,0,0.7v2.3
											c0,1.7-0.5,2.4-1.9,2.4c-1.1,0-1.7-0.4-1.7-1.9v-3H194.4z"/>
										<path class="st2" d="M200.6,104.7c0-0.3,0-0.5,0-0.8h-1.1c-0.1,0-0.3,0.1-0.3,0.3v0.7H199c0-0.4,0-0.9,0-1.3
											c0.5,0,0.9,0,1.5,0h0.9c0.5,0,0.9,0,1.5,0c0,0.4,0,0.8,0,1.3h-0.3v-0.7c0-0.1,0-0.3-0.3-0.3h-1.1c0,0.3,0,0.5,0,0.8v3.5
											c0,0.3,0,0.5,0,0.7s0.1,0.1,0.3,0.1h0.3v0.3c-0.4,0-0.7,0-0.9,0s-0.7,0-0.9,0V109h0.3c0.1,0,0.3,0,0.3-0.1s0-0.3,0-0.7
											v-3.5H200.6z"/>
										<path class="st2" d="M203.8,104.6c0-0.3,0-0.5,0-0.7c0-0.1-0.1-0.1-0.3-0.1h-0.3v-0.3c0.4,0,0.7,0,0.9,0s0.7,0,0.9,0v0.3
											h-0.3c-0.1,0-0.3,0-0.3,0.1c0,0.1,0,0.3,0,0.7v2.8c0,1.2,0.5,1.5,1.3,1.5c0.7,0,1.3-0.3,1.3-1.6v-2.6c0-0.3,0-0.5,0-0.7
											s-0.1-0.1-0.3-0.1h-0.3v-0.3c0.3,0,0.5,0,0.8,0s0.5,0,0.8,0v0.3h-0.3c-0.1,0-0.3,0-0.3,0.1s0,0.3,0,0.7v2.3
											c0,1.7-0.5,2.4-1.9,2.4c-1.1,0-1.7-0.4-1.7-1.9v-3H203.8z"/>
										<path class="st2" d="M211.5,108.1c0,0.1,0.1,0.4,0.3,0.5c0.1,0.1,0.1,0.3,0.3,0.3h0.3v0.3c-0.3,0-0.5,0-0.9,0
											c-0.3,0-0.5,0-0.9,0v-0.3h0.3c0.1,0,0.3,0,0.3-0.1c0-0.1-0.1-0.3-0.1-0.5l-0.3-0.9h-1.9l-0.1,0.5c0,0.1-0.3,0.7-0.3,0.8
											c0,0.1,0.1,0.3,0.3,0.3h0.3v0.3c-0.3,0-0.5,0-0.8,0s-0.5,0-0.8,0v-0.3h0.3c0.1,0,0.3-0.1,0.4-0.4l1.2-3.2
											c0.3-0.5,0.4-1.2,0.7-1.7h0.3L211.5,108.1z M210.4,107l-0.8-2.4l-0.8,2.4H210.4z"/>
										<path class="st2" d="M213.5,108.7c0.1,0,0.4,0,0.5,0c0.5,0,1.3,0,1.5-0.1c0-0.1,0.1-0.4,0.1-0.5l0.1-0.4h0.3
											c0,0.4-0.1,0.9-0.1,1.3c-0.3,0-0.8,0-1.3,0s-1.1,0-1.5,0c-0.3,0-0.4,0-0.5,0v-0.1l0.3-0.1c0.1-0.1,0.1-0.3,0.1-0.5v-3.9
											c0-0.3,0-0.5,0-0.7s-0.1-0.1-0.3-0.1h-0.3v-0.3c0.4,0,0.7,0,0.9,0s0.7,0,0.9,0v0.3H214c-0.1,0-0.3,0-0.3,0.1s0,0.3,0,0.7
											v4.4H213.5z"/>
										<path class="st2" d="M191.4,115.6c0,0.3,0,0.5,0,0.7c0,0.1,0.1,0.1,0.3,0.1h0.3v0.3c-0.4,0-0.7,0-0.9,0s-0.7,0-0.9,0v-0.3
											h0.3c0.1,0,0.3,0,0.3-0.1c0-0.1,0-0.3,0-0.7V112c0-0.3,0-0.5,0-0.7c0-0.1-0.1-0.1-0.3-0.1h-0.3v-0.3c0.4,0,0.7,0,1.1,0
											s1.1,0,1.5,0c0.3,0,0.5,0,0.8,0c-0.1,0.4-0.1,0.8-0.1,1.2H193v-0.5c0-0.1,0-0.1,0-0.3c-0.4-0.1-0.8-0.1-1.2-0.1
											c-0.1,0-0.4,0-0.5,0v2.2c0.3,0,0.4,0,0.8,0c0.4,0,0.7,0,0.7-0.1c0,0,0-0.1,0-0.3v-0.4h0.1c0,0.3,0,0.7,0,0.9s0,0.7,0,0.9
											h-0.1v-0.5c0-0.1,0-0.1,0-0.1c-0.1,0-0.3-0.1-0.7-0.1c-0.3,0-0.5,0-0.8,0v2H191.4z"/>
										<path class="st2" d="M194.5,112c0-0.3,0-0.5,0-0.7c0-0.1-0.1-0.1-0.3-0.1H194v-0.3c0.4,0,0.7,0,0.9,0s0.7,0,0.9,0v0.3
											h-0.3c-0.1,0-0.3,0-0.3,0.1c0,0.1,0,0.3,0,0.7v2.8c0,1.2,0.5,1.5,1.3,1.5c0.7,0,1.3-0.3,1.3-1.7V112c0-0.3,0-0.5,0-0.7
											c0-0.1-0.1-0.1-0.3-0.1h-0.3v-0.3c0.3,0,0.5,0,0.8,0s0.5,0,0.8,0v0.3h-0.3c-0.1,0-0.3,0-0.3,0.1c0,0.1,0,0.3,0,0.7v2.3
											c0,1.7-0.5,2.4-1.9,2.4c-1.1,0-1.7-0.4-1.7-1.9V112H194.5z"/>
										<path class="st2" d="M199.8,112c0-0.3,0-0.5,0-0.7c0-0.1-0.1-0.1-0.3-0.1h-0.3v-0.3c0.3,0,0.5,0,0.8,0c0.1,0,0.3,0,0.4,0
											l3.1,4.8l0,0V112c0-0.3,0-0.5,0-0.7c0-0.1-0.1-0.1-0.3-0.1H203v-0.3c0.3,0,0.5,0,0.8,0s0.5,0,0.8,0v0.3h-0.3
											c-0.1,0-0.3,0-0.3,0.1c0,0.1,0,0.3,0,0.7v4.4c0,0.1,0,0.3,0,0.3l-0.5-0.1l-3.1-4.7l0,0v3.8c0,0.3,0,0.5,0,0.7
											c0,0.1,0.1,0.1,0.3,0.1h0.3v0.3c-0.3,0-0.5,0-0.8,0s-0.5,0-0.8,0v-0.3h0.3c0.1,0,0.3,0,0.3-0.1c0-0.1,0-0.3,0-0.7V112
											H199.8z"/>
										<path class="st2" d="M205.4,112c0-0.3,0-0.5,0-0.7c0-0.1-0.1-0.1-0.3-0.1h-0.3v-0.3c0.4,0,0.8,0,1.3,0c0.4,0,0.8,0,1.2,0
											c1.3,0,2.4,0.9,2.4,2.4c0,1.3-0.7,2.4-1.5,2.8c-0.4,0.1-0.8,0.3-1.3,0.3c-0.3,0-0.5,0-0.8,0s-0.5,0-0.9,0v-0.1l0.1-0.1
											c0.1-0.1,0.1-0.3,0.1-0.5V112H205.4z M205.9,116.3c0.1,0,0.5,0,0.8,0s0.7,0,1.1-0.3c0.7-0.4,1.1-1.2,1.1-2.3
											c0-2-0.9-2.4-2.2-2.4c-0.3,0-0.5,0-0.8,0L205.9,116.3L205.9,116.3z"/>
										<path class="st2" d="M212.5,112.4V112c0-0.3,0-0.3-0.3-0.5c-0.1-0.1-0.4-0.1-0.7-0.1c-0.4,0-0.9,0.4-0.9,1.2
											c0,0.5,0.3,0.9,1.1,0.9c0.9,0.1,1.5,0.4,1.5,1.3c0,1.3-0.9,2-2,2c-0.4,0-0.9-0.1-1.1-0.3c0-0.4,0-0.8,0-1.2h0.3v0.5
											c0,0.4,0.5,0.7,1.1,0.7c0.5,0,1.2-0.4,1.2-1.2s-0.5-0.9-1.2-1.1c-1.1-0.1-1.5-0.5-1.5-1.3c0-1.2,0.9-1.9,1.7-1.9
											c0.5,0,0.9,0.3,1.2,0.4c-0.1,0.4-0.1,0.8-0.1,1.2h-0.3V112.4z"/>
									</g>
								</g>
								<g>
									<g>
										<path class="st2" d="M226.8,122.9h-4.6V96.5c0.8,1.1,1.5,2.3,2,3.4c0.5,1.1,0.9,2,1.1,2.7l0.1,0.3
											c0.4,1.1,1.3,4.3,1.3,6.9C226.8,109.5,226.8,122,226.8,122.9 M182,122.9V82.3c0-0.1,0-0.3,0-0.3c0-4.7,1.7-10.8,2.6-12.9
											l0.1-0.4c0.4-1.1,1.1-3,2.2-5c1.3-2.6,3-5.2,4.8-7.5c1.9-2.4,3.8-4.4,6.1-6.3c1.6-1.5,3.4-2.7,4-3.1
											c0.7,0.4,2.3,1.7,4,3.1c2.2,1.9,4.2,3.9,6.1,6.3c1.9,2.3,3.5,5,4.8,7.5c1.1,2,1.7,3.9,2.2,5l0.1,0.4
											c0.8,2.2,2.6,8.1,2.6,12.9v0.1v40.6C221.6,122.9,182,122.9,182,122.9z M222.2,86.5c0.4,0.9,0.7,1.9,0.9,2.4l0.3,0.5
											c0.9,2.4,2.7,8.3,3.2,13.9c-0.1-0.4-0.3-0.8-0.4-1.1l-0.1-0.3c-0.3-0.5-0.5-1.6-1.2-2.7c-0.7-1.3-1.6-2.8-2.7-4.2
											c-0.1-0.1-0.1-0.1-0.3-0.3v-8.3H222.2z M181.1,95c0,0.1-0.1,0.1-0.1,0.3c-0.9,1.2-1.9,2.7-2.7,4.2
											c-0.5,1.1-0.9,2.2-1.2,2.7l-0.1,0.3c-0.1,0.3-0.3,0.8-0.4,1.3c0.5-5.7,2.3-11.7,3.2-14l0.3-0.5c0.3-0.7,0.5-1.5,0.9-2.4
											V95H181.1z M181.1,122.9h-4.6c0-0.8,0-13.3,0-13.3c0-2.6,0.9-5.7,1.3-6.9l0.1-0.3c0.3-0.5,0.5-1.6,1.1-2.7
											c0.5-1.1,1.2-2.3,2-3.2V122.9z M227.8,123.8v-17c0-6.6-2.4-14.7-3.5-17.6l-0.3-0.5c-0.4-1.1-1.1-2.7-1.9-4.4v-2.2
											c0-4.8-1.7-11-2.6-13.2l0,0l-0.1-0.4c-0.4-1.1-1.1-3-2.2-5.1c-1.3-2.6-3.1-5.4-4.8-7.7c-1.9-2.4-3.9-4.4-6.2-6.5
											c-2.2-1.7-4.3-3.4-4.3-3.4l-0.3-0.1l-0.3,0.1c0,0-2.3,1.6-4.3,3.4c-2.3,1.9-4.2,4-6.2,6.5c-1.9,2.4-3.6,5.1-4.8,7.7
											c-1.1,2-1.7,3.9-2.2,5.1l-0.1,0.4c-0.8,2.2-2.6,8.3-2.6,13.2v2.2c-0.8,1.7-1.5,3.4-1.9,4.4l-0.3,0.5
											c-1.2,3-3.5,11.2-3.5,17.6v17H227.8z"/>
									</g>
									<g>
										<rect x="184.4" y="100.9" class="st2" width="34.6" height="0.3"/>
										<rect x="184.4" y="90.2" class="st2" width="34.6" height="0.3"/>
										<rect x="184.4" y="119" class="st2" width="34.6" height="0.3"/>
									</g>
								</g>
							</g>
						</g>
					</g>
				</g>
			</g>
			<g>
				<g>
					<g>
						<path class="st1" d="M279.7,35h18l20.7,46.3h5.9v9h-20.6v-9h4.3l-2.6-5.8h-20.9l-2.4,5.8h4.7v9h-20.6v-9h5.9l16.8-37.4h-9.4
							V35z M288.2,67.8h14.1l-7.1-16.6L288.2,67.8z"/>
						<path class="st1" d="M359,35h22.6v9H374l-20.3,46.3h-6.2L327.2,44h-7.7v-9h22.6v9h-4.4l13.1,30l13.1-30H359L359,35L359,35z"/>
						<path class="st1" d="M428.1,50.1v-6.2h-17.8v15.5h13.3v8.6h-13.3v13.3h17.9v-6.2h8.3v15.1h-42v-8.9h6.1V44h-6.1v-9h42v15.1
							H428.1z"/>
						<path class="st1" d="M487.6,35h13.3l21.7,40.1l21-40.1h13.3v9h-7.4l1.1,37.4h6.3v9h-21.8v-9.2h6.2l-0.4-24.4L525,90.3h-5.7
							l-16.1-32.8l-0.1,23.8h6.2v9h-21.8v-9h6.3l1.1-37.4h-7.4V35H487.6z"/>
						<path class="st1" d="M582.1,35h18l20.7,46.3h5.9v9h-20.6v-9h4.3l-2.6-5.8h-20.9l-2.4,5.8h4.7v9h-20.7v-9h5.9l16.8-37.4h-9.4
							V35H582.1z M590.6,67.8h14.1l-7.1-16.6L590.6,67.8z"/>
						<path class="st1" d="M638.3,35h23.8c14.7,0,22.1,8.1,22.1,19.6c0,8.6-4,15.2-11.2,18l6.6,8.6h7.1v9h-11.7l-11.8-16.1
							c-0.9,0.1-2,0.1-3,0.1h-6.1v7h5.9v9h-21.8v-9h6.1V44h-6.1L638.3,35L638.3,35z M654.2,44v21.7h7.3c9.2,0,12.2-4.8,12.2-10.9
							S670.6,44,661.5,44C661.5,44,654.2,44,654.2,44z"/>
						<path class="st1" d="M702,35h21.9v9h-6.1v37.3h6.1v9H702v-9h6.1V44H702V35z"/>
						<path class="st1" d="M750.6,35h18l20.9,46.3h5.9v9h-20.6v-9h4.3l-2.6-5.8h-20.9l-2.4,5.8h4.7v9h-20.6v-9h5.9l16.8-37.4h-9.4
							V35H750.6z M759.2,67.8h14.1l-7.1-16.6L759.2,67.8z"/>
					</g>
					<g>
						<path class="st0" d="M266.2,101.9h9.3l15.1,27.9l14.7-27.9h9.3v6.2h-5.1l0.7,26h4.4v6.2h-15.2V134h4.3l-0.1-17l-11,23.1h-4
							l-11.2-22.9l-0.1,16.6h4.3v6.2h-15.2v-6.2h4.4l0.8-26h-5.1v-6.1H266.2z"/>
						<path class="st0" d="M351.3,101.9h15.2v6.2h-4.2v16.3c0,11.4-6.5,16.7-16.1,16.7c-9.7,0-15.9-5.1-15.9-16.7v-16.1h-4.2V102
							h15.2v6.2h-4.2v16.3c0,7.3,3.4,10.4,9.2,10.4c5.8,0,9.4-3.1,9.4-10.5v-16.1h-4.2v-6.3H351.3z"/>
						<path class="st0" d="M384.8,134.2h4.2v-26h-7v4.3h-5.8V102h32.3v10.5h-5.8v-4.3h-6.9v26h4.2v6.2h-15.2V134.2z"/>
						<path class="st0" d="M443.2,101.9h15.2v6.2h-4.2v16.3c0,11.4-6.5,16.7-16.1,16.7s-15.9-5.1-15.9-16.7v-16.1H418V102h15.2v6.2
							h-4.2v16.3c0,7.3,3.4,10.4,9.2,10.4c5.8,0,9.4-3.1,9.4-10.5v-16.1h-4.2v-6.3H443.2z"/>
						<path class="st0" d="M474.6,101.9h12.6l14.4,32.2h4.2v6.2h-14.3V134h3l-1.7-4h-14.5l-1.7,4h3.2v6.2h-14.4V134h4.2l11.7-26
							h-6.6L474.6,101.9L474.6,101.9z M480.5,124.7h9.8l-5-11.4L480.5,124.7z"/>
						<path class="st0" d="M514.5,140.3v-6.2h4.2v-26h-4.2V102h16.8v6.2h-5.9v26h12.4v-4.3h5.8v10.5
							C543.6,140.3,514.5,140.3,514.5,140.3z"/>
						<path class="st0" d="M599.2,112.4v-4.2h-12.5v11.2h9.4v6.1h-9.4v8.7h6.9v6.2h-17.8v-6.2h4.2v-26h-4.2V102H605v10.5h-5.8V112.4
							z"/>
						<path class="st0" d="M639.5,101.9h15.2v6.2h-4.2v16.3c0,11.4-6.5,16.7-16.1,16.7s-15.9-5.1-15.9-16.7v-16.1h-4.2V102h15.2v6.2
							h-4.2v16.3c0,7.3,3.4,10.4,9.2,10.4c5.8,0,9.4-3.1,9.4-10.5v-16.1h-4.2v-6.3H639.5z"/>
						<path class="st0" d="M692.3,101.9h15.2v6.2h-4.2v32.2h-5.1L677.4,115v19h4.2v6.2h-15.2V134h4.2v-25.8h-4.2V102h8.2l21.9,25.7
							v-19.5h-4.2V101.9z"/>
						<path class="st0" d="M719.6,101.9h18.7c12,0,20.6,8.1,20.6,19.2c0,11-8.7,19.2-20.6,19.2h-18.7v-6.2h4.2v-26h-4.2V101.9z
							 M730.7,108.2v26h7.7c7.4,0,13.2-5.4,13.2-12.9s-5.5-13.1-13.2-13.1C738.3,108.2,730.7,108.2,730.7,108.2z"/>
						<path class="st0" d="M776,128.4v0.7c0,4.4,3.9,5.7,7.5,5.7c4.4,0,6.3-2.3,6.3-4.7c0-2.6-1.5-4-8.3-6.7
							c-7.5-2.8-10.1-6.6-10.1-11.4c0-5.5,4.3-10.6,11.8-10.6c5,0,6.6,2.8,6.7,3.1l-0.5-2.4h6.2v11.3h-6.2v-1.7
							c-0.3-3.2-2.8-4-5.9-4c-3.8,0-5.4,2-5.4,4.4c0,2.7,2,4.4,7.5,6.5c8.6,3.4,11,6.7,11,11.7c0,6.9-5.2,11-11.8,11
							c-7.5,0-9.4-3.8-9.4-3.8l0.5,3.2h-6.2v-12h6.2V128.4z"/>
					</g>
				</g>
			</g>
		</g>
	</g>
	<rect x="161.9" y="20.8" class="st3" width="634.1" height="134.3"/>
</g>
</svg>
