<?xml version="1.0" encoding="utf-8"?>
<!-- Generator: Adobe Illustrator 23.0.2, SVG Export Plug-In . SVG Version: 6.00 Build 0)  -->
<svg version="1.1" id="Layer_1" xmlns="http://www.w3.org/2000/svg" xmlns:xlink="http://www.w3.org/1999/xlink" x="0px" y="0px"
	 viewBox="0 0 483 182" style="enable-background:new 0 0 483 182;" xml:space="preserve">
<style type="text/css">
	.st0{fill:#29A7DE;stroke:#FFFFFF;stroke-width:3;stroke-miterlimit:10;}
	.st1{enable-background:new    ;}
	.st2{fill:#FFFFFF;}
</style>
<title>v</title>
<path class="st0" d="M55.7,83.7h371.7c20.7,0,37.5,16.8,37.5,37.4v0c0,20.7-16.8,37.4-37.5,37.4H55.7c-20.7,0-37.5-16.8-37.5-37.4v0
	C18.2,100.4,35,83.7,55.7,83.7z"/>
<g class="st1">
	<path class="st2" d="M80,110.1h8.6v3.5h-2.4v14.6h2.4v3.5H80v-3.5h2.4v-14.6H80V110.1z"/>
	<path class="st2" d="M110.6,110.1h8.6v3.5h-2.4v18.2h-2.9l-11.7-14.2v10.7h2.4v3.5H96v-3.5h2.4v-14.6H96v-3.5h4.6l12.4,14.5v-10.9
		h-2.4V110.1z"/>
	<path class="st2" d="M139.5,110.1h8.9v3.5h-3l-8,18.2h-2.4l-8-18.2h-3v-3.5h8.9v3.5h-1.8l5.1,11.7l5.1-11.7h-1.9V110.1z"/>
	<path class="st2" d="M167,116v-2.4h-7v6.1h5.2v3.4H160v5.2h7v-2.4h3.3v5.9h-16.5v-3.5h2.4v-14.6h-2.4v-3.5h16.5v5.9H167z"/>
	<path class="st2" d="M180.7,124.9v0.4c0,2.5,2.2,3.2,4.2,3.2c2.5,0,3.6-1.3,3.6-2.7c0-1.4-0.8-2.3-4.7-3.8
		c-4.2-1.6-5.7-3.7-5.7-6.4c0-3.1,2.4-6,6.7-6c2.8,0,3.7,1.6,3.8,1.8l-0.3-1.4h3.5l0,6.4h-3.5v-1c-0.2-1.8-1.6-2.3-3.3-2.3
		c-2.2,0-3,1.1-3,2.5c0,1.5,1.2,2.4,4.2,3.7c4.8,1.9,6.2,3.8,6.2,6.6c0,3.9-2.9,6.2-6.7,6.2c-4.2,0-5.3-2.2-5.3-2.2l0.3,1.8h-3.5
		l0-6.8H180.7z"/>
	<path class="st2" d="M203.3,128.2h2.3v-14.6h-4v2.4h-3.3v-5.9h18.2v5.9h-3.3v-2.4h-3.9v14.6h2.4v3.5h-8.6V128.2z"/>
	<path class="st2" d="M222.9,110.1h5.2l8.5,15.7l8.3-15.7h5.2v3.5h-2.9l0.4,14.6h2.5v3.5h-8.5v-3.5h2.4l-0.1-9.6l-6.2,13.1h-2.2
		l-6.3-12.9l-0.1,9.3h2.4v3.5h-8.5v-3.5h2.5l0.4-14.6h-2.9V110.1z"/>
	<path class="st2" d="M270.7,116v-2.4h-7v6.1h5.2v3.4h-5.2v5.2h7v-2.4h3.3v5.9h-16.5v-3.5h2.4v-14.6h-2.4v-3.5H274v5.9H270.7z"/>
	<path class="st2" d="M295.9,110.1h8.6v3.5h-2.4v18.2h-2.9l-11.7-14.2v10.7h2.4v3.5h-8.6v-3.5h2.4v-14.6h-2.4v-3.5h4.6l12.4,14.5
		v-10.9h-2.4V110.1z"/>
</g>
<g class="st1">
	<path class="st2" d="M315.3,128.2h2.3v-14.6h-4v2.4h-3.3v-5.9h18.2v5.9h-3.3v-2.4h-3.9v14.6h2.4v3.5h-8.6V128.2z"/>
</g>
<g class="st1">
	<path class="st2" d="M358.1,128.2h1.4l-5.9-5.8v5.8h1.9v3.5h-8.1v-3.5h2.4v-14.6h-2.4v-3.5h8.1v3.5h-1.9v7.1l6.2-7.1h-1.6v-3.5h8.9
		v3.5h-2.7l-6.9,7.9l6.9,6.8h2.7v3.5h-8.9V128.2z"/>
	<path class="st2" d="M373.6,110.1h8.6v3.5h-2.4v14.6h2.4v3.5h-8.6v-3.5h2.4v-14.6h-2.4V110.1z"/>
</g>
<g class="st1">
	<path class="st2" d="M393.3,128.2h2.3v-14.6h-4v2.4h-3.3v-5.9h18.2v5.9h-3.3v-2.4h-3.9v14.6h2.4v3.5h-8.6V128.2z"/>
</g>
<g class="st1">
	<path class="st2" d="M99.9,35.3c-0.1-2.2-2-4.1-5.5-4.1c-4.4,0-7.1,3.2-7.1,7.6c0,4.3,3.3,7.6,7.8,7.6c2,0,3.8-0.4,4.9-0.9v-3.9h-6
		v-3.4h9.7v9.3c0,0-3.2,2.5-8.4,2.5c-7.3,0-12.2-4.8-12.2-11.2c0-6.3,4.8-11.2,10.6-11.2c5.3,0,6.2,2.2,6.3,2.6l-0.2-2.6h3.5v7.7
		H99.9z"/>
	<path class="st2" d="M121.5,33.9v-2.4h-7v6.1h5.2V41h-5.2v5.2h7v-2.4h3.3v5.9h-16.5v-3.5h2.4V31.5h-2.4V28h16.5v5.9H121.5z"/>
</g>
<g class="st1">
	<path class="st2" d="M132.8,46.1h2.3V31.5h-4v2.4h-3.3V28h18.2v5.9h-3.3v-2.4H139v14.6h2.4v3.5h-8.6V46.1z"/>
</g>
<g class="st1">
	<path class="st2" d="M161.7,42.9v0.4c0,2.5,2.2,3.2,4.2,3.2c2.5,0,3.6-1.3,3.6-2.7c0-1.4-0.8-2.3-4.7-3.8c-4.2-1.6-5.7-3.7-5.7-6.4
		c0-3.1,2.4-6,6.7-6c2.8,0,3.7,1.6,3.8,1.8l-0.3-1.4h3.5l0,6.4h-3.5v-1c-0.2-1.8-1.6-2.3-3.3-2.3c-2.2,0-3,1.1-3,2.5
		c0,1.5,1.2,2.4,4.2,3.7c4.8,1.9,6.2,3.8,6.2,6.6c0,3.9-2.9,6.2-6.7,6.2c-4.2,0-5.3-2.2-5.3-2.2l0.3,1.8h-3.5l0-6.8H161.7z"/>
</g>
<g class="st1">
	<path class="st2" d="M181.3,46.1h2.3V31.5h-4v2.4h-3.3V28h18.2v5.9h-3.3v-2.4h-3.9v14.6h2.4v3.5h-8.6V46.1z"/>
</g>
<g class="st1">
	<path class="st2" d="M194.3,46.1h2.3l8.1-18.2h1.8l8.1,18.2h2.3v3.5h-8v-3.5h1.7l-1-2.2h-8.2l-1,2.2h1.8v3.5h-8.1V46.1z
		 M202.8,40.8h5.5l-2.8-6.5L202.8,40.8z"/>
</g>
<g class="st1">
	<path class="st2" d="M219.4,28h9.3c5.8,0,8.7,3.2,8.7,7.7c0,3-1.2,5.4-4.1,6.7c1.7,1.4,2.1,3.9,4.7,3.9h0.9v3.4
		c0,0-0.8,0.2-2.1,0.2c-5.4,0-5.1-5-7.7-6.4c-0.4,0-0.7,0-1.1,0h-2.4v2.8h3v3.5h-9.1v-3.5h2.3V31.5h-2.3V28z M225.5,31.5V40h2.8
		c3.6,0,4.8-1.9,4.8-4.3s-1.2-4.2-4.8-4.2H225.5z"/>
</g>
<g class="st1">
	<path class="st2" d="M245.9,46.1h2.3V31.5h-4v2.4H241V28h18.2v5.9h-3.3v-2.4h-3.9v14.6h2.4v3.5h-8.6V46.1z"/>
	<path class="st2" d="M275.6,33.9v-2.4h-7v6.1h5.2V41h-5.2v5.2h7v-2.4h3.3v5.9h-16.5v-3.5h2.4V31.5h-2.4V28h16.5v5.9H275.6z"/>
	<path class="st2" d="M283.1,28h10.5c6.7,0,11.6,4.5,11.6,10.8c0,6.2-5,10.8-11.6,10.8h-10.5v-3.5h2.4V31.5h-2.4V28z M289.4,31.5
		v14.6h4.3c4.2,0,7.5-3.1,7.5-7.3c0-4.3-3.1-7.4-7.5-7.4H289.4z"/>
</g>
<g class="st1">
	<path class="st2" d="M333.9,28h8.6v3.5h-2.4v18.2h-2.9l-11.7-14.2v10.7h2.4v3.5h-8.6v-3.5h2.4V31.5h-2.4V28h4.6l12.4,14.5V31.5
		h-2.4V28z"/>
</g>
<g class="st1">
	<path class="st2" d="M357.2,27.6c6.7,0,11.6,4.7,11.6,11.2c0,6.4-5,11.2-11.6,11.2s-11.6-4.8-11.6-11.2
		C345.7,32.6,350.7,27.6,357.2,27.6z M357.2,46.6c4.2,0,7.5-3.4,7.5-7.8c0-4.4-3.1-7.8-7.5-7.8c-4.3,0-7.5,3.4-7.5,7.8
		C349.8,43.2,353,46.6,357.2,46.6z"/>
</g>
<g class="st1">
	<path class="st2" d="M379.3,31.5h-2.2l3.1,10.9l5.4-14.4h2.2l5.4,14.4v0.1l3.1-10.9H394V28h8.9v3.5h-2.5l-5.5,18.2h-2.6l-5.6-14.4
		l-5.5,14.4h-2.5L373,31.5h-2.6V28h8.9V31.5z"/>
</g>
</svg>
