<svg id="Layer_1" data-name="Layer 1" xmlns="http://www.w3.org/2000/svg" viewBox="0 0 1099.25 131.33"><defs><style>.cls-1{fill:#21448d;}.cls-2{fill:#fff;}.cls-3{fill:#a27e2d;}</style></defs><title>hg-smart-investing</title><rect class="cls-1" x="-4.76" y="-5.08" width="1108.76" height="141.49"/><path class="cls-2" d="M143.53,70.3v.44c0,2.7,2.43,3.47,4.62,3.47,2.7,0,3.91-1.38,3.91-2.9s-.88-2.53-5.16-4.11c-4.62-1.76-6.21-4.08-6.21-7.05,0-3.37,2.64-6.55,7.29-6.55,3.07,0,4.05,1.76,4.15,1.93l-.3-1.52h3.77l0,7h-3.78V59.88c-.17-2-1.75-2.53-3.64-2.53-2.36,0-3.31,1.25-3.31,2.7,0,1.65,1.28,2.66,4.62,4,5.3,2.06,6.82,4.15,6.82,7.25,0,4.22-3.21,6.82-7.32,6.82-4.63,0-5.77-2.36-5.77-2.36l.3,2h-3.78l0-7.42Z"/><path class="cls-2" d="M163.87,54h5.7l9.27,17.17,9-17.17h5.7v3.85h-3.17l.44,16h2.7v3.84h-9.34V73.88h2.63l-.07-10.46L180,77.72h-2.47l-6.88-14.06-.07,10.22h2.67v3.84h-9.34V73.88h2.69l.48-16h-3.17Z"/><path class="cls-2" d="M199.15,73.88h2.56L210.61,54h2l8.91,19.87H224v3.84h-8.8V73.88h1.82L216,71.41H207l-1,2.47h2v3.84h-8.87Zm9.34-5.8h6.07l-3-7.09Z"/><path class="cls-2" d="M229.67,54h10.15c6.31,0,9.48,3.47,9.48,8.43a7.39,7.39,0,0,1-4.48,7.29c1.85,1.58,2.32,4.21,5.19,4.21h1v3.72a11.28,11.28,0,0,1-2.27.2c-5.9,0-5.56-5.43-8.43-7-.4,0-.81,0-1.25,0h-2.59v3h3.23v3.84h-10V73.88h2.56v-16h-2.56Zm6.75,3.85v9.27h3.1c3.91,0,5.26-2.09,5.26-4.69s-1.31-4.58-5.26-4.58Z"/><path class="cls-2" d="M261.71,73.88h2.57v-16h-4.35v2.63h-3.58V54h19.94v6.48h-3.58V57.86h-4.22v16h2.6v3.84h-9.38Z"/><path class="cls-2" d="M296.05,54h9.38v3.85h-2.6v16h2.6v3.84h-9.38V73.88h2.6v-16h-2.6Z"/><path class="cls-2" d="M329.2,54h9.38v3.85H336V77.72h-3.13L320,62.17V73.88h2.59v3.84h-9.37V73.88h2.59v-16h-2.59V54h5.06L331.8,69.83v-12h-2.6Z"/><path class="cls-2" d="M360.54,54h9.71v3.85H367l-8.7,19.86h-2.63L347,57.86h-3.31V54h9.72v3.85h-2L357,70.71l5.6-12.85h-2.09Z"/><path class="cls-2" d="M390.22,60.49V57.86h-7.66V64.5h5.74v3.71h-5.74v5.67h7.66V71.25h3.57v6.47h-18V73.88h2.6v-16h-2.6V54h18v6.48Z"/><path class="cls-2" d="M404.92,70.3v.44c0,2.7,2.43,3.47,4.62,3.47,2.7,0,3.92-1.38,3.92-2.9s-.88-2.53-5.16-4.11c-4.62-1.76-6.21-4.08-6.21-7.05,0-3.37,2.63-6.55,7.29-6.55,3.07,0,4,1.76,4.15,1.93L413.22,54H417l0,7h-3.78V59.88c-.16-2-1.75-2.53-3.64-2.53-2.36,0-3.3,1.25-3.3,2.7,0,1.65,1.28,2.66,4.62,4,5.29,2.06,6.81,4.15,6.81,7.25,0,4.22-3.2,6.82-7.32,6.82-4.62,0-5.77-2.36-5.77-2.36l.31,2h-3.78l0-7.42Z"/><path class="cls-2" d="M429.34,73.88h2.57v-16h-4.35v2.63H424V54h19.93v6.48h-3.57V57.86h-4.22v16h2.6v3.84h-9.38Z"/><path class="cls-2" d="M450.46,54h9.37v3.85h-2.59v16h2.59v3.84h-9.37V73.88h2.59v-16h-2.59Z"/><path class="cls-2" d="M483.61,54H493v3.85h-2.6V77.72h-3.13L474.4,62.17V73.88H477v3.84h-9.38V73.88h2.6v-16h-2.6V54h5.06l13.53,15.82v-12h-2.6Z"/><path class="cls-2" d="M517.75,62c-.11-2.4-2.23-4.49-6-4.49-4.86,0-7.8,3.51-7.8,8.37a8.19,8.19,0,0,0,8.57,8.26,16.09,16.09,0,0,0,5.4-.94V69h-6.61V65.28H522V75.43a16.19,16.19,0,0,1-9.18,2.7c-8,0-13.36-5.26-13.36-12.28,0-6.85,5.3-12.25,11.61-12.25,5.8,0,6.78,2.4,6.91,2.87l-.27-2.87h3.81V62Z"/><path class="cls-3" d="M563.48,83.78c-4.64,3.32-10,5.75-15.91,5.75-11.71,0-18.34-6.7-18.34-14.66s4.94-11.56,10.53-14.14c-4-3.9-5.67-7.73-5.67-11.34,0-8.77,6.48-13.85,15.32-13.85s14.66,5.16,14.66,12.74c0,8.4-4.94,11.94-10.39,14.29l11.05,10.24a58,58,0,0,0,6.41-10.61v-.07h9.94v8.4h-5.67A72.24,72.24,0,0,1,570,78.19l1.84,1.91H578v8.4H568Zm-5.38-5.37-13-12.23c-3.54,1.7-6.19,3.9-6.19,8,0,4.71,3.53,7.44,9.43,7.44A18.11,18.11,0,0,0,558.1,78.41Zm-9.65-21.29c4-1.76,7.07-3.83,7.07-7.73,0-3.46-2.21-6.41-6.11-6.41s-6.19,2.87-6.19,6.41C543.22,52.19,545.43,54.32,548.45,57.12Z"/><path class="cls-2" d="M599.91,76.14a15.31,15.31,0,0,1-7.92,2c-7.66,0-13.33-5-13.33-12.28,0-6.85,5.3-12.25,11.61-12.25,5.8,0,6.78,2.4,6.91,2.87L596.91,54h3.78l0,8H597c-.14-2.77-2.84-4.49-6-4.49-4.86,0-7.8,3.51-7.8,8.37a8.27,8.27,0,0,0,8.2,8.26c4.79,0,7.25-1.62,7.25-1.62Z"/><path class="cls-2" d="M605.71,73.88h2.57L617.18,54h2L628,73.88h2.57v3.84H621.8V73.88h1.83l-1.08-2.47h-8.94l-1.05,2.47h2v3.84h-8.88Zm9.35-5.8h6.07l-3-7.09Z"/><path class="cls-2" d="M638.57,73.88h2.56v-16h-4.35v2.63H633.2V54h19.94v6.48h-3.58V57.86h-4.21v16h2.59v3.84h-9.37Z"/><path class="cls-2" d="M675.43,54h9.38v3.85h-2.6v16h2.57v3.84h-9.35V73.88H678v-5.5H666.46v5.5H669v3.84h-9.34V73.88h2.6v-16h-2.6V54h9.38v3.85h-2.6v6.81H678V57.86h-2.6Z"/><path class="cls-2" d="M704.27,53.6c7.35,0,12.68,5.17,12.68,12.25s-5.43,12.24-12.68,12.24-12.65-5.22-12.65-12.24A12.32,12.32,0,0,1,704.27,53.6Zm0,20.82a8.21,8.21,0,0,0,8.17-8.5c0-4.86-3.41-8.54-8.17-8.54s-8.16,3.68-8.16,8.54A8.25,8.25,0,0,0,704.3,74.42Z"/><path class="cls-2" d="M723.8,77.72V73.88h2.6v-16h-2.6V54h10.39v3.85h-3.61v16h7.66V71.25h3.57v6.47Z"/><path class="cls-2" d="M748.29,54h9.37v3.85h-2.59v16h2.59v3.84h-9.37V73.88h2.59v-16h-2.59Z"/><path class="cls-2" d="M785.73,76.14a15.37,15.37,0,0,1-7.93,2c-7.66,0-13.32-5-13.32-12.28,0-6.85,5.29-12.25,11.6-12.25,5.8,0,6.78,2.4,6.91,2.87L782.72,54h3.78l0,8h-3.78c-.14-2.77-2.84-4.49-6-4.49-4.86,0-7.79,3.51-7.79,8.37a8.26,8.26,0,0,0,8.19,8.26c4.79,0,7.25-1.62,7.25-1.62Z"/><path class="cls-2" d="M821.28,54H831v3.85h-3.24l-8.7,19.86h-2.63l-8.7-19.86h-3.31V54h9.71v3.85h-2l5.6,12.85,5.6-12.85h-2.09Z"/><path class="cls-2" d="M831.9,73.88h2.56L843.37,54h2l8.91,19.87h2.56v3.84H848V73.88h1.82l-1.08-2.47h-8.94l-1,2.47h2v3.84H831.9Zm9.34-5.8h6.07l-3-7.09Z"/><path class="cls-2" d="M862.39,77.72V73.88H865v-16h-2.6V54h10.39v3.85h-3.61v16h7.66V71.25h3.57v6.47Z"/><path class="cls-2" d="M901,54h9.37v3.85h-2.59v10c0,7.08-4,10.25-10,10.25S888,75,888,67.91v-10h-2.6V54h9.38v3.85h-2.6v10c0,4.52,2.06,6.41,5.64,6.41s5.76-1.89,5.76-6.45v-10H901Z"/><path class="cls-2" d="M932,60.49V57.86h-7.65V64.5h5.73v3.71h-5.73v5.67H932V71.25h3.58v6.47h-18V73.88h2.59v-16h-2.59V54h18v6.48Z"/><path class="cls-2" d="M946.68,70.3v.44c0,2.7,2.43,3.47,4.62,3.47,2.7,0,3.91-1.38,3.91-2.9s-.87-2.53-5.16-4.11c-4.62-1.76-6.21-4.08-6.21-7.05,0-3.37,2.64-6.55,7.29-6.55,3.07,0,4,1.76,4.15,1.93L955,54h3.77l0,7H955V59.88c-.17-2-1.76-2.53-3.64-2.53-2.37,0-3.31,1.25-3.31,2.7,0,1.65,1.28,2.66,4.62,4,5.3,2.06,6.82,4.15,6.82,7.25,0,4.22-3.21,6.82-7.32,6.82-4.63,0-5.77-2.36-5.77-2.36l.3,2h-3.78l0-7.42Z"/></svg>