<svg id="Layer_1" data-name="Layer 1" xmlns="http://www.w3.org/2000/svg" viewBox="0 0 1108.76 141.49"><defs><style>.cls-1{fill:#21448d;}.cls-2{fill:#fff;}.cls-3{fill:#a27e2d;}</style></defs><title>hg-smart-investing-sm</title><rect class="cls-1" width="1108.76" height="141.49"/><path class="cls-2" d="M229.62,74.28v.35c0,2.16,1.94,2.78,3.7,2.78,2.16,0,3.13-1.11,3.13-2.32s-.7-2-4.13-3.29c-3.7-1.4-5-3.27-5-5.64,0-2.7,2.1-5.23,5.82-5.23,2.46,0,3.24,1.4,3.32,1.54l-.24-1.22h3l0,5.59h-3V66c-.14-1.6-1.41-2-2.92-2-1.89,0-2.64,1-2.64,2.16,0,1.32,1,2.13,3.69,3.21,4.24,1.65,5.45,3.32,5.45,5.8,0,3.37-2.56,5.45-5.85,5.45-3.7,0-4.61-1.89-4.61-1.89l.24,1.56h-3l0-5.93Z"/><path class="cls-2" d="M245.89,61.25h4.56L257.86,75l7.23-13.73h4.56v3.08h-2.53l.35,12.81h2.15v3.07h-7.47V77.14h2.11l-.06-8.36-5.45,11.43h-2L251.28,69l-.05,8.17h2.13v3.07h-7.47V77.14H248l.38-12.81h-2.53Z"/><path class="cls-2" d="M274.1,77.14h2l7.12-15.89h1.57L292,77.14H294v3.07h-7V77.14h1.45l-.86-2h-7.15l-.83,2h1.61v3.07H274.1Zm7.47-4.64h4.86L284,66.84Z"/><path class="cls-2" d="M298.51,61.25h8.12c5.05,0,7.58,2.78,7.58,6.75a5.9,5.9,0,0,1-3.59,5.82c1.49,1.27,1.86,3.37,4.16,3.37h.75v3a8.89,8.89,0,0,1-1.8.16c-4.73,0-4.46-4.34-6.75-5.63-.32,0-.65,0-1,0h-2.07v2.43h2.59v3.07h-8V77.14h2.05V64.33h-2.05Zm5.4,3.08v7.41h2.48c3.13,0,4.21-1.67,4.21-3.74s-1.06-3.67-4.21-3.67Z"/><path class="cls-2" d="M324.14,77.14h2.05V64.33h-3.48v2.1h-2.86V61.25h15.94v5.18h-2.86v-2.1h-3.37V77.14h2.07v3.07h-7.49Z"/><path class="cls-2" d="M351.59,61.25h7.5v3.08H357V77.14h2.07v3.07h-7.5V77.14h2.08V64.33h-2.08Z"/><path class="cls-2" d="M378.11,61.25h7.5v3.08h-2.08V80.21H381L370.75,67.78v9.36h2.07v3.07h-7.5V77.14h2.08V64.33h-2.08V61.25h4.05L380.19,73.9V64.33h-2.08Z"/><path class="cls-2" d="M403.17,61.25h7.77v3.08h-2.59l-7,15.88h-2.11l-7-15.88h-2.64V61.25h7.77v3.08h-1.57l4.48,10.27,4.48-10.27h-1.67Z"/><path class="cls-2" d="M426.9,66.43v-2.1h-6.12v5.31h4.59v3h-4.59v4.53h6.12V75h2.86v5.17h-14.4V77.14h2.07V64.33h-2.07V61.25h14.4v5.18Z"/><path class="cls-2" d="M438.66,74.28v.35c0,2.16,1.94,2.78,3.7,2.78,2.16,0,3.13-1.11,3.13-2.32s-.7-2-4.13-3.29c-3.7-1.4-5-3.27-5-5.64,0-2.7,2.1-5.23,5.82-5.23,2.46,0,3.24,1.4,3.32,1.54l-.24-1.22h3l0,5.59h-3V66c-.13-1.6-1.4-2-2.91-2-1.89,0-2.64,1-2.64,2.16,0,1.32,1,2.13,3.69,3.21,4.24,1.65,5.45,3.32,5.45,5.8,0,3.37-2.56,5.45-5.85,5.45-3.7,0-4.61-1.89-4.61-1.89l.24,1.56h-3l0-5.93Z"/><path class="cls-2" d="M458.19,77.14h2.05V64.33h-3.48v2.1H453.9V61.25h15.94v5.18H467v-2.1h-3.37V77.14h2.08v3.07h-7.5Z"/><path class="cls-2" d="M475.08,61.25h7.49v3.08H480.5V77.14h2.07v3.07h-7.49V77.14h2.07V64.33h-2.07Z"/><path class="cls-2" d="M501.59,61.25h7.5v3.08H507V80.21H504.5L494.23,67.78v9.36h2.07v3.07h-7.5V77.14h2.08V64.33H488.8V61.25h4.05L503.67,73.9V64.33h-2.08Z"/><path class="cls-2" d="M528.89,67.67c-.08-1.91-1.78-3.59-4.78-3.59-3.88,0-6.23,2.81-6.23,6.69a6.54,6.54,0,0,0,6.85,6.61,13,13,0,0,0,4.32-.75V73.26h-5.29v-3h8.53v8.12A13,13,0,0,1,525,80.54c-6.42,0-10.68-4.21-10.68-9.82a9.55,9.55,0,0,1,9.28-9.79c4.64,0,5.42,1.91,5.53,2.29l-.22-2.29h3v6.74Z"/><path class="cls-3" d="M565.46,85.06c-3.71,2.65-8,4.6-12.72,4.6-9.37,0-14.67-5.36-14.67-11.72s3.95-9.25,8.42-11.31c-3.18-3.12-4.53-6.19-4.53-9.07,0-7,5.18-11.08,12.25-11.08s11.72,4.13,11.72,10.19c0,6.72-3.95,9.54-8.3,11.43l8.83,8.19a47.19,47.19,0,0,0,5.13-8.49v0h7.95v6.71H575a56,56,0,0,1-4.36,6.13l1.48,1.53h4.94v6.71h-7.95Zm-4.3-4.3L550.74,71c-2.83,1.35-5,3.12-5,6.42,0,3.76,2.82,5.94,7.54,5.94A14.5,14.5,0,0,0,561.16,80.76Zm-7.72-17c3.18-1.41,5.66-3.06,5.66-6.18a4.92,4.92,0,1,0-9.84,0C549.26,59.79,551,61.5,553.44,63.74Z"/><path class="cls-2" d="M594.6,79a12.27,12.27,0,0,1-6.34,1.59c-6.12,0-10.66-4-10.66-9.82a9.55,9.55,0,0,1,9.28-9.79c4.64,0,5.42,1.91,5.53,2.29l-.21-2h3l0,6.42h-3c-.1-2.21-2.26-3.59-4.77-3.59-3.88,0-6.23,2.81-6.23,6.69a6.6,6.6,0,0,0,6.55,6.61,11.24,11.24,0,0,0,5.8-1.29Z"/><path class="cls-2" d="M599.24,77.14h2l7.12-15.89H610l7.12,15.89h2v3.07h-7V77.14h1.46l-.86-2h-7.15l-.84,2h1.62v3.07h-7.09Zm7.47-4.64h4.85l-2.42-5.66Z"/><path class="cls-2" d="M625.51,77.14h2V64.33h-3.48v2.1h-2.86V61.25h15.94v5.18H634.3v-2.1h-3.37V77.14H633v3.07h-7.5Z"/><path class="cls-2" d="M655,61.25h7.5v3.08h-2.08V77.14h2.05v3.07H655V77.14h2.08v-4.4h-9.26v4.4h2.05v3.07h-7.47V77.14h2.08V64.33h-2.08V61.25h7.5v3.08h-2.08v5.45h9.26V64.33H655Z"/><path class="cls-2" d="M678.05,60.93c5.88,0,10.14,4.12,10.14,9.79s-4.34,9.79-10.14,9.79-10.11-4.18-10.11-9.79A9.84,9.84,0,0,1,678.05,60.93Zm0,16.64a6.56,6.56,0,0,0,6.53-6.8,6.54,6.54,0,1,0-13.06,0A6.59,6.59,0,0,0,678.08,77.57Z"/><path class="cls-2" d="M693.67,80.21V77.14h2.08V64.33h-2.08V61.25H702v3.08h-2.89V77.14h6.12V75h2.86v5.17Z"/><path class="cls-2" d="M713.25,61.25h7.5v3.08h-2.08V77.14h2.08v3.07h-7.5V77.14h2.08V64.33h-2.08Z"/><path class="cls-2" d="M743.19,79a12.27,12.27,0,0,1-6.34,1.59c-6.12,0-10.65-4-10.65-9.82a9.55,9.55,0,0,1,9.28-9.79c4.64,0,5.42,1.91,5.53,2.29l-.22-2h3l0,6.42h-3c-.11-2.21-2.27-3.59-4.78-3.59-3.88,0-6.23,2.81-6.23,6.69a6.61,6.61,0,0,0,6.56,6.61,11.24,11.24,0,0,0,5.8-1.29Z"/><path class="cls-2" d="M771.62,61.25h7.77v3.08H776.8l-7,15.88h-2.1l-7-15.88h-2.65V61.25h7.77v3.08h-1.56l4.48,10.27,4.47-10.27h-1.67Z"/><path class="cls-2" d="M780.12,77.14h2l7.12-15.89h1.56L798,77.14h2v3.07h-7V77.14h1.46l-.86-2h-7.15l-.84,2h1.62v3.07h-7.09Zm7.47-4.64h4.85L790,66.84Z"/><path class="cls-2" d="M804.5,80.21V77.14h2.08V64.33H804.5V61.25h8.31v3.08h-2.89V77.14h6.13V75h2.86v5.17Z"/><path class="cls-2" d="M835.36,61.25h7.5v3.08h-2.08v8c0,5.66-3.21,8.2-8,8.2S825,78,825,72.37v-8H822.9V61.25h7.5v3.08h-2.08v8c0,3.61,1.64,5.12,4.5,5.12s4.62-1.51,4.62-5.15v-8h-2.08Z"/><path class="cls-2" d="M860.15,66.43v-2.1H854v5.31h4.59v3H854v4.53h6.13V75H863v5.17H848.6V77.14h2.08V64.33H848.6V61.25H863v5.18Z"/><path class="cls-2" d="M871.91,74.28v.35c0,2.16,1.94,2.78,3.69,2.78,2.16,0,3.13-1.11,3.13-2.32s-.7-2-4.13-3.29c-3.69-1.4-5-3.27-5-5.64,0-2.7,2.11-5.23,5.83-5.23a3.56,3.56,0,0,1,3.32,1.54l-.25-1.22h3l0,5.59h-3V66c-.13-1.6-1.4-2-2.91-2-1.89,0-2.65,1-2.65,2.16,0,1.32,1,2.13,3.7,3.21,4.23,1.65,5.45,3.32,5.45,5.8,0,3.37-2.57,5.45-5.86,5.45-3.69,0-4.61-1.89-4.61-1.89l.24,1.56h-3l0-5.93Z"/></svg>