<?xml version="1.0" encoding="utf-8"?>
<!-- Generator: Adobe Illustrator 23.0.2, SVG Export Plug-In . SVG Version: 6.00 Build 0)  -->
<svg version="1.1" id="Layer_1" xmlns="http://www.w3.org/2000/svg" xmlns:xlink="http://www.w3.org/1999/xlink" x="0px" y="0px"
	 viewBox="0 0 314.4 331" style="enable-background:new 0 0 314.4 331;" xml:space="preserve">
<style type="text/css">
	.st0{fill:#8D6E26;}
	.st1{fill:#0B3D91;}
	.st2{fill:#FFFFFF;}
	.st3{enable-background:new    ;}
	.st4{fill:#22438E;}
</style>
<title>solid-performance</title>
<path class="st0" d="M247,99.9c-3.5,0-6.6,2.3-7.6,5.6H75c-1.3-4.2-5.8-6.6-10-5.3c-4.2,1.3-6.6,5.8-5.3,10s5.8,6.6,10,5.3
	c2.5-0.8,4.5-2.7,5.3-5.3h12.8v187.2l69.4-23.6l69.4,23.6V110.2h12.8c1.3,4.2,5.8,6.6,10,5.3s6.6-5.8,5.3-10
	C253.6,102.1,250.5,99.9,247,99.9z"/>
<polygon class="st1" points="158,294.3 219.1,315.1 219.1,110.2 95.3,110.2 95.3,315.6 "/>
<path class="st2" d="M120.8,194.8h15.3c1.6,0,3,1.3,3,3v24.4c0,1.6-1.3,3-3,3h-15.3c-1.6,0-3-1.3-3-3v-24.4
	C117.9,196.1,119.2,194.8,120.8,194.8z"/>
<path class="st2" d="M149.6,162.2h15.3c1.6,0,3,1.3,3,3v57c0,1.6-1.3,3-3,3h-15.3c-1.6,0-3-1.3-3-3v-57
	C146.6,163.6,147.9,162.2,149.6,162.2z"/>
<path class="st2" d="M178.3,182.3h15.3c1.6,0,3,1.3,3,3v36.9c0,1.6-1.3,3-3,3h-15.3c-1.6,0-3-1.3-3-3v-36.9
	C175.3,183.6,176.7,182.3,178.3,182.3z"/>
<path class="st2" d="M120.8,230.2h72.8c1.6,0,3,1.3,3,3v2.9c0,1.6-1.3,3-3,3h-72.8c-1.6,0-3-1.3-3-3v-2.9
	C117.9,231.5,119.2,230.2,120.8,230.2z"/>
<g class="st3">
	<path class="st4" d="M108.6,37.2v0.4c0,2.8,2.5,3.6,4.7,3.6c2.8,0,4-1.4,4-3c0-1.6-0.9-2.6-5.3-4.2c-4.7-1.8-6.4-4.2-6.4-7.2
		c0-3.5,2.7-6.7,7.5-6.7c3.1,0,4.2,1.8,4.3,2l-0.3-1.6h3.9l0,7.2h-3.9v-1.1c-0.2-2-1.8-2.6-3.7-2.6c-2.4,0-3.4,1.3-3.4,2.8
		c0,1.7,1.3,2.7,4.7,4.1c5.4,2.1,7,4.3,7,7.4c0,4.3-3.3,7-7.5,7c-4.7,0-5.9-2.4-5.9-2.4l0.3,2h-3.9l0-7.6H108.6z"/>
</g>
<g class="st3">
	<path class="st4" d="M137.8,20.1c7.5,0,13,5.3,13,12.6c0,7.2-5.6,12.6-13,12.6s-13-5.4-13-12.6C124.8,25.6,130.5,20.1,137.8,20.1z
		 M137.8,41.4c4.7,0,8.4-3.8,8.4-8.7c0-5-3.5-8.8-8.4-8.8c-4.8,0-8.4,3.8-8.4,8.8C129.4,37.6,133.1,41.4,137.8,41.4z"/>
</g>
<g class="st3">
	<path class="st4" d="M153.7,44.8v-3.9h2.7V24.4h-2.7v-3.9h10.7v3.9h-3.7v16.4h7.9v-2.7h3.7v6.6H153.7z"/>
	<path class="st4" d="M174.6,20.5h9.6v3.9h-2.7v16.4h2.7v3.9h-9.6v-3.9h2.7V24.4h-2.7V20.5z"/>
	<path class="st4" d="M188.1,20.5h11.8c7.5,0,13,5.1,13,12.1c0,7-5.6,12.2-13,12.2h-11.8v-3.9h2.7V24.4h-2.7V20.5z M195.1,24.4v16.4
		h4.9c4.7,0,8.4-3.4,8.4-8.2c0-4.8-3.5-8.3-8.4-8.3H195.1z"/>
</g>
<g class="st3">
	<path class="st4" d="M21.1,51.3h10.1c6.5,0,9.7,3.6,9.7,8.7s-3.2,8.6-10.6,8.6h-2.3v3.1h4.1v3.9H21.1v-3.9h2.7V55.2h-2.7V51.3z
		 M28.1,55.2v9.5h2.8c4,0,5.4-2.1,5.4-4.8s-1.3-4.7-5.4-4.7H28.1z"/>
</g>
<g class="st3">
	<path class="st4" d="M58.3,57.9v-2.7h-7.9v6.8h5.9v3.8h-5.9v5.8h7.9V69h3.7v6.6H43.5v-3.9h2.7V55.2h-2.7v-3.9h18.5v6.6H58.3z"/>
	<path class="st4" d="M65.7,51.3h10.4c6.5,0,9.7,3.6,9.7,8.7c0,3.4-1.4,6-4.6,7.5c1.9,1.6,2.4,4.3,5.3,4.3h1v3.8
		c0,0-0.9,0.2-2.3,0.2c-6.1,0-5.7-5.6-8.7-7.2c-0.4,0-0.8,0-1.3,0h-2.7v3.1H76v3.9H65.7v-3.9h2.6V55.2h-2.6V51.3z M72.7,55.2v9.5
		h3.2c4,0,5.4-2.1,5.4-4.8s-1.3-4.7-5.4-4.7H72.7z"/>
</g>
<g class="st3">
	<path class="st4" d="M105.4,57.9v-2.7h-7.9v7.1h5.9v3.8h-5.9v5.5h4.3v3.9H90.6v-3.9h2.7V55.2h-2.7v-3.9h18.5v6.6H105.4z"/>
</g>
<g class="st3">
	<path class="st4" d="M123.7,50.9c7.5,0,13,5.3,13,12.6c0,7.2-5.6,12.6-13,12.6s-13-5.4-13-12.6C110.7,56.4,116.4,50.9,123.7,50.9z
		 M123.7,72.2c4.7,0,8.4-3.8,8.4-8.7c0-5-3.5-8.8-8.4-8.8c-4.8,0-8.4,3.8-8.4,8.8C115.3,68.4,119,72.2,123.7,72.2z"/>
</g>
<g class="st3">
	<path class="st4" d="M139.6,51.3H150c6.5,0,9.7,3.6,9.7,8.7c0,3.4-1.4,6-4.6,7.5c1.9,1.6,2.4,4.3,5.3,4.3h1v3.8
		c0,0-0.9,0.2-2.3,0.2c-6.1,0-5.7-5.6-8.7-7.2c-0.4,0-0.8,0-1.3,0h-2.7v3.1h3.3v3.9h-10.2v-3.9h2.6V55.2h-2.6V51.3z M146.5,55.2v9.5
		h3.2c4,0,5.4-2.1,5.4-4.8s-1.3-4.7-5.4-4.7H146.5z"/>
	<path class="st4" d="M164.5,51.3h5.8l9.5,17.6l9.3-17.6h5.8v3.9h-3.3l0.5,16.4h2.8v3.9h-9.6v-3.9h2.7L188,60.9l-7,14.7h-2.5
		l-7.1-14.4l-0.1,10.5h2.7v3.9h-9.6v-3.9h2.8l0.5-16.4h-3.3V51.3z"/>
	<path class="st4" d="M196.5,71.7h2.6l9.1-20.4h2l9.1,20.4h2.6v3.9h-9v-3.9h1.9l-1.1-2.5h-9.2l-1.1,2.5h2.1v3.9h-9.1V71.7z
		 M206.1,65.7h6.2l-3.1-7.3L206.1,65.7z"/>
</g>
<g class="st3">
	<path class="st4" d="M240,51.3h9.6v3.9H247v20.4h-3.2l-13.2-16v12h2.7v3.9h-9.6v-3.9h2.7V55.2h-2.7v-3.9h5.2l13.9,16.2V55.2H240
		V51.3z"/>
</g>
<g class="st3">
	<path class="st4" d="M274,74c0,0-3.1,2-8.1,2c-7.9,0-13.7-5.1-13.7-12.6c0-7,5.4-12.6,11.9-12.6c6,0,7,2.5,7.1,2.9l-0.3-2.5h3.9
		l0,8.2h-3.9c-0.1-2.8-2.9-4.6-6.1-4.6c-5,0-8,3.6-8,8.6c0,4.9,4,8.5,8.4,8.5c4.9,0,7.4-1.7,7.4-1.7L274,74z"/>
	<path class="st4" d="M292.8,57.9v-2.7H285v6.8h5.9v3.8H285v5.8h7.9V69h3.7v6.6H278v-3.9h2.7V55.2H278v-3.9h18.5v6.6H292.8z"/>
</g>
</svg>
