<?xml version="1.0" encoding="utf-8"?>
<!-- Generator: Adobe Illustrator 21.1.0, SVG Export Plug-In . SVG Version: 6.00 Build 0)  -->
<svg version="1.1" id="Layer_1" xmlns="http://www.w3.org/2000/svg" xmlns:xlink="http://www.w3.org/1999/xlink" x="0px" y="0px"
	 viewBox="0 0 499.5 80.4" style="enable-background:new 0 0 499.5 80.4;" xml:space="preserve">
<style type="text/css">
	.st0{fill:#22438E;}
	.st1{fill:#FFFFFF;}
</style>
<title>Artboard 14 copy</title>
<g id="layer_1">
	<path class="st0" d="M304.3,41.7h8.3V45h-2.8l-7.5,17h-2.2l-7.5-17h-2.8v-3.3h8.3V45h-1.7l4.8,11l4.8-11h-1.8L304.3,41.7z"/>
	<path class="st0" d="M312.4,58.7h2.2l7.6-17h1.7l7.6,17h2.2V62h-7.5v-3.3h1.6l-0.9-2.1h-7.8l-0.9,2.1h1.7V62h-7.6L312.4,58.7z
		 M320.4,53.7h5.2l-2.6-6.1L320.4,53.7z"/>
	<path class="st0" d="M338.5,62v-3.3h2.2V45h-2.2v-3.3h8.9V45h-3.1v13.7h6.6v-2.2h3.1v5.6L338.5,62z"/>
	<path class="st0" d="M371.6,41.7h8V45h-2.2v8.6c0,6.1-3.4,8.8-8.5,8.8s-8.4-2.7-8.4-8.8V45h-2.2v-3.3h8V45h-2.2v8.6
		c0,3.9,1.8,5.5,4.8,5.5s4.9-1.6,4.9-5.5V45h-2.2L371.6,41.7z"/>
	<path class="st0" d="M398.1,47.3v-2.2h-6.6v5.7h4.9V54h-4.9v4.8h6.6v-2.2h3.1v5.6h-15.4v-3.3h2.2V45h-2.2v-3.3h15.4v5.6H398.1z"/>
	<path class="st0" d="M410.7,55.7v0.4c0,2.3,2.1,3,4,3c2.3,0,3.4-1.2,3.4-2.5s-0.8-2.2-4.4-3.5c-4-1.5-5.3-3.5-5.3-6
		c0-2.9,2.2-5.6,6.2-5.6c2.6,0,3.5,1.5,3.5,1.7l-0.3-1.3h3.2v6h-3.2v-1c-0.1-1.7-1.5-2.2-3.1-2.2c-2,0-2.8,1.1-2.8,2.3
		c0,1.4,1.1,2.3,4,3.4c4.5,1.8,5.8,3.6,5.8,6.2c0,3.6-2.7,5.8-6.3,5.8c-4,0-4.9-2-4.9-2l0.3,1.7h-3.2v-6.4H410.7z"/>
	<path class="st1" d="M273.3,57.5c-4.4,3.1-9.5,5.4-15.1,5.4c-11.1,0-17.4-6.4-17.4-13.9s4.7-11,10-13.4c-3.8-3.7-5.4-7.3-5.4-10.8
		c0-8.3,6.1-13.1,14.5-13.1s13.9,4.9,13.9,12.1c0,8-4.7,11.3-9.9,13.6l10.5,9.7c2.4-3.1,4.4-6.5,6.1-10.1v-0.1h9.4v8h-5.4
		c-1.6,2.5-3.3,5-5.2,7.3l1.8,1.8h5.9v8h-9.4L273.3,57.5z M268.2,52.4l-12.4-11.6c-3.4,1.6-5.9,3.7-5.9,7.6c0,4.5,3.4,7.1,8.9,7.1
		C262.2,55.4,265.4,54.4,268.2,52.4z M259,32.3c3.8-1.7,6.7-3.6,6.7-7.3c0-3.3-2.1-6.1-5.8-6.1s-5.8,2.7-5.8,6.1
		C254.1,27.6,256.2,29.6,259,32.3z"/>
	<path class="st0" d="M131.7,32v0.4c0,2.3,2.1,3,4,3c2.3,0,3.4-1.2,3.4-2.5s-0.8-2.2-4.4-3.5c-4-1.5-5.3-3.5-5.3-6
		c0-2.9,2.2-5.6,6.2-5.6c2.6,0,3.5,1.5,3.6,1.7l-0.3-1.3h3.2v6h-3.2v-1c-0.1-1.7-1.5-2.2-3.1-2.2c-2,0-2.8,1.1-2.8,2.3
		c0,1.4,1.1,2.3,4,3.4c4.5,1.8,5.8,3.6,5.8,6.2c0,3.6-2.7,5.8-6.3,5.8c-4,0-4.9-2-4.9-2l0.3,1.7h-3.2V32H131.7z"/>
	<path class="st0" d="M147.1,18.1h4.9l7.9,14.7l7.7-14.7h4.9v3.3h-2.7l0.4,13.7h2.3v3.3h-8v-3.3h2.2l-0.1-9l-5.8,12.2h-2.1l-5.9-12
		l-0.1,8.8h2.2v3.3h-8v-3.3h2.3l0.4-13.7h-2.5V18.1z"/>
	<path class="st0" d="M176.8,35.1h2.2l7.6-17h1.7l7.6,17h2.2v3.3h-7.5v-3.3h1.5l-0.9-2.1h-7.7l-0.9,2.1h1.7v3.3h-7.6L176.8,35.1z
		 M184.8,30.1h5.2l-2.6-6.1L184.8,30.1z"/>
	<path class="st0" d="M202.3,18.1h8.7c5.4,0,8.1,3,8.1,7.2c0.2,2.7-1.4,5.2-3.8,6.2c1.6,1.4,2,3.6,4.4,3.6h0.8v3.2
		c-0.6,0.1-1.3,0.2-1.9,0.2c-5.1,0-4.8-4.7-7.2-6c-0.4,0-0.7,0-1.1,0h-2.2v2.6h2.8v3.3h-8.6v-3.3h2.2V21.4h-2.2V18.1z M208.1,21.4
		v7.9h2.7c3.4,0,4.5-1.8,4.5-4s-1.1-3.9-4.5-3.9H208.1z"/>
	<path class="st0" d="M227.5,35.1h2.2V21.4H226v2.2h-3.1v-5.5H240v5.6h-3.1v-2.3h-3.6v13.7h2.2v3.3h-8L227.5,35.1z"/>
	<path class="st0" d="M70.4,41.7h8V45h-2.2v13.7h2.2V62h-8v-3.3h2.2V45h-2.3v-3.3H70.4z"/>
	<path class="st0" d="M95.9,41.7h8V45h-2.2v17h-2.6l-11-13.3v10h2.2V62h-8v-3.3h2.2V45h-2.3v-3.3h4.3l11.6,13.6V45h-2.2V41.7z"/>
	<path class="st0" d="M119.9,41.7h8.3V45h-2.8L118,62h-2.3l-7.4-17h-2.8v-3.3h8.3V45h-1.7l4.8,11l4.8-11h-1.8V41.7z"/>
	<path class="st0" d="M141.8,47.3v-2.2h-6.6v5.7h4.9V54h-4.9v4.8h6.6v-2.2h3.1v5.6h-15.4v-3.3h2.2V45h-2.2v-3.3h15.4v5.6H141.8z"/>
	<path class="st0" d="M152.1,55.7v0.4c0,2.3,2.1,3,4,3c2.3,0,3.4-1.2,3.4-2.5s-0.8-2.2-4.4-3.5c-4-1.5-5.3-3.5-5.3-6
		c0-2.9,2.2-5.6,6.2-5.6c2.6,0,3.5,1.5,3.6,1.7l-0.3-1.3h3.2v6h-3.2v-1c-0.1-1.7-1.5-2.2-3.1-2.2c-2,0-2.8,1.1-2.8,2.3
		c0,1.4,1.1,2.3,4,3.4c4.5,1.8,5.8,3.6,5.8,6.2c0,3.6-2.7,5.8-6.3,5.8c-4,0-4.9-2-4.9-2l0.3,1.7h-3.2v-6.4H152.1z"/>
	<path class="st0" d="M169.5,58.7h2.2V45H168v2.2h-3.1v-5.5H182v5.6h-3.1V45h-3.6v13.7h2.2V62h-8L169.5,58.7z"/>
	<path class="st0" d="M184.7,41.7h8V45h-2.2v13.7h2.2V62h-8v-3.3h2.2V45h-2.2V41.7z"/>
	<path class="st0" d="M209.7,41.7h8V45h-2.2v17h-2.7l-11-13.3v10h2.2V62h-8v-3.3h2.2V45H196v-3.3h4.3l11.6,13.6V45h-2.2V41.7z"/>
	<path class="st0" d="M234.3,48.6c-0.1-2.1-1.9-3.8-5.1-3.8c-4.2,0-6.7,3-6.7,7.2c0,3.9,3,7,6.9,7.1c0.1,0,0.3,0,0.4,0
		c1.6,0,3.1-0.3,4.6-0.8v-3.6h-5.7v-3.2h9.1v8.7c-2.3,1.5-5.1,2.4-7.9,2.3c-6.9,0-11.4-4.5-11.4-10.5c-0.1-5.6,4.3-10.3,9.9-10.5
		c5,0,5.8,2.1,5.9,2.5l-0.2-2.5h3.3v7.2L234.3,48.6z"/>
	<path class="st0" d="M294,37c-2.1,1.2-4.4,1.8-6.8,1.7c-6.6,0-11.4-4.2-11.4-10.5c-0.1-5.6,4.3-10.3,9.9-10.5c5,0,5.8,2.1,5.9,2.5
		l-0.2-2.1h3.2V25h-3.2c-0.1-2.4-2.4-3.8-5.1-3.8c-4.2,0-6.7,3-6.7,7.2c0,3.9,3.1,7,7,7.1c2.2,0.1,4.3-0.4,6.2-1.4L294,37z"/>
	<path class="st0" d="M295.8,35.1h2.2l7.6-17h1.7l7.6,17h2.2v3.3h-7.5v-3.3h1.5l-0.9-2.1h-7.7l-0.9,2.1h1.7v3.3h-7.6L295.8,35.1z
		 M303.8,30.1h5.2l-2.6-6.1L303.8,30.1z"/>
	<path class="st0" d="M319.9,35.1h2.2V21.4h-3.7v2.2h-3.1v-5.5h17.1v5.6h-3.1v-2.3h-3.6v13.7h2.2v3.3h-8V35.1z"/>
	<path class="st0" d="M348,18.1h8v3.3h-2.2v13.7h2.2v3.3h-8v-3.3h2.2v-4.7h-9.9v4.7h2.2v3.3h-8v-3.3h2.2V21.4h-2.2v-3.3h8v3.3h-2.2
		v5.8h9.9v-5.8H348V18.1z"/>
	<path class="st0" d="M369.2,17.7c6.3,0,10.9,4.4,10.9,10.5s-4.6,10.5-10.9,10.5s-10.8-4.5-10.8-10.5c0-5.8,4.8-10.5,10.6-10.5
		C369.1,17.7,369.2,17.7,369.2,17.7z M369.2,35.5c3.9,0,7-3.1,7-7c0-0.1,0-0.2,0-0.3c0-3.9-3.1-7-7-7s-7,3.1-7,7
		c-0.1,3.9,2.9,7.2,6.8,7.3C369.1,35.5,369.2,35.5,369.2,35.5L369.2,35.5z"/>
	<path class="st0" d="M382.5,38.4v-3.3h2.2V21.4h-2.2v-3.3h8.9v3.3h-3.1v13.7h6.6v-2.2h3.1v5.6L382.5,38.4L382.5,38.4z"/>
	<path class="st0" d="M400,18.1h8v3.3h-2.2v13.7h2.2v3.3h-8v-3.3h2.2V21.4h-2.3L400,18.1L400,18.1z"/>
	<path class="st0" d="M428.6,37c-2.1,1.2-4.4,1.8-6.8,1.7c-6.6,0-11.4-4.2-11.4-10.5c-0.1-5.6,4.3-10.3,9.9-10.5
		c5,0,5.8,2.1,5.9,2.5l-0.2-2.1h3.2V25h-3.1c-0.1-2.4-2.4-3.8-5.1-3.8c-4.2,0-6.7,3-6.7,7.2c0,3.9,3.1,7,7,7.1
		c2.2,0.1,4.3-0.4,6.2-1.4L428.6,37z"/>
</g>
</svg>
