<?xml version="1.0" encoding="utf-8"?>
<!-- Generator: Adobe Illustrator 21.1.0, SVG Export Plug-In . SVG Version: 6.00 Build 0)  -->
<svg version="1.1" id="Layer_1" xmlns="http://www.w3.org/2000/svg" xmlns:xlink="http://www.w3.org/1999/xlink" x="0px" y="0px"
	 viewBox="0 0 1313.2 174.4" style="enable-background:new 0 0 1313.2 174.4;" xml:space="preserve">
<style type="text/css">
	.st0{fill:#22438E;}
	.st1{fill:#FFFFFF;}
</style>
<title>Artboard 16</title>
<g id="layer_1">
	<path class="st0" d="M115.5,94.8v0.6c0,3.6,3.2,4.6,6.2,4.6c3.6,0,5.2-1.8,5.2-3.9s-1.2-3.4-6.9-5.5c-6.2-2.3-8.3-5.4-8.3-9.4
		c0-4.5,3.5-8.7,9.7-8.7c4.1,0,5.4,2.3,5.5,2.6l-0.4-2h5v9.3h-5v-1.5c-0.2-2.7-2.3-3.4-4.9-3.4c-3.1,0-4.4,1.7-4.4,3.6
		c0,2.2,1.7,3.5,6.2,5.3c7,2.8,9.1,5.5,9.1,9.7c0,5.6-4.2,9.1-9.8,9.1c-6.2,0-7.7-3.1-7.7-3.1l0.4,2.6h-5v-9.8L115.5,94.8z"/>
	<path class="st0" d="M142.6,73h7.6l12.4,22.9l12-22.9h7.6v5.2h-4.2l0.6,21.3h3.6v5.1h-12.4v-5.2h3.5l0-13.9l-9.1,19.1h-3.3
		l-9.2-18.7l-0.1,13.6h3.5v5.1h-12.4v-5.1h3.6l0.6-21.3h-4.2L142.6,73z"/>
	<path class="st0" d="M189.6,99.5h3.4L204.9,73h2.6l11.9,26.5h3.4v5.1H211v-5.1h2.4l-1.4-3.3h-11.9l-1.4,3.3h2.7v5.1h-11.8
		L189.6,99.5z M202,91.8h8.1l-4-9.4L202,91.8z"/>
	<path class="st0" d="M230.3,73h13.5c8.4,0,12.6,4.6,12.6,11.2c0.3,4.2-2.1,8.1-6,9.7c2.5,2.1,3.1,5.6,6.9,5.6h1.3v4.9
		c-1,0.2-2,0.3-3,0.3c-7.9,0-7.4-7.2-11.2-9.4c-0.5,0-1.1,0-1.7,0h-3.5v4h4.3v5.1h-13.3v-5.1h3.4V78.2h-3.4V73z M239.3,78.2v12.4
		h4.1c5.2,0,7-2.8,7-6.2c0-3.4-1.8-6.1-7-6.1H239.3z"/>
	<path class="st0" d="M273,99.5h3.4V78.2h-5.8v3.5h-4.8V73h26.6v8.6h-4.8v-3.5H282v21.3h3.5v5.1H273L273,99.5z"/>
	<path class="st0" d="M318.7,73h12.5v5.2h-3.5v21.3h3.5v5.1h-12.5v-5.1h3.5V78.2h-3.5L318.7,73z"/>
	<path class="st0" d="M362.9,73h12.5v5.2h-3.5v26.4h-4.2l-17.1-20.7v15.6h3.5v5.1h-12.5v-5.1h3.5V78.2h-3.5V73h6.7l18,21V78.2h-3.5
		L362.9,73z"/>
	<path class="st0" d="M404.6,73h12.9v5.2h-4.3l-11.6,26.5h-3.5l-11.6-26.5h-4.4V73h12.9v5.2h-2.6l7.5,17.1l7.5-17.1h-2.8V73z"/>
	<path class="st0" d="M444.2,81.7v-3.5H434v8.9h7.6V92H434v7.5h10.2v-3.5h4.8v8.6h-24v-5.2h3.5V78.2H425V73h24v8.6H444.2z"/>
	<path class="st0" d="M463.8,94.8v0.6c0,3.6,3.2,4.6,6.2,4.6c3.6,0,5.2-1.8,5.2-3.9s-1.2-3.4-6.9-5.5c-6.2-2.3-8.3-5.4-8.3-9.4
		c0-4.5,3.5-8.7,9.7-8.7c4.1,0,5.4,2.3,5.5,2.6l-0.4-2h5v9.3h-5v-1.5c-0.2-2.7-2.3-3.4-4.9-3.4c-3.1,0-4.4,1.7-4.4,3.6
		c0,2.2,1.7,3.5,6.2,5.3c7,2.8,9.1,5.5,9.1,9.7c0,5.6-4.2,9.1-9.8,9.1c-6.2,0-7.7-3.1-7.7-3.1l0.4,2.6h-5v-9.8L463.8,94.8z"/>
	<path class="st0" d="M496.3,99.5h3.4V78.2h-5.8v3.5h-4.8V73h26.6v8.6h-4.8v-3.5h-5.6v21.3h3.5v5.1h-12.5L496.3,99.5z"/>
	<path class="st0" d="M524.4,73h12.5v5.2h-3.5v21.3h3.5v5.1h-12.5v-5.1h3.5V78.2h-3.5V73z"/>
	<path class="st0" d="M568.6,73h12.5v5.2h-3.5v26.4h-4.2l-17.1-20.7v15.6h3.5v5.1h-12.5v-5.1h3.5V78.2h-3.5V73h6.7l18,21V78.2h-3.5
		L568.6,73z"/>
	<path class="st0" d="M614.1,83.7c-0.1-3.2-3-6-8-6c-6.5,0-10.4,4.7-10.4,11.1c-0.1,6,4.8,11,10.8,11c0.2,0,0.4,0,0.6,0
		c2.4,0,4.9-0.4,7.2-1.3V93h-8.8v-5h14.2v13.5c-3.6,2.4-7.9,3.7-12.2,3.6c-10.7,0-17.8-7-17.8-16.4c0-9.1,7-16.3,15.4-16.3
		c7.7,0,9,3.2,9.2,3.8l-0.4-3.8h5.1v11.2L614.1,83.7z"/>
	<path class="st1" d="M675,112.7c-6.2,4.4-13.3,7.7-21.2,7.7c-15.6,0-24.4-8.9-24.4-19.5s6.6-15.4,14-18.8
		c-5.3-5.2-7.6-10.3-7.6-15.1c0-11.7,8.6-18.5,20.4-18.5c11.8,0,19.5,6.9,19.5,17c0,11.2-6.6,15.9-13.8,19l14.7,13.6
		c3.4-4.4,6.2-9.1,8.6-14.1v-0.1h13.2v11.2h-7.6c-2.2,3.6-4.6,7-7.3,10.2l2.5,2.6h8.3V119H681L675,112.7z M667.9,105.5l-17.4-16.3
		c-4.7,2.3-8.3,5.2-8.3,10.7c0,6.3,4.7,9.9,12.6,9.9C659.5,109.7,664,108.2,667.9,105.5L667.9,105.5z M655,77.2
		c5.3-2.4,9.4-5.1,9.4-10.3c0-4.6-2.9-8.5-8.1-8.5s-8.3,3.8-8.3,8.5C648,70.6,651,73.5,655,77.2L655,77.2z"/>
	<path class="st0" d="M723.6,102.5c-3.2,1.8-6.9,2.7-10.6,2.7c-10.2,0-17.7-6.6-17.7-16.4c0-9.1,7-16.3,15.4-16.3
		c7.7,0,9,3.2,9.2,3.8l-0.4-3.3h5v10.7h-5c-0.2-3.7-3.8-6-8-6c-6.5,0-10.4,4.7-10.4,11.1c0,6,4.9,11,10.9,11c6.4,0,9.7-2.2,9.7-2.2
		L723.6,102.5z"/>
	<path class="st0" d="M731.3,99.5h3.4L746.6,73h2.6L761,99.5h3.4v5.1h-11.7v-5.1h2.4l-1.4-3.3h-11.9l-1.4,3.3h2.7v5.1h-11.8V99.5z
		 M743.7,91.8h8.1l-4-9.4L743.7,91.8z"/>
	<path class="st0" d="M775.1,99.5h3.4V78.2h-5.8v3.5h-4.8V73h26.6v8.6h-4.8v-3.5h-5.6v21.3h3.5v5.1h-12.5V99.5z"/>
	<path class="st0" d="M824.2,73h12.5v5.2h-3.5v21.3h3.4v5.1h-12.4v-5.1h3.5v-7.3h-15.4v7.3h3.4v5.1h-12.4v-5.1h3.5V78.2h-3.5V73
		h12.6v5.2h-3.5v9.1h15.4v-9.1h-3.5V73z"/>
	<path class="st0" d="M862.6,72.5c9.8,0,16.8,6.9,16.8,16.3s-7.2,16.3-16.8,16.3s-16.8-7-16.8-16.3c0-9.1,7.4-16.4,16.5-16.3
		C862.4,72.5,862.5,72.5,862.6,72.5z M862.6,100.2c6,0,10.9-4.9,10.9-11c0-0.1,0-0.2,0-0.3c0-6.5-4.5-11.4-10.9-11.4
		c-6,0-10.9,4.8-10.9,10.8c0,0.2,0,0.4,0,0.5c-0.2,6.1,4.6,11.1,10.6,11.3C862.5,100.2,862.6,100.2,862.6,100.2L862.6,100.2z"/>
	<path class="st0" d="M888.6,104.6v-5.1h3.5V78.2h-3.5V73h13.8v5.2h-4.8v21.3h10.2V96h4.7v8.6H888.6z"/>
	<path class="st0" d="M921.3,73h12.5v5.2h-3.5v21.3h3.5v5.1h-12.5v-5.1h3.5V78.2h-3.5V73z"/>
	<path class="st0" d="M971.1,102.5c-3.2,1.8-6.9,2.7-10.6,2.7c-10.2,0-17.7-6.6-17.7-16.4c0-9.1,7-16.3,15.4-16.3
		c7.7,0,9,3.2,9.2,3.8l-0.4-3.3h5v10.7h-5c-0.2-3.7-3.8-6-8-6c-6.5,0-10.4,4.7-10.4,11.1c0,6,4.9,11,10.9,11c6.4,0,9.7-2.2,9.7-2.2
		L971.1,102.5z"/>
	<path class="st0" d="M1018.5,73h12.9v5.2h-4.3l-11.6,26.5h-3.5l-11.6-26.5H996V73h12.9v5.2h-2.6l7.5,17.1l7.5-17.1h-2.8L1018.5,73z
		"/>
	<path class="st0" d="M1032.6,99.5h3.4l11.9-26.5h2.6l11.9,26.5h3.4v5.1h-11.7v-5.1h2.4l-1.4-3.3h-11.9l-1.4,3.3h2.7v5.1h-11.8
		L1032.6,99.5z M1045.1,91.8h8.1l-4-9.4L1045.1,91.8z"/>
	<path class="st0" d="M1073.3,104.6v-5.1h3.4V78.2h-3.5V73h13.8v5.2h-4.8v21.3h10.2V96h4.8v8.6H1073.3z"/>
	<path class="st0" d="M1124.7,73h12.5v5.2h-3.5v13.3c0,9.4-5.3,13.7-13.3,13.7c-7.9,0-13.1-4.2-13.1-13.7V78.2h-3.5V73h12.5v5.2
		h-3.5v13.3c0,6,2.8,8.5,7.5,8.5s7.7-2.5,7.7-8.6V78.2h-3.5L1124.7,73z"/>
	<path class="st0" d="M1166,81.7v-3.5h-10.2v8.9h7.6V92h-7.6v7.5h10.2v-3.5h4.7v8.6h-24v-5.2h3.5V78.2h-3.5V73h24v8.6H1166z"/>
	<path class="st0" d="M1185.6,94.8v0.6c0,3.6,3.2,4.6,6.2,4.6c3.6,0,5.2-1.8,5.2-3.9s-1.2-3.4-6.9-5.5c-6.2-2.3-8.3-5.4-8.3-9.4
		c0-4.5,3.5-8.7,9.7-8.7c4.1,0,5.4,2.3,5.5,2.6l-0.4-2h5v9.3h-5v-1.5c-0.2-2.7-2.3-3.4-4.9-3.4c-3.1,0-4.4,1.7-4.4,3.6
		c0,2.2,1.7,3.5,6.2,5.3c7,2.8,9.1,5.5,9.1,9.7c0,5.6-4.2,9.1-9.8,9.1c-6.2,0-7.7-3.1-7.7-3.1l0.4,2.6h-5v-9.8L1185.6,94.8z"/>
</g>
</svg>
