<svg id="Layer_1" data-name="Layer 1" xmlns="http://www.w3.org/2000/svg" viewBox="0 0 628.33 98.56"><defs><style>.cls-1{fill:#22438e;stroke:#fff;stroke-width:3px;}.cls-2{fill:#fff;}</style></defs><title>btn-kit-blut</title><rect class="cls-1" x="8" y="5" width="612.33" height="88.56" rx="44.28"/><path class="cls-2" d="M100,34H112v4.89h-3.31V59.29H112v4.89H100V59.29h3.31V38.92H100Z"/><path class="cls-2" d="M140.92,34h11.93v4.89h-3.31V64.18h-4L129.21,44.41V59.29h3.3v4.89H120.59V59.29h3.3V38.92h-3.3V34H127l17.2,20.11V38.92h-3.3Z"/><path class="cls-2" d="M179.49,34h12.35v4.89h-4.12L176.65,64.18h-3.34L162.24,38.92H158V34h12.35v4.89H167.9L175,55.26l7.12-16.34h-2.66Z"/><path class="cls-2" d="M216,42.26V38.92h-9.74v8.45h7.29v4.72h-7.29v7.2H216V56h4.54v8.23h-22.9V59.29h3.3V38.92h-3.3V34h22.9v8.23Z"/><path class="cls-2" d="M233.37,54.75v.55c0,3.43,3.08,4.42,5.87,4.42,3.43,0,5-1.76,5-3.69s-1.12-3.22-6.57-5.23c-5.87-2.23-7.89-5.19-7.89-9,0-4.28,3.35-8.32,9.27-8.32,3.9,0,5.14,2.23,5.27,2.45L243.92,34h4.8l0,8.88H244V41.49c-.21-2.53-2.23-3.22-4.63-3.22-3,0-4.21,1.59-4.21,3.44,0,2.1,1.63,3.38,5.88,5.1,6.74,2.62,8.66,5.28,8.66,9.22,0,5.36-4.07,8.67-9.3,8.67-5.88,0-7.34-3-7.34-3l.39,2.49H228.6l0-9.43Z"/><path class="cls-2" d="M263.14,59.29h3.26V38.92h-5.54v3.34h-4.54V34h25.35v8.23h-4.55V38.92h-5.36V59.29h3.3v4.89H263.14Z"/><path class="cls-2" d="M288.7,34H296l11.8,21.83L319.24,34h7.25v4.89h-4L323,59.29h3.43v4.89H314.57V59.29h3.34L317.83,46l-8.67,18.18H306L297.28,46.3l-.08,13h3.38v4.89H288.7V59.29h3.43l.61-20.37h-4Z"/><path class="cls-2" d="M353.48,42.26V38.92h-9.74v8.45H351v4.72h-7.29v7.2h9.74V56H358v8.23h-22.9V59.29h3.3V38.92h-3.3V34H358v8.23Z"/><path class="cls-2" d="M386.89,34h11.93v4.89h-3.31V64.18h-4L375.18,44.41V59.29h3.31v4.89H366.56V59.29h3.3V38.92h-3.3V34H373l17.2,20.11V38.92h-3.31Z"/><path class="cls-2" d="M412.16,59.29h3.26V38.92h-5.53v3.34h-4.55V34h25.35v8.23h-4.55V38.92h-5.36V59.29h3.3v4.89H412.16Z"/><path class="cls-2" d="M468.27,59.29h1.89l-8.28-8v8h2.61v4.89H453.26V59.29h3.3V38.92h-3.3V34h11.23v4.89h-2.61v9.86l8.58-9.86h-2.19V34h12.35v4.89h-3.73l-9.61,11,9.57,9.39h3.77v4.89H468.27Z"/><path class="cls-2" d="M488.13,34h11.93v4.89h-3.31V59.29h3.31v4.89H488.13V59.29h3.3V38.92h-3.3Z"/><path class="cls-2" d="M513.87,59.29h3.26V38.92H511.6v3.34h-4.55V34H532.4v8.23h-4.55V38.92h-5.36V59.29h3.3v4.89H513.87Z"/></svg>