<svg id="Layer_1" data-name="Layer 1" xmlns="http://www.w3.org/2000/svg" viewBox="0 0 254.97 68.8"><defs><style>.cls-1{fill:#a27e2d;}.cls-2{fill:#21448d;}.cls-3{fill:#fff;}</style></defs><title>ammf-logo-hg</title><polygon class="cls-1" points="45.47 60.16 24.89 53.17 4.32 60.16 4.32 3.24 45.47 3.24 45.47 60.16"/><polygon class="cls-2" points="25.12 59.25 43.23 65.4 43.23 3.24 6.55 3.24 6.55 65.56 25.12 59.25"/><path class="cls-3" d="M25,31a2.45,2.45,0,0,1,2.17-1.44c1.49,0,1.12.5,3.87.5V24.64c-1.49.07-2.69-1.45-4.65-.46A2.55,2.55,0,0,0,25,26.26V31"/><path class="cls-3" d="M26.82,18.35v.06c0,.05,0,.09-.06.09H25.13V17.1A.07.07,0,0,1,25.2,17h.05v-.24h-.73V17h.06s.06,0,.06.09V18.5H23a.08.08,0,0,1-.07-.09v-.05h-.23v.83H23v-.05A.1.1,0,0,1,23,19h1.6v3.64c0,.05,0,.1-.07.1h-.05V23h.74v-.23H25.2a.12.12,0,0,1-.07-.11V19h1.62s.07.06.07.11v.06h.24v-.86Z"/><path class="cls-3" d="M24.78,31a2.44,2.44,0,0,0-2.17-1.44c-1.49,0-1.12.5-3.86.5V24.64c1.49.07,2.69-1.45,4.65-.46a2.57,2.57,0,0,1,1.38,2.08V31"/><path class="cls-3" d="M31.75,25.38v5.36H25.48a2.9,2.9,0,0,1,1.77-.48,5.29,5.29,0,0,1,1.22.1,12.25,12.25,0,0,0,2.94.14h.13V25h-.27v5.27a11.5,11.5,0,0,1-2.75-.14,5.58,5.58,0,0,0-1.27-.1,3,3,0,0,0-2.2.75H25V31h7V25.38h-.27"/><path class="cls-3" d="M22.53,30a5.53,5.53,0,0,0-1.26.1,11.56,11.56,0,0,1-2.76.14V25h-.27V30.5h.14a12.31,12.31,0,0,0,2.94-.14,5.18,5.18,0,0,1,1.21-.1,2.93,2.93,0,0,1,1.78.48H18V25.38h-.27V31h7v-.27h-.05A3,3,0,0,0,22.53,30"/><path class="cls-3" d="M18.27,36.32a1.71,1.71,0,0,0,.09.27c0,.07.07.12.12.13h.1v.12h-.79v-.12h.14c.06,0,.12,0,.12-.08a1.09,1.09,0,0,0-.06-.25l-.14-.45H17l-.08.26a2.52,2.52,0,0,0-.11.41c0,.08.05.1.15.11h.11v.12h-.69v-.12h.11c.07,0,.13-.09.16-.19l.53-1.6c.09-.28.19-.57.27-.86h.1Zm-.47-.54-.37-1.18-.38,1.18Z"/><path class="cls-3" d="M19.16,36.36l.54-1.87c.07-.21,0-.25-.07-.25l-.16,0v-.11h.64v.11l-.09,0c-.06,0-.1.09-.16.28l-.51,1.66a7.15,7.15,0,0,0-.19.7H19c-.05-.24-.11-.46-.17-.66l-.56-1.82c0-.13-.08-.16-.13-.16l-.11,0v-.11h.79v.11l-.16,0c-.06,0-.12,0-.09.12Z"/><path class="cls-3" d="M20.58,34.59a.85.85,0,0,0,0-.29s-.05-.06-.12-.06l-.15,0v-.11h1.59a2.86,2.86,0,0,0-.05.6h-.11v-.26c0-.05,0-.09,0-.11a1.57,1.57,0,0,0-.58-.08,1.07,1.07,0,0,0-.25,0v1.06h.34a.85.85,0,0,0,.32,0,.23.23,0,0,0,0-.11l0-.2h.08v.9h-.08l0-.24a.22.22,0,0,0,0-.1.67.67,0,0,0-.32,0h-.34v1.1a.73.73,0,0,0,.25,0,2,2,0,0,0,.6-.06.93.93,0,0,0,.1-.44h.1a4.54,4.54,0,0,0,0,.65c-.13,0-.37,0-.59,0h-1v-.12h.11c.07,0,.1,0,.12-.06a.85.85,0,0,0,0-.29Z"/><path class="cls-3" d="M25.34,36.37a.85.85,0,0,0,0,.29s.05.06.12.06h.14v.12h-.82v-.12h.1c.07,0,.1,0,.12-.06a.85.85,0,0,0,0-.29v-1.8h0l-.12.33-.53,1.49c-.06.16-.11.34-.16.5h-.06l-.82-2.32h0v1.8a.85.85,0,0,0,0,.29s.05.05.12.06h.14v.12h-.71v-.12h.14c.07,0,.1,0,.12-.06a.85.85,0,0,0,0-.29V34.59a.85.85,0,0,0,0-.29s-.05-.06-.12-.06l-.14,0v-.11h.57l.78,2.19.78-2.19h.56v.11l-.13,0q-.1,0-.12.06a.85.85,0,0,0,0,.29Z"/><path class="cls-3" d="M27.68,36.32c0,.08.06.18.09.27s.07.12.12.13H28v.12h-.78v-.12h.13c.07,0,.13,0,.13-.08a1.22,1.22,0,0,0-.07-.25l-.13-.45h-.86l-.08.26a2.43,2.43,0,0,0-.1.41c0,.08.05.1.14.11h.11v.12H25.8v-.12h.11c.07,0,.12-.09.16-.19l.52-1.6c.1-.28.2-.57.28-.86H27Zm-.47-.54-.37-1.18-.38,1.18Z"/><path class="cls-3" d="M28.76,36.37a1,1,0,0,0,0,.29s.06.06.13.06h.14v.12h-.87v-.12h.14c.08,0,.11,0,.13-.06a1,1,0,0,0,0-.29V34.59a1,1,0,0,0,0-.29s-.05-.06-.13-.06l-.12,0v-.11h1a.52.52,0,0,1,.59.59.76.76,0,0,1-.57.76l.67,1.17a.18.18,0,0,0,.18.1v.12h-.42a2.25,2.25,0,0,0-.12-.21l-.54-1-.16-.24,0-.05a.78.78,0,0,0,.26,0,.54.54,0,0,0,.39-.55c0-.43-.24-.54-.47-.54a1.14,1.14,0,0,0-.3,0Z"/><path class="cls-3" d="M30.8,36.37a1,1,0,0,0,0,.29s.06.06.13.06h.14v.12h-.87v-.12h.14c.07,0,.11,0,.13-.06a1,1,0,0,0,0-.29V34.59a1,1,0,0,0,0-.29s-.06-.06-.13-.06l-.14,0v-.11h.87v.11l-.14,0c-.07,0-.11,0-.13.06a1,1,0,0,0,0,.29Z"/><path class="cls-3" d="M33.08,36.32c0,.08.06.18.1.27s.06.12.11.13h.11v.12h-.79v-.12h.14c.06,0,.12,0,.12-.08a.8.8,0,0,0-.07-.25l-.13-.45h-.85l-.09.26a4,4,0,0,0-.1.41c0,.08.05.1.14.11h.11v.12H31.2v-.12h.11c.07,0,.13-.09.16-.19l.53-1.6c.09-.28.19-.57.27-.86h.09Zm-.46-.54-.38-1.18-.37,1.18Z"/><path class="cls-3" d="M20.52,41.58a.65.65,0,0,0,0,.29s.05.06.13.06l.16,0v.11h-.9V42l.11,0c.08,0,.11,0,.13-.06a.65.65,0,0,0,0-.29v-1.8h0l-.14.32-.57,1.5c-.06.16-.12.34-.17.5h-.07l-.89-2.32h0v1.8a1,1,0,0,0,0,.29s.06.06.14.06l.14,0v.11h-.76V42l.14,0c.08,0,.12,0,.14-.06a.85.85,0,0,0,0-.29V39.8a.92.92,0,0,0,0-.3s-.06,0-.14-.06h-.14v-.12h.61l.85,2.2.84-2.2h.61v.12h-.14c-.08,0-.11,0-.13.06a.7.7,0,0,0,0,.3Z"/><path class="cls-3" d="M21.32,39.8a.92.92,0,0,0,0-.3s-.06,0-.13-.06H21v-.12h.94v.12h-.15c-.08,0-.11,0-.13.06a.7.7,0,0,0,0,.3v1.36c0,.56.23.73.66.73s.66-.17.66-.82V39.8a.92.92,0,0,0,0-.3s-.06,0-.13-.06h-.14v-.12h.75v.12h-.14c-.07,0-.11,0-.13.06a.7.7,0,0,0,0,.3v1.14c0,.85-.26,1.19-.91,1.19s-.87-.2-.87-.93Z"/><path class="cls-3" d="M24.36,39.9c0-.15,0-.28,0-.4h-.5c-.1,0-.12,0-.13.14V40h-.1c0-.22,0-.43,0-.64h1.85c0,.21,0,.42,0,.64h-.1l0-.31c0-.1,0-.14-.12-.14h-.5c0,.12,0,.25,0,.4v1.68a1,1,0,0,0,0,.29s.06.06.14.06L25,42v.11H24V42l.16,0c.07,0,.11,0,.13-.06a.85.85,0,0,0,0-.29Z"/><path class="cls-3" d="M25.92,39.8a.92.92,0,0,0,0-.3s-.06,0-.13-.06H25.6v-.12h.94v.12h-.15c-.08,0-.12,0-.14.06a.92.92,0,0,0,0,.3v1.36c0,.56.24.73.67.73s.66-.17.66-.82V39.8a.92.92,0,0,0,0-.3s-.06,0-.14-.06h-.14v-.12H28v.12h-.14c-.08,0-.12,0-.14.06a1,1,0,0,0,0,.3v1.14c0,.85-.26,1.19-.91,1.19s-.87-.2-.87-.93Z"/><path class="cls-3" d="M29.7,41.53c0,.08.06.19.1.27s.07.13.13.13L30,42v.11h-.85V42l.15,0c.06,0,.13,0,.13-.08a1.22,1.22,0,0,0-.07-.25l-.15-.46h-.92l-.09.27a2.52,2.52,0,0,0-.11.41c0,.09.05.1.15.11l.12,0v.11h-.74V42l.12,0c.08,0,.14-.09.17-.19l.57-1.61c.1-.27.21-.57.3-.85h.1ZM29.2,41l-.41-1.18L28.38,41Z"/><path class="cls-3" d="M30.68,41.87a1.24,1.24,0,0,0,.27,0,1.79,1.79,0,0,0,.71-.08.7.7,0,0,0,.06-.25l0-.2h.11c0,.22,0,.48-.07.68a6.11,6.11,0,0,1-.63,0h-1V42l.1-.06a.27.27,0,0,0,.08-.23V39.8a.7.7,0,0,0,0-.3s-.05,0-.13-.06h-.16v-.12H31v.12h-.16c-.08,0-.11,0-.13.06a.7.7,0,0,0,0,.3Z"/><path class="cls-3" d="M19.9,45.21a.88.88,0,0,0,0,.3s.06.06.14.06h.15v.12h-.94v-.12h.16c.07,0,.11,0,.13-.06a.88.88,0,0,0,0-.3V43.44a.88.88,0,0,0,0-.3s-.06-.06-.13-.06h-.16V43h1.65a3.83,3.83,0,0,0-.05.6h-.11V43.3s0-.09,0-.1a1.46,1.46,0,0,0-.57-.08.86.86,0,0,0-.27,0V44.2l.38,0a.7.7,0,0,0,.34,0,.19.19,0,0,0,0-.1l0-.21h.1c0,.17,0,.32,0,.46s0,.3,0,.44h-.1l0-.23a.19.19,0,0,0,0-.1.7.7,0,0,0-.34,0,2.06,2.06,0,0,0-.38,0Z"/><path class="cls-3" d="M21.42,43.44a.88.88,0,0,0,0-.3s-.06-.06-.14-.06H21.1V43H22v.12h-.15c-.08,0-.12,0-.14.06a.88.88,0,0,0,0,.3V44.8c0,.56.24.72.66.72s.67-.16.67-.82V43.44a.88.88,0,0,0,0-.3s-.06,0-.14-.06h-.14V43h.76v.12h-.14c-.08,0-.12,0-.14.06a.88.88,0,0,0,0,.3v1.14c0,.85-.26,1.19-.91,1.19s-.86-.2-.86-.93Z"/><path class="cls-3" d="M24,43.44a1,1,0,0,0,0-.3s-.06,0-.14-.06h-.14V43h.56l1.53,2.34h0V43.44a1,1,0,0,0,0-.3s-.06,0-.14-.06h-.14V43h.76v.12H26.1c-.08,0-.12,0-.14.06a.88.88,0,0,0,0,.3v2.18c0,.05,0,.1,0,.15l-.29-.06-1.51-2.32h0v1.82a.88.88,0,0,0,0,.3s.06.05.14.06h.14v.12h-.76v-.12h.14c.08,0,.12,0,.14-.06a1,1,0,0,0,0-.3Z"/><path class="cls-3" d="M26.72,43.44a.67.67,0,0,0,0-.3s-.05,0-.13-.06h-.13V43h1.19a1.1,1.1,0,0,1,1.15,1.21,1.55,1.55,0,0,1-.69,1.4,1.31,1.31,0,0,1-.69.14h-.85v-.09l.1-.06a.28.28,0,0,0,.08-.24ZM27,45.5a2,2,0,0,0,.36,0,1,1,0,0,0,.53-.12,1.22,1.22,0,0,0,.51-1.14c0-1-.46-1.16-1-1.16a1.38,1.38,0,0,0-.36,0Z"/><path class="cls-3" d="M30.24,43.61l0-.23c0-.11,0-.15-.14-.24a.57.57,0,0,0-.35-.09c-.22,0-.47.18-.47.58s.13.43.53.49.74.2.74.65a1,1,0,0,1-1,1,1.17,1.17,0,0,1-.55-.15c0-.21,0-.42,0-.61h.1l0,.27c0,.16.27.31.52.31a.58.58,0,0,0,.58-.61c0-.37-.24-.48-.57-.53-.5-.07-.7-.26-.7-.67a.83.83,0,0,1,.82-.9,1.17,1.17,0,0,1,.58.17,3.6,3.6,0,0,0,0,.56Z"/><path class="cls-3" d="M37.16,48.76H34.92V35.87a12,12,0,0,1,1,1.63,10.29,10.29,0,0,1,.55,1.29l0,.11a11.32,11.32,0,0,1,.65,3.33v6.53m-21.85,0V28.84a20.8,20.8,0,0,1,1.24-6.28l.08-.22a24,24,0,0,1,1-2.43A22.88,22.88,0,0,1,20,16.23a21.34,21.34,0,0,1,2.92-3.07c.81-.7,1.65-1.32,1.95-1.54.3.23,1.14.84,1.95,1.54a21.34,21.34,0,0,1,2.92,3.07,23.33,23.33,0,0,1,2.35,3.68,24,24,0,0,1,1,2.43l.08.22a20.73,20.73,0,0,1,1.24,6.28V48.75ZM34.92,31c.2.48.36.89.48,1.21l.11.29a30,30,0,0,1,1.6,6.76c-.07-.22-.13-.4-.18-.53l0-.11c-.11-.29-.3-.78-.57-1.33a13.06,13.06,0,0,0-1.28-2l-.12-.15ZM14.86,35.15l-.09.12a11.72,11.72,0,0,0-1.28,2,12.65,12.65,0,0,0-.57,1.33l-.05.11-.2.63a29.88,29.88,0,0,1,1.6-6.86l.12-.29.47-1.2Zm0,13.61H12.65V42.23a11,11,0,0,1,.65-3.33l0-.11a12.08,12.08,0,0,1,.55-1.29,12.63,12.63,0,0,1,1-1.6Zm22.79.45V41a28.37,28.37,0,0,0-1.72-8.61l-.11-.29c-.2-.52-.5-1.29-.9-2.18v-1a21.38,21.38,0,0,0-1.27-6.45h0l-.08-.21a24.59,24.59,0,0,0-1.06-2.47A22.61,22.61,0,0,0,30.12,16a21.36,21.36,0,0,0-3-3.15c-1-.87-2.1-1.64-2.11-1.65l-.13-.09-.13.09s-1.09.78-2.11,1.65a21.87,21.87,0,0,0-3,3.15,23.28,23.28,0,0,0-2.39,3.75,24.59,24.59,0,0,0-1.06,2.47l-.08.21a21.45,21.45,0,0,0-1.27,6.45v1.05c-.4.89-.7,1.65-.89,2.17l-.11.29A28,28,0,0,0,12.13,41v8.25Z"/><rect class="cls-3" x="16.47" y="38.01" width="16.84" height="0.15"/><rect class="cls-3" x="16.47" y="32.81" width="16.84" height="0.15"/><rect class="cls-3" x="16.47" y="46.86" width="16.84" height="0.15"/><path class="cls-2" d="M61,10.55H67.6l7.59,17h2.19v3.29H69.85V27.54h1.56l-.93-2.1H62.84l-.9,2.1h1.73v3.29H56.08V27.54h2.2l6.14-13.7H61Zm3.12,12h5.19l-2.6-6.06Z"/><path class="cls-2" d="M90,10.55h8.31v3.29H95.56l-7.44,17H85.87l-7.45-17H75.59V10.55H83.9v3.29H82.23l4.79,11,4.79-11H90Z"/><path class="cls-2" d="M115.42,16.09V13.84h-6.55v5.68h4.91V22.7h-4.91v4.84h6.55V25.29h3.06v5.54H103.07V27.54h2.22V13.84h-2.22V10.55h15.41v5.54Z"/><path class="cls-2" d="M137.21,10.55h4.88L150,25.24l7.74-14.69h4.88v3.29h-2.72l.38,13.7h2.31v3.29h-8V27.54h2.25l-.05-8.94L151,30.83h-2.11L143,18.8l-.06,8.74h2.28v3.29h-8V27.54h2.31l.4-13.7h-2.71Z"/><path class="cls-2" d="M171.87,10.55h6.64l7.59,17h2.19v3.29h-7.53V27.54h1.56l-.92-2.1h-7.65l-.9,2.1h1.73v3.29H167V27.54h2.2l6.15-13.7h-3.47Zm3.12,12h5.19l-2.59-6.06Z"/><path class="cls-2" d="M192.54,10.55h8.71c5.4,0,8.11,3,8.11,7.21,0,3.15-1.5,5.6-4.1,6.61l2.4,3.17h2.6v3.29H206l-4.33-5.91c-.35,0-.73,0-1.1,0h-2.22v2.59h2.19v3.29h-8V27.54h2.22V13.84h-2.22Zm5.8,3.29v7.93H201c3.35,0,4.5-1.79,4.5-4s-1.12-3.92-4.5-3.92Z"/><path class="cls-2" d="M215.88,10.55h8v3.29h-2.22v13.7h2.22v3.29h-8V27.54h2.23V13.84h-2.23Z"/><path class="cls-2" d="M233.72,10.55h6.64l7.59,17h2.19v3.29h-7.53V27.54h1.56l-.93-2.1H235.6l-.9,2.1h1.73v3.29h-7.59V27.54H231l6.14-13.7h-3.46Zm3.12,12H242l-2.6-6.06Z"/><path class="cls-1" d="M56,35.1h3.4l5.52,10.22L70.28,35.1h3.4v2.29H71.79l.26,9.53h1.61v2.29H68.1V46.92h1.56l0-6.22-4.05,8.51H64.1L60,40.84l0,6.08h1.58v2.29H56V46.92H57.6l.28-9.53H56Z"/><path class="cls-1" d="M87.21,35.1h5.58v2.29H91.24v6c0,4.22-2.39,6.1-5.92,6.1s-5.84-1.88-5.84-6.1v-6H77.93V35.1h5.58v2.29H82v6c0,2.69,1.22,3.82,3.35,3.82s3.43-1.13,3.43-3.84v-6H87.21Z"/><path class="cls-1" d="M99.49,46.92H101V37.39H98.43V39H96.3V35.1h11.86V39H106V37.39h-2.5v9.53h1.54v2.29H99.49Z"/><path class="cls-1" d="M121,35.1h5.58v2.29H125v6c0,4.22-2.39,6.1-5.92,6.1s-5.84-1.88-5.84-6.1v-6h-1.55V35.1h5.59v2.29h-1.55v6c0,2.69,1.22,3.82,3.35,3.82s3.43-1.13,3.43-3.84v-6H121Z"/><path class="cls-1" d="M132.43,35.1h4.62l5.28,11.82h1.52v2.29h-5.24V46.92h1.09l-.65-1.46h-5.32l-.62,1.46h1.21v2.29H129V46.92h1.52l4.28-9.53h-2.41Zm2.17,8.37h3.61l-1.81-4.21Z"/><path class="cls-1" d="M147.1,49.21V46.92h1.55V37.39H147.1V35.1h6.19v2.29h-2.15v9.53h4.55V45.36h2.13v3.85Z"/><path class="cls-1" d="M178.14,39V37.39h-4.58V41.5H177v2.21h-3.43v3.21h2.51v2.29h-6.53V46.92h1.55V37.39h-1.55V35.1h10.72V39Z"/><path class="cls-1" d="M193,35.1h5.58v2.29H197v6c0,4.22-2.38,6.1-5.92,6.1s-5.84-1.88-5.84-6.1v-6H183.7V35.1h5.58v2.29h-1.55v6c0,2.69,1.22,3.82,3.35,3.82s3.43-1.13,3.43-3.84v-6H193Z"/><path class="cls-1" d="M212.34,35.1h5.58v2.29h-1.55V49.21h-1.86L206.86,40v7h1.55v2.29h-5.58V46.92h1.54V37.39h-1.54V35.1h3l8,9.42V37.39h-1.55Z"/><path class="cls-1" d="M222.34,35.1h6.86c4.38,0,7.55,2.95,7.55,7s-3.23,7.06-7.55,7.06h-6.86V46.92h1.54V37.39h-1.54Zm4,2.29v9.53h2.83a4.77,4.77,0,1,0,0-9.53Z"/><path class="cls-1" d="M243,44.8v.26c0,1.6,1.45,2.06,2.75,2.06,1.61,0,2.33-.82,2.33-1.72S247.59,43.89,245,43c-2.75-1-3.7-2.43-3.7-4.2a4,4,0,0,1,4.34-3.89A2.63,2.63,0,0,1,248.15,36l-.18-.9h2.25l0,4.16H248v-.67c-.1-1.18-1.05-1.5-2.17-1.5-1.4,0-2,.74-2,1.6s.77,1.61,2.75,2.39c3.16,1.25,4.06,2.47,4.06,4.32,0,2.51-1.91,4.05-4.36,4.05-2.75,0-3.43-1.4-3.43-1.4l.18,1.16H240.8l0-4.41Z"/></svg>