<?xml version="1.0" encoding="UTF-8" standalone="no"?>
<!-- Generator: Adobe Illustrator 19.1.0, SVG Export Plug-In . SVG Version: 6.00 Build 0)  -->

<svg
   xmlns:dc="http://purl.org/dc/elements/1.1/"
   xmlns:cc="http://creativecommons.org/ns#"
   xmlns:rdf="http://www.w3.org/1999/02/22-rdf-syntax-ns#"
   xmlns:svg="http://www.w3.org/2000/svg"
   xmlns="http://www.w3.org/2000/svg"
   xmlns:xlink="http://www.w3.org/1999/xlink"
   xmlns:sodipodi="http://sodipodi.sourceforge.net/DTD/sodipodi-0.dtd"
   xmlns:inkscape="http://www.inkscape.org/namespaces/inkscape"
   version="1.1"
   id="Layer_1"
   x="0px"
   y="0px"
   viewBox="0 0 174.10001 252.69999"
   enable-background="new 0 0 232.7 308.7"
   xml:space="preserve"
   inkscape:version="0.91 r13725"
   sodipodi:docname="ribbon-ave-maria.svg"
   width="174.10001"
   height="252.7"><metadata
     id="metadata3606"><rdf:RDF><cc:Work
         rdf:about=""><dc:format>image/svg+xml</dc:format><dc:type
           rdf:resource="http://purl.org/dc/dcmitype/StillImage" /><dc:title></dc:title></cc:Work></rdf:RDF></metadata><defs
     id="defs3604" /><sodipodi:namedview
     pagecolor="#ffffff"
     bordercolor="#666666"
     borderopacity="1"
     objecttolerance="10"
     gridtolerance="10"
     guidetolerance="10"
     inkscape:pageopacity="0"
     inkscape:pageshadow="2"
     inkscape:window-width="1906"
     inkscape:window-height="1003"
     id="namedview3602"
     showgrid="false"
     showguides="false"
     inkscape:zoom="3.8344564"
     inkscape:cx="157.31668"
     inkscape:cy="233.62313"
     inkscape:window-x="0"
     inkscape:window-y="0"
     inkscape:window-maximized="0"
     inkscape:current-layer="Layer_1"
     fit-margin-top="0"
     fit-margin-left="0"
     fit-margin-right="0"
     fit-margin-bottom="0" /><g
     id="g3500"
     transform="translate(-29.3,-25.4)"><g
       id="g3502"><g
         id="g3504"><g
           id="g3506"><g
             id="g3508"><g
               id="g3510"><polygon
                 points="203.4,252.4 116.3,222.8 29.3,252.4 29.3,25.4 203.4,25.4 "
                 id="polygon3512"
                 style="fill:#8d6e26" /><g
                 id="g3514"><defs
                   id="defs3516"><rect
                     id="SVGID_48_"
                     x="37.799999"
                     y="25.4"
                     width="155.10001"
                     height="258" /></defs><clipPath
                   id="SVGID_1_"><use
                     xlink:href="#SVGID_48_"
                     overflow="visible"
                     id="use3520"
                     style="overflow:visible"
                     x="0"
                     y="0"
                     width="100%"
                     height="100%" /></clipPath><g
                   clip-path="url(#SVGID_1_)"
                   id="g3522"><polygon
                     points="203.4,278.1 116.3,248.5 29.3,278.1 29.3,25.4 203.4,25.4 "
                     id="polygon3524"
                     style="fill:#0b3d91" /></g></g></g><g
               id="g3526"><g
                 id="g3528"><g
                   id="g3530"><g
                     id="g3532"><path
                       d="m 116.8,136.1 c 1.4,-2.1 3.8,-6.4 9.6,-6.4 6.6,0 5,2.2 17.1,2.2 l 0,-23.7 c -6.6,0.3 -11.8,-6.4 -20.5,-2 -2.1,1.1 -6.1,4.4 -6.1,9.2 l 0,20.7"
                       id="path3534"
                       inkscape:connector-curvature="0"
                       style="fill:#ffffff" /><g
                       id="g3536"><path
                         d="m 124.9,80.5 0,0.3 c 0,0.2 -0.1,0.4 -0.3,0.4 0,0 -6.7,0 -7.2,0 0,-0.4 0,-6.2 0,-6.2 0,-0.2 0.1,-0.3 0.3,-0.3 l 0.2,0 0,-1 -3.2,0 0,1 0.2,0 c 0.1,0 0.3,0.2 0.3,0.4 0,0 0,5.7 0,6.1 -0.4,0 -7.1,0 -7.1,0 -0.2,0 -0.3,-0.2 -0.3,-0.4 l 0,-0.2 -1,0 0,3.7 1,0 0,-0.2 c 0,-0.2 0.2,-0.4 0.3,-0.4 0,0 6.6,0 7.1,0 0,0.5 0,16.1 0,16.1 0,0.2 -0.2,0.4 -0.3,0.4 l -0.2,0 0,1 3.3,0 0,-1 -0.2,0 c -0.1,0 -0.3,-0.2 -0.3,-0.5 0,0 0,-15.5 0,-16 0.4,0 7.1,0 7.1,0 0.1,0 0.3,0.2 0.3,0.5 l 0,0.2 1,0 0,-3.8 -1,0 z"
                         id="path3538"
                         inkscape:connector-curvature="0"
                         style="fill:#ffffff" /></g><path
                       d="m 115.9,136.1 c -1.4,-2.1 -3.8,-6.4 -9.6,-6.4 -6.6,0 -5,2.2 -17.1,2.2 l 0,-23.7 c 6.6,0.3 11.9,-6.4 20.5,-2 2.1,1.1 6.1,4.4 6.1,9.2 l 0.1,20.7"
                       id="path3540"
                       inkscape:connector-curvature="0"
                       style="fill:#ffffff" /><path
                       d="m 146.6,111.5 c 0,0 0,22.5 0,23.7 -1,0 -21,0 -27.7,0 2.1,-1.5 4.5,-2.1 7.8,-2.1 3.2,0 4.2,0.2 5.4,0.4 1.7,0.3 3.7,0.7 13,0.6 l 0.6,0 0,-24.5 -1.2,0 c 0,0 0,22.1 0,23.3 -8.6,0.1 -10.5,-0.3 -12.1,-0.6 -1.2,-0.2 -2.3,-0.5 -5.6,-0.5 -4.3,0 -7.1,1 -9.7,3.3 -0.1,0 -0.2,0 -0.2,0 l 0,1.2 31,0 0,-24.9 -1.3,0"
                       id="path3542"
                       inkscape:connector-curvature="0"
                       style="fill:#ffffff" /><path
                       d="m 105.9,131.8 c -3.3,0 -4.4,0.2 -5.6,0.5 -1.6,0.3 -3.5,0.7 -12.2,0.6 0,-1.1 0,-23.3 0,-23.3 l -1.1,0 0,24.5 0.6,0 c 9.3,0.1 11.3,-0.3 13,-0.6 1.2,-0.2 2.2,-0.4 5.4,-0.4 3.4,0 5.7,0.6 7.8,2.1 -6.6,0 -26.7,0 -27.7,0 0,-1.1 0,-23.7 0,-23.7 l -1.2,0 0,24.9 31,0 0,-1.2 c 0,0 -0.1,0 -0.2,0 -2.7,-2.4 -5.5,-3.4 -9.8,-3.4"
                       id="path3544"
                       inkscape:connector-curvature="0"
                       style="fill:#ffffff" /></g></g><g
                   id="g3546"><path
                     d="m 87.1,159.8 c 0.1,0.3 0.3,0.8 0.4,1.2 0.1,0.3 0.3,0.6 0.5,0.6 l 0.4,0.1 0,0.5 c -0.6,0 -1.2,-0.1 -1.7,-0.1 -0.5,0 -1,0 -1.7,0.1 l 0,-0.5 0.6,-0.1 c 0.3,0 0.5,-0.1 0.5,-0.3 0,-0.2 -0.1,-0.7 -0.3,-1.1 l -0.6,-2 -3.8,0 -0.4,1.2 c -0.1,0.4 -0.5,1.5 -0.5,1.8 0,0.4 0.2,0.4 0.6,0.5 l 0.5,0.1 0,0.5 c -0.6,0 -1.1,-0.1 -1.5,-0.1 -0.5,0 -1,0 -1.5,0.1 l 0,-0.5 0.5,-0.1 c 0.3,0 0.6,-0.4 0.7,-0.9 l 2.3,-7.1 c 0.4,-1.2 0.8,-2.5 1.2,-3.8 l 0.4,0 3.4,9.9 z m -2.1,-2.4 -1.7,-5.2 -1.7,5.2 3.4,0 z"
                     id="path3548"
                     inkscape:connector-curvature="0"
                     style="fill:#ffffff" /><path
                     d="m 91,160 2.4,-8.2 c 0.3,-0.9 0,-1.1 -0.3,-1.1 l -0.7,-0.1 0,-0.6 c 0.5,0 0.9,0 1.4,0 0.5,0 0.9,0 1.4,0 l 0,0.5 -0.4,0.1 c -0.3,0 -0.4,0.4 -0.7,1.3 l -2.3,7.3 c -0.3,1 -0.6,2 -0.8,3.1 l -0.6,0 c -0.2,-1 -0.5,-2 -0.8,-2.9 l -2.5,-8.1 c -0.2,-0.6 -0.4,-0.7 -0.6,-0.7 L 86,150.5 86,150 c 0.6,0 1.2,0 1.7,0 0.6,0 1.2,0 1.7,0 l 0,0.5 -0.7,0.1 c -0.2,0 -0.5,0.1 -0.4,0.5 L 91,160 Z"
                     id="path3550"
                     inkscape:connector-curvature="0"
                     style="fill:#ffffff" /><path
                     d="m 97.3,152.1 c 0,-0.7 0,-1.1 -0.1,-1.3 -0.1,-0.2 -0.2,-0.2 -0.5,-0.3 l -0.6,-0.1 0,-0.4 c 0.7,0 1.5,0 2.2,0 1.1,0 2.3,0 3.1,0 0.6,0 1.2,0 1.7,0 -0.1,0.8 -0.2,1.8 -0.2,2.6 l -0.5,0 0,-1.1 c 0,-0.2 0,-0.4 -0.1,-0.5 -0.7,-0.3 -1.7,-0.4 -2.6,-0.4 -0.4,0 -0.7,0 -1.1,0.1 l 0,4.7 c 0.4,0 0.9,0.1 1.5,0.1 0.8,0 1.2,-0.1 1.4,-0.2 0.1,-0.1 0.1,-0.2 0.1,-0.5 l 0.1,-0.9 0.4,0 c 0,0.7 0,1.4 0,2 0,0.6 0,1.3 0,1.9 l -0.4,0 -0.1,-1 c 0,-0.2 0,-0.4 -0.1,-0.4 -0.1,-0.1 -0.6,-0.2 -1.4,-0.2 -0.6,0 -1.1,0 -1.5,0.1 l 0,4.9 c 0.4,0.1 0.7,0.1 1.1,0.1 1.1,0 2.4,-0.1 2.6,-0.2 0.2,-0.1 0.4,-0.9 0.5,-2 l 0.5,0 c -0.1,0.8 -0.2,1.9 -0.2,2.9 -0.6,0 -1.6,0.1 -2.6,0.1 -1,0 -2,-0.1 -2.9,-0.1 -0.5,0 -0.9,0 -1.4,0.1 l 0,-0.5 0.5,-0.1 c 0.3,0 0.5,-0.1 0.5,-0.3 0.1,-0.2 0.1,-0.7 0.1,-1.3 l 0,-7.8 z"
                     id="path3552"
                     inkscape:connector-curvature="0"
                     style="fill:#ffffff" /><path
                     d="m 118.3,160 c 0,0.7 0,1.1 0.1,1.3 0.1,0.2 0.2,0.2 0.5,0.3 l 0.6,0.1 0,0.5 c -0.7,0 -1.3,-0.1 -1.9,-0.1 -0.6,0 -1.3,0 -1.7,0.1 l 0,-0.5 0.4,-0.1 c 0.3,0 0.5,-0.1 0.5,-0.3 0.1,-0.2 0.1,-0.7 0.1,-1.3 l 0,-7.9 0,0 c -0.2,0.5 -0.4,1 -0.6,1.4 l -2.3,6.6 c -0.2,0.7 -0.5,1.5 -0.7,2.2 l -0.3,0 -3.6,-10.2 0,0 0,7.9 c 0,0.7 0,1.1 0.1,1.3 0.1,0.2 0.2,0.2 0.5,0.3 l 0.6,0.1 0,0.5 c -0.6,0 -1,-0.1 -1.6,-0.1 -0.5,0 -1,0 -1.5,0.1 l 0,-0.5 0.6,-0.1 c 0.3,0 0.5,-0.1 0.5,-0.3 0.1,-0.2 0.1,-0.7 0.1,-1.3 l 0,-7.8 c 0,-0.7 0,-1.1 -0.1,-1.3 -0.1,-0.2 -0.2,-0.2 -0.5,-0.3 l -0.6,-0.1 0,-0.5 c 0.4,0 0.8,0 1.2,0 0.4,0 0.8,0 1.2,0 l 3.5,9.7 3.4,-9.7 c 0.4,0 0.8,0 1.2,0 0.4,0 0.8,0 1.2,0 l 0,0.5 -0.6,0.1 c -0.3,0 -0.5,0.1 -0.5,0.3 -0.1,0.2 -0.1,0.6 -0.1,1.3 l 0,7.8 z"
                     id="path3554"
                     inkscape:connector-curvature="0"
                     style="fill:#ffffff" /><path
                     d="m 128.6,159.8 c 0.1,0.3 0.3,0.8 0.4,1.2 0.1,0.3 0.3,0.6 0.5,0.6 l 0.4,0.1 0,0.5 c -0.6,0 -1.1,-0.1 -1.7,-0.1 -0.5,0 -1,0 -1.7,0.1 l 0,-0.5 0.6,-0.1 c 0.3,0 0.5,-0.1 0.5,-0.3 0,-0.2 -0.1,-0.7 -0.3,-1.1 l -0.6,-2 -3.7,0 -0.4,1.2 c -0.1,0.4 -0.5,1.5 -0.5,1.8 0,0.4 0.2,0.4 0.6,0.5 l 0.5,0.1 0,0.5 c -0.6,0 -1.1,-0.1 -1.5,-0.1 -0.5,0 -1,0 -1.5,0.1 l 0,-0.5 0.5,-0.1 c 0.3,0 0.6,-0.4 0.7,-0.9 l 2.3,-7.1 c 0.4,-1.2 0.9,-2.5 1.2,-3.8 l 0.4,0 3.3,9.9 z m -2,-2.4 -1.6,-5.2 -1.7,5.2 3.3,0 z"
                     id="path3556"
                     inkscape:connector-curvature="0"
                     style="fill:#ffffff" /><path
                     d="m 133.4,160 c 0,0.7 0,1.1 0.1,1.3 0.1,0.2 0.2,0.2 0.5,0.3 l 0.6,0.1 0,0.5 c -0.7,0 -1.3,-0.1 -1.9,-0.1 -0.6,0 -1.2,0 -1.9,0.1 l 0,-0.5 0.6,-0.1 c 0.3,0 0.5,-0.1 0.6,-0.3 0.1,-0.2 0.1,-0.7 0.1,-1.3 l 0,-7.8 c 0,-0.7 0,-1.1 -0.1,-1.3 -0.1,-0.2 -0.2,-0.2 -0.6,-0.3 l -0.5,-0.1 0,-0.5 c 0.7,0 1.5,0 2.2,0 0.8,0 1.5,0 2.3,0 2.1,-0.1 2.6,1.4 2.6,2.6 0,1.9 -1.3,3 -2.6,3.4 l 3,5.2 c 0.2,0.4 0.5,0.4 0.8,0.5 l 0,0.5 c -0.3,0 -0.6,-0.1 -0.9,-0.1 -0.3,0 -0.6,0 -0.9,0.1 -0.2,-0.3 -0.4,-0.6 -0.5,-0.9 l -2.4,-4.3 c -0.2,-0.4 -0.5,-0.7 -0.7,-1.1 l 0.1,-0.2 c 0.4,0 0.8,0 1.2,-0.1 0.9,-0.2 1.7,-1.1 1.7,-2.4 0,-1.9 -1,-2.4 -2.1,-2.4 -0.6,0 -1,0.1 -1.3,0.2 l 0,9 z"
                     id="path3558"
                     inkscape:connector-curvature="0"
                     style="fill:#ffffff" /><path
                     d="m 142.4,160 c 0,0.7 0,1.1 0.1,1.3 0.1,0.2 0.2,0.2 0.5,0.3 l 0.6,0.1 0,0.5 c -0.7,0 -1.3,-0.1 -1.9,-0.1 -0.6,0 -1.3,0 -1.9,0.1 l 0,-0.5 0.6,-0.1 c 0.3,0 0.5,-0.1 0.5,-0.3 0.1,-0.2 0.1,-0.7 0.1,-1.3 l 0,-7.8 c 0,-0.7 0,-1.1 -0.1,-1.3 -0.1,-0.2 -0.2,-0.2 -0.5,-0.3 l -0.6,-0.1 0,-0.5 c 0.7,0 1.3,0 1.9,0 0.6,0 1.2,0 1.9,0 l 0,0.5 -0.6,0.1 c -0.3,0 -0.5,0.1 -0.5,0.3 -0.1,0.2 -0.1,0.6 -0.1,1.3 l 0,7.8 z"
                     id="path3560"
                     inkscape:connector-curvature="0"
                     style="fill:#ffffff" /><path
                     d="m 152.5,159.8 c 0.1,0.3 0.3,0.8 0.4,1.2 0.1,0.3 0.3,0.6 0.5,0.6 l 0.4,0.1 0,0.5 c -0.6,0 -1.2,-0.1 -1.7,-0.1 -0.5,0 -1,0 -1.7,0.1 l 0,-0.5 0.6,-0.1 c 0.3,0 0.5,-0.1 0.5,-0.3 0,-0.2 -0.1,-0.7 -0.3,-1.1 l -0.6,-2 -3.8,0 -0.4,1.2 c -0.1,0.4 -0.5,1.5 -0.5,1.8 0,0.4 0.2,0.4 0.6,0.5 l 0.5,0.1 0,0.5 c -0.6,0 -1.1,-0.1 -1.5,-0.1 -0.5,0 -1,0 -1.5,0.1 l 0,-0.5 0.5,-0.1 c 0.3,0 0.6,-0.4 0.7,-0.9 l 2.3,-7.1 c 0.4,-1.2 0.8,-2.5 1.2,-3.8 l 0.4,0 3.4,9.9 z m -2.1,-2.4 -1.6,-5.2 -1.7,5.2 3.3,0 z"
                     id="path3562"
                     inkscape:connector-curvature="0"
                     style="fill:#ffffff" /></g><g
                   id="g3564"><path
                     d="m 97,183 c 0,0.7 0,1.1 0.1,1.3 0.1,0.2 0.3,0.2 0.6,0.3 l 0.7,0.1 0,0.5 c -0.7,0 -1.4,-0.1 -2.1,-0.1 -0.7,0 -1.4,0 -1.9,0.1 l 0,-0.5 0.5,-0.1 c 0.3,0 0.5,-0.1 0.6,-0.3 0.1,-0.2 0.1,-0.6 0.1,-1.3 l 0,-8 0,0 c -0.2,0.5 -0.4,1 -0.6,1.4 l -2.5,6.6 c -0.3,0.7 -0.5,1.5 -0.8,2.2 l -0.3,0 -3.8,-10.2 0,0 0,7.9 c 0,0.7 0,1.1 0.1,1.3 0.1,0.2 0.3,0.2 0.6,0.3 l 0.6,0.1 0,0.5 c -0.6,0 -1.1,-0.1 -1.7,-0.1 -0.5,0 -1.1,0 -1.6,0.1 l 0,-0.5 0.6,-0.1 c 0.3,0 0.5,-0.1 0.6,-0.3 0.1,-0.2 0.1,-0.6 0.1,-1.3 l 0,-7.8 c 0,-0.7 0,-1.1 -0.1,-1.3 -0.1,-0.2 -0.3,-0.2 -0.6,-0.3 l -0.6,0 0,-0.5 c 0.4,0 0.9,0.1 1.3,0.1 0.5,0 0.9,0 1.3,-0.1 l 3.7,9.7 3.7,-9.7 c 0.5,0 0.9,0.1 1.3,0.1 0.5,0 0.9,0 1.3,-0.1 l 0,0.5 -0.6,0 c -0.3,0 -0.5,0.1 -0.6,0.3 -0.1,0.2 -0.1,0.7 -0.1,1.3 l 0,7.9 z"
                     id="path3566"
                     inkscape:connector-curvature="0"
                     style="fill:#ffffff" /><path
                     d="m 100.6,175.1 c 0,-0.7 0,-1.1 -0.1,-1.3 -0.1,-0.2 -0.3,-0.2 -0.6,-0.3 l -0.7,0 0,-0.5 c 0.7,0 1.4,0.1 2.1,0.1 0.7,0 1.3,0 2.1,-0.1 l 0,0.5 -0.7,0 c -0.3,0 -0.5,0.1 -0.6,0.3 -0.1,0.2 -0.1,0.7 -0.1,1.3 l 0,6 c 0,2.5 1,3.2 2.9,3.2 1.5,0 2.9,-0.7 2.9,-3.6 l 0,-5.6 c 0,-0.7 0,-1.1 -0.1,-1.3 -0.1,-0.2 -0.3,-0.2 -0.6,-0.3 l -0.6,0 0,-0.5 c 0.6,0 1.1,0.1 1.6,0.1 0.6,0 1.1,0 1.7,-0.1 l 0,0.5 -0.6,0 c -0.3,0 -0.5,0.1 -0.6,0.3 -0.1,0.2 -0.1,0.7 -0.1,1.3 l 0,5.1 c 0,3.7 -1.1,5.2 -4,5.2 -2.4,0 -3.8,-0.9 -3.8,-4.1 l 0,-6.2 z"
                     id="path3568"
                     inkscape:connector-curvature="0"
                     style="fill:#ffffff" /><path
                     d="m 114,175.6 c 0,-0.7 0,-1.2 -0.1,-1.8 l -2.2,0 c -0.4,0 -0.5,0.2 -0.6,0.6 l -0.1,1.4 -0.4,0 c 0,-0.9 0,-1.9 -0.1,-2.8 1,0 2,0.1 3.1,0.1 l 2.1,0 c 1,0 2,-0.1 3.1,-0.1 -0.1,0.9 -0.1,1.9 -0.1,2.8 l -0.4,0 -0.1,-1.4 c 0,-0.4 -0.1,-0.6 -0.6,-0.6 l -2.2,0 c 0,0.5 -0.1,1.1 -0.1,1.8 l 0,7.4 c 0,0.7 0,1.1 0.1,1.3 0.1,0.2 0.3,0.2 0.6,0.3 l 0.7,0.1 0,0.5 c -0.7,0 -1.4,-0.1 -2.1,-0.1 -0.7,0 -1.4,0 -2.1,0.1 l 0,-0.5 0.7,-0.1 c 0.3,0 0.5,-0.1 0.6,-0.3 0.1,-0.2 0.1,-0.6 0.1,-1.3 l 0,-7.4 z"
                     id="path3570"
                     inkscape:connector-curvature="0"
                     style="fill:#ffffff" /><path
                     d="m 120.9,175.1 c 0,-0.7 0,-1.1 -0.1,-1.3 -0.1,-0.2 -0.3,-0.2 -0.6,-0.3 l -0.7,0 0,-0.5 c 0.7,0 1.4,0.1 2.1,0.1 0.7,0 1.3,0 2.1,-0.1 l 0,0.5 -0.7,0 c -0.3,0 -0.5,0.1 -0.6,0.3 -0.1,0.2 -0.1,0.7 -0.1,1.3 l 0,6 c 0,2.5 1.1,3.2 2.9,3.2 1.5,0 2.9,-0.7 2.9,-3.6 l 0,-5.6 c 0,-0.7 0,-1.1 -0.1,-1.3 -0.1,-0.2 -0.3,-0.2 -0.6,-0.3 l -0.6,0 0,-0.5 c 0.6,0 1.1,0.1 1.6,0.1 0.6,0 1.1,0 1.7,-0.1 l 0,0.5 -0.6,0 c -0.3,0 -0.5,0.1 -0.6,0.3 -0.1,0.2 -0.1,0.7 -0.1,1.3 l 0,5.1 c 0,3.7 -1.1,5.2 -4,5.2 -2.4,0 -3.8,-0.9 -3.8,-4.1 l 0,-6.2 z"
                     id="path3572"
                     inkscape:connector-curvature="0"
                     style="fill:#ffffff" /><path
                     d="m 137.6,182.8 c 0.1,0.4 0.3,0.8 0.5,1.2 0.2,0.3 0.3,0.6 0.6,0.6 l 0.5,0.1 0,0.5 c -0.6,0 -1.2,-0.1 -1.9,-0.1 -0.5,0 -1.1,0 -1.9,0.1 l 0,-0.5 0.7,-0.1 c 0.3,0 0.6,-0.1 0.6,-0.3 0,-0.2 -0.2,-0.7 -0.3,-1.1 l -0.7,-2 -4.1,0 -0.4,1.2 c -0.1,0.4 -0.5,1.5 -0.5,1.8 0,0.4 0.2,0.4 0.7,0.5 l 0.5,0.1 0,0.5 c -0.7,0 -1.2,-0.1 -1.6,-0.1 -0.5,0 -1.1,0 -1.6,0.1 l 0,-0.5 0.5,-0.1 c 0.3,0 0.6,-0.4 0.8,-0.9 l 2.5,-7.1 c 0.4,-1.2 0.9,-2.5 1.3,-3.8 l 0.5,0 3.3,9.9 z m -2.3,-2.4 -1.8,-5.2 -1.8,5.2 3.6,0 z"
                     id="path3574"
                     inkscape:connector-curvature="0"
                     style="fill:#ffffff" /><path
                     d="m 141.9,184.3 c 0.4,0.1 0.8,0.1 1.2,0.1 1.2,0 2.9,-0.1 3.1,-0.3 0.1,-0.2 0.2,-0.8 0.3,-1.1 l 0.2,-0.9 0.5,0 c -0.1,1 -0.2,2.1 -0.3,3 -0.6,0 -1.7,0.1 -2.8,0.1 -1.3,0 -2.2,-0.1 -3.1,-0.1 -0.5,0 -0.8,0 -1.2,0.1 l 0,-0.4 0.4,-0.3 c 0.2,-0.2 0.4,-0.6 0.4,-1 l 0,-8.3 c 0,-0.7 0,-1.1 -0.1,-1.3 -0.1,-0.2 -0.2,-0.2 -0.6,-0.3 l -0.7,0 0,-0.6 c 0.7,0 1.4,0.1 2.1,0.1 0.7,0 1.3,0 2.1,-0.1 l 0,0.5 -0.7,0 c -0.3,0 -0.5,0.1 -0.6,0.3 -0.1,0.2 -0.1,0.7 -0.1,1.3 l 0,9.2 z"
                     id="path3576"
                     inkscape:connector-curvature="0"
                     style="fill:#ffffff" /><path
                     d="m 94.3,199 c 0,0.7 0,1.1 0.1,1.3 0.1,0.2 0.3,0.2 0.6,0.3 l 0.7,0.1 0,0.5 c -0.7,0 -1.4,0 -2.1,0 -0.7,0 -1.4,0 -2.1,0 l 0,-0.5 0.7,-0.1 c 0.3,0 0.5,-0.1 0.6,-0.3 0.1,-0.2 0.1,-0.6 0.1,-1.3 l 0,-7.8 c 0,-0.7 0,-1.1 -0.1,-1.3 -0.1,-0.2 -0.3,-0.2 -0.6,-0.3 l -0.7,-0.1 0,-0.5 c 0.8,0 1.6,0.1 2.4,0.1 0.9,0 2.2,-0.1 3.1,-0.1 0.6,0 1.3,0 1.8,0.1 -0.2,0.8 -0.2,1.8 -0.2,2.7 l -0.5,0 0,-1.1 c 0,-0.2 0,-0.4 -0.1,-0.5 -0.7,-0.4 -1.9,-0.4 -2.5,-0.4 -0.4,0 -0.8,0 -1.2,0.1 l 0,4.7 c 0.5,0 1,0.1 1.6,0.1 0.9,0 1.3,-0.1 1.5,-0.2 0.1,-0.1 0.1,-0.2 0.1,-0.5 l 0.1,-0.9 0.4,0 c 0,0.7 0,1.4 0,2 0,0.6 0,1.3 0,1.9 l -0.4,0 -0.1,-1 c 0,-0.2 0,-0.4 -0.1,-0.4 -0.2,-0.1 -0.6,-0.2 -1.5,-0.2 -0.7,0 -1.2,0 -1.6,0.1 l 0,3.5 z"
                     id="path3578"
                     inkscape:connector-curvature="0"
                     style="fill:#ffffff" /><path
                     d="m 101,191.2 c 0,-0.7 0,-1.1 -0.1,-1.3 -0.1,-0.2 -0.3,-0.2 -0.6,-0.3 l -0.7,-0.1 0,-0.5 c 0.7,0 1.4,0.1 2.1,0.1 0.7,0 1.3,0 2.1,-0.1 l 0,0.5 -0.7,0.1 c -0.3,0 -0.5,0.1 -0.6,0.3 -0.1,0.2 -0.1,0.6 -0.1,1.3 l 0,6 c 0,2.5 1,3.2 2.9,3.2 1.5,0 2.9,-0.7 2.9,-3.6 l 0,-5.6 c 0,-0.7 0,-1.1 -0.1,-1.3 -0.1,-0.2 -0.3,-0.2 -0.6,-0.3 l -0.6,-0.1 0,-0.5 c 0.6,0 1.1,0.1 1.6,0.1 0.6,0 1.1,0 1.7,-0.1 l 0,0.5 -0.6,0.1 c -0.3,0 -0.5,0.1 -0.6,0.3 -0.1,0.2 -0.1,0.6 -0.1,1.3 l 0,5.1 c 0,3.7 -1.2,5.2 -4,5.2 -2.4,0 -3.8,-0.9 -3.8,-4.1 l 0,-6.2 z"
                     id="path3580"
                     inkscape:connector-curvature="0"
                     style="fill:#ffffff" /><path
                     d="m 112.3,191.2 c 0,-0.7 0,-1.1 -0.1,-1.3 -0.1,-0.2 -0.3,-0.2 -0.6,-0.3 l -0.6,-0.1 0,-0.5 c 0.6,0 1.2,0.1 1.7,0.1 0.3,0 0.5,0 0.8,-0.1 l 6.8,10.3 0,0 0,-8.2 c 0,-0.7 0,-1.1 -0.1,-1.3 -0.1,-0.2 -0.3,-0.2 -0.6,-0.3 l -0.6,-0.1 0,-0.4 c 0.6,0 1.1,0.1 1.6,0.1 0.6,0 1.1,0 1.7,-0.1 l 0,0.5 -0.6,0.1 c -0.3,0 -0.5,0.1 -0.6,0.3 -0.1,0.2 -0.1,0.6 -0.1,1.3 l 0,9.7 c 0,0.2 0,0.4 0,0.6 l -1.3,-0.3 -6.7,-10.2 0,0 0,8.1 c 0,0.7 0,1.1 0.1,1.3 0.1,0.2 0.3,0.2 0.6,0.3 l 0.6,0.1 0,0.5 c -0.6,0 -1.1,0 -1.7,0 -0.5,0 -1.1,0 -1.6,0 l 0,-0.5 0.6,-0.1 c 0.3,0 0.5,-0.1 0.6,-0.3 0.1,-0.2 0.1,-0.6 0.1,-1.3 l 0,-7.9 z"
                     id="path3582"
                     inkscape:connector-curvature="0"
                     style="fill:#ffffff" /><path
                     d="m 124.4,191.2 c 0,-0.7 0,-1.1 -0.1,-1.3 -0.1,-0.2 -0.3,-0.2 -0.6,-0.3 l -0.6,-0.1 0,-0.5 c 1,0 1.9,0.1 2.8,0.1 0.9,0 1.8,0 2.5,-0.1 2.9,-0.1 5.1,1.9 5.1,5.3 0,2.9 -1.3,5.3 -3,6.2 -0.9,0.4 -1.8,0.6 -3,0.6 -0.6,0 -1.2,0 -1.8,0 -0.6,0 -1.3,0 -1.9,0 l 0,-0.4 0.4,-0.3 c 0.2,-0.2 0.4,-0.6 0.4,-1 l 0,-8.2 z m 1.4,9.1 c 0.4,0.1 1.1,0.1 1.6,0.1 0.7,0 1.5,-0.1 2.3,-0.5 1.6,-0.9 2.3,-2.7 2.3,-5 0,-4.3 -2,-5.1 -4.6,-5.1 -0.5,0 -1.2,0 -1.6,0.1 l 0,10.4 z"
                     id="path3584"
                     inkscape:connector-curvature="0"
                     style="fill:#ffffff" /><path
                     d="m 139.9,191.9 -0.1,-1 c 0,-0.5 -0.1,-0.6 -0.6,-1.1 -0.4,-0.3 -1,-0.4 -1.5,-0.4 -1,0 -2.1,0.8 -2.1,2.6 0,1.2 0.6,1.9 2.3,2.2 2,0.3 3.3,0.9 3.3,2.9 0,3 -2.2,4.4 -4.3,4.4 -1,0 -2,-0.4 -2.4,-0.7 0.1,-0.9 0.1,-1.9 0.1,-2.7 l 0.5,0 0.1,1.2 c 0.1,0.7 1.2,1.4 2.3,1.4 1.3,0 2.5,-1 2.5,-2.7 0,-1.7 -1.1,-2.1 -2.5,-2.3 -2.2,-0.3 -3.1,-1.2 -3.1,-3 0,-2.7 1.9,-3.9 3.6,-3.9 1.1,0 2,0.5 2.6,0.7 -0.2,0.9 -0.2,1.6 -0.2,2.5 l -0.5,0 z"
                     id="path3586"
                     inkscape:connector-curvature="0"
                     style="fill:#ffffff" /></g></g><g
                 id="g3588"><g
                   id="g3590"><path
                     d="m 170.5,214.7 -9.9,0 0,-56.9 c 1.7,2.3 3.2,4.8 4.4,7.2 1.2,2.3 2,4.4 2.4,5.7 l 0.2,0.5 c 0.9,2.4 2.9,9.3 2.9,14.7 0,0 0,26.9 0,28.8 m -96.4,-0.1 0,-87.4 c 0,-0.3 0,-0.5 0,-0.5 0,-10.2 3.7,-23.1 5.5,-27.7 L 80,98 C 80.9,95.6 82.4,91.7 84.6,87.3 87.4,81.8 91,76 95,71.1 c 4.1,-5.2 8.2,-9.5 12.9,-13.6 3.6,-3.1 7.2,-5.8 8.6,-6.8 1.4,1 5,3.7 8.6,6.8 4.7,4.1 8.8,8.4 12.9,13.6 3.9,5 7.6,10.8 10.3,16.2 2.2,4.4 3.7,8.3 4.6,10.7 l 0.4,1 c 1.8,4.6 5.4,17.5 5.4,27.7 0,0 0,0.2 0,0.4 l 0,87.4 -84.6,0 z m 86.5,-78.3 c 0.9,2.1 1.6,3.9 2.1,5.3 l 0.5,1.3 c 2,5.1 5.8,17.8 7,29.8 -0.3,-1 -0.6,-1.8 -0.8,-2.3 l -0.2,-0.5 c -0.5,-1.3 -1.3,-3.5 -2.5,-5.9 -1.5,-3 -3.5,-6.2 -5.7,-9 -0.2,-0.2 -0.3,-0.4 -0.5,-0.6 l 0,-18.1 z m -88.5,18.3 c -0.1,0.2 -0.3,0.3 -0.4,0.5 -2.1,2.7 -4.2,5.9 -5.7,9 -1.2,2.4 -2,4.6 -2.5,5.9 l -0.2,0.5 c -0.2,0.7 -0.6,1.6 -0.9,2.8 1.2,-12.1 5,-25.1 7.1,-30.3 l 0.5,-1.3 c 0.5,-1.4 1.2,-3.2 2.1,-5.3 l 0,18.2 z m 0,60.1 -9.8,0 c 0,-1.9 0,-28.8 0,-28.8 0,-5.4 1.9,-12.2 2.9,-14.7 l 0.2,-0.5 c 0.5,-1.3 1.3,-3.4 2.4,-5.7 1.2,-2.4 2.7,-4.8 4.3,-7.1 l 0,56.8 z m 100.6,2 0,-36.4 c 0,-14.1 -5.1,-31.7 -7.6,-38 l -0.5,-1.3 c -0.9,-2.3 -2.2,-5.7 -4,-9.6 l 0,-4.6 c 0,-10.5 -3.8,-23.7 -5.6,-28.4 l 0,0 -0.4,-1 C 153.7,95 152.2,91 149.9,86.5 147.1,80.9 143.3,75 139.3,69.9 135.1,64.6 130.9,60.2 126.1,56 c -4.5,-3.9 -9.3,-7.3 -9.3,-7.3 l -0.6,-0.4 -0.6,0.4 c 0,0 -4.8,3.4 -9.3,7.3 -4.8,4.2 -9,8.6 -13.2,13.9 -4,5.1 -7.7,11 -10.6,16.6 C 80.4,91 78.9,95 78,97.4 l -0.4,1 c -1.8,4.7 -5.6,17.9 -5.6,28.4 l 0,4.6 c -1.8,3.9 -3.1,7.3 -4,9.6 l -0.5,1.3 c -2.5,6.3 -7.6,24 -7.6,38 l 0,36.4 112.8,0 z"
                     id="path3592"
                     inkscape:connector-curvature="0"
                     style="fill:#ffffff" /></g><g
                   id="g3594"><rect
                     x="79.199997"
                     y="167.2"
                     width="74.300003"
                     height="0.69999999"
                     id="rect3596"
                     style="fill:#ffffff" /><rect
                     x="79.199997"
                     y="144.3"
                     width="74.300003"
                     height="0.69999999"
                     id="rect3598"
                     style="fill:#ffffff" /><rect
                     x="79.199997"
                     y="206.3"
                     width="74.300003"
                     height="0.69999999"
                     id="rect3600"
                     style="fill:#ffffff" /></g></g></g></g></g></g></g></g></svg>