<svg id="Layer_1" data-name="Layer 1" xmlns="http://www.w3.org/2000/svg" viewBox="0 0 34 315.38"><defs><style>.cls-1{fill:#21448d;}.cls-2{fill:#fff;}</style></defs><title>Untitled-6</title><path class="cls-1" d="M318.34,527.16l-3.7,1.12V263.46l3.7,1.12a3.41,3.41,0,0,0,3.8-5.2l-13.58-19.72a3.41,3.41,0,0,0-5.62,0l-13.58,19.72a3.41,3.41,0,0,0,3.8,5.2l3.7-1.12V528.28l-3.7-1.12a3.41,3.41,0,0,0-3.8,5.2l13.58,19.72a3.41,3.41,0,0,0,5.62,0l13.58-19.72A3.41,3.41,0,0,0,318.34,527.16Z" transform="translate(-288.75 -238.18)"/><path class="cls-2" d="M300,466.65v-4.84c0-3,1.65-4.5,4-4.5a3.7,3.7,0,0,1,3.67,2.28l1.76-1.33v-1.44h1.83v2.37l-3.29,2.4c0,0.19,0,.4,0,0.61v1.23h1.44v-1.22h1.83v4.44h-1.83v-1.23h-7.61v1.23H300Zm1.83-3.22h4.41V462c0-1.86-1-2.5-2.23-2.5s-2.18.63-2.18,2.5v1.47Z" transform="translate(-288.75 -238.18)"/><path class="cls-2" d="M300,453.38v-4.45h1.83v1.23h7.61v-1.23h1.83v4.45h-1.83v-1.23h-7.61v1.23H300Z" transform="translate(-288.75 -238.18)"/><path class="cls-2" d="M307.75,443.61H308c1.28,0,1.65-1.15,1.65-2.2,0-1.28-.66-1.86-1.38-1.86s-1.2.42-2,2.45c-0.83,2.2-1.94,2.95-3.35,2.95a3.19,3.19,0,0,1-3.11-3.46,2.1,2.1,0,0,1,.91-2l-0.72.14v-1.79l3.32,0v1.79H302.8c-0.95.08-1.2,0.83-1.2,1.73a1.32,1.32,0,0,0,1.28,1.57c0.79,0,1.28-.61,1.91-2.2,1-2.51,2-3.24,3.45-3.24a3.21,3.21,0,0,1,3.24,3.48c0,2.2-1.12,2.74-1.12,2.74l0.93-.14v1.79l-3.53,0v-1.79Z" transform="translate(-288.75 -238.18)"/><path class="cls-2" d="M309.45,428.34v-0.7l-3,3.09h3v-1h1.83v4.2h-1.83v-1.23h-7.61v1.23H300v-4.2h1.83v1h3.69l-3.69-3.2v0.82H300v-4.61h1.83v1.39l4.1,3.59,3.51-3.57v-1.41h1.83v4.61h-1.83Z" transform="translate(-288.75 -238.18)"/><path class="cls-2" d="M313.32,413.27v1.44l-15.21-3.83v-1.43Z" transform="translate(-288.75 -238.18)"/><path class="cls-2" d="M300,399.82V395c0-3,1.65-4.5,4-4.5a3.7,3.7,0,0,1,3.67,2.27l1.76-1.33V390h1.83v2.37l-3.29,2.4c0,0.19,0,.4,0,0.61v1.23h1.44v-1.22h1.83v4.44h-1.83v-1.23h-7.61v1.23H300Zm1.83-3.22h4.41v-1.47c0-1.86-1-2.5-2.23-2.5s-2.18.63-2.18,2.5v1.47Z" transform="translate(-288.75 -238.18)"/><path class="cls-2" d="M303.09,379.68h-1.25v3.64H305V380.6h1.76v2.72h2.69v-3.64H308.2V378h3.08v8.56h-1.83v-1.23h-7.61v1.23H300V378h3.08v1.7Z" transform="translate(-288.75 -238.18)"/><path class="cls-2" d="M301.84,370.73v1.14l5.67-1.62-7.5-2.79v-1.14l7.48-2.82h0l-5.69-1.6v1.19H300v-4.61h1.83v1.31l9.44,2.87V364l-7.47,2.93,7.47,2.88v1.31l-9.44,2.9v1.33H300v-4.61h1.83Z" transform="translate(-288.75 -238.18)"/><path class="cls-2" d="M300,354.75v-3.69l9.44-4.21v-1.22h1.83v4.18h-1.83v-0.87l-1.17.51v4.25l1.17,0.5v-1h1.83v4.21h-1.83v-1.22l-7.61-3.41v1.92H300Zm6.68-1.73v-2.88l-3.36,1.44Z" transform="translate(-288.75 -238.18)"/><path class="cls-2" d="M300,343V338.2c0-3,1.65-4.5,4-4.5a3.7,3.7,0,0,1,3.67,2.27l1.76-1.33V333.2h1.83v2.37L308,338c0,0.19,0,.4,0,0.61v1.23h1.44V338.6h1.83V343h-1.83v-1.23h-7.61V343H300Zm1.83-3.22h4.41v-1.47c0-1.86-1-2.5-2.23-2.5s-2.18.63-2.18,2.5v1.47Z" transform="translate(-288.75 -238.18)"/><path class="cls-2" d="M300,329.76v-5.48c0-3.49,2.35-6,5.62-6a5.7,5.7,0,0,1,5.64,6v5.48h-1.83v-1.23h-7.61v1.23H300Zm1.83-3.24h7.61v-2.26a3.81,3.81,0,1,0-7.61,0v2.26Z" transform="translate(-288.75 -238.18)"/></svg>