<svg id="Layer_1" data-name="Layer 1" xmlns="http://www.w3.org/2000/svg" viewBox="0 0 400.73 26.39"><defs><style>.cls-1{fill:#21448d;}.cls-2{fill:#fff;}</style></defs><title>smart-investing-tagline.desktop</title><path class="cls-1" d="M107.11,399.66v0.21c0,1.32,1.19,1.7,2.26,1.7,1.32,0,1.91-.68,1.91-1.42s-0.43-1.24-2.52-2c-2.26-.86-3-2-3-3.45a3.28,3.28,0,0,1,3.56-3.2,2.16,2.16,0,0,1,2,.94l-0.15-.74H113l0,3.41h-1.85v-0.54c-0.08-1-.86-1.24-1.78-1.24a1.35,1.35,0,0,0-1.62,1.32c0,0.81.63,1.3,2.26,2,2.59,1,3.33,2,3.33,3.54a3.31,3.31,0,0,1-3.58,3.33c-2.26,0-2.82-1.15-2.82-1.15l0.15,1h-1.85l0-3.63h1.85Z" transform="translate(-105.26 -382.67)"/><path class="cls-1" d="M117.05,391.7h2.79l4.53,8.39,4.42-8.39h2.79v1.88H130l0.21,7.83h1.32v1.88H127v-1.88h1.29l0-5.11-3.33,7h-1.2l-3.36-6.88,0,5h1.3v1.88h-4.57v-1.88h1.32l0.23-7.83h-1.55V391.7Z" transform="translate(-105.26 -382.67)"/><path class="cls-1" d="M134.3,401.41h1.25l4.35-9.71h1l4.35,9.71h1.25v1.88h-4.3v-1.88h0.89l-0.53-1.2h-4.37l-0.51,1.2h1v1.88H134.3v-1.88Zm4.57-2.84h3l-1.48-3.46Z" transform="translate(-105.26 -382.67)"/><path class="cls-1" d="M149.22,391.7h5c3.08,0,4.63,1.7,4.63,4.12a3.61,3.61,0,0,1-2.19,3.56c0.91,0.77,1.14,2.06,2.54,2.06h0.46v1.81a5.4,5.4,0,0,1-1.1.1c-2.89,0-2.72-2.65-4.12-3.45-0.2,0-.4,0-0.61,0h-1.27v1.48h1.58v1.88h-4.88v-1.88h1.25v-7.83h-1.25V391.7Zm3.3,1.88v4.53H154c1.91,0,2.57-1,2.57-2.29s-0.64-2.24-2.57-2.24h-1.52Z" transform="translate(-105.26 -382.67)"/><path class="cls-1" d="M164.88,401.41h1.25v-7.83H164v1.29h-1.75V391.7H172v3.17h-1.75v-1.29H168.2v7.83h1.27v1.88h-4.58v-1.88Z" transform="translate(-105.26 -382.67)"/><path class="cls-1" d="M181.67,391.7h4.58v1.88H185v7.83h1.27v1.88h-4.58v-1.88h1.27v-7.83h-1.27V391.7Z" transform="translate(-105.26 -382.67)"/><path class="cls-1" d="M197.87,391.7h4.58v1.88h-1.27v9.71h-1.53l-6.28-7.6v5.72h1.27v1.88h-4.58v-1.88h1.27v-7.83h-1.27V391.7h2.47l6.61,7.73v-5.85h-1.27V391.7Z" transform="translate(-105.26 -382.67)"/><path class="cls-1" d="M213.19,391.7h4.75v1.88h-1.58l-4.25,9.71h-1.29l-4.25-9.71h-1.62V391.7h4.75v1.88h-1l2.74,6.28,2.74-6.28h-1V391.7Z" transform="translate(-105.26 -382.67)"/><path class="cls-1" d="M227.7,394.86v-1.29H224v3.25h2.8v1.81H224v2.77h3.74v-1.29h1.75v3.17h-8.8v-1.88h1.27v-7.83h-1.27V391.7h8.8v3.17H227.7Z" transform="translate(-105.26 -382.67)"/><path class="cls-1" d="M234.89,399.66v0.21c0,1.32,1.19,1.7,2.26,1.7,1.32,0,1.91-.68,1.91-1.42s-0.43-1.24-2.52-2c-2.26-.86-3-2-3-3.45a3.28,3.28,0,0,1,3.56-3.2,2.16,2.16,0,0,1,2,.94l-0.15-.74h1.85l0,3.41H239v-0.54c-0.08-1-.86-1.24-1.78-1.24a1.35,1.35,0,0,0-1.62,1.32c0,0.81.63,1.3,2.26,2,2.59,1,3.33,2,3.33,3.54a3.31,3.31,0,0,1-3.58,3.33c-2.26,0-2.82-1.15-2.82-1.15l0.15,1h-1.85l0-3.63h1.85Z" transform="translate(-105.26 -382.67)"/><path class="cls-1" d="M246.83,401.41h1.25v-7.83H246v1.29h-1.75V391.7H254v3.17H252.2v-1.29h-2.06v7.83h1.27v1.88h-4.58v-1.88Z" transform="translate(-105.26 -382.67)"/><path class="cls-1" d="M257.15,391.7h4.58v1.88h-1.27v7.83h1.27v1.88h-4.58v-1.88h1.27v-7.83h-1.27V391.7Z" transform="translate(-105.26 -382.67)"/><path class="cls-1" d="M273.36,391.7h4.58v1.88h-1.27v9.71h-1.53l-6.28-7.6v5.72h1.27v1.88h-4.58v-1.88h1.27v-7.83h-1.27V391.7H268l6.61,7.73v-5.85h-1.27V391.7Z" transform="translate(-105.26 -382.67)"/><path class="cls-1" d="M290,395.62c0-1.17-1.09-2.19-2.92-2.19-2.37,0-3.81,1.71-3.81,4.09a4,4,0,0,0,4.19,4,7.82,7.82,0,0,0,2.64-.46V399h-3.23V397.2h5.21v5a7.9,7.9,0,0,1-4.48,1.32c-3.92,0-6.53-2.57-6.53-6a5.84,5.84,0,0,1,5.67-6c2.84,0,3.31,1.17,3.38,1.4L290,391.5h1.86v4.12H290Z" transform="translate(-105.26 -382.67)"/><path class="cls-2" d="M312.4,406.25a13.48,13.48,0,0,1-7.78,2.81c-5.72,0-9-3.28-9-7.16s2.41-5.65,5.15-6.91c-1.94-1.91-2.77-3.78-2.77-5.54,0-4.28,3.17-6.77,7.49-6.77s7.16,2.52,7.16,6.23c0,4.1-2.41,5.83-5.08,7l5.4,5a28.62,28.62,0,0,0,3.13-5.18v0H321v4.1h-2.77a34.59,34.59,0,0,1-2.66,3.74l0.9,0.94h3v4.1h-4.86Zm-2.63-2.63-6.37-6c-1.73.83-3,1.91-3,3.92,0,2.3,1.73,3.64,4.61,3.64A8.84,8.84,0,0,0,309.77,403.62Zm-4.72-10.4c1.94-.86,3.46-1.87,3.46-3.78a3,3,0,1,0-6,0C302.5,390.81,303.58,391.85,305.05,393.22Z" transform="translate(-105.26 -382.67)"/><path class="cls-1" d="M330.21,402.51a7.49,7.49,0,0,1-3.87,1c-3.74,0-6.51-2.42-6.51-6a5.84,5.84,0,0,1,5.67-6c2.84,0,3.31,1.17,3.38,1.4l-0.13-1.2h1.85l0,3.92h-1.85c-0.07-1.35-1.38-2.19-2.92-2.19-2.37,0-3.81,1.71-3.81,4.09a4,4,0,0,0,4,4,6.85,6.85,0,0,0,3.55-.79Z" transform="translate(-105.26 -382.67)"/><path class="cls-1" d="M333,401.41h1.25l4.35-9.71h1l4.35,9.71h1.25v1.88h-4.3v-1.88h0.89l-0.53-1.2H336.9l-0.51,1.2h1v1.88H333v-1.88Zm4.57-2.84h3l-1.48-3.46Z" transform="translate(-105.26 -382.67)"/><path class="cls-1" d="M349.11,401.41h1.25v-7.83h-2.13v1.29h-1.75V391.7h9.74v3.17h-1.75v-1.29h-2.06v7.83h1.27v1.88h-4.58v-1.88Z" transform="translate(-105.26 -382.67)"/><path class="cls-1" d="M367.13,391.7h4.58v1.88h-1.27v7.83h1.25v1.88h-4.57v-1.88h1.27v-2.69h-5.65v2.69H364v1.88h-4.57v-1.88h1.27v-7.83h-1.27V391.7H364v1.88h-1.27v3.33h5.65v-3.33h-1.27V391.7Z" transform="translate(-105.26 -382.67)"/><path class="cls-1" d="M381.23,391.5a6,6,0,1,1-6.18,6A6,6,0,0,1,381.23,391.5Zm0,10.17a4,4,0,0,0,4-4.15,4,4,0,1,0-8,0A4,4,0,0,0,381.24,401.67Z" transform="translate(-105.26 -382.67)"/><path class="cls-1" d="M390.77,403.29v-1.88H392v-7.83h-1.27V391.7h5.08v1.88h-1.76v7.83h3.74v-1.29h1.75v3.17h-8.8Z" transform="translate(-105.26 -382.67)"/><path class="cls-1" d="M402.74,391.7h4.58v1.88h-1.27v7.83h1.27v1.88h-4.58v-1.88H404v-7.83h-1.27V391.7Z" transform="translate(-105.26 -382.67)"/><path class="cls-1" d="M421,402.51a7.49,7.49,0,0,1-3.87,1c-3.74,0-6.51-2.42-6.51-6a5.84,5.84,0,0,1,5.67-6c2.84,0,3.31,1.17,3.38,1.4l-0.13-1.2h1.85l0,3.92h-1.85c-0.07-1.35-1.38-2.19-2.92-2.19-2.37,0-3.81,1.71-3.81,4.09a4,4,0,0,0,4,4,6.85,6.85,0,0,0,3.55-.79Z" transform="translate(-105.26 -382.67)"/><path class="cls-1" d="M438.42,391.7h4.75v1.88h-1.58l-4.25,9.71H436l-4.25-9.71h-1.62V391.7h4.75v1.88h-1l2.74,6.28,2.74-6.28h-1V391.7Z" transform="translate(-105.26 -382.67)"/><path class="cls-1" d="M443.62,401.41h1.25l4.35-9.71h1l4.35,9.71h1.25v1.88h-4.3v-1.88h0.89l-0.53-1.2h-4.37l-0.51,1.2h1v1.88h-4.34v-1.88Zm4.57-2.84h3l-1.48-3.46Z" transform="translate(-105.26 -382.67)"/><path class="cls-1" d="M458.52,403.29v-1.88h1.27v-7.83h-1.27V391.7h5.08v1.88h-1.76v7.83h3.74v-1.29h1.75v3.17h-8.8Z" transform="translate(-105.26 -382.67)"/><path class="cls-1" d="M477.38,391.7H482v1.88H480.7v4.91c0,3.46-2,5-4.86,5s-4.8-1.55-4.8-5v-4.91h-1.27V391.7h4.58v1.88h-1.27v4.91c0,2.21,1,3.13,2.75,3.13s2.82-.92,2.82-3.15v-4.9h-1.27V391.7Z" transform="translate(-105.26 -382.67)"/><path class="cls-1" d="M492.54,394.86v-1.29h-3.74v3.25h2.8v1.81h-2.8v2.77h3.74v-1.29h1.75v3.17h-8.8v-1.88h1.27v-7.83h-1.27V391.7h8.8v3.17h-1.75Z" transform="translate(-105.26 -382.67)"/><path class="cls-1" d="M499.73,399.66v0.21c0,1.32,1.19,1.7,2.26,1.7,1.32,0,1.91-.68,1.91-1.42s-0.43-1.24-2.52-2c-2.26-.86-3-2-3-3.45a3.28,3.28,0,0,1,3.56-3.2,2.16,2.16,0,0,1,2,.94l-0.15-.74h1.85l0,3.41H503.8v-0.54c-0.08-1-.86-1.24-1.78-1.24a1.35,1.35,0,0,0-1.62,1.32c0,0.81.63,1.3,2.26,2,2.59,1,3.33,2,3.33,3.54a3.31,3.31,0,0,1-3.58,3.33c-2.26,0-2.82-1.15-2.82-1.15l0.15,1H497.9l0-3.63h1.85Z" transform="translate(-105.26 -382.67)"/></svg>