<?xml version="1.0" encoding="UTF-8" standalone="no"?>
<!-- Generator: Adobe Illustrator 19.1.0, SVG Export Plug-In . SVG Version: 6.00 Build 0)  -->

<svg
   xmlns:dc="http://purl.org/dc/elements/1.1/"
   xmlns:cc="http://creativecommons.org/ns#"
   xmlns:rdf="http://www.w3.org/1999/02/22-rdf-syntax-ns#"
   xmlns:svg="http://www.w3.org/2000/svg"
   xmlns="http://www.w3.org/2000/svg"
   xmlns:sodipodi="http://sodipodi.sourceforge.net/DTD/sodipodi-0.dtd"
   xmlns:inkscape="http://www.inkscape.org/namespaces/inkscape"
   version="1.1"
   id="Layer_1"
   x="0px"
   y="0px"
   viewBox="0 0 503.20001 33.200001"
   enable-background="new 0 0 612 792"
   xml:space="preserve"
   inkscape:version="0.91 r13725"
   sodipodi:docname="smart-investing-tagline.svg"
   width="503.20001"
   height="33.200001"><metadata
     id="metadata95"><rdf:RDF><cc:Work
         rdf:about=""><dc:format>image/svg+xml</dc:format><dc:type
           rdf:resource="http://purl.org/dc/dcmitype/StillImage" /><dc:title></dc:title></cc:Work></rdf:RDF></metadata><defs
     id="defs93" /><sodipodi:namedview
     pagecolor="#ffffff"
     bordercolor="#666666"
     borderopacity="1"
     objecttolerance="10"
     gridtolerance="10"
     guidetolerance="10"
     inkscape:pageopacity="0"
     inkscape:pageshadow="2"
     inkscape:window-width="1482"
     inkscape:window-height="934"
     id="namedview91"
     showgrid="false"
     showborder="false"
     fit-margin-top="0"
     fit-margin-left="0"
     fit-margin-right="0"
     fit-margin-bottom="0"
     inkscape:zoom="1.1919192"
     inkscape:cx="250.9"
     inkscape:cy="17.5"
     inkscape:window-x="0"
     inkscape:window-y="0"
     inkscape:window-maximized="0"
     inkscape:current-layer="Layer_1" /><g
     id="g3"
     transform="translate(-55.1,-380.3)"><g
       id="g5"><g
         id="g7"><g
           id="g9"><g
             id="g11"><g
               id="g13"><g
                 id="g15"><path
                   d="m 57.4,401.7 0,0.3 c 0,1.7 1.5,2.1 2.8,2.1 1.7,0 2.4,-0.8 2.4,-1.8 0,-1 -0.5,-1.6 -3.2,-2.5 -2.8,-1.1 -3.8,-2.5 -3.8,-4.3 0,-2.1 1.6,-4 4.5,-4 1.9,0 2.5,1.1 2.5,1.2 l -0.2,-0.9 2.3,0 0,4.3 -2.3,0 0,-0.7 c -0.1,-1.2 -1.1,-1.6 -2.2,-1.6 -1.4,0 -2,0.8 -2,1.7 0,1 0.8,1.6 2.8,2.5 3.3,1.3 4.2,2.5 4.2,4.5 0,2.6 -2,4.2 -4.5,4.2 -2.8,0 -3.5,-1.4 -3.5,-1.4 l 0.2,1.2 -2.3,0 0,-4.6 2.3,0 z"
                   id="path17"
                   inkscape:connector-curvature="0"
                   style="fill:#21448d" /><path
                   d="m 69.9,391.7 3.5,0 5.7,10.5 5.5,-10.5 3.5,0 0,2.4 -1.9,0 0.3,9.8 1.7,0 0,2.4 -5.7,0 0,-2.4 1.5,0 0,-6.4 -4.2,8.8 -1.5,0 -4.2,-8.6 0,6.3 1.6,0 0,2.4 -5.7,0 0,-2.4 1.7,0 0.3,-9.8 -1.9,0 0,-2.5 z"
                   id="path19"
                   inkscape:connector-curvature="0"
                   style="fill:#21448d" /><path
                   d="m 91.6,403.9 1.6,0 5.5,-12.2 1.2,0 5.5,12.2 1.6,0 0,2.4 -5.4,0 0,-2.4 1.1,0 -0.7,-1.5 -5.5,0 -0.6,1.5 1.1,0 0,2.4 -5.4,0 0,-2.4 z m 5.7,-3.6 3.7,0 -1.9,-4.3 -1.8,4.3 z"
                   id="path21"
                   inkscape:connector-curvature="0"
                   style="fill:#21448d" /><path
                   d="m 110.3,391.7 6.2,0 c 3.9,0 5.8,2.1 5.8,5.2 0,2 -0.8,3.6 -2.8,4.5 1.1,1 1.4,2.6 3.2,2.6 l 0.6,0 0,2.3 c 0,0 -0.5,0.1 -1.4,0.1 -3.6,0 -3.4,-3.3 -5.2,-4.3 -0.2,0 -0.5,0 -0.8,0 l -1.6,0 0,1.9 2,0 0,2.4 -6.1,0 0,-2.4 1.6,0 0,-9.8 -1.6,0 0,-2.5 z m 4.2,2.4 0,5.7 1.9,0 c 2.4,0 3.2,-1.3 3.2,-2.9 0,-1.6 -0.8,-2.8 -3.2,-2.8 l -1.9,0 z"
                   id="path23"
                   inkscape:connector-curvature="0"
                   style="fill:#21448d" /><path
                   d="m 130,403.9 1.6,0 0,-9.8 -2.7,0 0,1.6 -2.2,0 0,-4 12.2,0 0,4 -2.2,0 0,-1.6 -2.6,0 0,9.8 1.6,0 0,2.4 -5.7,0 0,-2.4 z"
                   id="path25"
                   inkscape:connector-curvature="0"
                   style="fill:#21448d" /><path
                   d="m 151.1,391.7 5.8,0 0,2.4 -1.6,0 0,9.8 1.6,0 0,2.4 -5.8,0 0,-2.4 1.6,0 0,-9.8 -1.6,0 0,-2.4 z"
                   id="path27"
                   inkscape:connector-curvature="0"
                   style="fill:#21448d" /><path
                   d="m 171.4,391.7 5.8,0 0,2.4 -1.6,0 0,12.2 -1.9,0 -7.9,-9.5 0,7.2 1.6,0 0,2.4 -5.8,0 0,-2.4 1.6,0 0,-9.8 -1.6,0 0,-2.4 3.1,0 8.3,9.7 0,-7.3 -1.6,0 0,-2.5 z"
                   id="path29"
                   inkscape:connector-curvature="0"
                   style="fill:#21448d" /><path
                   d="m 190.7,391.7 6,0 0,2.4 -2,0 -5.3,12.2 -1.6,0 -5.3,-12.2 -2,0 0,-2.4 6,0 0,2.4 -1.2,0 3.4,7.9 3.4,-7.9 -1.3,0 0,-2.4 z"
                   id="path31"
                   inkscape:connector-curvature="0"
                   style="fill:#21448d" /><path
                   d="m 208.9,395.7 0,-1.6 -4.7,0 0,4.1 3.5,0 0,2.3 -3.5,0 0,3.5 4.7,0 0,-1.6 2.2,0 0,4 -11.1,0 0,-2.4 1.6,0 0,-9.8 -1.6,0 0,-2.4 11.1,0 0,4 -2.2,0 z"
                   id="path33"
                   inkscape:connector-curvature="0"
                   style="fill:#21448d" /><path
                   d="m 217.9,401.7 0,0.3 c 0,1.7 1.5,2.1 2.8,2.1 1.7,0 2.4,-0.8 2.4,-1.8 0,-1 -0.5,-1.6 -3.2,-2.5 -2.8,-1.1 -3.8,-2.5 -3.8,-4.3 0,-2.1 1.6,-4 4.5,-4 1.9,0 2.5,1.1 2.5,1.2 l -0.2,-0.9 2.3,0 0,4.3 -2.2,0 0,-0.7 c -0.1,-1.2 -1.1,-1.6 -2.2,-1.6 -1.4,0 -2,0.8 -2,1.7 0,1 0.8,1.6 2.8,2.5 3.3,1.3 4.2,2.5 4.2,4.5 0,2.6 -2,4.2 -4.5,4.2 -2.8,0 -3.5,-1.4 -3.5,-1.4 l 0.2,1.2 -2.3,0 0,-4.6 2.2,0 z"
                   id="path35"
                   inkscape:connector-curvature="0"
                   style="fill:#21448d" /><path
                   d="m 232.9,403.9 1.6,0 0,-9.8 -2.7,0 0,1.6 -2.2,0 0,-4 12.2,0 0,4 -2.2,0 0,-1.6 -2.6,0 0,9.8 1.6,0 0,2.4 -5.8,0 0,-2.4 z"
                   id="path37"
                   inkscape:connector-curvature="0"
                   style="fill:#21448d" /><path
                   d="m 245.9,391.7 5.8,0 0,2.4 -1.7,0 0,9.8 1.6,0 0,2.4 -5.8,0 0,-2.4 1.6,0 0,-9.8 -1.6,0 0,-2.4 z"
                   id="path39"
                   inkscape:connector-curvature="0"
                   style="fill:#21448d" /><path
                   d="m 266.2,391.7 5.8,0 0,2.4 -1.6,0 0,12.2 -1.9,0 -7.9,-9.5 0,7.2 1.6,0 0,2.4 -5.8,0 0,-2.4 1.6,0 0,-9.8 -1.6,0 0,-2.4 3.1,0 8.3,9.7 0,-7.3 -1.6,0 0,-2.5 z"
                   id="path41"
                   inkscape:connector-curvature="0"
                   style="fill:#21448d" /><path
                   d="m 287.2,396.6 c -0.1,-1.5 -1.4,-2.8 -3.7,-2.8 -3,0 -4.8,2.2 -4.8,5.1 0,2.9 2.2,5.1 5.3,5.1 1.3,0 2.5,-0.3 3.3,-0.6 l 0,-2.6 -4.1,0 0,-2.3 6.5,0 0,6.2 c 0,0 -2.2,1.7 -5.6,1.7 -4.9,0 -8.2,-3.2 -8.2,-7.5 0,-4.2 3.3,-7.5 7.1,-7.5 3.6,0 4.2,1.5 4.2,1.8 l -0.2,-1.8 2.3,0 0,5.2 -2.1,0 z"
                   id="path43"
                   inkscape:connector-curvature="0"
                   style="fill:#21448d" /></g></g></g></g><g
           id="g45"><g
             id="g47"><g
               id="g49"><g
                 id="g51"><path
                   d="m 315.2,410 c -2.8,2 -6.1,3.5 -9.8,3.5 -7.2,0 -11.3,-4.1 -11.3,-9 0,-4.9 3,-7.1 6.5,-8.7 -2.4,-2.4 -3.5,-4.7 -3.5,-7 0,-5.4 4,-8.5 9.4,-8.5 5.4,0 9,3.2 9,7.8 0,5.2 -3,7.3 -6.4,8.8 l 6.8,6.3 c 2.3,-3 3.8,-6.2 3.9,-6.5 l 0,0 6.1,0 0,5.2 -3.5,0 c -0.8,1.3 -1.9,2.9 -3.3,4.7 l 1.1,1.2 3.8,0 0,5.2 -6,0 -2.8,-3 z m -3.3,-3.3 -8,-7.5 c -2.2,1 -3.8,2.4 -3.8,4.9 0,2.9 2.2,4.6 5.8,4.6 2.2,0 4.2,-0.9 6,-2 z M 306,393.6 c 2.4,-1.1 4.3,-2.4 4.3,-4.7 0,-2.1 -1.4,-3.9 -3.8,-3.9 -2.4,0 -3.8,1.8 -3.8,3.9 0.1,1.7 1.5,3 3.3,4.7 z"
                   id="path53"
                   inkscape:connector-curvature="0"
                   style="fill:#ffffff" /></g></g></g></g><g
           id="g55"><g
             id="g57"><g
               id="g59"><g
                 id="g61"><path
                   d="m 337.6,405.3 c 0,0 -1.8,1.2 -4.9,1.2 -4.7,0 -8.2,-3 -8.2,-7.5 0,-4.2 3.3,-7.5 7.1,-7.5 3.6,0 4.2,1.5 4.2,1.8 l -0.2,-1.5 2.3,0 0,4.9 -2.3,0 c -0.1,-1.7 -1.7,-2.8 -3.7,-2.8 -3,0 -4.8,2.2 -4.8,5.1 0,2.9 2.4,5.1 5,5.1 2.9,0 4.5,-1 4.5,-1 l 1,2.2 z"
                   id="path63"
                   inkscape:connector-curvature="0"
                   style="fill:#21448d" /><path
                   d="m 341.2,403.9 1.6,0 5.5,-12.2 1.2,0 5.5,12.2 1.6,0 0,2.4 -5.6,0 0,-2.4 1.1,0 -0.7,-1.5 -5.4,0 -0.6,1.5 1.2,0 0,2.4 -5.4,0 0,-2.4 z m 5.7,-3.6 3.7,0 -1.9,-4.3 -1.8,4.3 z"
                   id="path65"
                   inkscape:connector-curvature="0"
                   style="fill:#21448d" /><path
                   d="m 361.3,403.9 1.6,0 0,-9.8 -2.7,0 0,1.6 -2.2,0 0,-4 12.2,0 0,4 -2.2,0 0,-1.6 -2.6,0 0,9.8 1.6,0 0,2.4 -5.8,0 0,-2.4 z"
                   id="path67"
                   inkscape:connector-curvature="0"
                   style="fill:#21448d" /><path
                   d="m 384,391.7 5.8,0 0,2.4 -1.6,0 0,9.8 1.6,0 0,2.4 -5.8,0 0,-2.4 1.6,0 0,-3.4 -7.1,0 0,3.4 1.6,0 0,2.4 -5.7,0 0,-2.4 1.6,0 0,-9.8 -1.6,0 0,-2.4 5.8,0 0,2.4 -1.6,0 0,4.2 7.1,0 0,-4.2 -1.7,0 0,-2.4 z"
                   id="path69"
                   inkscape:connector-curvature="0"
                   style="fill:#21448d" /><path
                   d="m 401.7,391.4 c 4.5,0 7.8,3.2 7.8,7.5 0,4.3 -3.3,7.5 -7.8,7.5 -4.5,0 -7.8,-3.2 -7.8,-7.5 0,-4.1 3.4,-7.5 7.8,-7.5 z m 0,12.8 c 2.8,0 5,-2.3 5,-5.2 0,-3 -2.1,-5.2 -5,-5.2 -2.9,0 -5,2.3 -5,5.2 0,2.9 2.2,5.2 5,5.2 z"
                   id="path71"
                   inkscape:connector-curvature="0"
                   style="fill:#21448d" /><path
                   d="m 413.7,406.3 0,-2.4 1.6,0 0,-9.8 -1.6,0 0,-2.4 6.4,0 0,2.4 -2.2,0 0,9.8 4.7,0 0,-1.6 2.2,0 0,4 -11.1,0 z"
                   id="path73"
                   inkscape:connector-curvature="0"
                   style="fill:#21448d" /><path
                   d="m 428.7,391.7 5.8,0 0,2.4 -1.6,0 0,9.8 1.6,0 0,2.4 -5.8,0 0,-2.4 1.6,0 0,-9.8 -1.6,0 0,-2.4 z"
                   id="path75"
                   inkscape:connector-curvature="0"
                   style="fill:#21448d" /><path
                   d="m 451.7,405.3 c 0,0 -1.8,1.2 -4.9,1.2 -4.7,0 -8.2,-3 -8.2,-7.5 0,-4.2 3.3,-7.5 7.1,-7.5 3.6,0 4.2,1.5 4.2,1.8 l -0.2,-1.5 2.3,0 0,4.9 -2.3,0 c -0.1,-1.7 -1.7,-2.8 -3.7,-2.8 -3,0 -4.8,2.2 -4.8,5.1 0,2.9 2.4,5.1 5,5.1 2.9,0 4.5,-1 4.5,-1 l 1,2.2 z"
                   id="path77"
                   inkscape:connector-curvature="0"
                   style="fill:#21448d" /><path
                   d="m 473.5,391.7 6,0 0,2.4 -2,0 -5.3,12.2 -1.6,0 -5.3,-12.2 -2,0 0,-2.4 6,0 0,2.4 -1.2,0 3.4,7.9 3.4,-7.9 -1.3,0 0,-2.4 z"
                   id="path79"
                   inkscape:connector-curvature="0"
                   style="fill:#21448d" /><path
                   d="m 480,403.9 1.6,0 5.5,-12.2 1.2,0 5.5,12.2 1.6,0 0,2.4 -5.4,0 0,-2.4 1.1,0 -0.7,-1.5 -5.5,0 -0.6,1.5 1.2,0 0,2.4 -5.5,0 0,-2.4 z m 5.8,-3.6 3.7,0 -1.9,-4.3 -1.8,4.3 z"
                   id="path81"
                   inkscape:connector-curvature="0"
                   style="fill:#21448d" /><path
                   d="m 498.7,406.3 0,-2.4 1.6,0 0,-9.8 -1.6,0 0,-2.4 6.4,0 0,2.4 -2.2,0 0,9.8 4.7,0 0,-1.6 2.2,0 0,4 -11.1,0 z"
                   id="path83"
                   inkscape:connector-curvature="0"
                   style="fill:#21448d" /><path
                   d="m 522.4,391.7 5.8,0 0,2.4 -1.6,0 0,6.2 c 0,4.3 -2.5,6.3 -6.1,6.3 -3.6,0 -6,-1.9 -6,-6.3 l 0,-6.2 -1.6,0 0,-2.4 5.8,0 0,2.4 -1.7,0 0,6.2 c 0,2.8 1.3,3.9 3.5,3.9 2.2,0 3.5,-1.2 3.5,-4 l 0,-6.1 -1.6,0 0,-2.4 z"
                   id="path85"
                   inkscape:connector-curvature="0"
                   style="fill:#21448d" /><path
                   d="m 541.5,395.7 0,-1.6 -4.7,0 0,4.1 3.5,0 0,2.3 -3.5,0 0,3.5 4.7,0 0,-1.6 2.2,0 0,4 -11.1,0 0,-2.4 1.6,0 0,-9.8 -1.6,0 0,-2.4 11.1,0 0,4 -2.2,0 z"
                   id="path87"
                   inkscape:connector-curvature="0"
                   style="fill:#21448d" /><path
                   d="m 550.5,401.7 0,0.3 c 0,1.7 1.5,2.1 2.8,2.1 1.7,0 2.4,-0.8 2.4,-1.8 0,-1 -0.5,-1.6 -3.2,-2.5 -2.8,-1.1 -3.8,-2.5 -3.8,-4.3 0,-2.1 1.6,-4 4.5,-4 1.9,0 2.5,1.1 2.5,1.2 l -0.2,-0.9 2.3,0 0,4.3 -2.3,0 0,-0.7 c -0.1,-1.2 -1.1,-1.6 -2.2,-1.6 -1.4,0 -2,0.8 -2,1.7 0,1 0.8,1.6 2.8,2.5 3.3,1.3 4.2,2.5 4.2,4.5 0,2.6 -2,4.2 -4.5,4.2 -2.8,0 -3.5,-1.4 -3.5,-1.4 l 0.2,1.2 -2.3,0 0,-4.6 2.3,0 z"
                   id="path89"
                   inkscape:connector-curvature="0"
                   style="fill:#21448d" /></g></g></g></g></g></g></g></svg>