<svg id="Layer_1" data-name="Layer 1" xmlns="http://www.w3.org/2000/svg" viewBox="0 0 301.77 43.06"><defs><style>.cls-1{fill:#fff;}.cls-2{fill:#21448d;}</style></defs><title>xs-smart-investing</title><path class="cls-1" d="M179.76,71.09c-3.7,2.64-8,4.58-12.69,4.58-9.34,0-14.63-5.35-14.63-11.69s3.94-9.22,8.4-11.28c-3.17-3.11-4.53-6.17-4.53-9,0-7,5.17-11,12.22-11s11.69,4.11,11.69,10.16c0,6.7-3.94,9.52-8.29,11.4l8.81,8.17a46.62,46.62,0,0,0,5.11-8.46V53.82h7.93v6.7h-4.52a56.53,56.53,0,0,1-4.35,6.11l1.47,1.53h4.94v6.7h-7.93Zm-4.29-4.29-10.4-9.75c-2.82,1.35-4.94,3.11-4.94,6.4,0,3.76,2.82,5.93,7.52,5.93A14.43,14.43,0,0,0,175.48,66.8Zm-7.7-17c3.17-1.41,5.64-3.05,5.64-6.17a4.91,4.91,0,1,0-9.81,0C163.61,45.89,165.37,47.59,167.78,49.82Z" transform="translate(-9.18 -32.61)"/><path class="cls-2" d="M60.68,49.62v0.32c0,1.94,1.75,2.5,3.33,2.5,1.94,0,2.82-1,2.82-2.09s-0.63-1.82-3.72-3c-3.33-1.26-4.47-2.94-4.47-5.08,0-2.43,1.9-4.71,5.25-4.71a3.19,3.19,0,0,1,3,1.38l-0.22-1.09h2.72l0,5H66.68v-0.8c-0.12-1.43-1.26-1.82-2.62-1.82-1.7,0-2.38.9-2.38,1.94S62.6,44.16,65,45.13c3.81,1.48,4.91,3,4.91,5.22,0,3-2.31,4.91-5.27,4.91-3.33,0-4.15-1.7-4.15-1.7L60.7,55H58l0-5.34h2.72Z" transform="translate(-9.18 -32.61)"/><path class="cls-2" d="M73.69,37.89h4.1l6.68,12.37L91,37.89h4.11v2.77H92.81L93.12,52.2h1.94V55H88.34V52.2h1.89l0-7.53L85.28,55H83.5l-5-10.13,0,7.36h1.92V55H73.69V52.2h1.94L76,40.66H73.69V37.89Z" transform="translate(-9.18 -32.61)"/><path class="cls-2" d="M98.61,52.2h1.85l6.41-14.31h1.41l6.41,14.31h1.85V55H110.2V52.2h1.31l-0.78-1.77H104.3l-0.75,1.77H105V55H98.61V52.2ZM105.34,48h4.37l-2.19-5.1Z" transform="translate(-9.18 -32.61)"/><path class="cls-2" d="M120.11,37.89h7.31c4.54,0,6.83,2.5,6.83,6.07A5.31,5.31,0,0,1,131,49.21c1.34,1.14,1.68,3,3.74,3h0.68v2.67a8,8,0,0,1-1.63.15c-4.25,0-4-3.91-6.07-5.08-0.29,0-.58,0-0.9,0H125V52.2h2.33V55h-7.19V52.2H122V40.66h-1.85V37.89ZM125,40.66v6.68h2.24C130,47.34,131,45.83,131,44s-0.95-3.3-3.79-3.3H125Z" transform="translate(-9.18 -32.61)"/><path class="cls-2" d="M141.24,52.2h1.85V40.66H140v1.9h-2.58V37.89h14.36v4.66h-2.57v-1.9h-3V52.2H148V55h-6.75V52.2Z" transform="translate(-9.18 -32.61)"/><path class="cls-2" d="M9.18,57.77h6.75v2.77H14.06V72.08h1.87v2.77H9.18V72.08H11V60.54H9.18V57.77Z" transform="translate(-9.18 -32.61)"/><path class="cls-2" d="M30.62,57.77h6.75v2.77H35.51V74.85H33.25L24,63.65v8.43h1.87v2.77H19.11V72.08H21V60.54H19.11V57.77h3.64l9.74,11.39V60.54H30.62V57.77Z" transform="translate(-9.18 -32.61)"/><path class="cls-2" d="M50.76,57.77h7v2.77H55.43L49.16,74.85H47.26L41,60.54H38.61V57.77h7v2.77H44.2l4,9.26,4-9.26H50.76V57.77Z" transform="translate(-9.18 -32.61)"/><path class="cls-2" d="M69.22,62.44v-1.9H63.71v4.79h4.13V68H63.71v4.08h5.52V70.19H71.8v4.66h-13V72.08h1.87V60.54H58.82V57.77h13v4.66H69.22Z" transform="translate(-9.18 -32.61)"/><path class="cls-2" d="M77.87,69.51v0.32c0,1.94,1.75,2.5,3.33,2.5,1.94,0,2.82-1,2.82-2.09s-0.63-1.82-3.72-3C77,66,75.83,64.33,75.83,62.19c0-2.43,1.9-4.71,5.25-4.71a3.19,3.19,0,0,1,3,1.38l-0.22-1.09h2.72l0,5H83.87V62c-0.12-1.43-1.26-1.82-2.62-1.82-1.7,0-2.38.9-2.38,1.94S79.79,64,82.19,65c3.81,1.48,4.91,3,4.91,5.22,0,3-2.31,4.91-5.27,4.91-3.33,0-4.15-1.7-4.15-1.7l0.22,1.41H75.17l0-5.34h2.72Z" transform="translate(-9.18 -32.61)"/><path class="cls-2" d="M92.54,72.08h1.85V60.54H91.25v1.9H88.68V57.77H103v4.66h-2.57v-1.9h-3V72.08h1.87v2.77H92.54V72.08Z" transform="translate(-9.18 -32.61)"/><path class="cls-2" d="M105.32,57.77h6.75v2.77H110.2V72.08h1.87v2.77h-6.75V72.08h1.87V60.54h-1.87V57.77Z" transform="translate(-9.18 -32.61)"/><path class="cls-2" d="M126.28,57.77H133v2.77h-1.87V74.85H128.9l-9.26-11.2v8.43h1.87v2.77h-6.75V72.08h1.87V60.54h-1.87V57.77h3.64l9.74,11.39V60.54h-1.87V57.77Z" transform="translate(-9.18 -32.61)"/><path class="cls-2" d="M147,63.56c-0.07-1.73-1.6-3.23-4.3-3.23-3.5,0-5.61,2.53-5.61,6a5.89,5.89,0,0,0,6.17,6,11.53,11.53,0,0,0,3.89-.68v-3h-4.76v-2.7H150V73.2a11.64,11.64,0,0,1-6.61,1.94c-5.78,0-9.62-3.79-9.62-8.84a8.6,8.6,0,0,1,8.36-8.82c4.18,0,4.88,1.72,5,2.06l-0.19-2.06h2.75v6.07H147Z" transform="translate(-9.18 -32.61)"/><path class="cls-2" d="M197.2,53.83a11,11,0,0,1-5.71,1.43c-5.52,0-9.6-3.57-9.6-8.84a8.6,8.6,0,0,1,8.36-8.82c4.18,0,4.88,1.72,5,2.06L195,37.89h2.72l0,5.78h-2.72c-0.1-2-2-3.23-4.3-3.23-3.5,0-5.61,2.53-5.61,6a6,6,0,0,0,5.9,6,10.1,10.1,0,0,0,5.22-1.17Z" transform="translate(-9.18 -32.61)"/><path class="cls-2" d="M198.69,52.2h1.85L207,37.89h1.41l6.41,14.31h1.85V55h-6.34V52.2h1.31l-0.78-1.77h-6.44l-0.75,1.77h1.46V55h-6.39V52.2ZM205.42,48h4.37l-2.19-5.1Z" transform="translate(-9.18 -32.61)"/><path class="cls-2" d="M219,52.2h1.85V40.66h-3.13v1.9h-2.58V37.89h14.36v4.66h-2.57v-1.9h-3V52.2h1.87V55H219V52.2Z" transform="translate(-9.18 -32.61)"/><path class="cls-2" d="M242.59,37.89h6.75v2.77h-1.87V52.2h1.85V55h-6.73V52.2h1.87v-4h-8.33v4H238V55h-6.73V52.2h1.87V40.66h-1.87V37.89H238v2.77h-1.87v4.91h8.33V40.66h-1.87V37.89Z" transform="translate(-9.18 -32.61)"/><path class="cls-2" d="M260.44,37.6c5.3,0,9.13,3.72,9.13,8.82a9.13,9.13,0,0,1-18.24,0A8.87,8.87,0,0,1,260.44,37.6Zm0,15a5.91,5.91,0,0,0,5.88-6.12,5.88,5.88,0,1,0-11.76,0A5.94,5.94,0,0,0,260.47,52.59Z" transform="translate(-9.18 -32.61)"/><path class="cls-2" d="M271.59,55V52.2h1.87V40.66h-1.87V37.89h7.48v2.77h-2.6V52.2H282V50.3h2.58V55h-13Z" transform="translate(-9.18 -32.61)"/><path class="cls-2" d="M286.31,37.89h6.75v2.77h-1.87V52.2h1.87V55h-6.75V52.2h1.87V40.66h-1.87V37.89Z" transform="translate(-9.18 -32.61)"/><path class="cls-2" d="M310.36,53.83a11,11,0,0,1-5.71,1.43c-5.52,0-9.6-3.57-9.6-8.84a8.6,8.6,0,0,1,8.36-8.82c4.18,0,4.88,1.72,5,2.06l-0.19-1.77h2.72l0,5.78h-2.72c-0.1-2-2-3.23-4.3-3.23-3.5,0-5.61,2.53-5.61,6a6,6,0,0,0,5.9,6,10.1,10.1,0,0,0,5.22-1.17Z" transform="translate(-9.18 -32.61)"/><path class="cls-2" d="M205.25,57.77h7v2.77h-2.33l-6.27,14.31h-1.89l-6.27-14.31h-2.38V57.77h7v2.77h-1.41l4,9.26,4-9.26h-1.51V57.77Z" transform="translate(-9.18 -32.61)"/><path class="cls-2" d="M212.9,72.08h1.85l6.41-14.31h1.41L229,72.08h1.85v2.77h-6.34V72.08h1.31L225,70.31h-6.44l-0.75,1.77h1.46v2.77H212.9V72.08Zm6.73-4.18H224l-2.19-5.1Z" transform="translate(-9.18 -32.61)"/><path class="cls-2" d="M234.86,74.85V72.08h1.87V60.54h-1.87V57.77h7.48v2.77h-2.6V72.08h5.52V70.19h2.57v4.66h-13Z" transform="translate(-9.18 -32.61)"/><path class="cls-2" d="M262.65,57.77h6.75v2.77h-1.87v7.24c0,5.1-2.89,7.39-7.17,7.39s-7.07-2.28-7.07-7.39V60.54h-1.87V57.77h6.75v2.77h-1.87v7.24c0,3.26,1.48,4.62,4.06,4.62s4.15-1.36,4.15-4.64V60.54h-1.87V57.77Z" transform="translate(-9.18 -32.61)"/><path class="cls-2" d="M285,62.44v-1.9h-5.51v4.79h4.13V68h-4.13v4.08H285V70.19h2.58v4.66h-13V72.08h1.87V60.54h-1.87V57.77h13v4.66H285Z" transform="translate(-9.18 -32.61)"/><path class="cls-2" d="M295.57,69.51v0.32c0,1.94,1.75,2.5,3.33,2.5,1.94,0,2.82-1,2.82-2.09s-0.63-1.82-3.72-3c-3.33-1.26-4.47-2.94-4.47-5.08,0-2.43,1.9-4.71,5.25-4.71a3.19,3.19,0,0,1,3,1.38l-0.22-1.09h2.72l0,5h-2.72V62c-0.12-1.43-1.26-1.82-2.62-1.82-1.7,0-2.38.9-2.38,1.94S297.48,64,299.89,65c3.81,1.48,4.91,3,4.91,5.22,0,3-2.31,4.91-5.27,4.91-3.33,0-4.15-1.7-4.15-1.7l0.22,1.41h-2.72l0-5.34h2.72Z" transform="translate(-9.18 -32.61)"/></svg>