<svg xmlns="http://www.w3.org/2000/svg" viewBox="0 0 609.6 43.21"><defs><style>.cls-1{fill:#21448d;}.cls-2{fill:#fff;}.cls-3{fill:#a27e2d;}</style></defs><title>tagline</title><g id="Layer_1" data-name="Layer 1"><rect class="cls-1" x="-2.13" y="-1.86" width="613.86" height="46.93"/><path class="cls-2" d="M117.76,23.65v.2c0,1.24,1.12,1.6,2.13,1.6,1.24,0,1.8-.64,1.8-1.34s-.4-1.16-2.37-1.89c-2.13-.81-2.86-1.88-2.86-3.25a3.09,3.09,0,0,1,3.35-3,2,2,0,0,1,1.91.88l-.14-.69h1.74l0,3.21H121.6v-.51c-.08-.92-.81-1.17-1.68-1.17-1.09,0-1.52.58-1.52,1.25s.59,1.22,2.13,1.84c2.44.95,3.14,1.92,3.14,3.34a3.12,3.12,0,0,1-3.38,3.14c-2.12,0-2.65-1.08-2.65-1.08l.14.9H116l0-3.42Z"/><path class="cls-2" d="M127.13,16.15h2.62l4.28,7.9,4.16-7.9h2.63v1.77h-1.46l.2,7.38h1.24v1.77h-4.3V25.3h1.21l0-4.82-3.14,6.59h-1.13l-3.17-6.48,0,4.71h1.22v1.77h-4.3V25.3h1.24l.22-7.38h-1.46Z"/><path class="cls-2" d="M143.38,25.3h1.18l4.1-9.15h.9l4.1,9.15h1.18v1.77h-4.05V25.3h.84l-.5-1.14H147l-.48,1.14h.93v1.77h-4.08Zm4.3-2.68h2.8l-1.4-3.26Z"/><path class="cls-2" d="M157.44,16.15h4.67c2.91,0,4.37,1.6,4.37,3.88a3.38,3.38,0,0,1-2.07,3.35c.86.73,1.07,1.95,2.4,1.95h.43V27a5.22,5.22,0,0,1-1,.09c-2.72,0-2.56-2.5-3.88-3.25a5.52,5.52,0,0,1-.58,0h-1.2v1.4H162v1.77h-4.6V25.3h1.18V17.92h-1.18Zm3.1,1.77v4.27H162c1.81,0,2.43-1,2.43-2.16s-.61-2.11-2.43-2.11Z"/><path class="cls-2" d="M172.2,25.3h1.18V17.92h-2v1.21h-1.65v-3h9.19v3h-1.65V17.92h-1.94V25.3h1.19v1.77H172.2Z"/><path class="cls-2" d="M188,16.15h4.32v1.77h-1.2V25.3h1.2v1.77H188V25.3h1.2V17.92H188Z"/><path class="cls-2" d="M203.28,16.15h4.32v1.77h-1.2v9.15H205L199,19.9v5.4h1.19v1.77h-4.31V25.3h1.19V17.92h-1.19V16.15h2.33l6.23,7.28V17.92h-1.2Z"/><path class="cls-2" d="M217.71,16.15h4.48v1.77h-1.5l-4,9.15h-1.22l-4-9.15h-1.53V16.15h4.48v1.77h-.9l2.58,5.92,2.57-5.92h-1Z"/><path class="cls-2" d="M231.38,19.13V17.92h-3.53V21h2.65v1.71h-2.65V25.3h3.53V24.08H233v3h-8.3V25.3h1.2V17.92h-1.2V16.15H233v3Z"/><path class="cls-2" d="M238.15,23.65v.2c0,1.24,1.12,1.6,2.13,1.6,1.25,0,1.8-.64,1.8-1.34s-.4-1.16-2.37-1.89c-2.13-.81-2.86-1.88-2.86-3.25a3.09,3.09,0,0,1,3.35-3,2.08,2.08,0,0,1,1.92.88l-.14-.69h1.74v3.21H242v-.51c-.08-.92-.81-1.17-1.68-1.17-1.08,0-1.52.58-1.52,1.25s.59,1.22,2.13,1.84c2.44.95,3.14,1.92,3.14,3.34a3.11,3.11,0,0,1-3.37,3.14c-2.13,0-2.66-1.08-2.66-1.08l.14.9h-1.74l0-3.42Z"/><path class="cls-2" d="M249.4,25.3h1.18V17.92h-2v1.21h-1.65v-3h9.18v3h-1.64V17.92h-1.95V25.3h1.2v1.77H249.4Z"/><path class="cls-2" d="M259.13,16.15h4.31v1.77h-1.19V25.3h1.19v1.77h-4.31V25.3h1.19V17.92h-1.19Z"/><path class="cls-2" d="M274.4,16.15h4.31v1.77h-1.19v9.15h-1.45l-5.92-7.17v5.4h1.2v1.77H267V25.3h1.2V17.92H267V16.15h2.33l6.23,7.28V17.92H274.4Z"/><path class="cls-2" d="M290.12,19.84c-.05-1.1-1-2.06-2.75-2.06-2.24,0-3.59,1.61-3.59,3.85a3.77,3.77,0,0,0,3.94,3.81,7.32,7.32,0,0,0,2.49-.44V23.06h-3V21.33h4.9V26a7.44,7.44,0,0,1-4.22,1.24c-3.7,0-6.15-2.42-6.15-5.65A5.5,5.5,0,0,1,287,16c2.67,0,3.12,1.1,3.19,1.32L290.1,16h1.76v3.88Z"/><path class="cls-3" d="M311.18,29.86a12.74,12.74,0,0,1-7.33,2.64c-5.39,0-8.44-3.08-8.44-6.75s2.27-5.32,4.85-6.51A7.41,7.41,0,0,1,297.65,14c0-4,3-6.38,7.05-6.38s6.75,2.37,6.75,5.87c0,3.87-2.27,5.49-4.78,6.58l5.09,4.71a26.42,26.42,0,0,0,2.95-4.88v0h4.58v3.86h-2.61a33.79,33.79,0,0,1-2.51,3.53l.84.88h2.85V32h-4.58Zm-2.48-2.48-6-5.63c-1.63.78-2.85,1.8-2.85,3.7,0,2.17,1.63,3.42,4.34,3.42A8.32,8.32,0,0,0,308.7,27.38Zm-4.44-9.8c1.83-.82,3.26-1.77,3.26-3.56a2.84,2.84,0,1,0-5.67,0C301.85,15.31,302.87,16.29,304.26,17.58Z"/><path class="cls-2" d="M328,26.34a7.08,7.08,0,0,1-3.65.91c-3.53,0-6.14-2.28-6.14-5.65A5.5,5.5,0,0,1,323.52,16c2.67,0,3.12,1.1,3.18,1.32l-.12-1.13h1.74v3.69h-1.74c-.06-1.27-1.3-2.06-2.75-2.06-2.23,0-3.58,1.61-3.58,3.85A3.81,3.81,0,0,0,324,25.44a6.41,6.41,0,0,0,3.34-.75Z"/><path class="cls-2" d="M330.63,25.3h1.18l4.1-9.15h.91l4.1,9.15h1.18v1.77H338V25.3h.84l-.5-1.14h-4.11l-.48,1.14h.93v1.77h-4.09Zm4.31-2.68h2.79l-1.4-3.26Z"/><path class="cls-2" d="M345.76,25.3h1.18V17.92h-2v1.21h-1.65v-3h9.18v3h-1.64V17.92h-1.94V25.3h1.19v1.77h-4.32Z"/><path class="cls-2" d="M362.74,16.15h4.32v1.77h-1.19V25.3h1.18v1.77h-4.31V25.3h1.2V22.76h-5.33V25.3h1.18v1.77h-4.3V25.3h1.19V17.92h-1.19V16.15h4.32v1.77h-1.2v3.13h5.33V17.92h-1.2Z"/><path class="cls-2" d="M376,16a5.64,5.64,0,1,1-5.83,5.64A5.67,5.67,0,0,1,376,16Zm0,9.58a3.78,3.78,0,0,0,3.76-3.91,3.76,3.76,0,1,0-7.52,0A3.8,3.8,0,0,0,376,25.54Z"/><path class="cls-2" d="M385,27.07V25.3h1.2V17.92H385V16.15h4.78v1.77h-1.66V25.3h3.53V24.08h1.65v3Z"/><path class="cls-2" d="M396.3,16.15h4.32v1.77h-1.2V25.3h1.2v1.77H396.3V25.3h1.19V17.92H396.3Z"/><path class="cls-2" d="M413.54,26.34a7.08,7.08,0,0,1-3.65.91c-3.53,0-6.14-2.28-6.14-5.65A5.5,5.5,0,0,1,409.1,16c2.67,0,3.12,1.1,3.18,1.32l-.12-1.13h1.74v3.69h-1.74c-.06-1.27-1.3-2.06-2.75-2.06-2.23,0-3.58,1.61-3.58,3.85a3.81,3.81,0,0,0,3.77,3.81,6.41,6.41,0,0,0,3.34-.75Z"/><path class="cls-2" d="M429.91,16.15h4.48v1.77H432.9l-4,9.15h-1.21l-4-9.15h-1.52V16.15h4.47v1.77h-.9l2.58,5.92,2.58-5.92h-1Z"/><path class="cls-2" d="M434.81,25.3H436l4.1-9.15h.9l4.1,9.15h1.18v1.77h-4V25.3h.84l-.5-1.14h-4.12L438,25.3h.93v1.77h-4.08Zm4.3-2.68h2.8l-1.4-3.26Z"/><path class="cls-2" d="M448.85,27.07V25.3h1.2V17.92h-1.2V16.15h4.79v1.77H452V25.3h3.53V24.08h1.65v3Z"/><path class="cls-2" d="M466.62,16.15h4.32v1.77h-1.19v4.63c0,3.26-1.85,4.72-4.59,4.72s-4.52-1.46-4.52-4.72V17.92h-1.19V16.15h4.31v1.77h-1.19v4.63c0,2.08.95,2.95,2.59,2.95s2.66-.87,2.66-3V17.92h-1.2Z"/><path class="cls-2" d="M480.9,19.13V17.92h-3.53V21H480v1.71h-2.64V25.3h3.53V24.08h1.65v3h-8.3V25.3h1.2V17.92h-1.2V16.15h8.3v3Z"/><path class="cls-2" d="M487.67,23.65v.2c0,1.24,1.12,1.6,2.13,1.6,1.24,0,1.8-.64,1.8-1.34s-.4-1.16-2.38-1.89-2.85-1.88-2.85-3.25a3.09,3.09,0,0,1,3.35-3,2,2,0,0,1,1.91.88l-.14-.69h1.74l0,3.21h-1.74v-.51c-.08-.92-.81-1.17-1.68-1.17-1.09,0-1.52.58-1.52,1.25s.59,1.22,2.13,1.84c2.44.95,3.13,1.92,3.13,3.34a3.11,3.11,0,0,1-3.37,3.14c-2.13,0-2.65-1.08-2.65-1.08l.14.9H486l0-3.42Z"/></g></svg>