<svg id="Layer_1" data-name="Layer 1" xmlns="http://www.w3.org/2000/svg" viewBox="0 0 628.33 98.56"><defs><style>.cls-1{fill:#22438e;stroke:#fff;stroke-width:3px;}.cls-2{fill:#3fa9f5;}</style></defs><title>btn-website--lt-blue</title><rect class="cls-1" x="8" y="5" width="612.33" height="88.56" rx="44.28"/><path class="cls-2" d="M217.67,38.92h-3L219,54.1,226.42,34h3l7.55,20v.08l4.29-15.22h-3.18V34h12.36v4.89H247l-7.68,25.26h-3.56l-7.85-20-7.72,20h-3.51l-7.77-25.26h-3.56V34h12.36Z"/><path class="cls-2" d="M274.37,42.26V38.92h-9.73v8.45h7.29v4.72h-7.29v7.2h9.73V56h4.55v8.23H256V59.29h3.3V38.92H256V34h22.9v8.23Z"/><path class="cls-2" d="M287,34h13c7.77,0,11.24,3.21,11.24,8,0,3.26-1.89,5.57-5.27,6.77,4.16,1.2,6.09,3.65,6.09,6.87,0,5.36-5.19,8.53-12.06,8.53H287V59.29h3.3V38.92H287Zm8.62,4.89v8.19h3.82c4.33,0,6.22-2.19,6.22-4.46,0-2.06-1.54-3.73-5.45-3.73Zm0,12v8.36h4.59c4.5,0,6.05-2,6.05-4.2,0-2.06-1.89-4.21-7.34-4.16Z"/><path class="cls-2" d="M324.18,54.74v.56c0,3.43,3.09,4.42,5.88,4.42,3.43,0,5-1.76,5-3.69s-1.11-3.22-6.56-5.23c-5.88-2.23-7.89-5.19-7.89-9,0-4.28,3.34-8.32,9.26-8.32,3.9,0,5.15,2.23,5.28,2.45L334.73,34h4.8l.05,8.88h-4.81V41.49c-.21-2.53-2.23-3.22-4.63-3.22-3,0-4.2,1.59-4.2,3.44,0,2.1,1.63,3.38,5.87,5.1,6.74,2.62,8.67,5.28,8.67,9.22,0,5.36-4.08,8.67-9.31,8.67-5.88,0-7.33-3-7.33-3l.38,2.49h-4.8l0-9.44Z"/><path class="cls-2" d="M348.33,34h11.92v4.89H357V59.29h3.3v4.89H348.33V59.29h3.3V38.92h-3.3Z"/><path class="cls-2" d="M373.64,59.29h3.26V38.92h-5.53v3.34h-4.55V34h25.35v8.23h-4.55V38.92h-5.36V59.29h3.3v4.89H373.64Z"/><path class="cls-2" d="M417.14,42.26V38.92H407.4v8.45h7.29v4.72H407.4v7.2h9.74V56h4.54v8.23h-22.9V59.29h3.3V38.92h-3.3V34h22.9v8.23Z"/></svg>