<svg xmlns="http://www.w3.org/2000/svg" viewBox="0 0 289.11 40.95"><defs><style>.cls-1{fill:#21448d;}</style></defs><title>contact-info</title><g id="Layer_1" data-name="Layer 1"><path class="cls-1" d="M16.75,16v1.65H10.14V16h2.34V9.58c0-.14,0-.28,0-.43s0-.29,0-.45L11,10a.8.8,0,0,1-.31.15.76.76,0,0,1-.3,0,.85.85,0,0,1-.24-.09A1.22,1.22,0,0,1,10,9.91L9.25,9l3.62-3.07h1.84V16Z"/><path class="cls-1" d="M18.51,11.84h4.28v1.83H18.51Z"/><path class="cls-1" d="M30.4,11.54A2.83,2.83,0,0,1,32,12.61a3,3,0,0,1,.49,1.72,3.3,3.3,0,0,1-.3,1.43,3.1,3.1,0,0,1-.84,1.09,3.91,3.91,0,0,1-1.31.7,5.84,5.84,0,0,1-3.38,0,3.77,3.77,0,0,1-1.3-.7,3,3,0,0,1-.85-1.09,3.3,3.3,0,0,1-.3-1.43,3,3,0,0,1,.49-1.72,2.83,2.83,0,0,1,1.56-1.07,2.75,2.75,0,0,1-1.25-1A2.9,2.9,0,0,1,24.56,9a2.77,2.77,0,0,1,.28-1.26,2.93,2.93,0,0,1,.77-1A3.83,3.83,0,0,1,26.8,6a4.87,4.87,0,0,1,3,0A3.72,3.72,0,0,1,31,6.68a2.93,2.93,0,0,1,.77,1A2.77,2.77,0,0,1,32.06,9a2.9,2.9,0,0,1-.41,1.56A2.7,2.7,0,0,1,30.4,11.54Zm-2.09,4.55a2.21,2.21,0,0,0,.81-.14,1.54,1.54,0,0,0,.57-.38A1.5,1.5,0,0,0,30,15a2,2,0,0,0,.12-.71,1.94,1.94,0,0,0-.45-1.35,1.81,1.81,0,0,0-1.39-.49,1.77,1.77,0,0,0-1.38.49,1.9,1.9,0,0,0-.45,1.35,2.25,2.25,0,0,0,.11.71,1.63,1.63,0,0,0,.34.57,1.54,1.54,0,0,0,.57.38A2.21,2.21,0,0,0,28.31,16.09Zm0-8.67a1.87,1.87,0,0,0-.71.13,1.37,1.37,0,0,0-.49.35,1.44,1.44,0,0,0-.28.5,2.21,2.21,0,0,0-.09.59,2.74,2.74,0,0,0,.08.64,1.5,1.5,0,0,0,.25.56,1.33,1.33,0,0,0,.48.39,2.13,2.13,0,0,0,1.52,0,1.33,1.33,0,0,0,.48-.39,1.36,1.36,0,0,0,.25-.56A2.74,2.74,0,0,0,29.88,9a1.87,1.87,0,0,0-.09-.59,1.3,1.3,0,0,0-.28-.5A1.37,1.37,0,0,0,29,7.55,1.87,1.87,0,0,0,28.31,7.42Z"/><path class="cls-1" d="M37.33,10.12l-.35.43a3.19,3.19,0,0,1,.66-.21,3.8,3.8,0,0,1,.77-.07,3.71,3.71,0,0,1,1.28.22,3.1,3.1,0,0,1,1.12.66,3.21,3.21,0,0,1,.78,1.1,3.73,3.73,0,0,1,.29,1.55,4,4,0,0,1-.3,1.55,3.71,3.71,0,0,1-.86,1.27,3.91,3.91,0,0,1-1.33.86,4.54,4.54,0,0,1-1.72.32,4.68,4.68,0,0,1-1.73-.3,3.79,3.79,0,0,1-1.3-.86,3.73,3.73,0,0,1-.82-1.32,4.79,4.79,0,0,1-.28-1.69,4.91,4.91,0,0,1,.33-1.73,8,8,0,0,1,1-1.8l2.73-3.68a1.33,1.33,0,0,1,.48-.37,1.66,1.66,0,0,1,.72-.15h2ZM37.62,16a2,2,0,0,0,.82-.16,1.76,1.76,0,0,0,.64-.43,1.87,1.87,0,0,0,.42-.64,2.16,2.16,0,0,0,.15-.81,2.35,2.35,0,0,0-.14-.86,1.78,1.78,0,0,0-.42-.64,1.85,1.85,0,0,0-.64-.41,2.41,2.41,0,0,0-.83-.13,2,2,0,0,0-.78.15,1.75,1.75,0,0,0-.61.42,1.92,1.92,0,0,0-.4.64,2.21,2.21,0,0,0-.14.82,2.75,2.75,0,0,0,.12.84,1.79,1.79,0,0,0,.36.65,1.64,1.64,0,0,0,.61.41A2.17,2.17,0,0,0,37.62,16Z"/><path class="cls-1" d="M46.66,10.12l-.35.43a3.19,3.19,0,0,1,.66-.21,4,4,0,0,1,2.06.15,3.15,3.15,0,0,1,1.11.66,3.21,3.21,0,0,1,.78,1.1,3.73,3.73,0,0,1,.3,1.55,4,4,0,0,1-.31,1.55,3.71,3.71,0,0,1-.86,1.27,3.91,3.91,0,0,1-1.33.86A4.54,4.54,0,0,1,47,17.8a4.68,4.68,0,0,1-1.73-.3,3.79,3.79,0,0,1-1.3-.86,3.73,3.73,0,0,1-.82-1.32,4.79,4.79,0,0,1-.28-1.69,4.91,4.91,0,0,1,.33-1.73,8,8,0,0,1,1-1.8L47,6.42a1.33,1.33,0,0,1,.48-.37,1.66,1.66,0,0,1,.72-.15h2ZM47,16a2,2,0,0,0,.81-.16,1.76,1.76,0,0,0,.64-.43,1.87,1.87,0,0,0,.42-.64A2.16,2.16,0,0,0,49,14a2.35,2.35,0,0,0-.14-.86,1.78,1.78,0,0,0-.42-.64,1.76,1.76,0,0,0-.64-.41,2.39,2.39,0,0,0-.82-.13,2,2,0,0,0-.79.15,1.75,1.75,0,0,0-.61.42,1.92,1.92,0,0,0-.4.64A2.21,2.21,0,0,0,45,14a2.75,2.75,0,0,0,.12.84,1.79,1.79,0,0,0,.36.65,1.73,1.73,0,0,0,.61.41A2.19,2.19,0,0,0,47,16Z"/><path class="cls-1" d="M52.48,11.84h4.29v1.83H52.48Z"/><path class="cls-1" d="M69.11,17.67H67.22a.81.81,0,0,1-.51-.15,1,1,0,0,1-.3-.39l-.79-2.24H60.93l-.8,2.24a.89.89,0,0,1-.28.37.8.8,0,0,1-.51.17H57.43L62,5.9h2.49ZM65,13.2,63.75,9.6l-.24-.67c-.08-.25-.16-.53-.24-.83a7.12,7.12,0,0,1-.24.84c-.08.26-.16.48-.24.67L61.53,13.2Z"/><path class="cls-1" d="M79.47,5.9,74.73,17.67H72.52L67.78,5.9h2a.81.81,0,0,1,.51.15.93.93,0,0,1,.3.38l2.55,6.79c.09.25.19.53.29.83s.18.61.26.94c.07-.33.15-.64.23-.94a7.36,7.36,0,0,1,.27-.83l2.53-6.79A1,1,0,0,1,77,6.06a.81.81,0,0,1,.52-.16Z"/><path class="cls-1" d="M82.92,7.8v3h3.93v1.84H82.92v3.09h5v1.91h-7.5V5.9H88V7.8Z"/><path class="cls-1" d="M89.36,11.84h4.28v1.83H89.36Z"/><path class="cls-1" d="M108.67,5.9V17.67h-2.15V10.44c0-.15,0-.31,0-.49a4.57,4.57,0,0,1,0-.52l-3.37,6.38a.91.91,0,0,1-.85.53H102a1.07,1.07,0,0,1-.51-.13,1,1,0,0,1-.35-.4L97.78,9.4c0,.19,0,.37,0,.55s0,.34,0,.49v7.23H95.69V5.9h2.12A.51.51,0,0,1,98,6a.45.45,0,0,1,.17.11,1,1,0,0,1,.15.22l3.29,6.28a6.27,6.27,0,0,1,.29.58c.09.2.18.41.26.62.08-.22.16-.43.25-.63s.19-.41.29-.6L106,6.28a1,1,0,0,1,.15-.22.58.58,0,0,1,.18-.11.46.46,0,0,1,.21,0h2.13Z"/><path class="cls-1" d="M121.35,17.67h-1.89a.81.81,0,0,1-.51-.15.83.83,0,0,1-.3-.39l-.8-2.24h-4.69l-.79,2.24a.84.84,0,0,1-.29.37.77.77,0,0,1-.51.17h-1.9l4.6-11.77h2.49Zm-4.09-4.47L116,9.6c-.08-.19-.16-.41-.24-.67a7.51,7.51,0,0,1-.24-.83q-.12.47-.24.84c-.08.26-.16.48-.24.67l-1.27,3.59Z"/><path class="cls-1" d="M131.74,17.67h-2.19a1,1,0,0,1-.9-.47l-2.24-3.61a1,1,0,0,0-.3-.31,1.06,1.06,0,0,0-.49-.1h-.83v4.49h-2.43V5.9h3.7a7.68,7.68,0,0,1,2.11.25,4.07,4.07,0,0,1,1.43.71A2.63,2.63,0,0,1,130.42,8a3.46,3.46,0,0,1,.26,1.38,3.68,3.68,0,0,1-.16,1.11,3.56,3.56,0,0,1-.49,1,3.32,3.32,0,0,1-.78.76,4.16,4.16,0,0,1-1.05.54,2.19,2.19,0,0,1,.44.31,2.56,2.56,0,0,1,.36.43Zm-5.7-6.2a3,3,0,0,0,1-.15,2,2,0,0,0,.71-.41,1.65,1.65,0,0,0,.4-.62,2.2,2.2,0,0,0,.13-.78,1.6,1.6,0,0,0-.55-1.3,2.6,2.6,0,0,0-1.69-.46h-1.27v3.72Z"/><path class="cls-1" d="M135.27,17.67h-2.45V5.9h2.45Z"/><path class="cls-1" d="M148,17.67h-1.89a.82.82,0,0,1-.52-.15,1,1,0,0,1-.3-.39l-.79-2.24h-4.69l-.8,2.24a.89.89,0,0,1-.28.37.8.8,0,0,1-.51.17h-1.91l4.6-11.77h2.49Zm-4.09-4.47-1.28-3.6-.24-.67c-.08-.25-.16-.53-.24-.83a7.12,7.12,0,0,1-.24.84c-.08.26-.16.48-.24.67l-1.26,3.59Z"/><path class="cls-1" d="M153.63,12.56a12.15,12.15,0,0,0,.49,3.48,12.9,12.9,0,0,0,1.46,3.22.25.25,0,0,1,0,.22.34.34,0,0,1-.1.13l-.35.21A18.92,18.92,0,0,1,154.13,18a13.69,13.69,0,0,1-.69-1.79,12.27,12.27,0,0,1-.38-1.78,13.89,13.89,0,0,1-.11-1.84,14,14,0,0,1,.11-1.85,12.27,12.27,0,0,1,.38-1.78,13.16,13.16,0,0,1,.69-1.79,17.82,17.82,0,0,1,1.05-1.85l.35.21a.4.4,0,0,1,.1.12.27.27,0,0,1,0,.23,12.74,12.74,0,0,0-1.46,3.22A12.16,12.16,0,0,0,153.63,12.56Z"/><path class="cls-1" d="M164.25,17.07v.6h-5.93v-.6H161V7.75c0-.18,0-.37,0-.58l-2.54,2.25a.25.25,0,0,1-.22.07.32.32,0,0,1-.18-.1l-.24-.32,3.32-2.93h.61V17.07Z"/><path class="cls-1" d="M166.61,12.53h3.77v.65h-3.77Z"/><path class="cls-1" d="M177.34,11.67a3.9,3.9,0,0,1,1,.37,2.65,2.65,0,0,1,.79.61,2.42,2.42,0,0,1,.52.86,3,3,0,0,1,.19,1.13,3,3,0,0,1-1,2.31,3.6,3.6,0,0,1-1.18.63,4.83,4.83,0,0,1-1.51.22,4.9,4.9,0,0,1-1.52-.22,3.65,3.65,0,0,1-1.17-.63,3,3,0,0,1-.77-1,3.1,3.1,0,0,1-.27-1.31,3.27,3.27,0,0,1,.18-1.13,2.76,2.76,0,0,1,1.3-1.47,4.19,4.19,0,0,1,1-.37,3.43,3.43,0,0,1-.89-.39,2.5,2.5,0,0,1-.65-.6,2.62,2.62,0,0,1-.4-.78A3,3,0,0,1,172.8,9,3,3,0,0,1,173,7.84a2.73,2.73,0,0,1,.66-.93,3.27,3.27,0,0,1,1-.62,3.79,3.79,0,0,1,1.39-.23,3.72,3.72,0,0,1,1.37.23,3.21,3.21,0,0,1,1,.62,2.73,2.73,0,0,1,.66.93A2.79,2.79,0,0,1,179.44,9a3,3,0,0,1-.14.91,2.48,2.48,0,0,1-.41.77,2.87,2.87,0,0,1-.65.6A3.08,3.08,0,0,1,177.34,11.67Zm-1.22,5.51a3.72,3.72,0,0,0,1.19-.18,2.64,2.64,0,0,0,.93-.52,2.2,2.2,0,0,0,.6-.81,2.36,2.36,0,0,0,.22-1,2.64,2.64,0,0,0-.28-1.26,2.21,2.21,0,0,0-.71-.8,2.65,2.65,0,0,0-.95-.43,4.43,4.43,0,0,0-1-.13,4.51,4.51,0,0,0-1,.13,2.81,2.81,0,0,0-1,.43,2.28,2.28,0,0,0-.7.8,2.83,2.83,0,0,0-.07,2.3,2.2,2.2,0,0,0,.6.81,2.47,2.47,0,0,0,.93.52A3.78,3.78,0,0,0,176.12,17.18ZM173.55,9a2.73,2.73,0,0,0,.15.89,2.19,2.19,0,0,0,.47.77,2.28,2.28,0,0,0,.8.53,3.38,3.38,0,0,0,2.29,0,2.28,2.28,0,0,0,.8-.53,2.17,2.17,0,0,0,.46-.77,2.73,2.73,0,0,0,.15-.89,2.32,2.32,0,0,0-.17-.92,2,2,0,0,0-.5-.75,2.3,2.3,0,0,0-.8-.49,3.36,3.36,0,0,0-2.17,0,2.34,2.34,0,0,0-.81.49,2.15,2.15,0,0,0-.5.75A2.51,2.51,0,0,0,173.55,9Z"/><path class="cls-1" d="M184.11,10.66l-.46.62c-.14.2-.27.39-.38.58a3.29,3.29,0,0,1,1.13-.77,3.59,3.59,0,0,1,1.44-.28,3.78,3.78,0,0,1,1.36.24,3.15,3.15,0,0,1,1.08.68,3.2,3.2,0,0,1,.7,1.08,3.64,3.64,0,0,1,.26,1.4,3.77,3.77,0,0,1-.28,1.44,3.5,3.5,0,0,1-.78,1.14,3.63,3.63,0,0,1-1.2.74,4.17,4.17,0,0,1-1.53.27,4,4,0,0,1-1.47-.26,3.15,3.15,0,0,1-1.14-.75,3.19,3.19,0,0,1-.73-1.19,4.33,4.33,0,0,1-.26-1.58,4,4,0,0,1,.34-1.52,8.66,8.66,0,0,1,1.12-1.91l3.13-4.21a.47.47,0,0,1,.41-.19h.68Zm1.33,6.5a3.37,3.37,0,0,0,1.26-.22,2.82,2.82,0,0,0,1-.61,2.6,2.6,0,0,0,.61-.91,3.15,3.15,0,0,0,.21-1.16,3.23,3.23,0,0,0-.21-1.19,2.63,2.63,0,0,0-.58-.9,2.88,2.88,0,0,0-.9-.57,3.55,3.55,0,0,0-2.43.05,3.11,3.11,0,0,0-.95.64,3,3,0,0,0-.6.9,2.81,2.81,0,0,0-.2,1,3.48,3.48,0,0,0,.2,1.18,2.86,2.86,0,0,0,.56.94,2.61,2.61,0,0,0,.9.61A3,3,0,0,0,185.44,17.16Z"/><path class="cls-1" d="M193.44,10.66l-.46.62c-.14.2-.27.39-.38.58a3.29,3.29,0,0,1,1.13-.77,3.59,3.59,0,0,1,1.44-.28,3.78,3.78,0,0,1,1.36.24,3.15,3.15,0,0,1,1.08.68,3.2,3.2,0,0,1,.7,1.08,3.64,3.64,0,0,1,.26,1.4,3.77,3.77,0,0,1-.28,1.44,3.5,3.5,0,0,1-.78,1.14,3.63,3.63,0,0,1-1.2.74,4.17,4.17,0,0,1-1.53.27,4,4,0,0,1-1.47-.26,3.15,3.15,0,0,1-1.14-.75,3.19,3.19,0,0,1-.73-1.19,4.33,4.33,0,0,1-.26-1.58,4,4,0,0,1,.34-1.52,8.66,8.66,0,0,1,1.12-1.91l3.13-4.21a.47.47,0,0,1,.41-.19h.68Zm1.33,6.5a3.37,3.37,0,0,0,1.26-.22,2.82,2.82,0,0,0,.95-.61,2.6,2.6,0,0,0,.61-.91,3.15,3.15,0,0,0,.21-1.16,3.23,3.23,0,0,0-.21-1.19,2.63,2.63,0,0,0-.58-.9,2.88,2.88,0,0,0-.9-.57,3.55,3.55,0,0,0-2.43.05,3.11,3.11,0,0,0-1,.64,3,3,0,0,0-.6.9,2.81,2.81,0,0,0-.2,1,3.48,3.48,0,0,0,.2,1.18,2.86,2.86,0,0,0,.56.94,2.61,2.61,0,0,0,.9.61A3,3,0,0,0,194.77,17.16Z"/><path class="cls-1" d="M200.52,12.53h3.78v.65h-3.78Z"/><path class="cls-1" d="M213.39,16.94a.25.25,0,0,1,.2.08.26.26,0,0,1,.08.2v.45h-7.41v-.28a.58.58,0,0,1,0-.18.61.61,0,0,1,.12-.16l3.92-4q.49-.5.9-1a7.29,7.29,0,0,0,.72-.93,4.55,4.55,0,0,0,.47-1,3.06,3.06,0,0,0,.18-1.06,2.61,2.61,0,0,0-.22-1.09,2,2,0,0,0-.56-.77,2.29,2.29,0,0,0-.81-.45,3,3,0,0,0-1-.14,3,3,0,0,0-1,.16,2.93,2.93,0,0,0-.81.46,2.74,2.74,0,0,0-.9,1.61.38.38,0,0,1-.15.23.42.42,0,0,1-.26,0l-.4-.06A4.17,4.17,0,0,1,207,7.84a3.31,3.31,0,0,1,.76-1,3.22,3.22,0,0,1,1.07-.6,4.06,4.06,0,0,1,1.32-.21,4,4,0,0,1,1.25.19,3.12,3.12,0,0,1,1.06.58,2.7,2.7,0,0,1,.72,1,3.2,3.2,0,0,1,.27,1.36,3.66,3.66,0,0,1-.2,1.21,4.61,4.61,0,0,1-.54,1.06,8.86,8.86,0,0,1-.79,1c-.3.32-.61.65-.94,1l-3.6,3.67a4.32,4.32,0,0,1,.54-.1,5.25,5.25,0,0,1,.56,0Z"/><path class="cls-1" d="M220.59,11.67a4,4,0,0,1,1,.37,2.79,2.79,0,0,1,.79.61,2.75,2.75,0,0,1,.52.86,3.26,3.26,0,0,1,.19,1.13,3.1,3.1,0,0,1-.28,1.31,2.89,2.89,0,0,1-.77,1,3.55,3.55,0,0,1-1.17.63,5.33,5.33,0,0,1-3,0,3.6,3.6,0,0,1-1.18-.63,3,3,0,0,1-1-2.31,3,3,0,0,1,.19-1.13,2.55,2.55,0,0,1,.51-.86,2.79,2.79,0,0,1,.79-.61,4,4,0,0,1,1-.37,3.43,3.43,0,0,1-.89-.39,2.72,2.72,0,0,1-.66-.6,3.2,3.2,0,0,1-.4-.78,3,3,0,0,1-.13-.91,2.78,2.78,0,0,1,.23-1.15,2.73,2.73,0,0,1,.66-.93,3.06,3.06,0,0,1,1-.62,4.25,4.25,0,0,1,2.76,0,3.21,3.21,0,0,1,1,.62,2.87,2.87,0,0,1,.66.93A2.78,2.78,0,0,1,222.68,9a2.71,2.71,0,0,1-.14.91,2.46,2.46,0,0,1-.4.77,2.72,2.72,0,0,1-.66.6A3.14,3.14,0,0,1,220.59,11.67Zm-1.23,5.51a3.78,3.78,0,0,0,1.2-.18,2.64,2.64,0,0,0,.93-.52,2.2,2.2,0,0,0,.6-.81,2.51,2.51,0,0,0,.21-1,2.64,2.64,0,0,0-.27-1.26,2.3,2.3,0,0,0-.71-.8,2.73,2.73,0,0,0-.95-.43,4.51,4.51,0,0,0-1-.13,4.43,4.43,0,0,0-1,.13,2.73,2.73,0,0,0-1,.43,2.3,2.3,0,0,0-.71.8,2.64,2.64,0,0,0-.27,1.26,2.51,2.51,0,0,0,.21,1,2.29,2.29,0,0,0,.59.81,2.64,2.64,0,0,0,.93.52A3.87,3.87,0,0,0,219.36,17.18ZM216.8,9a2.73,2.73,0,0,0,.15.89,2.14,2.14,0,0,0,1.27,1.3,3.35,3.35,0,0,0,2.28,0,2.14,2.14,0,0,0,1.27-1.3,2.73,2.73,0,0,0,.15-.89,2.51,2.51,0,0,0-.17-.92,2,2,0,0,0-.5-.75,2.39,2.39,0,0,0-.8-.49,3.36,3.36,0,0,0-2.17,0,2.34,2.34,0,0,0-.81.49,2,2,0,0,0-.5.75A2.51,2.51,0,0,0,216.8,9Z"/><path class="cls-1" d="M225.25,9.16a4.17,4.17,0,0,1,.41-1.32,3.31,3.31,0,0,1,.76-1,3.22,3.22,0,0,1,1.07-.6,4.06,4.06,0,0,1,1.32-.21,4.18,4.18,0,0,1,1.24.18,3.09,3.09,0,0,1,1,.55,2.62,2.62,0,0,1,.69.91,3.14,3.14,0,0,1,.09,2.27,2.54,2.54,0,0,1-.48.79,3.07,3.07,0,0,1-.71.57,3.91,3.91,0,0,1-.9.35,3.21,3.21,0,0,1,1.91,1,2.71,2.71,0,0,1,.64,1.85,3,3,0,0,1-.28,1.31,3.24,3.24,0,0,1-.78,1.05,3.57,3.57,0,0,1-1.17.68,4.11,4.11,0,0,1-1.46.25,4.55,4.55,0,0,1-1.64-.26,3.29,3.29,0,0,1-1.07-.69,3.34,3.34,0,0,1-.66-.94,8.85,8.85,0,0,1-.38-1.05l.31-.13a.5.5,0,0,1,.27,0,.28.28,0,0,1,.21.19c0,.06.06.16.11.3a3.38,3.38,0,0,0,.53,1,2.45,2.45,0,0,0,.52.49,2.89,2.89,0,0,0,.75.35,3.23,3.23,0,0,0,1,.14,3.18,3.18,0,0,0,1.28-.24,3,3,0,0,0,.92-.62,2.58,2.58,0,0,0,.73-1.75,2.84,2.84,0,0,0-.17-1,1.86,1.86,0,0,0-.55-.79,2.84,2.84,0,0,0-1-.51,5.4,5.4,0,0,0-1.57-.2V11.5a5.09,5.09,0,0,0,1.32-.2,3,3,0,0,0,.94-.5,2,2,0,0,0,.58-.76,2.32,2.32,0,0,0,.2-1A2.47,2.47,0,0,0,231.06,8a2.12,2.12,0,0,0-.54-.74,2.37,2.37,0,0,0-.8-.43,3.24,3.24,0,0,0-.94-.13,3,3,0,0,0-1,.16,2.85,2.85,0,0,0-.82.46A2.68,2.68,0,0,0,226,9a.34.34,0,0,1-.14.23.38.38,0,0,1-.25,0Z"/><path class="cls-1" d="M234.44,12.53h3.77v.65h-3.77Z"/><path class="cls-1" d="M242.61,10.66l-.46.62c-.14.2-.27.39-.38.58a3.2,3.2,0,0,1,1.13-.77,3.59,3.59,0,0,1,1.44-.28,3.78,3.78,0,0,1,1.36.24,3.15,3.15,0,0,1,1.08.68,3.2,3.2,0,0,1,.7,1.08,3.64,3.64,0,0,1,.26,1.4,3.77,3.77,0,0,1-.28,1.44,3.5,3.5,0,0,1-.78,1.14,3.63,3.63,0,0,1-1.2.74,4.2,4.2,0,0,1-1.53.27,4,4,0,0,1-1.47-.26,3.15,3.15,0,0,1-1.14-.75,3.19,3.19,0,0,1-.73-1.19,4.33,4.33,0,0,1-.26-1.58,4,4,0,0,1,.34-1.52,8.66,8.66,0,0,1,1.12-1.91l3.13-4.21a.47.47,0,0,1,.41-.19H246Zm1.33,6.5a3.4,3.4,0,0,0,1.26-.22,2.82,2.82,0,0,0,1-.61,2.75,2.75,0,0,0,.61-.91,3.15,3.15,0,0,0,.21-1.16,3.23,3.23,0,0,0-.21-1.19,2.63,2.63,0,0,0-.58-.9,3,3,0,0,0-.9-.57,3.27,3.27,0,0,0-1.15-.19,3.21,3.21,0,0,0-1.28.24,3,3,0,0,0-.95.64,3,3,0,0,0-.6.9,2.81,2.81,0,0,0-.2,1,3.48,3.48,0,0,0,.2,1.18,2.86,2.86,0,0,0,.56.94,2.61,2.61,0,0,0,.9.61A3,3,0,0,0,243.94,17.16Z"/><path class="cls-1" d="M256.64,16.94a.28.28,0,0,1,.2.08.26.26,0,0,1,.07.2v.45h-7.4v-.28a.39.39,0,0,1,0-.18.61.61,0,0,1,.12-.16l3.92-4q.48-.5.9-1a9.72,9.72,0,0,0,.72-.93,4.55,4.55,0,0,0,.47-1,3.32,3.32,0,0,0,.17-1.06,2.62,2.62,0,0,0-.21-1.09,2.13,2.13,0,0,0-.56-.77,2.29,2.29,0,0,0-.81-.45,3.1,3.1,0,0,0-1-.14,2.91,2.91,0,0,0-1,.16,2.58,2.58,0,0,0-1.4,1.17,2.92,2.92,0,0,0-.32.9.31.31,0,0,1-.15.23.38.38,0,0,1-.25,0l-.4-.06a4.17,4.17,0,0,1,.41-1.32,3.31,3.31,0,0,1,.76-1,3.12,3.12,0,0,1,1.07-.6,4,4,0,0,1,1.31-.21,4,4,0,0,1,1.26.19,3.08,3.08,0,0,1,1.05.58,2.61,2.61,0,0,1,.73,1,3.2,3.2,0,0,1,.27,1.36,3.66,3.66,0,0,1-.2,1.21,4.61,4.61,0,0,1-.54,1.06,8.86,8.86,0,0,1-.79,1c-.3.32-.62.65-1,1l-3.59,3.67a4.32,4.32,0,0,1,.54-.1,5.12,5.12,0,0,1,.56,0Z"/><path class="cls-1" d="M266.56,6.19v.35a.88.88,0,0,1,0,.24.89.89,0,0,1-.08.17L261.2,17.38a.61.61,0,0,1-.18.21.49.49,0,0,1-.28.08h-.54l5.31-10.39a1.92,1.92,0,0,1,.25-.38h-6.62a.21.21,0,0,1-.22-.22V6.19Z"/><path class="cls-1" d="M276.13,13.76v.42a.17.17,0,0,1-.06.14.2.2,0,0,1-.16.06H274v3.29h-.69V14.38h-5.42a.25.25,0,0,1-.19-.06.28.28,0,0,1-.09-.14l-.07-.38,5.77-7.63H274v7.59Zm-2.79,0v-6c0-.09,0-.2,0-.3s0-.22,0-.34l-5,6.65Z"/><path class="cls-1" d="M279.18,12.56a12.52,12.52,0,0,0-.49-3.49,12.77,12.77,0,0,0-1.47-3.22.26.26,0,0,1,0-.23.29.29,0,0,1,.1-.12l.34-.21a14.79,14.79,0,0,1,1.05,1.85,13.16,13.16,0,0,1,.69,1.79,12.27,12.27,0,0,1,.38,1.78,14,14,0,0,1,.12,1.85,13.87,13.87,0,0,1-.12,1.84,12.27,12.27,0,0,1-.38,1.78,13.69,13.69,0,0,1-.69,1.79,15.53,15.53,0,0,1-1.05,1.85l-.34-.21a.27.27,0,0,1-.1-.13c0-.05,0-.13,0-.22A12.94,12.94,0,0,0,278.69,16,12.5,12.5,0,0,0,279.18,12.56Z"/><path class="cls-1" d="M75.41,28.33a4.85,4.85,0,0,1,1.63-1A5.51,5.51,0,0,1,79,27a3.29,3.29,0,0,1,1.33.25,2.71,2.71,0,0,1,1,.67,3.12,3.12,0,0,1,.63,1,3.71,3.71,0,0,1,.22,1.31v5.26h-1a1.07,1.07,0,0,1-.49-.09.65.65,0,0,1-.27-.37l-.18-.54a6.23,6.23,0,0,1-.61.49,3.42,3.42,0,0,1-.61.35,3,3,0,0,1-.68.22,4,4,0,0,1-.81.07,3.13,3.13,0,0,1-1-.15,2.08,2.08,0,0,1-.79-.43,2,2,0,0,1-.5-.72,2.5,2.5,0,0,1-.18-1,2.05,2.05,0,0,1,.23-.92,2.3,2.3,0,0,1,.81-.84A5.26,5.26,0,0,1,77.58,31,10.81,10.81,0,0,1,80,30.7v-.43a1.63,1.63,0,0,0-.34-1.15,1.2,1.2,0,0,0-.95-.37,2.22,2.22,0,0,0-.78.11,3.82,3.82,0,0,0-.53.23l-.44.24a1,1,0,0,1-.47.11.61.61,0,0,1-.39-.12A1,1,0,0,1,75.8,29ZM80,32a13,13,0,0,0-1.37.14,3.24,3.24,0,0,0-.86.27,1.19,1.19,0,0,0-.46.37.9.9,0,0,0-.13.45.82.82,0,0,0,.27.69,1.29,1.29,0,0,0,.76.2,2.24,2.24,0,0,0,1-.2,3,3,0,0,0,.82-.62Z"/><path class="cls-1" d="M91.31,27.16,88,35.53H86l-3.28-8.37h1.86a.65.65,0,0,1,.4.12.55.55,0,0,1,.23.29l1.4,4.14c.1.28.18.55.25.82s.13.54.18.81c.06-.27.13-.54.2-.81s.16-.54.26-.82l1.45-4.14a.53.53,0,0,1,.22-.29.62.62,0,0,1,.38-.12Z"/><path class="cls-1" d="M93.7,31.69a2.65,2.65,0,0,0,.66,1.72,2,2,0,0,0,1.48.55,2.71,2.71,0,0,0,.8-.11,4.76,4.76,0,0,0,.59-.25l.46-.24a.93.93,0,0,1,.41-.11.5.5,0,0,1,.41.2l.65.81a3.86,3.86,0,0,1-.79.68,4.28,4.28,0,0,1-.89.43,4.42,4.42,0,0,1-.94.22,7.07,7.07,0,0,1-.91.06A4.37,4.37,0,0,1,94,35.36a3.53,3.53,0,0,1-1.32-.85,3.78,3.78,0,0,1-.89-1.4,5.22,5.22,0,0,1-.33-1.94,4.72,4.72,0,0,1,.28-1.6,3.85,3.85,0,0,1,.81-1.32,3.92,3.92,0,0,1,1.28-.89A4.24,4.24,0,0,1,95.54,27a4.18,4.18,0,0,1,1.48.25,3.38,3.38,0,0,1,1.17.74,3.52,3.52,0,0,1,.76,1.2,4.51,4.51,0,0,1,.27,1.62c0,.17,0,.3,0,.41a.71.71,0,0,1-.09.26.26.26,0,0,1-.15.14.85.85,0,0,1-.25,0Zm3.52-1.33a2.07,2.07,0,0,0-.1-.66,1.57,1.57,0,0,0-.29-.56,1.51,1.51,0,0,0-.51-.39,1.88,1.88,0,0,0-.74-.14,1.7,1.7,0,0,0-1.26.45,2.35,2.35,0,0,0-.59,1.3Z"/><path class="cls-1" d="M100.53,35.53V27.16h1.38a.55.55,0,0,1,.56.39l.13.55a4.47,4.47,0,0,1,.45-.42,2.69,2.69,0,0,1,.49-.34,2.89,2.89,0,0,1,.58-.22,2.49,2.49,0,0,1,.68-.08,1.93,1.93,0,0,1,1.28.41,2.5,2.5,0,0,1,.76,1.09,2.35,2.35,0,0,1,.5-.69,2.51,2.51,0,0,1,.65-.47,3.09,3.09,0,0,1,.74-.26,3.59,3.59,0,0,1,.79-.08,3.45,3.45,0,0,1,1.25.21,2.27,2.27,0,0,1,.92.62,2.77,2.77,0,0,1,.56,1,4.26,4.26,0,0,1,.2,1.35v5.31h-2.24V30.22q0-1.47-1.26-1.47a1.42,1.42,0,0,0-.52.09,1.23,1.23,0,0,0-.43.28,1.42,1.42,0,0,0-.28.46,1.83,1.83,0,0,0-.1.64v5.31h-2.24V30.22a1.73,1.73,0,0,0-.31-1.14,1.22,1.22,0,0,0-.92-.33,1.59,1.59,0,0,0-.74.18,2.32,2.32,0,0,0-.64.51v6.09Z"/><path class="cls-1" d="M114,28.33a4.85,4.85,0,0,1,1.63-1,5.51,5.51,0,0,1,1.93-.33,3.29,3.29,0,0,1,1.33.25,2.71,2.71,0,0,1,1,.67,3.12,3.12,0,0,1,.63,1,3.71,3.71,0,0,1,.22,1.31v5.26h-1a1.07,1.07,0,0,1-.49-.09.65.65,0,0,1-.27-.37l-.18-.54a6.23,6.23,0,0,1-.61.49,3.42,3.42,0,0,1-.61.35,3,3,0,0,1-.68.22,4,4,0,0,1-.81.07,3.13,3.13,0,0,1-1-.15,2.08,2.08,0,0,1-.79-.43,2,2,0,0,1-.5-.72,2.5,2.5,0,0,1-.18-1,2.05,2.05,0,0,1,.23-.92,2.3,2.3,0,0,1,.81-.84,5.26,5.26,0,0,1,1.53-.63,10.81,10.81,0,0,1,2.39-.28v-.43a1.63,1.63,0,0,0-.34-1.15,1.2,1.2,0,0,0-1-.37,2.13,2.13,0,0,0-.77.11,3.5,3.5,0,0,0-.54.23l-.44.24a1,1,0,0,1-.47.11.61.61,0,0,1-.39-.12,1,1,0,0,1-.27-.28Zm4.56,3.7a13,13,0,0,0-1.37.14,3.24,3.24,0,0,0-.86.27,1.19,1.19,0,0,0-.46.37.9.9,0,0,0-.13.45A.82.82,0,0,0,116,34a1.29,1.29,0,0,0,.76.2,2.24,2.24,0,0,0,1-.2,3,3,0,0,0,.82-.62Z"/><path class="cls-1" d="M124.46,28.54a3.73,3.73,0,0,1,.92-1.12A1.86,1.86,0,0,1,126.6,27a1.5,1.5,0,0,1,.92.27l-.15,1.66a.34.34,0,0,1-.12.22.41.41,0,0,1-.23.06,2.21,2.21,0,0,1-.38,0l-.45,0a1.55,1.55,0,0,0-.55.09,1.27,1.27,0,0,0-.42.25,1.83,1.83,0,0,0-.34.39,4.52,4.52,0,0,0-.28.54v5.12h-2.24V27.16h1.32a.68.68,0,0,1,.47.13.75.75,0,0,1,.19.42Z"/><path class="cls-1" d="M131,24.79a1.36,1.36,0,0,1-.11.53,1.62,1.62,0,0,1-.31.43,1.36,1.36,0,0,1-1,.39A1.35,1.35,0,0,1,129,26a1.42,1.42,0,0,1-.43-.29,1.84,1.84,0,0,1-.3-.43,1.36,1.36,0,0,1-.11-.53,1.32,1.32,0,0,1,.11-.53,1.71,1.71,0,0,1,.3-.44,1.42,1.42,0,0,1,.43-.29,1.36,1.36,0,0,1,.53-.11,1.42,1.42,0,0,1,1,.4,1.52,1.52,0,0,1,.31.44A1.32,1.32,0,0,1,131,24.79Zm-.27,2.37v8.37h-2.24V27.16Z"/><path class="cls-1" d="M132.35,28.33a4.85,4.85,0,0,1,1.63-1,5.51,5.51,0,0,1,1.93-.33,3.29,3.29,0,0,1,1.33.25,2.71,2.71,0,0,1,1,.67,2.82,2.82,0,0,1,.63,1,3.71,3.71,0,0,1,.22,1.31v5.26h-1a1,1,0,0,1-.48-.09.66.66,0,0,1-.28-.37l-.17-.54a7.75,7.75,0,0,1-.62.49,3.1,3.1,0,0,1-.61.35,3,3,0,0,1-.68.22,4,4,0,0,1-.8.07,3.2,3.2,0,0,1-1-.15,2.12,2.12,0,0,1-.78-.43,1.89,1.89,0,0,1-.51-.72,2.5,2.5,0,0,1-.18-1,1.94,1.94,0,0,1,.24-.92,2.18,2.18,0,0,1,.8-.84,5.26,5.26,0,0,1,1.53-.63,10.81,10.81,0,0,1,2.39-.28v-.43a1.68,1.68,0,0,0-.33-1.15,1.24,1.24,0,0,0-1-.37,2.13,2.13,0,0,0-.77.11,3.5,3.5,0,0,0-.54.23l-.44.24a1,1,0,0,1-.47.11.62.62,0,0,1-.39-.12,1,1,0,0,1-.26-.28Zm4.56,3.7a12.52,12.52,0,0,0-1.36.14,3.32,3.32,0,0,0-.87.27,1.15,1.15,0,0,0-.45.37.92.92,0,0,0,.13,1.14,1.32,1.32,0,0,0,.76.2,2.21,2.21,0,0,0,1-.2,2.82,2.82,0,0,0,.82-.62Z"/><path class="cls-1" d="M141.22,35.53V28.77l-.65-.11a.91.91,0,0,1-.41-.18.44.44,0,0,1-.16-.37v-.9h1.22v-.55a3.53,3.53,0,0,1,.22-1.29,2.57,2.57,0,0,1,.64-1,2.65,2.65,0,0,1,1-.62,3.84,3.84,0,0,1,1.36-.22,4.8,4.8,0,0,1,.55,0,4.52,4.52,0,0,1,.53.11l0,1.11a.36.36,0,0,1-.22.32,1,1,0,0,1-.44.08,2.94,2.94,0,0,0-.62.07,1.06,1.06,0,0,0-.74.72,2.54,2.54,0,0,0-.1.74v.48h2.08v1.56h-2v6.76Z"/><path class="cls-1" d="M153.74,27.16v8.37h-1.38a.52.52,0,0,1-.55-.39l-.14-.58a5.27,5.27,0,0,1-.52.44,3.36,3.36,0,0,1-.57.35,3,3,0,0,1-.66.23,3.71,3.71,0,0,1-.77.08,2.9,2.9,0,0,1-1.21-.24,2.34,2.34,0,0,1-.89-.65,2.8,2.8,0,0,1-.54-1,4,4,0,0,1-.19-1.28V27.16h2.24v5.32a1.66,1.66,0,0,0,.32,1.08,1.15,1.15,0,0,0,1,.39,1.94,1.94,0,0,0,.89-.21,3.41,3.41,0,0,0,.78-.56v-6Z"/><path class="cls-1" d="M157.59,28.14c.17-.16.34-.31.52-.45a5,5,0,0,1,.58-.35,3.2,3.2,0,0,1,.66-.22,3.06,3.06,0,0,1,.76-.08,2.87,2.87,0,0,1,1.21.23,2.56,2.56,0,0,1,.89.66,2.93,2.93,0,0,1,.55,1,4.37,4.37,0,0,1,.18,1.29v5.31h-2.23V30.22a1.63,1.63,0,0,0-.33-1.09,1.19,1.19,0,0,0-1-.38,1.92,1.92,0,0,0-.88.2,2.77,2.77,0,0,0-.79.57v6h-2.24V27.16h1.38a.54.54,0,0,1,.56.39Z"/><path class="cls-1" d="M172,23.43v12.1h-1.38a.52.52,0,0,1-.55-.39l-.19-.73a4.18,4.18,0,0,1-.53.5,3.3,3.3,0,0,1-.6.4,3.23,3.23,0,0,1-.7.25,3.47,3.47,0,0,1-.81.09,2.72,2.72,0,0,1-1.24-.28,2.93,2.93,0,0,1-1-.83,4.22,4.22,0,0,1-.63-1.35,6.63,6.63,0,0,1-.23-1.81,5.67,5.67,0,0,1,.26-1.74,4.26,4.26,0,0,1,.72-1.39,3.51,3.51,0,0,1,1.14-.92,3.25,3.25,0,0,1,1.48-.33,2.79,2.79,0,0,1,2,.76V23.43Zm-2.24,5.91a1.87,1.87,0,0,0-.68-.51,2.09,2.09,0,0,0-.79-.15,1.67,1.67,0,0,0-.74.16,1.44,1.44,0,0,0-.57.48,2.51,2.51,0,0,0-.37.84,5.36,5.36,0,0,0-.13,1.22,5.64,5.64,0,0,0,.11,1.18,2.41,2.41,0,0,0,.3.79,1.24,1.24,0,0,0,.49.43,1.46,1.46,0,0,0,.63.14,1.89,1.89,0,0,0,1-.24,2.93,2.93,0,0,0,.76-.67Z"/><path class="cls-1" d="M179,28.88a.6.6,0,0,1-.18.2.5.5,0,0,1-.26.06.67.67,0,0,1-.33-.08l-.38-.17-.49-.18a2.35,2.35,0,0,0-.63-.08,1.38,1.38,0,0,0-.84.23.7.7,0,0,0-.3.59.61.61,0,0,0,.17.42,1.4,1.4,0,0,0,.45.29,4.29,4.29,0,0,0,.64.24l.73.24a5.21,5.21,0,0,1,.74.3,2.48,2.48,0,0,1,.63.42,1.87,1.87,0,0,1,.45.62,1.93,1.93,0,0,1,.17.87,2.81,2.81,0,0,1-.22,1.13,2.59,2.59,0,0,1-.65.89,3.32,3.32,0,0,1-1.07.58,5,5,0,0,1-2.33.13,4.1,4.1,0,0,1-.8-.22,4.75,4.75,0,0,1-.72-.32,3.21,3.21,0,0,1-.57-.41l.51-.84a.69.69,0,0,1,.23-.22.59.59,0,0,1,.34-.08.72.72,0,0,1,.38.1l.38.22a4.1,4.1,0,0,0,.5.22,2.38,2.38,0,0,0,.71.1,1.79,1.79,0,0,0,.56-.08,1,1,0,0,0,.39-.2.83.83,0,0,0,.21-.28.75.75,0,0,0,.07-.33.61.61,0,0,0-.18-.45,1.41,1.41,0,0,0-.45-.3,4.29,4.29,0,0,0-.64-.24l-.75-.23a6.81,6.81,0,0,1-.74-.31,2.64,2.64,0,0,1-.64-.45,2.32,2.32,0,0,1-.45-.67,2.66,2.66,0,0,1,0-1.95,2.32,2.32,0,0,1,.61-.83,3.05,3.05,0,0,1,1-.56,4.72,4.72,0,0,1,3,.08,3.43,3.43,0,0,1,1.2.76Z"/><path class="cls-1" d="M180.6,34.35a1.21,1.21,0,0,1,.1-.5,1.34,1.34,0,0,1,.28-.42,1.32,1.32,0,0,1,.42-.27,1.4,1.4,0,0,1,1,0,1.32,1.32,0,0,1,.42.27,1.19,1.19,0,0,1,.28.42,1.22,1.22,0,0,1,.11.5,1.27,1.27,0,0,1-.11.52,1.12,1.12,0,0,1-.28.4,1.34,1.34,0,0,1-.42.28,1.55,1.55,0,0,1-1,0,1.34,1.34,0,0,1-.42-.28,1.26,1.26,0,0,1-.28-.4A1.27,1.27,0,0,1,180.6,34.35Z"/><path class="cls-1" d="M190.77,29a.94.94,0,0,1-.2.2.41.41,0,0,1-.27.07.62.62,0,0,1-.32-.09l-.34-.21a2.88,2.88,0,0,0-.46-.2,2.13,2.13,0,0,0-.67-.09,2,2,0,0,0-.87.18,1.62,1.62,0,0,0-.61.52,2.1,2.1,0,0,0-.36.83,4.55,4.55,0,0,0-.12,1.09,3.26,3.26,0,0,0,.51,2,1.7,1.7,0,0,0,1.41.68,2.65,2.65,0,0,0,.53,0,1.77,1.77,0,0,0,.39-.14,1.58,1.58,0,0,0,.29-.17l.23-.18a1.35,1.35,0,0,1,.22-.14.66.66,0,0,1,.25,0,.47.47,0,0,1,.4.2l.64.81a3.83,3.83,0,0,1-1.6,1.11,3.91,3.91,0,0,1-.88.22,6.62,6.62,0,0,1-.88.06,3.59,3.59,0,0,1-1.46-.29,3.38,3.38,0,0,1-1.21-.84,4,4,0,0,1-.83-1.35,5.64,5.64,0,0,1,0-3.54,3.83,3.83,0,0,1,.79-1.36,3.51,3.51,0,0,1,1.28-.91,4.44,4.44,0,0,1,1.77-.32,4.34,4.34,0,0,1,1.68.3,4.1,4.1,0,0,1,1.3.9Z"/><path class="cls-1" d="M196.1,27a4.87,4.87,0,0,1,1.71.29,4,4,0,0,1,1.32.86,3.74,3.74,0,0,1,.85,1.35,5.52,5.52,0,0,1,0,3.59,3.79,3.79,0,0,1-.85,1.36,3.68,3.68,0,0,1-1.32.86,4.65,4.65,0,0,1-1.71.3,4.8,4.8,0,0,1-1.73-.3,3.6,3.6,0,0,1-1.32-.86,3.81,3.81,0,0,1-.86-1.36,5.52,5.52,0,0,1,0-3.59,3.77,3.77,0,0,1,.86-1.35,3.87,3.87,0,0,1,1.32-.86A5,5,0,0,1,196.1,27Zm0,6.93a1.62,1.62,0,0,0,1.42-.66,3.43,3.43,0,0,0,.46-2,3.44,3.44,0,0,0-.46-2,1.62,1.62,0,0,0-1.42-.66,1.65,1.65,0,0,0-1.45.66,3.52,3.52,0,0,0-.46,2,3.52,3.52,0,0,0,.46,2A1.65,1.65,0,0,0,196.1,34Z"/><path class="cls-1" d="M201.61,35.53V27.16H203a.54.54,0,0,1,.56.39l.13.55q.23-.23.45-.42a2.76,2.76,0,0,1,.5-.34,2.89,2.89,0,0,1,.58-.22,2.49,2.49,0,0,1,.68-.08,1.9,1.9,0,0,1,1.27.41,2.51,2.51,0,0,1,.77,1.09,2.35,2.35,0,0,1,.5-.69,2.51,2.51,0,0,1,.65-.47,3.09,3.09,0,0,1,.74-.26,3.53,3.53,0,0,1,.79-.08,3.45,3.45,0,0,1,1.25.21,2.27,2.27,0,0,1,.92.62,2.77,2.77,0,0,1,.56,1,4.27,4.27,0,0,1,.19,1.35v5.31h-2.24V30.22c0-1-.41-1.47-1.25-1.47a1.51,1.51,0,0,0-.53.09,1.19,1.19,0,0,0-.42.28,1.42,1.42,0,0,0-.28.46,1.83,1.83,0,0,0-.1.64v5.31h-2.24V30.22a1.67,1.67,0,0,0-.32-1.14,1.19,1.19,0,0,0-.92-.33,1.55,1.55,0,0,0-.73.18,2.36,2.36,0,0,0-.65.51v6.09Z"/></g></svg>