<svg xmlns="http://www.w3.org/2000/svg" xmlns:xlink="http://www.w3.org/1999/xlink" viewBox="0 0 267.73 66.69"><defs><style>.cls-1{fill:none;}.cls-2{clip-path:url(#clip-path);}.cls-3{fill:#a27e2d;}.cls-4{fill:#21448d;}.cls-5{fill:#fff;}</style><clipPath id="clip-path"><rect class="cls-1" x="-515.28" y="174.36" width="608.66" height="255.57"/></clipPath></defs><title>logo-ammf</title><g id="Layer_2" data-name="Layer 2"><g class="cls-2"><image width="3865" height="4049" transform="translate(-600.74 -128.23) scale(0.23)" xlink:href="../../../../[ 4 ]  stock photos/shutterstock - all/clouds_94121431.jpg"/></g></g><g id="Layer_1" data-name="Layer 1"><polygon class="cls-3" points="47.96 57.2 27.63 50.29 7.29 57.2 7.29 4.16 47.96 4.16 47.96 57.2"/><polygon class="cls-4" points="27.85 56.29 45.75 62.37 45.75 4.16 9.5 4.16 9.5 62.53 27.85 56.29"/><path class="cls-5" d="M27.74,30A2.55,2.55,0,0,1,30,28.55c1.53,0,1.15.52,4,.52V23.52c-1.53.07-2.77-1.49-4.79-.47a2.63,2.63,0,0,0-1.43,2.15V30"/><path class="cls-5" d="M29.62,17v.06a.08.08,0,0,1-.07.09H27.88V15.75c0-.05,0-.08.06-.08H28v-.24h-.75v.24h.05s.06,0,.06.09v1.43H25.7s-.06,0-.06-.09V17h-.25v.87h.25v-.06c0-.05,0-.1.07-.1h1.65V21.5c0,.06,0,.1-.06.1h-.06v.24H28V21.6H28s-.07-.05-.07-.11V17.75h1.66s.08.06.08.11v.06h.24V17Z"/><path class="cls-5" d="M27.51,30a2.53,2.53,0,0,0-2.23-1.49c-1.54,0-1.16.52-4,.52V23.52c1.54.07,2.77-1.49,4.8-.47a2.62,2.62,0,0,1,1.42,2.15V30"/><path class="cls-5" d="M34.7,24.29v5.53H28.23a2.94,2.94,0,0,1,1.83-.5,5.49,5.49,0,0,1,1.25.1,13.51,13.51,0,0,0,3,.15h.13V23.85H34.2v5.44a12.85,12.85,0,0,1-2.83-.14A5.24,5.24,0,0,0,30.06,29a3.07,3.07,0,0,0-2.27.78h-.05v.27H35v-5.8H34.7"/><path class="cls-5" d="M25.19,29a5.14,5.14,0,0,0-1.3.11,13.05,13.05,0,0,1-2.84.14V23.85h-.28v5.71h.14a13.31,13.31,0,0,0,3-.15,5.49,5.49,0,0,1,1.25-.1,2.94,2.94,0,0,1,1.83.5H20.56V24.29h-.28v5.8h7.24v-.27h-.05A3.09,3.09,0,0,0,25.19,29"/><path class="cls-5" d="M20.79,35.57c0,.08.06.19.1.27S21,36,21,36h.11v.13l-.41,0-.41,0V36h.15c.06,0,.12,0,.12-.08a1.16,1.16,0,0,0-.06-.26l-.14-.47h-.88l-.09.27a2.72,2.72,0,0,0-.11.43c0,.08.06.1.15.11h.12v.13l-.36,0-.35,0V36H19c.08,0,.14-.09.17-.2l.54-1.65c.1-.28.2-.59.28-.88h.1ZM20.31,35l-.38-1.22L19.54,35Z"/><path class="cls-5" d="M21.72,35.61l.55-1.93c.07-.22,0-.25-.07-.26H22v-.13l.33,0,.33,0v.13h-.09c-.07,0-.11.1-.17.29l-.53,1.72a7.35,7.35,0,0,0-.2.71h-.15c0-.24-.12-.47-.18-.67l-.57-1.88c0-.14-.09-.17-.14-.17h-.11v-.13l.41,0,.41,0v.13H21.2c-.05,0-.12,0-.09.12Z"/><path class="cls-5" d="M23.18,33.78a.92.92,0,0,0,0-.3s-.06-.06-.13-.06h-.15v-.13l.52,0,.72,0,.4,0a3,3,0,0,0-.05.61h-.11v-.26s0-.1,0-.11a1.46,1.46,0,0,0-.6-.09.73.73,0,0,0-.25,0v1.09h.35a.65.65,0,0,0,.33-.05.19.19,0,0,0,0-.1l0-.21h.09c0,.16,0,.32,0,.47s0,.3,0,.45h-.09l0-.24a.19.19,0,0,0,0-.1s-.14-.05-.33-.05h-.35v1.14a.72.72,0,0,0,.25,0,2.19,2.19,0,0,0,.62,0c.05,0,.09-.21.11-.46h.1a4.83,4.83,0,0,0,0,.67l-.61,0-.66,0-.33,0V36H23c.07,0,.11,0,.13-.06a1,1,0,0,0,0-.31Z"/><path class="cls-5" d="M28.09,35.61a1.11,1.11,0,0,0,0,.31s.06.06.13.06h.15v.13l-.44,0-.41,0V36h.1c.07,0,.11,0,.13-.06a1,1,0,0,0,0-.31V33.76h0c-.05.11-.09.23-.13.34l-.54,1.54c-.06.17-.11.35-.17.52h-.06l-.84-2.4h0v1.85a1,1,0,0,0,0,.31s.05,0,.12.06h.14v.13l-.37,0-.35,0V36h.13c.08,0,.11,0,.13-.06a1,1,0,0,0,0-.31V33.78a.92.92,0,0,0,0-.3s-.05,0-.13-.06h-.13v-.13l.29,0,.29,0L27,35.55l.8-2.27.29,0,.28,0v.13h-.13c-.07,0-.11,0-.13.06a1,1,0,0,0,0,.3Z"/><path class="cls-5" d="M30.5,35.57c0,.08.06.19.1.27s.06.13.12.14h.1v.13l-.4,0-.41,0V36h.14c.07,0,.13,0,.13-.08a.85.85,0,0,0-.07-.26l-.14-.47h-.88l-.08.27a2.72,2.72,0,0,0-.11.43c0,.08.05.1.15.11h.11v.13l-.35,0-.35,0V36h.11c.08,0,.13-.09.17-.2l.54-1.65c.09-.28.2-.59.28-.88h.1ZM30,35l-.39-1.22L29.25,35Z"/><path class="cls-5" d="M31.61,35.61a1,1,0,0,0,0,.31s.05.06.13.06h.14v.13l-.44,0-.45,0V36h.14c.08,0,.12,0,.13-.06a.76.76,0,0,0,0-.31V33.78a.7.7,0,0,0,0-.3s-.05,0-.13-.06H31v-.13l.52,0,.53,0a.55.55,0,0,1,.62.61.79.79,0,0,1-.59.79l.69,1.21A.2.2,0,0,0,33,36v.13l-.22,0-.21,0c0-.08-.09-.15-.13-.22l-.56-1c-.05-.09-.11-.17-.16-.25l0,0a.84.84,0,0,0,.27,0,.57.57,0,0,0,.4-.57c0-.44-.25-.56-.49-.56a.91.91,0,0,0-.31.05Z"/><path class="cls-5" d="M33.71,35.61a1,1,0,0,0,0,.31s.06.06.13.06H34v.13l-.45,0-.45,0V36h.15c.07,0,.11,0,.13-.06a1.11,1.11,0,0,0,0-.31V33.78a1,1,0,0,0,0-.3s-.06-.06-.13-.06h-.15v-.13l.45,0,.45,0v.13h-.15c-.07,0-.11,0-.13.06a.92.92,0,0,0,0,.3Z"/><path class="cls-5" d="M36.07,35.57c0,.08.06.19.1.27s.07.13.12.14h.1v.13l-.4,0-.41,0V36h.14c.07,0,.13,0,.13-.08a1.16,1.16,0,0,0-.06-.26l-.14-.47h-.89l-.08.27a2.72,2.72,0,0,0-.11.43c0,.08,0,.1.15.11h.11v.13l-.35,0-.35,0V36h.11c.08,0,.13-.09.17-.2L35,34.13c.1-.28.2-.59.28-.88h.1ZM35.59,35l-.38-1.22L34.82,35Z"/><path class="cls-5" d="M23.12,41a1,1,0,0,0,0,.3c0,.05.06.06.14.06l.16,0v.12h-.92v-.12l.11,0c.08,0,.12,0,.14-.06a.92.92,0,0,0,0-.3V39.13h0c-.05.11-.09.23-.14.34L22.07,41c-.07.17-.12.35-.18.52h-.07l-.92-2.4h0V41a1,1,0,0,0,0,.3c0,.05.06.06.15.06l.14,0v.12h-.78v-.12l.14,0c.08,0,.12,0,.14-.06a.7.7,0,0,0,0-.3V39.15a.7.7,0,0,0,0-.3s-.06-.05-.14-.07h-.14v-.12h.63l.87,2.27.87-2.27h.62v.12h-.14c-.08,0-.11,0-.14.07a1,1,0,0,0,0,.3Z"/><path class="cls-5" d="M23.94,39.15a.7.7,0,0,0,0-.3s-.06-.06-.14-.07h-.15v-.12h1v.12h-.16c-.08,0-.12,0-.14.07a.7.7,0,0,0,0,.3v1.41c0,.58.24.75.68.75s.68-.17.68-.85V39.15a.7.7,0,0,0,0-.3s-.06-.05-.14-.07h-.14v-.12h.78v.12h-.15c-.07,0-.11,0-.14.07a1,1,0,0,0,0,.3v1.18c0,.88-.27,1.23-.94,1.23s-.9-.21-.9-1Z"/><path class="cls-5" d="M27.08,39.26c0-.16,0-.29,0-.41h-.51c-.1,0-.12,0-.13.14l0,.32h-.1c0-.22,0-.45,0-.66h1.91c0,.21,0,.44,0,.66h-.1l0-.32c0-.1,0-.14-.13-.14H27.4c0,.12,0,.25,0,.41V41a.92.92,0,0,0,0,.3c0,.05.06.06.14.06l.16,0v.12h-1v-.12l.16,0c.08,0,.12,0,.14-.06a.92.92,0,0,0,0-.3Z"/><path class="cls-5" d="M28.68,39.15a.7.7,0,0,0,0-.3s0-.06-.13-.07h-.16v-.12h1v.12h-.16c-.08,0-.12,0-.14.07a.92.92,0,0,0,0,.3v1.41c0,.58.24.75.68.75s.68-.17.68-.85V39.15a1,1,0,0,0,0-.3s-.06-.05-.14-.07h-.15v-.12h.78v.12h-.14c-.08,0-.12,0-.14.07a.7.7,0,0,0,0,.3v1.18c0,.88-.27,1.23-.94,1.23s-.9-.21-.9-1Z"/><path class="cls-5" d="M32.58,40.94c0,.08.07.19.11.28s.07.13.13.13l.12,0v.12h-.89v-.12l.16,0c.07,0,.14,0,.14-.08a1.48,1.48,0,0,0-.07-.26l-.16-.47h-.95l-.09.28a2.72,2.72,0,0,0-.12.42c0,.09.06.1.16.11l.12,0v.12h-.76v-.12l.12,0c.08,0,.15-.09.18-.19l.59-1.66c.1-.29.22-.59.31-.88h.1Zm-.52-.56-.41-1.22-.42,1.22Z"/><path class="cls-5" d="M33.59,41.29a1.33,1.33,0,0,0,.28,0,1.85,1.85,0,0,0,.73-.08.74.74,0,0,0,.07-.26l0-.21h.11c0,.23,0,.5-.07.71H33.09V41.4l.1-.07a.28.28,0,0,0,.09-.24V39.15a.92.92,0,0,0,0-.3s-.06-.06-.14-.07H33v-.12h1v.12h-.16c-.08,0-.12,0-.14.07a.92.92,0,0,0,0,.3Z"/><path class="cls-5" d="M22.48,44.74a1,1,0,0,0,0,.31s.06.05.14.06h.16v.12h-1v-.12H22c.08,0,.12,0,.14-.06a1,1,0,0,0,0-.31V42.91a1,1,0,0,0,0-.31s-.06-.06-.14-.06l-.16,0V42.4h1.7a4.13,4.13,0,0,0-.05.63h-.12v-.27c0-.05,0-.1,0-.11a1.52,1.52,0,0,0-.58-.09,1,1,0,0,0-.28,0V43.7h.39a1,1,0,0,0,.35,0,.27.27,0,0,0,0-.11l0-.21h.1c0,.16,0,.32,0,.47s0,.31,0,.45h-.1l0-.24a.19.19,0,0,0,0-.1.72.72,0,0,0-.35,0h-.39Z"/><path class="cls-5" d="M24,42.91a.73.73,0,0,0,0-.31s-.06-.06-.14-.06l-.16,0V42.4h1v.12l-.16,0c-.08,0-.12,0-.14.06a.73.73,0,0,0,0,.31v1.4c0,.58.24.75.68.75s.68-.17.68-.85v-1.3a.73.73,0,0,0,0-.31s-.06-.06-.14-.06l-.14,0V42.4h.78v.12l-.15,0c-.08,0-.12,0-.14.06a1.07,1.07,0,0,0,0,.31v1.18c0,.87-.27,1.22-.94,1.22s-.9-.21-.9-1Z"/><path class="cls-5" d="M26.69,42.91a1,1,0,0,0,0-.31s-.06-.06-.14-.06l-.14,0V42.4H27l1.59,2.41h0v-1.9a1,1,0,0,0,0-.31s-.06-.06-.14-.06l-.15,0V42.4H29v.12l-.14,0c-.08,0-.12,0-.14.06a.73.73,0,0,0,0,.31v2.25a.76.76,0,0,0,0,.15l-.3-.06-1.56-2.39h0v1.88a1,1,0,0,0,0,.31s.06.05.14.06h.15v.12h-.78v-.12h.14c.08,0,.12,0,.14-.06a1,1,0,0,0,0-.31Z"/><path class="cls-5" d="M29.51,42.91a.73.73,0,0,0,0-.31s-.06-.06-.14-.06l-.13,0V42.4h1.23a1.14,1.14,0,0,1,1.19,1.25,1.61,1.61,0,0,1-.72,1.45,1.37,1.37,0,0,1-.7.14h-.88v-.09l.1-.07c.06,0,.08-.13.08-.24ZM29.83,45a1.5,1.5,0,0,0,.38,0,1,1,0,0,0,.54-.12,1.26,1.26,0,0,0,.52-1.18c0-1-.47-1.19-1.06-1.19a1.5,1.5,0,0,0-.38,0Z"/><path class="cls-5" d="M33.14,43.08l0-.23c0-.11,0-.15-.14-.25a.61.61,0,0,0-.36-.1.54.54,0,0,0-.49.6c0,.28.13.45.54.51s.77.2.77.67a1,1,0,0,1-1,1,1.26,1.26,0,0,1-.57-.15,3.4,3.4,0,0,0,0-.63H32l0,.27c0,.18.28.33.54.33a.6.6,0,0,0,.6-.63c0-.39-.25-.5-.59-.54-.52-.08-.72-.28-.72-.7a.86.86,0,0,1,.85-.93,1.43,1.43,0,0,1,.6.17,3,3,0,0,0,0,.58Z"/><path class="cls-5" d="M40.27,48.39H38V35.1a11.84,11.84,0,0,1,1,1.68c.27.55.46,1,.57,1.33l0,.12a11.47,11.47,0,0,1,.67,3.43v6.73m-22.52,0V27.85A21.92,21.92,0,0,1,19,21.37l.09-.22a22.24,22.24,0,0,1,3.49-6.3,21.7,21.7,0,0,1,3-3.17c.83-.72,1.69-1.35,2-1.58.32.23,1.18.87,2,1.58a21.7,21.7,0,0,1,3,3.17,23.64,23.64,0,0,1,2.42,3.8c.51,1,.86,2,1.07,2.5l.09.22a21.92,21.92,0,0,1,1.27,6.48V48.38ZM38,30.09c.21.49.37.92.5,1.25l.12.3a30.72,30.72,0,0,1,1.64,7c-.07-.22-.13-.41-.18-.55L40,38a12,12,0,0,0-1.9-3.47L38,34.33ZM17.28,34.36l-.09.12a13.17,13.17,0,0,0-1.33,2.09A14,14,0,0,0,15.28,38l0,.11c-.05.16-.13.38-.21.65a30.32,30.32,0,0,1,1.66-7.07l.11-.3c.13-.33.29-.75.49-1.23Zm0,14H15V41.66a11.47,11.47,0,0,1,.67-3.43l0-.12c.11-.29.3-.78.57-1.33a13,13,0,0,1,1-1.65Zm23.5.47V40.35A29.24,29.24,0,0,0,39,31.47l-.11-.3c-.21-.53-.52-1.32-.94-2.25V27.85a22,22,0,0,0-1.3-6.64h0L36.58,21c-.22-.55-.57-1.49-1.1-2.54A23.37,23.37,0,0,0,33,14.57a22.71,22.71,0,0,0-3.09-3.24c-1.05-.91-2.16-1.7-2.17-1.71l-.14-.09-.13.09s-1.12.8-2.18,1.71a22.11,22.11,0,0,0-3.08,3.24,23.67,23.67,0,0,0-2.47,3.87A27.14,27.14,0,0,0,18.67,21l-.08.23a22,22,0,0,0-1.31,6.64v1.09c-.41.91-.72,1.7-.92,2.23l-.12.3a29.24,29.24,0,0,0-1.77,8.88v8.51Z"/><rect class="cls-5" x="18.94" y="37.31" width="17.37" height="0.15"/><rect class="cls-5" x="18.94" y="31.94" width="17.37" height="0.15"/><rect class="cls-5" x="18.94" y="46.44" width="17.37" height="0.15"/><path class="cls-4" d="M64.82,9h6.84l7.83,17.53h2.26v3.39H74V26.52h1.6l-1-2.18H66.75l-.92,2.18h1.79v3.39H59.79V26.52h2.26l6.34-14.14H64.82ZM68,21.4h5.36l-2.68-6.25Z"/><path class="cls-4" d="M94.79,9h8.57v3.39H100.5L92.83,29.91H90.5L82.83,12.38H79.91V9h8.57v3.39H86.75l4.94,11.34,4.94-11.34H94.79Z"/><path class="cls-4" d="M121,14.7V12.38h-6.76v5.86h5.06v3.28h-5.06v5H121V24.2h3.15v5.71H108.24V26.52h2.29V12.38h-2.29V9h15.89V14.7Z"/><path class="cls-4" d="M143.45,9h5l8.18,15.15,8-15.15h5v3.39h-2.8l.39,14.14h2.38v3.39H161.4V26.52h2.32l-.06-9.23-6,12.62h-2.18L149.4,17.5l-.06,9h2.35v3.39h-8.24V26.52h2.38l.42-14.14h-2.8Z"/><path class="cls-4" d="M179.19,9H186l7.83,17.53h2.26v3.39h-7.77V26.52H190L189,24.34h-7.89l-.92,2.18H182v3.39h-7.83V26.52h2.27l6.34-14.14h-3.58Zm3.22,12.41h5.36l-2.68-6.25Z"/><path class="cls-4" d="M200.5,9h9c5.57,0,8.36,3.06,8.36,7.44,0,3.24-1.54,5.77-4.22,6.81l2.47,3.28h2.68v3.39h-4.41l-4.46-6.1c-.36,0-.75,0-1.13,0h-2.29v2.68h2.26v3.39H200.5V26.52h2.29V12.38H200.5Zm6,3.39v8.19h2.73c3.46,0,4.65-1.85,4.65-4.14s-1.16-4-4.65-4Z"/><path class="cls-4" d="M224.58,9h8.27v3.39h-2.29V26.52h2.29v3.39h-8.27V26.52h2.29V12.38h-2.29Z"/><path class="cls-4" d="M243,9h6.85l7.83,17.53h2.26v3.39h-7.77V26.52h1.61l-1-2.18h-7.88L244,26.52h1.79v3.39h-7.83V26.52h2.26l6.34-14.14H243Zm3.22,12.41h5.35l-2.67-6.25Z"/><path class="cls-3" d="M59.7,34.31h3.5l5.69,10.54,5.55-10.54h3.49v2.36H76l.27,9.83h1.65v2.36H72.18V46.5h1.61l0-6.41-4.18,8.77H68.06l-4.22-8.63,0,6.27h1.63v2.36H59.7V46.5h1.65l.29-9.83H59.7Z"/><path class="cls-3" d="M91.89,34.31h5.75v2.36H96.05v6.17c0,4.35-2.47,6.29-6.11,6.29s-6-1.94-6-6.29V36.67h-1.6V34.31h5.76v2.36h-1.6v6.17c0,2.77,1.27,3.93,3.46,3.93s3.54-1.16,3.54-4V36.67H91.89Z"/><path class="cls-3" d="M104.55,46.5h1.58V36.67h-2.67v1.61h-2.2v-4H113.5v4h-2.2V36.67h-2.59V46.5h1.6v2.36h-5.76Z"/><path class="cls-3" d="M126.68,34.31h5.76v2.36h-1.6v6.17c0,4.35-2.46,6.29-6.11,6.29s-6-1.94-6-6.29V36.67h-1.59V34.31h5.75v2.36h-1.59v6.17c0,2.77,1.26,3.93,3.45,3.93s3.54-1.16,3.54-4V36.67h-1.59Z"/><path class="cls-3" d="M138.52,34.31h4.76l5.45,12.19h1.57v2.36h-5.4V46.5H146L145.35,45h-5.48l-.65,1.51h1.25v2.36H135V46.5h1.58l4.4-9.83h-2.48Zm2.24,8.63h3.72l-1.86-4.35Z"/><path class="cls-3" d="M153.65,48.86V46.5h1.6V36.67h-1.6V34.31H160v2.36h-2.22V46.5h4.7V44.89h2.2v4Z"/><path class="cls-3" d="M185.65,38.28V36.67h-4.72v4.24h3.54v2.28h-3.54V46.5h2.59v2.36h-6.73V46.5h1.6V36.67h-1.6V34.31h11.06v4Z"/><path class="cls-3" d="M201,34.31h5.75v2.36h-1.59v6.17c0,4.35-2.46,6.29-6.11,6.29s-6-1.94-6-6.29V36.67h-1.59V34.31h5.75v2.36h-1.59v6.17c0,2.77,1.26,3.93,3.45,3.93s3.54-1.16,3.54-4V36.67H201Z"/><path class="cls-3" d="M220.92,34.31h5.76v2.36h-1.6V48.86h-1.92l-7.89-9.54V46.5h1.6v2.36h-5.76V46.5h1.6V36.67h-1.6V34.31h3.11l8.3,9.71V36.67h-1.6Z"/><path class="cls-3" d="M231.23,34.31h7.08c4.51,0,7.78,3,7.78,7.27s-3.33,7.28-7.78,7.28h-7.08V46.5h1.6V36.67h-1.6Zm4.18,2.36V46.5h2.92a4.92,4.92,0,1,0,0-9.83Z"/><path class="cls-3" d="M252.57,44.31v.27c0,1.65,1.49,2.13,2.84,2.13,1.66,0,2.4-.85,2.4-1.78s-.54-1.55-3.17-2.53c-2.83-1.07-3.8-2.5-3.8-4.32,0-2.07,1.61-4,4.47-4a2.71,2.71,0,0,1,2.54,1.18l-.18-.93H260l0,4.28h-2.31v-.68c-.11-1.22-1.08-1.55-2.24-1.55-1.45,0-2,.77-2,1.66s.79,1.65,2.84,2.46c3.25,1.28,4.18,2.54,4.18,4.45,0,2.59-2,4.18-4.49,4.18-2.84,0-3.54-1.45-3.54-1.45l.18,1.2h-2.31l0-4.55Z"/></g></svg>