<?xml version="1.0" encoding="utf-8"?>
<!-- Generator: Adobe Illustrator 23.0.2, SVG Export Plug-In . SVG Version: 6.00 Build 0)  -->
<svg version="1.1" id="Layer_1" xmlns="http://www.w3.org/2000/svg" xmlns:xlink="http://www.w3.org/1999/xlink" x="0px" y="0px"
	 viewBox="0 0 1300 88.4" style="enable-background:new 0 0 1300 88.4;" xml:space="preserve">
<style type="text/css">
	.st0{fill:#22438E;stroke:#FFFFFF;stroke-width:1.91;stroke-miterlimit:10;}
	.st1{enable-background:new    ;}
	.st2{fill:#FFFFFF;}
</style>
<title>Artboard 3 copy</title>
<path class="st0" d="M531.6,20.5h236.7c13.2,0,23.8,10.7,23.8,23.9l0,0c0,13.2-10.7,23.8-23.8,23.8H531.6
	c-13.2,0-23.9-10.7-23.9-23.8l0,0C507.8,31.1,518.5,20.5,531.6,20.5z"/>
<g class="st1">
	<path class="st2" d="M547.1,37.3h5.5v2.2h-1.5v9.3h1.5v2.2h-5.5v-2.2h1.5v-9.3h-1.5V37.3z"/>
	<path class="st2" d="M566.6,37.3h5.5v2.2h-1.5v11.6h-1.8l-7.5-9v6.8h1.5v2.2h-5.5v-2.2h1.5v-9.3h-1.5v-2.2h2.9l7.9,9.2v-7h-1.5
		V37.3z"/>
	<path class="st2" d="M585,37.3h5.7v2.2h-1.9l-5.1,11.6h-1.5l-5.1-11.6h-1.9v-2.2h5.7v2.2h-1.1L583,47l3.3-7.5H585V37.3z"/>
	<path class="st2" d="M602.5,41v-1.5h-4.5v3.9h3.3v2.2h-3.3v3.3h4.5v-1.5h2.1v3.8h-10.5v-2.2h1.5v-9.3h-1.5v-2.2h10.5V41H602.5z"/>
	<path class="st2" d="M611.3,46.8V47c0,1.6,1.4,2,2.7,2c1.6,0,2.3-0.8,2.3-1.7c0-0.9-0.5-1.5-3-2.4c-2.7-1-3.6-2.4-3.6-4.1
		c0-2,1.5-3.8,4.2-3.8c1.8,0,2.4,1,2.4,1.1l-0.2-0.9h2.2l0,4.1h-2.2v-0.6c-0.1-1.2-1-1.5-2.1-1.5c-1.4,0-1.9,0.7-1.9,1.6
		c0,1,0.7,1.5,2.7,2.3c3.1,1.2,4,2.4,4,4.2c0,2.5-1.9,4-4.3,4c-2.7,0-3.4-1.4-3.4-1.4l0.2,1.1h-2.2l0-4.3H611.3z"/>
	<path class="st2" d="M625.7,48.8h1.5v-9.3h-2.5V41h-2.1v-3.8h11.6V41h-2.1v-1.5h-2.5v9.3h1.5v2.2h-5.5V48.8z"/>
	<path class="st2" d="M638.2,37.3h3.3l5.4,10l5.3-10h3.3v2.2h-1.8l0.3,9.3h1.6v2.2H650v-2.2h1.5l0-6.1l-4,8.3h-1.4l-4-8.2l0,5.9h1.6
		v2.2h-5.4v-2.2h1.6l0.3-9.3h-1.8V37.3z"/>
	<path class="st2" d="M668.6,41v-1.5h-4.5v3.9h3.3v2.2h-3.3v3.3h4.5v-1.5h2.1v3.8h-10.5v-2.2h1.5v-9.3h-1.5v-2.2h10.5V41H668.6z"/>
	<path class="st2" d="M684.7,37.3h5.5v2.2h-1.5v11.6h-1.8l-7.5-9v6.8h1.5v2.2h-5.5v-2.2h1.5v-9.3h-1.5v-2.2h2.9l7.9,9.2v-7h-1.5
		V37.3z"/>
</g>
<g class="st1">
	<path class="st2" d="M697,48.8h1.5v-9.3H696V41h-2.1v-3.8h11.6V41h-2.1v-1.5h-2.5v9.3h1.5v2.2H697V48.8z"/>
</g>
<g class="st1">
	<path class="st2" d="M724.2,48.8h0.9l-3.8-3.7v3.7h1.2v2.2h-5.1v-2.2h1.5v-9.3h-1.5v-2.2h5.1v2.2h-1.2V44l3.9-4.5h-1v-2.2h5.7v2.2
		h-1.7l-4.4,5l4.4,4.3h1.7v2.2h-5.7V48.8z"/>
	<path class="st2" d="M734.1,37.3h5.5v2.2h-1.5v9.3h1.5v2.2h-5.5v-2.2h1.5v-9.3h-1.5V37.3z"/>
</g>
<g class="st1">
	<path class="st2" d="M746.7,48.8h1.5v-9.3h-2.5V41h-2.1v-3.8h11.6V41h-2.1v-1.5h-2.5v9.3h1.5v2.2h-5.5V48.8z"/>
</g>
<g class="st1">
	<path class="st2" d="M261,41.9c-0.1-1.4-1.3-2.6-3.5-2.6c-2.8,0-4.5,2-4.5,4.9c0,2.8,2.1,4.8,5,4.8c1.3,0,2.4-0.3,3.1-0.5V46h-3.8
		v-2.2h6.2v5.9c0,0-2.1,1.6-5.3,1.6c-4.7,0-7.8-3.1-7.8-7.1c0-4,3.1-7.1,6.8-7.1c3.4,0,3.9,1.4,4,1.7L261,37h2.2v4.9H261z"/>
	<path class="st2" d="M276.7,41v-1.5h-4.5v3.9h3.3v2.2h-3.3v3.3h4.5v-1.5h2.1v3.8h-10.5v-2.2h1.5v-9.3h-1.5v-2.2h10.5V41H276.7z"/>
</g>
<g class="st1">
	<path class="st2" d="M285.9,48.8h1.5v-9.3h-2.5V41h-2.1v-3.8h11.6V41h-2.1v-1.5h-2.5v9.3h1.5v2.2h-5.5V48.8z"/>
</g>
<g class="st1">
	<path class="st2" d="M308.2,46.8V47c0,1.6,1.4,2,2.7,2c1.6,0,2.3-0.8,2.3-1.7c0-0.9-0.5-1.5-3-2.4c-2.7-1-3.6-2.4-3.6-4.1
		c0-2,1.5-3.8,4.2-3.8c1.8,0,2.4,1,2.4,1.1l-0.2-0.9h2.2l0,4.1h-2.2v-0.6c-0.1-1.2-1-1.5-2.1-1.5c-1.4,0-1.9,0.7-1.9,1.6
		c0,1,0.7,1.5,2.7,2.3c3.1,1.2,4,2.4,4,4.2c0,2.5-1.9,4-4.3,4c-2.7,0-3.4-1.4-3.4-1.4l0.2,1.1H306l0-4.3H308.2z"/>
</g>
<g class="st1">
	<path class="st2" d="M322.6,48.8h1.5v-9.3h-2.5V41h-2.1v-3.8h11.6V41H329v-1.5h-2.5v9.3h1.5v2.2h-5.5V48.8z"/>
</g>
<g class="st1">
	<path class="st2" d="M332.9,48.8h1.5l5.2-11.6h1.1l5.2,11.6h1.5v2.2h-5.1v-2.2h1.1l-0.6-1.4h-5.2l-0.6,1.4h1.2v2.2h-5.2V48.8z
		 M338.3,45.5h3.5l-1.8-4.1L338.3,45.5z"/>
</g>
<g class="st1">
	<path class="st2" d="M350.8,37.3h5.9c3.7,0,5.5,2,5.5,4.9c0,1.9-0.8,3.4-2.6,4.2c1.1,0.9,1.4,2.5,3,2.5h0.5V51c0,0-0.5,0.1-1.3,0.1
		c-3.4,0-3.2-3.2-4.9-4.1c-0.2,0-0.5,0-0.7,0h-1.5v1.8h1.9v2.2h-5.8v-2.2h1.5v-9.3h-1.5V37.3z M354.7,39.5v5.4h1.8
		c2.3,0,3.1-1.2,3.1-2.7c0-1.5-0.8-2.7-3.1-2.7H354.7z"/>
</g>
<g class="st1">
	<path class="st2" d="M369.7,48.8h1.5v-9.3h-2.5V41h-2.1v-3.8h11.6V41h-2.1v-1.5h-2.5v9.3h1.5v2.2h-5.5V48.8z"/>
	<path class="st2" d="M390.5,41v-1.5h-4.5v3.9h3.3v2.2h-3.3v3.3h4.5v-1.5h2.1v3.8h-10.5v-2.2h1.5v-9.3h-1.5v-2.2h10.5V41H390.5z"/>
	<path class="st2" d="M397.3,37.3h6.7c4.3,0,7.4,2.9,7.4,6.9c0,3.9-3.2,6.9-7.4,6.9h-6.7v-2.2h1.5v-9.3h-1.5V37.3z M401.3,39.5v9.3
		h2.8c2.7,0,4.7-1.9,4.7-4.6c0-2.7-2-4.7-4.7-4.7H401.3z"/>
</g>
<g class="st1">
	<path class="st2" d="M433.6,37.3h5.5v2.2h-1.5v11.6h-1.8l-7.5-9v6.8h1.5v2.2h-5.5v-2.2h1.5v-9.3h-1.5v-2.2h2.9l7.9,9.2v-7h-1.5
		V37.3z"/>
</g>
<g class="st1">
	<path class="st2" d="M450.4,37c4.3,0,7.4,3,7.4,7.1c0,4.1-3.2,7.1-7.4,7.1s-7.4-3-7.4-7.1C443,40.2,446.2,37,450.4,37z M450.4,49.1
		c2.7,0,4.7-2.1,4.7-4.9c0-2.8-2-5-4.7-5c-2.7,0-4.7,2.1-4.7,5C445.7,47,447.7,49.1,450.4,49.1z"/>
</g>
<g class="st1">
	<path class="st2" d="M466.4,39.5H465l2,6.9l3.4-9.2h1.4l3.5,9.2v0l2-7h-1.5v-2.2h5.7v2.2h-1.6l-3.5,11.6h-1.6l-3.6-9.1l-3.5,9.1
		h-1.6l-3.6-11.6h-1.6v-2.2h5.7V39.5z"/>
</g>
<g class="st1">
	<path class="st2" d="M830.6,41.9c-0.1-1.4-1.3-2.6-3.5-2.6c-2.8,0-4.5,2-4.5,4.9c0,2.8,2.1,4.8,5,4.8c1.3,0,2.4-0.3,3.1-0.5V46
		h-3.8v-2.2h6.2v5.9c0,0-2.1,1.6-5.3,1.6c-4.7,0-7.8-3.1-7.8-7.1c0-4,3.1-7.1,6.8-7.1c3.4,0,3.9,1.4,4,1.7l-0.2-1.7h2.2v4.9H830.6z"
		/>
	<path class="st2" d="M846.3,41v-1.5h-4.5v3.9h3.3v2.2h-3.3v3.3h4.5v-1.5h2.1v3.8h-10.5v-2.2h1.5v-9.3h-1.5v-2.2h10.5V41H846.3z"/>
</g>
<g class="st1">
	<path class="st2" d="M855.5,48.8h1.5v-9.3h-2.5V41h-2.1v-3.8h11.6V41h-2.1v-1.5h-2.5v9.3h1.5v2.2h-5.5V48.8z"/>
</g>
<g class="st1">
	<path class="st2" d="M877.8,46.8V47c0,1.6,1.4,2,2.7,2c1.6,0,2.3-0.8,2.3-1.7c0-0.9-0.5-1.5-3-2.4c-2.7-1-3.6-2.4-3.6-4.1
		c0-2,1.5-3.8,4.2-3.8c1.8,0,2.4,1,2.4,1.1l-0.2-0.9h2.2l0,4.1h-2.2v-0.6c-0.1-1.2-1-1.5-2.1-1.5c-1.4,0-1.9,0.7-1.9,1.6
		c0,1,0.7,1.5,2.7,2.3c3.1,1.2,4,2.4,4,4.2c0,2.5-1.9,4-4.3,4c-2.7,0-3.4-1.4-3.4-1.4l0.2,1.1h-2.2l0-4.3H877.8z"/>
</g>
<g class="st1">
	<path class="st2" d="M892.2,48.8h1.5v-9.3h-2.5V41h-2.1v-3.8h11.6V41h-2.1v-1.5h-2.5v9.3h1.5v2.2h-5.5V48.8z"/>
</g>
<g class="st1">
	<path class="st2" d="M902.5,48.8h1.5l5.2-11.6h1.1l5.2,11.6h1.5v2.2h-5.1v-2.2h1.1l-0.6-1.4h-5.2l-0.6,1.4h1.2v2.2h-5.2V48.8z
		 M907.9,45.5h3.5l-1.8-4.1L907.9,45.5z"/>
</g>
<g class="st1">
	<path class="st2" d="M920.4,37.3h5.9c3.7,0,5.5,2,5.5,4.9c0,1.9-0.8,3.4-2.6,4.2c1.1,0.9,1.4,2.5,3,2.5h0.5V51c0,0-0.5,0.1-1.3,0.1
		c-3.4,0-3.2-3.2-4.9-4.1c-0.2,0-0.5,0-0.7,0h-1.5v1.8h1.9v2.2h-5.8v-2.2h1.5v-9.3h-1.5V37.3z M924.4,39.5v5.4h1.8
		c2.3,0,3.1-1.2,3.1-2.7c0-1.5-0.8-2.7-3.1-2.7H924.4z"/>
</g>
<g class="st1">
	<path class="st2" d="M939.3,48.8h1.5v-9.3h-2.5V41h-2.1v-3.8h11.6V41h-2.1v-1.5h-2.5v9.3h1.5v2.2h-5.5V48.8z"/>
	<path class="st2" d="M960.2,41v-1.5h-4.5v3.9h3.3v2.2h-3.3v3.3h4.5v-1.5h2.1v3.8h-10.5v-2.2h1.5v-9.3h-1.5v-2.2h10.5V41H960.2z"/>
	<path class="st2" d="M966.9,37.3h6.7c4.3,0,7.4,2.9,7.4,6.9c0,3.9-3.2,6.9-7.4,6.9h-6.7v-2.2h1.5v-9.3h-1.5V37.3z M970.9,39.5v9.3
		h2.8c2.7,0,4.7-1.9,4.7-4.6c0-2.7-2-4.7-4.7-4.7H970.9z"/>
</g>
<g class="st1">
	<path class="st2" d="M1003.2,37.3h5.5v2.2h-1.5v11.6h-1.8l-7.5-9v6.8h1.5v2.2h-5.5v-2.2h1.5v-9.3h-1.5v-2.2h2.9l7.9,9.2v-7h-1.5
		V37.3z"/>
</g>
<g class="st1">
	<path class="st2" d="M1020,37c4.3,0,7.4,3,7.4,7.1c0,4.1-3.2,7.1-7.4,7.1s-7.4-3-7.4-7.1C1012.6,40.2,1015.9,37,1020,37z
		 M1020,49.1c2.7,0,4.7-2.1,4.7-4.9c0-2.8-2-5-4.7-5c-2.7,0-4.7,2.1-4.7,5C1015.3,47,1017.3,49.1,1020,49.1z"/>
</g>
<g class="st1">
	<path class="st2" d="M1036,39.5h-1.4l2,6.9l3.4-9.2h1.4l3.5,9.2v0l2-7h-1.5v-2.2h5.7v2.2h-1.6l-3.5,11.6h-1.6l-3.6-9.1l-3.5,9.1
		h-1.6l-3.6-11.6h-1.6v-2.2h5.7V39.5z"/>
</g>
</svg>
