<?xml version="1.0" encoding="utf-8"?>
<!-- Generator: Adobe Illustrator 23.0.2, SVG Export Plug-In . SVG Version: 6.00 Build 0)  -->
<svg version="1.1" id="Layer_1" xmlns="http://www.w3.org/2000/svg" xmlns:xlink="http://www.w3.org/1999/xlink" x="0px" y="0px"
	 viewBox="0 0 314.4 331" style="enable-background:new 0 0 314.4 331;" xml:space="preserve">
<style type="text/css">
	.st0{fill:#8D6E26;}
	.st1{fill:#0B3D91;}
	.st2{fill:#FFFFFF;}
	.st3{enable-background:new    ;}
	.st4{fill:#22438E;}
</style>
<title>family-pride</title>
<path class="st0" d="M247,99.9c-3.5,0-6.6,2.3-7.6,5.6H75c-1.3-4.2-5.8-6.6-10-5.3c-4.2,1.3-6.6,5.8-5.3,10s5.8,6.6,10,5.3
	c2.5-0.8,4.5-2.7,5.3-5.3h12.8v187.2l69.4-23.6l69.4,23.6V110.2h12.8c1.3,4.2,5.8,6.6,10,5.3s6.6-5.8,5.3-10
	C253.6,102.1,250.5,99.9,247,99.9z"/>
<polygon class="st1" points="158,294.3 219.1,315.1 219.1,110.2 95.3,110.2 95.3,315.6 "/>
<path class="st2" d="M177,200.2c0.1,1.2-0.3,2.4-1.2,3.3c-1.5,1.6-3.9,1.8-5.7,0.6l-5.9-4l-3.1,6.4c-1.1,2.2-3.7,3.1-5.9,2
	c-0.9-0.4-1.6-1.2-2-2l-3.1-6.4l-5.9,4c-0.7,0.5-1.6,0.8-2.5,0.8c-1.2,0-2.4-0.5-3.2-1.4c-0.5-0.6-0.9-1.3-1.1-2l-8.3,54.1l13.9-7.5
	l11,11.3l3.9-25.3L162,254l10.6-11.8l14.2,6.9l-9.9-50L177,200.2z"/>
<path class="st2" d="M180.6,179.1l8-3.9c0.7-0.3,1-1.2,0.7-1.9c-0.1-0.3-0.4-0.5-0.7-0.7l-8-3.9c-0.7-0.3-1-1.2-0.7-1.9
	c0-0.1,0.1-0.1,0.1-0.2l5-7.4c0.4-0.6,0.3-1.5-0.4-2c-0.3-0.2-0.6-0.3-0.9-0.2l-8.9,0.6c-0.8,0.1-1.5-0.5-1.5-1.3c0-0.1,0-0.1,0-0.2
	l0.6-8.9c0.1-0.8-0.5-1.5-1.3-1.5c-0.3,0-0.6,0.1-0.9,0.2l-7.4,5c-0.6,0.4-1.5,0.3-2-0.4c0-0.1-0.1-0.1-0.1-0.2l-3.9-8
	c-0.3-0.7-1.2-1-1.9-0.7c-0.3,0.1-0.5,0.4-0.7,0.7l-3.9,8c-0.3,0.7-1.2,1-1.9,0.7c-0.1,0-0.1-0.1-0.2-0.1l-7.4-5
	c-0.6-0.4-1.5-0.3-2,0.4c-0.2,0.3-0.3,0.6-0.2,0.9l0.6,8.9c0.1,0.8-0.5,1.5-1.3,1.5c-0.1,0-0.1,0-0.2,0l-8.9-0.6
	c-0.8-0.1-1.5,0.5-1.5,1.3c0,0.3,0.1,0.6,0.2,0.9l5,7.4c0.4,0.6,0.3,1.5-0.4,2c-0.1,0-0.1,0.1-0.2,0.1l-8,3.9
	c-0.7,0.3-1,1.2-0.7,1.9c0.1,0.3,0.4,0.5,0.7,0.7l8,3.9c0.7,0.3,1,1.2,0.7,1.9c0,0.1-0.1,0.1-0.1,0.2l-5,7.4c-0.4,0.6-0.3,1.5,0.4,2
	c0.3,0.2,0.6,0.3,0.9,0.2l8.9-0.6c0.8-0.1,1.5,0.5,1.5,1.3c0,0.1,0,0.1,0,0.2l-0.6,8.9c-0.1,0.8,0.5,1.5,1.3,1.5
	c0.3,0,0.6-0.1,0.9-0.2l7.4-5c0.6-0.4,1.5-0.3,2,0.4c0,0.1,0.1,0.1,0.1,0.2l3.9,8c0.3,0.7,1.2,1,1.9,0.7c0.3-0.1,0.5-0.4,0.7-0.7
	l3.9-8c0.3-0.7,1.2-1,1.9-0.7c0.1,0,0.1,0.1,0.2,0.1l7.4,5c0.6,0.4,1.5,0.3,2-0.4c0.2-0.3,0.3-0.6,0.2-0.9l-0.6-8.9
	c-0.1-0.8,0.5-1.5,1.3-1.5c0.1,0,0.1,0,0.2,0l8.9,0.6c0.8,0.1,1.5-0.5,1.5-1.3c0-0.3-0.1-0.6-0.2-0.9l-5-7.4c-0.4-0.6-0.3-1.5,0.4-2
	C180.5,179.2,180.5,179.1,180.6,179.1z M157.2,193.3c-10.7,0-19.4-8.7-19.4-19.4c0-10.7,8.7-19.4,19.4-19.4
	c10.7,0,19.4,8.7,19.4,19.4C176.6,184.7,167.9,193.3,157.2,193.3L157.2,193.3z"/>
<path class="st2" d="M157.2,158.4c-8.6,0-15.6,7-15.6,15.6s7,15.6,15.6,15.6s15.6-7,15.6-15.6C172.8,165.3,165.8,158.4,157.2,158.4z
	"/>
<g class="st3">
	<path class="st4" d="M108.9,27.1v-2.7H101v7.1h5.9v3.8H101v5.5h4.3v3.9H94.1v-3.9h2.7V24.4h-2.7v-3.9h18.5v6.6H108.9z"/>
</g>
<g class="st3">
	<path class="st4" d="M110.6,40.9h2.6l9.1-20.4h2l9.1,20.4h2.6v3.9h-9v-3.9h1.9l-1.1-2.5h-9.2l-1.1,2.5h2.1v3.9h-9.1V40.9z
		 M120.2,34.9h6.2l-3.1-7.3L120.2,34.9z"/>
	<path class="st4" d="M137.8,20.5h5.8l9.5,17.6l9.3-17.6h5.8v3.9H165l0.5,16.4h2.8v3.9h-9.6v-3.9h2.7l-0.1-10.7l-7,14.7h-2.5
		l-7.1-14.4l-0.1,10.5h2.7v3.9h-9.6v-3.9h2.8l0.5-16.4h-3.3V20.5z"/>
	<path class="st4" d="M172.1,20.5h9.6v3.9H179v16.4h2.7v3.9h-9.6v-3.9h2.7V24.4h-2.7V20.5z"/>
</g>
<g class="st3">
	<path class="st4" d="M185.5,44.8v-3.9h2.7V24.4h-2.7v-3.9h10.7v3.9h-3.7v16.4h7.9v-2.7h3.7v6.6H185.5z"/>
</g>
<g class="st3">
	<path class="st4" d="M211.5,24.4h-2l4.5,7.3l4.5-7.3h-2.1v-3.9h9.3v3.9h-2.5l-7.1,11.3v5.2h2.6v3.9h-9.6v-3.9h2.7v-5.2l-7.1-11.2
		h-2.5v-3.9h9.3V24.4z"/>
</g>
<g class="st3">
	<path class="st4" d="M105.4,51.3h10.1c6.5,0,9.7,3.6,9.7,8.7s-3.2,8.6-10.6,8.6h-2.3v3.1h4.1v3.9h-11.1v-3.9h2.7V55.2h-2.7V51.3z
		 M112.3,55.2v9.5h2.8c4,0,5.4-2.1,5.4-4.8s-1.3-4.7-5.4-4.7H112.3z"/>
</g>
<g class="st3">
	<path class="st4" d="M127.7,51.3h10.4c6.5,0,9.7,3.6,9.7,8.7c0,3.4-1.4,6-4.6,7.5c1.9,1.6,2.4,4.3,5.3,4.3h1v3.8
		c0,0-0.9,0.2-2.3,0.2c-6.1,0-5.7-5.6-8.7-7.2c-0.4,0-0.8,0-1.3,0h-2.7v3.1h3.3v3.9h-10.2v-3.9h2.6V55.2h-2.6V51.3z M134.7,55.2v9.5
		h3.2c4,0,5.4-2.1,5.4-4.8s-1.3-4.7-5.4-4.7H134.7z"/>
	<path class="st4" d="M152.6,51.3h9.6v3.9h-2.7v16.4h2.7v3.9h-9.6v-3.9h2.7V55.2h-2.7V51.3z"/>
</g>
<g class="st3">
	<path class="st4" d="M166.1,51.3h11.8c7.5,0,13,5.1,13,12.1c0,7-5.6,12.2-13,12.2h-11.8v-3.9h2.7V55.2h-2.7V51.3z M173.1,55.2v16.4
		h4.9c4.7,0,8.4-3.4,8.4-8.2c0-4.8-3.5-8.3-8.4-8.3H173.1z"/>
</g>
<g class="st3">
	<path class="st4" d="M208.6,57.9v-2.7h-7.9v6.8h5.9v3.8h-5.9v5.8h7.9V69h3.7v6.6h-18.5v-3.9h2.7V55.2h-2.7v-3.9h18.5v6.6H208.6z"/>
</g>
</svg>
