<?xml version="1.0" encoding="utf-8"?>
<!-- Generator: Adobe Illustrator 23.0.2, SVG Export Plug-In . SVG Version: 6.00 Build 0)  -->
<svg version="1.1" id="Layer_1" xmlns="http://www.w3.org/2000/svg" xmlns:xlink="http://www.w3.org/1999/xlink" x="0px" y="0px"
	 viewBox="0 0 314.4 331" style="enable-background:new 0 0 314.4 331;" xml:space="preserve">
<style type="text/css">
	.st0{fill:#8D6E26;}
	.st1{fill:#0B3D91;}
	.st2{fill:#FFFFFF;}
	.st3{enable-background:new    ;}
	.st4{fill:#22438E;}
</style>
<title>moral-integrity</title>
<path class="st0" d="M247,99.9c-3.5,0-6.6,2.3-7.6,5.6H75c-1.3-4.2-5.8-6.6-10-5.3c-4.2,1.3-6.6,5.8-5.3,10s5.8,6.6,10,5.3
	c2.5-0.8,4.5-2.7,5.3-5.3h12.8v187.2l69.4-23.6l69.4,23.6V110.2h12.8c1.3,4.2,5.8,6.6,10,5.3s6.6-5.8,5.3-10
	C253.6,102.1,250.5,99.9,247,99.9z"/>
<polygon class="st1" points="158,294.3 219.1,315.1 219.1,110.2 95.3,110.2 95.3,315.6 "/>
<path class="st2" d="M194.8,227.6h-1.8c-0.8,0-1.5-0.7-1.5-1.5c0,0,0,0,0,0v-24.8c0-0.8,0.7-1.5,1.5-1.5h1.8c0.8,0,1.5-0.7,1.5-1.5
	v-2.5c0-0.8-0.7-1.5-1.5-1.5h-75.1c-0.8,0-1.5,0.7-1.5,1.5v2.5c0,0.8,0.7,1.5,1.5,1.5h1.8c0.8,0,1.5,0.7,1.5,1.5V226
	c0,0.8-0.7,1.5-1.5,1.5h-1.8c-0.8,0-1.5,0.7-1.5,1.5v2.2c0,0.8-0.7,1.5-1.5,1.5h-1.2c-0.8,0-1.5,0.7-1.5,1.5v3.1
	c0,0.8,0.7,1.5,1.5,1.5h83.7c0.8,0,1.5-0.7,1.5-1.5v-3.1c0-0.8-0.7-1.5-1.5-1.5h-1.2c-0.8,0-1.5-0.7-1.5-1.5v-2.2
	C196.3,228.2,195.6,227.6,194.8,227.6z M152.6,226v-24.8c0-0.8,0.7-1.5,1.5-1.5h6.2c0.8,0,1.5,0.7,1.5,1.5V226
	c0,0.8-0.7,1.5-1.5,1.5h-6.2C153.3,227.5,152.6,226.8,152.6,226z M179.8,227.5h-6.2c-0.8,0-1.5-0.7-1.5-1.5v-24.8
	c0-0.8,0.7-1.5,1.5-1.5h6.2c0.8,0,1.5,0.7,1.5,1.5V226C181.3,226.8,180.6,227.5,179.8,227.5C179.8,227.6,179.8,227.6,179.8,227.5
	L179.8,227.5z M134.7,199.6h6.2c0.8,0,1.5,0.7,1.5,1.5V226c0,0.8-0.7,1.5-1.5,1.5h-6.2c-0.8,0-1.5-0.7-1.5-1.5v-24.8
	C133.2,200.3,133.8,199.6,134.7,199.6L134.7,199.6z"/>
<path class="st2" d="M157.2,162L118,188.3c-0.7,0.5-0.9,1.4-0.4,2.1c0.3,0.4,0.8,0.7,1.3,0.7h76.7c0.8,0,1.5-0.7,1.5-1.5
	c0-0.5-0.3-1-0.7-1.3L157.2,162z"/>
<g class="st3">
	<path class="st4" d="M94.8,20.5h5.8l9.5,17.6l9.3-17.6h5.8v3.9H122l0.5,16.4h2.8v3.9h-9.6v-3.9h2.7l-0.1-10.7l-7,14.7h-2.5
		l-7.1-14.4l-0.1,10.5h2.7v3.9h-9.6v-3.9h2.8L98,24.4h-3.3V20.5z"/>
</g>
<g class="st3">
	<path class="st4" d="M141,20.1c7.5,0,13,5.3,13,12.6c0,7.2-5.6,12.6-13,12.6s-13-5.4-13-12.6C128,25.6,133.7,20.1,141,20.1z
		 M141,41.4c4.7,0,8.4-3.8,8.4-8.7c0-5-3.5-8.8-8.4-8.8c-4.8,0-8.4,3.8-8.4,8.8C132.7,37.6,136.3,41.4,141,41.4z"/>
</g>
<g class="st3">
	<path class="st4" d="M155.2,20.5h10.4c6.5,0,9.7,3.6,9.7,8.7c0,3.4-1.4,6-4.6,7.5c1.9,1.6,2.4,4.3,5.3,4.3h1v3.8
		c0,0-0.9,0.2-2.3,0.2c-6.1,0-5.7-5.6-8.7-7.2c-0.4,0-0.8,0-1.3,0h-2.7v3.1h3.3v3.9h-10.2v-3.9h2.6V24.4h-2.6V20.5z M162.1,24.4V34
		h3.2c4,0,5.4-2.1,5.4-4.8s-1.3-4.7-5.4-4.7H162.1z"/>
</g>
<g class="st3">
	<path class="st4" d="M178.8,40.9h2.6l9.1-20.4h2l9.1,20.4h2.6v3.9h-9v-3.9h1.9l-1.1-2.5h-9.2l-1.1,2.5h2.1v3.9h-9.1V40.9z
		 M188.4,34.9h6.2l-3.1-7.3L188.4,34.9z"/>
</g>
<g class="st3">
	<path class="st4" d="M206.6,44.8v-3.9h2.7V24.4h-2.7v-3.9h10.7v3.9h-3.7v16.4h7.9v-2.7h3.7v6.6H206.6z"/>
</g>
<g class="st3">
	<path class="st4" d="M61.6,51.3h9.6v3.9h-2.7v16.4h2.7v3.9h-9.6v-3.9h2.7V55.2h-2.7V51.3z"/>
	<path class="st4" d="M91.5,51.3h9.6v3.9h-2.7v20.4h-3.2L82,59.7v12h2.7v3.9h-9.6v-3.9h2.7V55.2h-2.7v-3.9h5.2l13.9,16.2V55.2h-2.7
		V51.3z"/>
	<path class="st4" d="M108.7,71.7h2.6V55.2h-4.5v2.7h-3.7v-6.6h20.5v6.6H120v-2.7h-4.3v16.4h2.7v3.9h-9.6V71.7z"/>
</g>
<g class="st3">
	<path class="st4" d="M141,57.9v-2.7h-7.9v6.8h5.9v3.8h-5.9v5.8h7.9V69h3.7v6.6h-18.5v-3.9h2.7V55.2h-2.7v-3.9h18.5v6.6H141z"/>
</g>
<g class="st3">
	<path class="st4" d="M166.4,59.5c-0.1-2.5-2.3-4.6-6.1-4.6c-5,0-8,3.6-8,8.6c0,4.9,3.7,8.5,8.8,8.5c2.2,0,4.2-0.5,5.5-1v-4.3h-6.8
		v-3.8h10.9v10.4c0,0-3.6,2.8-9.4,2.8c-8.2,0-13.7-5.4-13.7-12.6c0-7,5.4-12.6,11.9-12.6c6,0,7,2.5,7.1,2.9l-0.3-2.9h3.9v8.7H166.4z
		"/>
	<path class="st4" d="M174.8,51.3h10.4c6.5,0,9.7,3.6,9.7,8.7c0,3.4-1.4,6-4.6,7.5c1.9,1.6,2.4,4.3,5.3,4.3h1v3.8
		c0,0-0.9,0.2-2.3,0.2c-6.1,0-5.7-5.6-8.7-7.2c-0.4,0-0.8,0-1.3,0h-2.7v3.1h3.3v3.9h-10.2v-3.9h2.6V55.2h-2.6V51.3z M181.7,55.2v9.5
		h3.2c4,0,5.4-2.1,5.4-4.8s-1.3-4.7-5.4-4.7H181.7z"/>
	<path class="st4" d="M199.7,51.3h9.6v3.9h-2.7v16.4h2.7v3.9h-9.6v-3.9h2.7V55.2h-2.7V51.3z"/>
</g>
<g class="st3">
	<path class="st4" d="M217.3,71.7h2.6V55.2h-4.5v2.7h-3.7v-6.6h20.5v6.6h-3.7v-2.7h-4.3v16.4h2.7v3.9h-9.6V71.7z"/>
</g>
<g class="st3">
	<path class="st4" d="M244,55.2h-2l4.5,7.3l4.5-7.3h-2.1v-3.9h9.3v3.9h-2.5l-7.1,11.3v5.2h2.6v3.9h-9.6v-3.9h2.7v-5.2l-7.1-11.2
		h-2.5v-3.9h9.3V55.2z"/>
</g>
</svg>
