<svg id="Layer_1" data-name="Layer 1" xmlns="http://www.w3.org/2000/svg" viewBox="0 0 307.48 94.1"><defs><style>.cls-1{fill:#22438e;}.cls-2{fill:#a27e2c;}.cls-3{fill:#fff;}</style></defs><title>sign-off</title><path class="cls-1" d="M40.36,81.05v1.61h-6V81.05h2V75.77c0-.13,0-.27,0-.4s0-.28,0-.42l-1.19,1a.67.67,0,0,1-.32.15.71.71,0,0,1-.29,0A.85.85,0,0,1,34.4,76a.57.57,0,0,1-.16-.14l-.7-.94,3.26-2.73h1.83v8.86Z"/><path class="cls-1" d="M41.17,77.39H45v1.8H41.17Z"/><path class="cls-1" d="M51.93,77.2a3.16,3.16,0,0,1,.8.41,2.25,2.25,0,0,1,.55.56,2.39,2.39,0,0,1,.31.69,3.2,3.2,0,0,1-.17,2.08,2.79,2.79,0,0,1-.76,1,3.6,3.6,0,0,1-1.18.63,5.4,5.4,0,0,1-3,0,3.6,3.6,0,0,1-1.18-.63,2.91,2.91,0,0,1-.76-1,3,3,0,0,1-.27-1.28,3.44,3.44,0,0,1,.1-.8,2.17,2.17,0,0,1,.32-.69,2.2,2.2,0,0,1,.54-.56,3.16,3.16,0,0,1,.8-.41,2.29,2.29,0,0,1-1.06-.89,2.53,2.53,0,0,1-.35-1.38,2.56,2.56,0,0,1,.25-1.13,2.67,2.67,0,0,1,.7-.9,3.52,3.52,0,0,1,1.08-.6A3.92,3.92,0,0,1,50,72.08a4,4,0,0,1,1.36.22,3.58,3.58,0,0,1,1.07.6,2.73,2.73,0,0,1,.6,3.41A2.29,2.29,0,0,1,51.93,77.2Zm-2,3.89A1.79,1.79,0,0,0,50.6,81a1.34,1.34,0,0,0,.45-.31,1.35,1.35,0,0,0,.26-.47,2.14,2.14,0,0,0,.08-.58,2.45,2.45,0,0,0-.07-.62,1.23,1.23,0,0,0-.24-.47,1,1,0,0,0-.44-.31,1.7,1.7,0,0,0-.68-.11,1.72,1.72,0,0,0-.69.11,1,1,0,0,0-.44.31,1.23,1.23,0,0,0-.24.47,2.45,2.45,0,0,0-.07.62,2.14,2.14,0,0,0,.08.58,1.35,1.35,0,0,0,.26.47,1.34,1.34,0,0,0,.45.31A1.76,1.76,0,0,0,50,81.09Zm0-7.39a1.35,1.35,0,0,0-.57.11,1.1,1.1,0,0,0-.38.29,1,1,0,0,0-.21.4,1.84,1.84,0,0,0-.06.47,2.41,2.41,0,0,0,0,.54A1.23,1.23,0,0,0,49,76a1,1,0,0,0,.38.32,1.32,1.32,0,0,0,.61.12,1.38,1.38,0,0,0,.61-.12,1,1,0,0,0,.37-.32,1.44,1.44,0,0,0,.19-.46,3.19,3.19,0,0,0,0-.54,1.84,1.84,0,0,0-.07-.47,1,1,0,0,0-.21-.4,1,1,0,0,0-.38-.29A1.36,1.36,0,0,0,50,73.7Z"/><path class="cls-1" d="M57.91,76.22A3.1,3.1,0,0,1,59,76a3.34,3.34,0,0,1,1.12.19,2.73,2.73,0,0,1,1,.57,3,3,0,0,1,.71,1,3.36,3.36,0,0,1,.27,1.4,3.62,3.62,0,0,1-.27,1.39,3.5,3.5,0,0,1-.78,1.15,3.69,3.69,0,0,1-1.2.77,3.94,3.94,0,0,1-1.56.29,4.31,4.31,0,0,1-1.57-.27,3.47,3.47,0,0,1-1.18-.78,3.33,3.33,0,0,1-.74-1.18A4.37,4.37,0,0,1,54.56,79a5.22,5.22,0,0,1,1.2-3.13l2.35-3.18a1.32,1.32,0,0,1,.48-.36,1.61,1.61,0,0,1,.71-.15h2l-3.1,3.7ZM58.27,81a1.64,1.64,0,0,0,1.16-.48,1.93,1.93,0,0,0,.34-.53,1.85,1.85,0,0,0,.12-.67,2,2,0,0,0-.12-.71,1.38,1.38,0,0,0-.85-.87,2.06,2.06,0,0,0-.68-.11,1.59,1.59,0,0,0-.62.12,1.36,1.36,0,0,0-.48.34,1.57,1.57,0,0,0-.32.53,1.94,1.94,0,0,0-.12.7,2.44,2.44,0,0,0,.1.69,1.3,1.3,0,0,0,.29.53,1.11,1.11,0,0,0,.48.34A1.86,1.86,0,0,0,58.27,81Z"/><path class="cls-1" d="M66.24,76.22A3.06,3.06,0,0,1,67.36,76a3.34,3.34,0,0,1,1.12.19,2.73,2.73,0,0,1,1,.57,3,3,0,0,1,.71,1,3.36,3.36,0,0,1,.27,1.4,3.63,3.63,0,0,1-.28,1.39,3.47,3.47,0,0,1-.77,1.15,3.69,3.69,0,0,1-1.2.77,3.94,3.94,0,0,1-1.56.29,4.31,4.31,0,0,1-1.57-.27,3.38,3.38,0,0,1-1.18-.78,3.2,3.2,0,0,1-.74-1.18A4.37,4.37,0,0,1,62.89,79a5.27,5.27,0,0,1,1.19-3.13l2.36-3.18a1.32,1.32,0,0,1,.48-.36,1.61,1.61,0,0,1,.71-.15h2l-3.1,3.7ZM66.6,81a1.53,1.53,0,0,0,.64-.13,1.41,1.41,0,0,0,.51-.35A1.75,1.75,0,0,0,68.1,80a1.85,1.85,0,0,0,.12-.67,2,2,0,0,0-.12-.71,1.54,1.54,0,0,0-.33-.54,1.65,1.65,0,0,0-.52-.33,2.11,2.11,0,0,0-.68-.11,1.56,1.56,0,0,0-.62.12,1.36,1.36,0,0,0-.48.34,1.42,1.42,0,0,0-.32.53,1.94,1.94,0,0,0-.12.7,2.13,2.13,0,0,0,.1.69,1.28,1.28,0,0,0,.28.53,1.14,1.14,0,0,0,.49.34A1.86,1.86,0,0,0,66.6,81Z"/><path class="cls-1" d="M71.81,77.39h3.88v1.8H71.81Z"/><path class="cls-1" d="M86.83,82.66H85a.81.81,0,0,1-.51-.15.94.94,0,0,1-.3-.38l-.61-1.82h-4l-.62,1.82a.89.89,0,0,1-.28.37.86.86,0,0,1-.51.16H76.25l4-10.46h2.48Zm-3.86-4-1-2.87c-.08-.18-.15-.39-.24-.64s-.16-.51-.24-.8c-.07.29-.15.56-.23.81s-.16.47-.23.65l-1,2.85Z"/><path class="cls-1" d="M96.16,72.2,92,82.66h-2.2L85.58,72.2h2a.88.88,0,0,1,.51.14,1,1,0,0,1,.3.38l2,5.6c.1.24.19.51.28.8s.18.59.26.91c.07-.32.14-.62.23-.91a6.8,6.8,0,0,1,.27-.8l2-5.6a.84.84,0,0,1,.28-.36.8.8,0,0,1,.51-.16Z"/><path class="cls-1" d="M99.43,74.06V76.5h3.29v1.8H99.43v2.49h4.29v1.87H97V72.2h6.73v1.86Z"/><path class="cls-1" d="M105,77.39h3.88v1.8H105Z"/><path class="cls-1" d="M122.35,72.2V82.66h-2.14v-6c0-.14,0-.29,0-.45s0-.33,0-.5l-2.78,5.38a.92.92,0,0,1-.35.38.93.93,0,0,1-.5.13h-.33a.93.93,0,0,1-.5-.13,1,1,0,0,1-.35-.38l-2.77-5.39,0,.5c0,.17,0,.32,0,.46v6h-2.14V72.2h2.13a.8.8,0,0,1,.21,0,.45.45,0,0,1,.17.11,1,1,0,0,1,.14.21l2.69,5.31c.1.18.19.37.28.56s.18.4.26.61c.08-.21.16-.42.25-.62a6.27,6.27,0,0,1,.29-.58l2.68-5.28a1,1,0,0,1,.15-.21.39.39,0,0,1,.17-.11.65.65,0,0,1,.21,0h2.13Z"/><path class="cls-1" d="M133.76,82.66h-1.89a.81.81,0,0,1-.51-.15,1,1,0,0,1-.29-.38l-.62-1.82h-4l-.62,1.82a.84.84,0,0,1-.29.37.81.81,0,0,1-.5.16h-1.9l4-10.46h2.49Zm-3.86-4-1-2.87c-.07-.18-.15-.39-.23-.64s-.16-.51-.24-.8c-.07.29-.15.56-.23.81s-.16.47-.23.65l-1,2.85Z"/><path class="cls-1" d="M143.14,82.66h-2.2a.92.92,0,0,1-.87-.46l-1.74-3a.81.81,0,0,0-.27-.28.9.9,0,0,0-.44-.09H137v3.87h-2.43V72.2H138a6.88,6.88,0,0,1,1.94.23,3.74,3.74,0,0,1,1.31.65,2.48,2.48,0,0,1,.73,1,3.34,3.34,0,0,1,.23,1.24,3,3,0,0,1-.14,1A3,3,0,0,1,141,77.78a3.93,3.93,0,0,1-.9.5,2.45,2.45,0,0,1,.44.3,2.27,2.27,0,0,1,.37.44ZM138,77.11a2.64,2.64,0,0,0,.85-.12,1.49,1.49,0,0,0,.57-.35,1.33,1.33,0,0,0,.32-.52,1.91,1.91,0,0,0,.1-.64,1.35,1.35,0,0,0-.45-1.08A2.08,2.08,0,0,0,138,74h-1v3.1Z"/><path class="cls-1" d="M146.46,82.66H144V72.2h2.44Z"/><path class="cls-1" d="M157.87,82.66H156a.81.81,0,0,1-.51-.15.84.84,0,0,1-.29-.38l-.62-1.82h-4L150,82.13a.81.81,0,0,1-.28.37.86.86,0,0,1-.51.16h-1.89l4.05-10.46h2.48Zm-3.85-4-1-2.87a6.48,6.48,0,0,1-.23-.64c-.08-.25-.17-.51-.25-.8-.07.29-.15.56-.23.81s-.16.47-.23.65l-1,2.85Z"/><path class="cls-1" d="M163,78.13a10.88,10.88,0,0,0,.43,3.09,11.16,11.16,0,0,0,1.3,2.84c0,.09.06.15,0,.2a.35.35,0,0,1-.09.11l-.31.19a14.51,14.51,0,0,1-.92-1.64,9.86,9.86,0,0,1-1-3.16,12.13,12.13,0,0,1,0-3.26,11.1,11.1,0,0,1,.33-1.58,10.75,10.75,0,0,1,.62-1.58,15.43,15.43,0,0,1,.92-1.64l.31.19a.35.35,0,0,1,.09.11.27.27,0,0,1,0,.2,11.16,11.16,0,0,0-1.3,2.84A10.93,10.93,0,0,0,163,78.13Z"/><path class="cls-1" d="M171.58,82.13v.53h-5.24v-.53h2.34V73.88a4.52,4.52,0,0,1,0-.51l-2.24,2a.27.27,0,0,1-.2.06.24.24,0,0,1-.16-.09l-.21-.28,2.94-2.59h.54v9.67Z"/><path class="cls-1" d="M172.74,78.11h3.34v.58h-3.34Z"/><path class="cls-1" d="M182.31,77.35a3.47,3.47,0,0,1,.89.32,2.72,2.72,0,0,1,.7.54,2.34,2.34,0,0,1,.46.76,2.87,2.87,0,0,1,.17,1,2.68,2.68,0,0,1-.92,2,3.15,3.15,0,0,1-1,.56,4.43,4.43,0,0,1-1.34.19,4.34,4.34,0,0,1-1.34-.19,3.05,3.05,0,0,1-1-.56,2.58,2.58,0,0,1-.68-.89,2.71,2.71,0,0,1-.25-1.16,2.87,2.87,0,0,1,.17-1,2.51,2.51,0,0,1,.45-.76,2.9,2.9,0,0,1,.7-.54,3.62,3.62,0,0,1,.89-.32,2.93,2.93,0,0,1-.78-.35,2.12,2.12,0,0,1-.58-.53,2.27,2.27,0,0,1-.36-.69,2.64,2.64,0,0,1-.12-.81,2.67,2.67,0,0,1,.2-1,2.53,2.53,0,0,1,.59-.82,2.74,2.74,0,0,1,.92-.56,3.6,3.6,0,0,1,1.23-.2,3.53,3.53,0,0,1,1.21.2,2.89,2.89,0,0,1,.93.56A2.39,2.39,0,0,1,184,74a2.67,2.67,0,0,1,.2,1,2.64,2.64,0,0,1-.12.81,2.27,2.27,0,0,1-.36.69,2.69,2.69,0,0,1-.58.53A3,3,0,0,1,182.31,77.35Zm-1.08,4.88a3.17,3.17,0,0,0,1.05-.17,2.46,2.46,0,0,0,.83-.45,2.11,2.11,0,0,0,.53-.72,2.48,2.48,0,0,0-.06-2,2,2,0,0,0-.62-.71,2.65,2.65,0,0,0-.84-.38,4.08,4.08,0,0,0-.89-.11,3.94,3.94,0,0,0-.89.11,2.47,2.47,0,0,0-.84.38,2,2,0,0,0-.63.71,2.35,2.35,0,0,0-.24,1.12,2.32,2.32,0,0,0,.18.92,2.11,2.11,0,0,0,.53.72,2.41,2.41,0,0,0,.82.45A3.29,3.29,0,0,0,181.23,82.23ZM179,75a2.3,2.3,0,0,0,.13.79,1.87,1.87,0,0,0,1.12,1.15,2.62,2.62,0,0,0,1,.18,2.55,2.55,0,0,0,1-.18,1.8,1.8,0,0,0,.71-.47,1.7,1.7,0,0,0,.41-.68,2.3,2.3,0,0,0,.14-.79,2.16,2.16,0,0,0-.15-.81,2,2,0,0,0-.44-.66,2.18,2.18,0,0,0-.72-.44,2.78,2.78,0,0,0-1-.16,2.94,2.94,0,0,0-1,.16,2,2,0,0,0-.71.44,2,2,0,0,0-.44.66A2.16,2.16,0,0,0,179,75Z"/><path class="cls-1" d="M188.37,76.45,188,77c-.12.17-.24.34-.34.51a3.08,3.08,0,0,1,1-.69,3.37,3.37,0,0,1,2.47,0,2.67,2.67,0,0,1,1,.61,2.8,2.8,0,0,1,.62.94,3.43,3.43,0,0,1,0,2.52,2.93,2.93,0,0,1-.69,1,3,3,0,0,1-1.06.67,3.92,3.92,0,0,1-1.36.23,3.37,3.37,0,0,1-1.29-.23,2.69,2.69,0,0,1-1-.66,3,3,0,0,1-.65-1,3.84,3.84,0,0,1-.23-1.4,3.68,3.68,0,0,1,.3-1.35,7.74,7.74,0,0,1,1-1.68l2.77-3.74a.42.42,0,0,1,.37-.16h.6Zm1.18,5.76a3,3,0,0,0,1.11-.2,2.56,2.56,0,0,0,.84-.53,2.35,2.35,0,0,0,.54-.81,2.94,2.94,0,0,0,0-2.08,2.17,2.17,0,0,0-.52-.8,2.37,2.37,0,0,0-.79-.5,2.73,2.73,0,0,0-1-.18,2.88,2.88,0,0,0-1.13.22,2.83,2.83,0,0,0-.84.57,2.44,2.44,0,0,0-.53.79,2.41,2.41,0,0,0-.18.9,3,3,0,0,0,.18,1,2.39,2.39,0,0,0,.5.83,2.22,2.22,0,0,0,.79.54A2.69,2.69,0,0,0,189.55,82.21Z"/><path class="cls-1" d="M196.7,76.45c-.15.2-.29.38-.41.56a5,5,0,0,0-.34.51,3,3,0,0,1,1-.69,3.27,3.27,0,0,1,1.27-.25,3.37,3.37,0,0,1,1.2.22,2.55,2.55,0,0,1,.95.61,2.68,2.68,0,0,1,.63.94,3.43,3.43,0,0,1,0,2.52,3.08,3.08,0,0,1-.69,1,3.14,3.14,0,0,1-1.06.67,3.92,3.92,0,0,1-1.36.23,3.45,3.45,0,0,1-1.3-.23,2.77,2.77,0,0,1-1-.66,3.11,3.11,0,0,1-.65-1,4.07,4.07,0,0,1-.23-1.4,3.72,3.72,0,0,1,.31-1.35,7.74,7.74,0,0,1,1-1.68l2.77-3.74a.41.41,0,0,1,.36-.16h.61Zm1.18,5.76A3,3,0,0,0,199,82a2.56,2.56,0,0,0,.84-.53,2.5,2.5,0,0,0,.54-.81,3.09,3.09,0,0,0,0-2.08,2.17,2.17,0,0,0-.52-.8,2.37,2.37,0,0,0-.79-.5,2.8,2.8,0,0,0-1-.18,2.88,2.88,0,0,0-1.13.22,2.83,2.83,0,0,0-.84.57,2.44,2.44,0,0,0-.53.79,2.41,2.41,0,0,0-.18.9,3,3,0,0,0,.18,1,2.39,2.39,0,0,0,.5.83,2.22,2.22,0,0,0,.79.54A2.69,2.69,0,0,0,197.88,82.21Z"/><path class="cls-1" d="M203,78.11h3.34v.58H203Z"/><path class="cls-1" d="M214.5,82a.24.24,0,0,1,.18.07.26.26,0,0,1,.06.18v.4h-6.56v-.25a.53.53,0,0,1,0-.16.76.76,0,0,1,.11-.14l3.47-3.51c.28-.29.55-.57.79-.85a5.89,5.89,0,0,0,.64-.82,3.8,3.8,0,0,0,.42-.86,2.83,2.83,0,0,0,.15-.93,2.24,2.24,0,0,0-.19-1,1.92,1.92,0,0,0-.49-.68,2.12,2.12,0,0,0-.72-.4,3,3,0,0,0-.85-.12,2.5,2.5,0,0,0-.88.14,2.41,2.41,0,0,0-.72.41,2.28,2.28,0,0,0-.52.63,2.32,2.32,0,0,0-.28.79.43.43,0,0,1-.14.21.37.37,0,0,1-.22,0l-.35-.05A3.49,3.49,0,0,1,208.8,74a2.74,2.74,0,0,1,1.62-1.39,3.36,3.36,0,0,1,1.16-.19,3.68,3.68,0,0,1,1.11.17,2.64,2.64,0,0,1,.93.51,2.45,2.45,0,0,1,.65.86,3,3,0,0,1,.23,1.2,3.27,3.27,0,0,1-.17,1.06,4.46,4.46,0,0,1-.48.95,6.92,6.92,0,0,1-.7.88l-.84.87-3.18,3.25a3.7,3.7,0,0,1,.48-.09,4.07,4.07,0,0,1,.5,0Z"/><path class="cls-1" d="M220.94,77.35a3.62,3.62,0,0,1,.89.32,2.9,2.9,0,0,1,.7.54A2.34,2.34,0,0,1,223,79a2.87,2.87,0,0,1,.16,1,2.7,2.7,0,0,1-.24,1.16,2.58,2.58,0,0,1-.68.89,3.05,3.05,0,0,1-1,.56,4.34,4.34,0,0,1-1.34.19,4.38,4.38,0,0,1-1.34-.19,3.15,3.15,0,0,1-1-.56,2.59,2.59,0,0,1-.92-2,2.87,2.87,0,0,1,.16-1,2.53,2.53,0,0,1,.46-.76,2.72,2.72,0,0,1,.7-.54,3.47,3.47,0,0,1,.89-.32A3,3,0,0,1,218,77a2.46,2.46,0,0,1-.58-.53,2.49,2.49,0,0,1-.35-.69,2.64,2.64,0,0,1-.12-.81,2.44,2.44,0,0,1,.78-1.83,2.89,2.89,0,0,1,.93-.56,3.82,3.82,0,0,1,2.44,0,2.74,2.74,0,0,1,.92.56,2.26,2.26,0,0,1,.59.82,2.5,2.5,0,0,1,.21,1,2.64,2.64,0,0,1-.12.81,2.83,2.83,0,0,1-.36.69,3,3,0,0,1-.58.53A3.16,3.16,0,0,1,220.94,77.35Zm-1.09,4.88a3.23,3.23,0,0,0,1.06-.17,2.41,2.41,0,0,0,.82-.45,2,2,0,0,0,.53-.72,2.17,2.17,0,0,0,.19-.92,2.35,2.35,0,0,0-.24-1.12,2.07,2.07,0,0,0-.63-.71,2.47,2.47,0,0,0-.84-.38,3.66,3.66,0,0,0-1.78,0,2.56,2.56,0,0,0-.84.38,2,2,0,0,0-.62.71,2.24,2.24,0,0,0-.25,1.12,2.17,2.17,0,0,0,.19.92,2,2,0,0,0,.53.72,2.32,2.32,0,0,0,.82.45A3.23,3.23,0,0,0,219.85,82.23ZM217.58,75a2.3,2.3,0,0,0,.14.79,1.7,1.7,0,0,0,.41.68,1.88,1.88,0,0,0,.71.47,2.92,2.92,0,0,0,2,0A1.87,1.87,0,0,0,222,75.77a2.3,2.3,0,0,0,.13-.79,2.16,2.16,0,0,0-.15-.81,2,2,0,0,0-.44-.66,2,2,0,0,0-.71-.44,3,3,0,0,0-1.92,0,2,2,0,0,0-.71.44,1.85,1.85,0,0,0-.45.66A2.16,2.16,0,0,0,217.58,75Z"/><path class="cls-1" d="M225.14,75.13a3.73,3.73,0,0,1,.35-1.17,3,3,0,0,1,.68-.86,2.84,2.84,0,0,1,1-.53,3.36,3.36,0,0,1,1.16-.19,3.62,3.62,0,0,1,1.1.17,2.49,2.49,0,0,1,.91.48,2.22,2.22,0,0,1,.61.8,2.49,2.49,0,0,1,.23,1.12,2.52,2.52,0,0,1-.15.89,2.14,2.14,0,0,1-.42.7,2.48,2.48,0,0,1-.64.51,3.42,3.42,0,0,1-.79.31,2.91,2.91,0,0,1,1.69.86,2.43,2.43,0,0,1,.57,1.64,2.63,2.63,0,0,1-.25,1.16,2.9,2.9,0,0,1-.69.93,3.05,3.05,0,0,1-1,.6,3.57,3.57,0,0,1-1.29.22,4,4,0,0,1-1.44-.23,2.88,2.88,0,0,1-1-.61,3.11,3.11,0,0,1-.58-.83,5.75,5.75,0,0,1-.33-.93l.27-.11a.33.33,0,0,1,.24,0,.24.24,0,0,1,.18.16,2.35,2.35,0,0,1,.1.27,3.27,3.27,0,0,0,.17.41,3.58,3.58,0,0,0,.3.46,2.35,2.35,0,0,0,.46.42,2.45,2.45,0,0,0,.67.32,3,3,0,0,0,.91.12,2.7,2.7,0,0,0,1.14-.22,2.61,2.61,0,0,0,.81-.54,2.55,2.55,0,0,0,.49-.75,2.37,2.37,0,0,0,.16-.8,2.49,2.49,0,0,0-.15-.87,1.6,1.6,0,0,0-.49-.69,2.36,2.36,0,0,0-.91-.46,5,5,0,0,0-1.39-.17v-.5a4,4,0,0,0,1.16-.17,2.56,2.56,0,0,0,.84-.44,1.74,1.74,0,0,0,.51-.67,2,2,0,0,0,.18-.86,2.2,2.2,0,0,0-.18-.93,1.87,1.87,0,0,0-.48-.65,2,2,0,0,0-.71-.38,2.94,2.94,0,0,0-.84-.12,2.4,2.4,0,0,0-1.61.55,2.28,2.28,0,0,0-.52.63,2.34,2.34,0,0,0-.29.79.42.42,0,0,1-.12.21.37.37,0,0,1-.22,0Z"/><path class="cls-1" d="M233.33,78.11h3.34v.58h-3.34Z"/><path class="cls-1" d="M240.64,76.45c-.15.2-.29.38-.41.56a5,5,0,0,0-.34.51,3,3,0,0,1,1-.69,3.39,3.39,0,0,1,2.48,0,2.55,2.55,0,0,1,.95.61,2.68,2.68,0,0,1,.63.94,3.57,3.57,0,0,1,0,2.52,3.08,3.08,0,0,1-.69,1,3.14,3.14,0,0,1-1.06.67,4,4,0,0,1-1.36.23,3.42,3.42,0,0,1-1.3-.23,2.77,2.77,0,0,1-1-.66,3.11,3.11,0,0,1-.65-1,4.07,4.07,0,0,1-.23-1.4,3.68,3.68,0,0,1,.3-1.35,8.27,8.27,0,0,1,1-1.68l2.77-3.74a.41.41,0,0,1,.36-.16h.61Zm1.17,5.76a3,3,0,0,0,1.12-.2,2.56,2.56,0,0,0,.84-.53,2.5,2.5,0,0,0,.54-.81,3.09,3.09,0,0,0,0-2.08,2.31,2.31,0,0,0-.52-.8,2.47,2.47,0,0,0-.79-.5,2.8,2.8,0,0,0-1-.18,2.75,2.75,0,0,0-2,.79,2.44,2.44,0,0,0-.7,1.69,3,3,0,0,0,.18,1,2.25,2.25,0,0,0,.5.83,2.14,2.14,0,0,0,.79.54A2.68,2.68,0,0,0,241.81,82.21Z"/><path class="cls-1" d="M253.12,82a.21.21,0,0,1,.18.07.27.27,0,0,1,.07.18v.4h-6.56v-.25a.34.34,0,0,1,0-.16.71.71,0,0,1,.1-.14l3.47-3.51c.29-.29.55-.57.8-.85a5.79,5.79,0,0,0,.63-.82,3.8,3.8,0,0,0,.42-.86,2.84,2.84,0,0,0,.16-.93,2.4,2.4,0,0,0-.19-1A2,2,0,0,0,251,73.09a2.94,2.94,0,0,0-.84-.12,2.4,2.4,0,0,0-1.61.55,2.08,2.08,0,0,0-.51.63,2.57,2.57,0,0,0-.29.79.42.42,0,0,1-.13.21.4.4,0,0,1-.23,0l-.35-.05a3.49,3.49,0,0,1,.36-1.17,2.88,2.88,0,0,1,.68-.86,2.8,2.8,0,0,1,.94-.53,3.42,3.42,0,0,1,1.17-.19,3.78,3.78,0,0,1,1.11.17,2.64,2.64,0,0,1,.93.51,2.42,2.42,0,0,1,.64.86,2.79,2.79,0,0,1,.24,1.2,3,3,0,0,1-.18,1.06,4,4,0,0,1-.47.95,8.05,8.05,0,0,1-.71.88l-.83.87-3.18,3.25a3.41,3.41,0,0,1,.48-.09,4,4,0,0,1,.49,0Z"/><path class="cls-1" d="M262,72.5v.31a.66.66,0,0,1,0,.21.52.52,0,0,1-.06.15l-4.65,9.23a.49.49,0,0,1-.16.19.46.46,0,0,1-.25.07h-.47L261,73.47a1.66,1.66,0,0,1,.22-.34H255.4a.21.21,0,0,1-.19-.19V72.5Z"/><path class="cls-1" d="M270.51,79.2v.37a.21.21,0,0,1-.05.13.2.2,0,0,1-.14,0h-1.67v2.92h-.6V79.74h-4.81a.25.25,0,0,1-.16,0,.35.35,0,0,1-.08-.13l-.07-.34L268,72.48h.61V79.2Zm-2.46,0V73.88a2.62,2.62,0,0,1,0-.27c0-.1,0-.19,0-.29l-4.39,5.88Z"/><path class="cls-1" d="M273.28,78.13a10.93,10.93,0,0,0-.43-3.09,11.51,11.51,0,0,0-1.3-2.84.23.23,0,0,1,0-.2.2.2,0,0,1,.09-.11l.3-.19a14,14,0,0,1,.93,1.64,10.67,10.67,0,0,1,.61,1.58,9.91,9.91,0,0,1,.34,1.58,13.33,13.33,0,0,1,0,3.26,9.68,9.68,0,0,1-.34,1.58,10.67,10.67,0,0,1-.61,1.58,13.23,13.23,0,0,1-.93,1.64l-.3-.19a.2.2,0,0,1-.09-.11.23.23,0,0,1,0-.2,11.51,11.51,0,0,0,1.3-2.84A10.88,10.88,0,0,0,273.28,78.13Z"/><polygon class="cls-2" points="94.89 47.99 80.12 42.97 65.36 47.99 65.36 7.14 94.89 7.14 94.89 47.99"/><polygon class="cls-1" points="80.29 47.33 93.28 51.75 93.28 7.14 66.96 7.14 66.96 51.86 80.29 47.33"/><path class="cls-3" d="M80.2,27a1.75,1.75,0,0,1,1.56-1c1.07,0,.8.36,2.77.36V22.5c-1.07.05-1.93-1-3.33-.33a1.82,1.82,0,0,0-1,1.49V27"/><path class="cls-3" d="M81.51,18V18a.06.06,0,0,1-.05.06H80.3v-1s0-.05,0-.05h0v-.17h-.52V17h0s0,0,0,.06v1H78.78s0,0,0-.06v0h-.17v.6h.17v0a.07.07,0,0,1,.05-.07h1.15v2.61s0,.07,0,.07h0v.17h.54v-.17h0a.07.07,0,0,1,0-.07V18.48h1.15a.09.09,0,0,1,.06.08v0h.17V18Z"/><path class="cls-3" d="M80.05,27a1.75,1.75,0,0,0-1.56-1c-1.07,0-.81.36-2.77.36V22.5c1.06.05,1.92-1,3.33-.33a1.82,1.82,0,0,1,1,1.49V27"/><path class="cls-3" d="M85,23v3.85h-4.5a2,2,0,0,1,1.28-.35,3.54,3.54,0,0,1,.87.07,8.77,8.77,0,0,0,2.11.1h.09v-4H84.7v3.78a9,9,0,0,1-2-.1,3.84,3.84,0,0,0-.91-.07,2.1,2.1,0,0,0-1.58.54h0v.19h5V23H85"/><path class="cls-3" d="M78.43,26.34a3.84,3.84,0,0,0-.91.07,9,9,0,0,1-2,.1V22.73h-.2v4h.1a8.77,8.77,0,0,0,2.11-.1,3.54,3.54,0,0,1,.87-.07,2,2,0,0,1,1.27.35H75.2V23H75v4h5v-.19h0a2.1,2.1,0,0,0-1.58-.54"/><path class="cls-3" d="M75.37,30.88c0,.05,0,.13.07.19s0,.09.08.1h.07v.08H75v-.08h.1s.08,0,.08-.06a.86.86,0,0,0,0-.18l-.1-.33h-.61l-.06.19a1.84,1.84,0,0,0-.07.3c0,.06,0,.07.1.08h.08v.08H74v-.08h.08c.05,0,.09-.07.11-.14l.38-1.15c.07-.2.14-.41.2-.61h.06ZM75,30.49l-.26-.85-.27.85Z"/><path class="cls-3" d="M76,30.91l.39-1.34c0-.16,0-.18-.06-.19h-.11v-.08h.46v.08h-.06s-.07.07-.12.21l-.37,1.19c0,.16-.09.32-.13.5H75.9a4.58,4.58,0,0,0-.12-.47l-.4-1.31c0-.09-.06-.11-.09-.12h-.08v-.08h.56v.08h-.12s-.08,0-.06.09Z"/><path class="cls-3" d="M77,29.64a.78.78,0,0,0,0-.21s0,0-.09-.05h-.1v-.08H78a2.81,2.81,0,0,0,0,.43h-.08v-.19s0-.06,0-.07a.93.93,0,0,0-.41-.06.55.55,0,0,0-.18,0v.76h.25c.13,0,.2,0,.22,0a.15.15,0,0,0,0-.08v-.15h.06v.65h-.06v-.17a.1.1,0,0,0,0-.07s-.09,0-.22,0h-.25v.8a.55.55,0,0,0,.18,0,1.42,1.42,0,0,0,.43,0,.58.58,0,0,0,.07-.31H78a3.28,3.28,0,0,0,0,.46H76.84v-.08h.08s.08,0,.09-.05a.78.78,0,0,0,0-.21Z"/><path class="cls-3" d="M80.44,30.91a.78.78,0,0,0,0,.21.11.11,0,0,0,.09.05h.1v.08h-.59v-.08h.07c.06,0,.08,0,.09-.05a.5.5,0,0,0,0-.21V29.62h0l-.09.24-.38,1.07c0,.11-.08.24-.11.36h0L79,29.62h0v1.29a.5.5,0,0,0,0,.21s0,0,.09.05h.09v.08h-.5v-.08h.09s.08,0,.09-.05a.5.5,0,0,0,0-.21V29.64a.5.5,0,0,0,0-.21s0,0-.09-.05h-.09v-.08h.4l.57,1.58.55-1.58h.4v.08h-.09a.11.11,0,0,0-.09.05.78.78,0,0,0,0,.21Z"/><path class="cls-3" d="M82.12,30.88c0,.05,0,.13.07.19a.15.15,0,0,0,.09.1h.07v.08h-.57v-.08h.1c.05,0,.09,0,.09-.06a.55.55,0,0,0,0-.18l-.09-.33h-.62l0,.19a1.92,1.92,0,0,0-.08.3c0,.06,0,.07.1.08h.08v.08h-.49v-.08h.08c.05,0,.09-.07.12-.14l.37-1.15c.07-.2.14-.41.2-.61h.07Zm-.33-.39-.27-.85-.27.85Z"/><path class="cls-3" d="M82.9,30.91a.5.5,0,0,0,0,.21s0,0,.09.05h.1v.08h-.63v-.08h.11a.11.11,0,0,0,.09-.05,1,1,0,0,0,0-.21V29.64a1,1,0,0,0,0-.21.11.11,0,0,0-.09-.05H82.5v-.08h.73a.38.38,0,0,1,.43.42.55.55,0,0,1-.41.55l.48.84a.16.16,0,0,0,.13.08v.08h-.3a1.09,1.09,0,0,1-.08-.15l-.4-.7a1.08,1.08,0,0,0-.11-.18l0,0h.18a.4.4,0,0,0,.28-.4c0-.31-.17-.39-.34-.39a.62.62,0,0,0-.21,0Z"/><path class="cls-3" d="M84.36,30.91a.5.5,0,0,0,0,.21s0,0,.09.05h.1v.08H84v-.08h.1s.08,0,.09-.05a.78.78,0,0,0,0-.21V29.64a.78.78,0,0,0,0-.21s0,0-.09-.05H84v-.08h.62v.08h-.1s-.08,0-.09.05a.5.5,0,0,0,0,.21Z"/><path class="cls-3" d="M86,30.88c0,.05,0,.13.07.19s0,.09.08.1h.08v.08h-.57v-.08h.1s.09,0,.09-.06a1,1,0,0,0,0-.18l-.1-.33h-.61l-.06.19a1.84,1.84,0,0,0-.07.3c0,.06,0,.07.1.08h.08v.08h-.49v-.08h.08s.09-.07.11-.14l.38-1.15c.07-.2.14-.41.2-.61h.06Zm-.33-.39-.27-.85-.27.85Z"/><path class="cls-3" d="M77,34.65a.45.45,0,0,0,0,.21s0,0,.09,0h.11V35h-.64v-.08h.08s.08,0,.09,0a.45.45,0,0,0,0-.21V33.36h0c0,.08-.07.16-.1.23l-.41,1.08c0,.11-.08.24-.12.36h0l-.64-1.67h0v1.29a.5.5,0,0,0,0,.21s0,0,.1,0h.1V35h-.55v-.08h.11s.08,0,.09,0a.5.5,0,0,0,0-.21V33.37a.53.53,0,0,0,0-.21s0,0-.09,0h-.11V33h.44l.61,1.59L76.77,33h.43v.09h-.1s-.08,0-.09,0a.48.48,0,0,0,0,.21Z"/><path class="cls-3" d="M77.56,33.37a.53.53,0,0,0,0-.21s0,0-.1,0h-.11V33H78v.09H77.9c-.06,0-.09,0-.1,0a.53.53,0,0,0,0,.21v1c0,.41.17.52.48.52s.47-.11.47-.59v-.91a.84.84,0,0,0,0-.21s0,0-.1,0h-.1V33h.54v.09H79s-.08,0-.09,0a.53.53,0,0,0,0,.21v.83c0,.6-.19.85-.66.85s-.62-.15-.62-.67Z"/><path class="cls-3" d="M79.74,33.45a2.62,2.62,0,0,0,0-.29h-.35c-.07,0-.09,0-.1.1v.22H79.2c0-.15,0-.31,0-.46h1.33a3.54,3.54,0,0,0,0,.46h-.07v-.22c0-.07,0-.1-.09-.1H80a2.62,2.62,0,0,0,0,.29v1.2a.78.78,0,0,0,0,.21s0,0,.1,0h.11V35h-.68v-.08h.11c.06,0,.09,0,.1,0a.5.5,0,0,0,0-.21Z"/><path class="cls-3" d="M80.86,33.37a.53.53,0,0,0,0-.21s0,0-.1,0h-.11V33h.68v.09H81.2c-.06,0-.09,0-.1,0a.53.53,0,0,0,0,.21v1c0,.41.17.52.47.52s.48-.11.48-.59v-.91a.84.84,0,0,0,0-.21s0,0-.1,0h-.1V33h.54v.09h-.1s-.08,0-.09,0a.53.53,0,0,0,0,.21v.83c0,.6-.19.85-.66.85s-.62-.15-.62-.67Z"/><path class="cls-3" d="M83.57,34.62c0,.05.05.13.08.19a.15.15,0,0,0,.09.1h.08V35h-.61v-.08h.1s.1,0,.1-.06a.83.83,0,0,0,0-.18l-.11-.33h-.66l-.06.19a1.27,1.27,0,0,0-.09.3c0,.06,0,.07.11.08h.09V35h-.53v-.08h.08c.06,0,.1-.07.13-.14l.41-1.15c.07-.2.15-.41.21-.62H83Zm-.36-.39-.29-.85-.29.85Z"/><path class="cls-3" d="M84.27,34.86a.71.71,0,0,0,.2,0,1.55,1.55,0,0,0,.51-.05s0-.13,0-.18l0-.15h.08c0,.16,0,.35,0,.49H83.93v-.06l.07,0a.21.21,0,0,0,.06-.17V33.37a.48.48,0,0,0,0-.21s0,0-.09,0h-.11V33h.67v.09h-.11s-.08,0-.09,0a.48.48,0,0,0,0,.21Z"/><path class="cls-3" d="M76.54,37.26a.78.78,0,0,0,0,.21s0,0,.1.05h.11v.08H76.1v-.08h.11c.05,0,.08,0,.09-.05a.5.5,0,0,0,0-.21V36a.53.53,0,0,0,0-.21s0,0-.09,0H76.1v-.09h1.18a3,3,0,0,0,0,.43h-.09v-.18s0-.07,0-.08a1.18,1.18,0,0,0-.4-.06l-.2,0v.76h.27a.58.58,0,0,0,.25,0s0,0,0-.07l0-.15h.06v.65h-.06l0-.17s0-.06,0-.07-.11,0-.25,0h-.27Z"/><path class="cls-3" d="M77.63,36a.53.53,0,0,0,0-.21s0,0-.1,0H77.4v-.09h.68v.09H78c-.06,0-.09,0-.1,0a.53.53,0,0,0,0,.21v1c0,.41.17.52.47.52s.48-.11.48-.59V36a.84.84,0,0,0,0-.21s0,0-.1,0h-.1v-.09h.54v.09H79s-.08,0-.09,0a.53.53,0,0,0,0,.21v.83c0,.6-.19.85-.66.85s-.62-.15-.62-.67Z"/><path class="cls-3" d="M79.47,36a.53.53,0,0,0,0-.21s0,0-.1,0h-.1v-.09h.4l1.11,1.68h0V36a.53.53,0,0,0,0-.21s0,0-.09,0h-.11v-.09h.55v.09H81c-.06,0-.09,0-.1,0a.53.53,0,0,0,0,.21v1.57a.37.37,0,0,0,0,.11l-.21,0L79.58,36h0v1.31a.5.5,0,0,0,0,.21s0,0,.1.05h.1v.08h-.55v-.08h.1c.06,0,.09,0,.1-.05a.5.5,0,0,0,0-.21Z"/><path class="cls-3" d="M81.44,36a.84.84,0,0,0,0-.21.11.11,0,0,0-.1,0h-.09v-.09h.85a.79.79,0,0,1,.83.87,1.13,1.13,0,0,1-.5,1,.94.94,0,0,1-.49.1h-.61v-.06l.07,0a.21.21,0,0,0,.06-.17Zm.22,1.48a1,1,0,0,0,.26,0,.65.65,0,0,0,.37-.09.86.86,0,0,0,.37-.82c0-.7-.33-.83-.74-.83a1.06,1.06,0,0,0-.26,0Z"/><path class="cls-3" d="M84,36.11v-.17a.22.22,0,0,0-.1-.17.42.42,0,0,0-.25-.06.36.36,0,0,0-.34.41c0,.19.09.31.38.35s.53.15.53.47a.68.68,0,0,1-.7.72.75.75,0,0,1-.39-.11c0-.15,0-.3,0-.43h.08v.19c0,.12.2.22.38.22A.4.4,0,0,0,84,37.1c0-.27-.17-.35-.4-.38s-.51-.2-.51-.49a.6.6,0,0,1,.59-.64.87.87,0,0,1,.42.12,2.69,2.69,0,0,0,0,.4Z"/><path class="cls-3" d="M88.92,39.8h-1.6V30.55A8.5,8.5,0,0,1,88,31.72a9.87,9.87,0,0,1,.4.93l0,.08a8.19,8.19,0,0,1,.46,2.39V39.8m-15.67,0V25.51A15.09,15.09,0,0,1,74.14,21l.06-.16a15.9,15.9,0,0,1,.74-1.73,16.34,16.34,0,0,1,1.68-2.64,15.27,15.27,0,0,1,2.1-2.21c.58-.5,1.18-.94,1.4-1.1.22.16.82.6,1.4,1.1a14.75,14.75,0,0,1,2.1,2.21,15.68,15.68,0,0,1,1.68,2.64,17.69,17.69,0,0,1,.75,1.74l.06.15A15.07,15.07,0,0,1,87,25.51V39.8ZM87.32,27.07c.14.34.25.64.34.87l.08.2A21.7,21.7,0,0,1,88.89,33a4,4,0,0,0-.13-.38l0-.09a9,9,0,0,0-.41-1,8.31,8.31,0,0,0-.92-1.46l-.08-.1ZM72.93,30l-.07.08a8.31,8.31,0,0,0-.92,1.46,9,9,0,0,0-.41,1l0,.08c0,.1-.09.26-.15.44a21.83,21.83,0,0,1,1.15-4.92l.08-.2.35-.86Zm0,9.76H71.34V35.12a8.19,8.19,0,0,1,.46-2.39l0-.08c.08-.2.21-.55.4-.93a8.23,8.23,0,0,1,.7-1.15Zm16.35.33V34.21A20.05,20.05,0,0,0,88,28L88,27.82c-.15-.37-.36-.92-.65-1.56v-.75a15.26,15.26,0,0,0-.91-4.62h0l-.06-.16A17.76,17.76,0,0,0,85.59,19a16.85,16.85,0,0,0-1.72-2.7A15.27,15.27,0,0,0,81.73,14c-.73-.63-1.51-1.18-1.51-1.18l-.1-.07-.09.07s-.78.55-1.52,1.18a16.39,16.39,0,0,0-2.14,2.25A16.85,16.85,0,0,0,74.65,19c-.36.73-.61,1.38-.76,1.77l-.06.16a15.69,15.69,0,0,0-.9,4.62v.76c-.29.63-.5,1.18-.65,1.55L72.2,28A20.4,20.4,0,0,0,71,34.21v5.92Z"/><rect class="cls-3" x="74.08" y="32.09" width="12.09" height="0.11"/><rect class="cls-3" x="74.08" y="28.36" width="12.09" height="0.11"/><rect class="cls-3" x="74.08" y="38.44" width="12.09" height="0.11"/><path class="cls-1" d="M106,12.38h4.77l5.44,12.2h1.58v2.36h-5.41V24.58h1.12l-.66-1.51h-5.49l-.64,1.51H108v2.36H102.5V24.58h1.58l4.41-9.84H106ZM108.24,21H112l-1.86-4.35Z"/><path class="cls-1" d="M126.86,12.38h6v2.36h-2l-5.35,12.2h-1.61l-5.35-12.2h-2V12.38h6v2.36h-1.2l3.44,7.89,3.43-7.89h-1.28Z"/><path class="cls-1" d="M145.08,16.36V14.74h-4.7v4.08h3.52V21.1h-3.52v3.48h4.7V23h2.2v4H136.22V24.58h1.59V14.74h-1.59V12.38h11.06v4Z"/><path class="cls-1" d="M160.72,12.38h3.5l5.69,10.54,5.55-10.54H179v2.36H177l.27,9.84h1.65v2.36h-5.73V24.58h1.61l0-6.42-4.18,8.78h-1.51l-4.23-8.63,0,6.27h1.64v2.36h-5.74V24.58h1.66l.29-9.84h-1.95Z"/><path class="cls-1" d="M185.59,12.38h4.77l5.44,12.2h1.58v2.36H192V24.58h1.12l-.66-1.51h-5.49l-.64,1.51h1.24v2.36h-5.45V24.58h1.58l4.41-9.84h-2.49ZM187.83,21h3.73l-1.87-4.35Z"/><path class="cls-1" d="M200.42,12.38h6.25c3.88,0,5.82,2.14,5.82,5.18a4.76,4.76,0,0,1-2.94,4.74l1.72,2.28h1.87v2.36h-3.07L207,22.7c-.24,0-.51,0-.78,0h-1.6v1.86h1.58v2.36h-5.74V24.58H202V14.74h-1.59Zm4.16,2.36v5.7h1.91c2.4,0,3.23-1.28,3.23-2.88s-.81-2.82-3.23-2.82Z"/><path class="cls-1" d="M217.17,12.38h5.76v2.36h-1.59v9.84h1.59v2.36h-5.76V24.58h1.6V14.74h-1.6Z"/><path class="cls-1" d="M230,12.38h4.77l5.44,12.2h1.58v2.36h-5.41V24.58h1.12l-.66-1.51h-5.49l-.64,1.51h1.24v2.36h-5.45V24.58h1.58l4.41-9.84H230ZM232.21,21h3.73l-1.87-4.35Z"/><path class="cls-2" d="M102.44,30h2.43l4,7.34L112.7,30h2.43v1.65h-1.35l.18,6.84h1.16v1.64h-4V38.49h1.12l0-4.47-2.91,6.11h-1l-2.94-6,0,4.37h1.14v1.64h-4V38.49h1.15l.2-6.84h-1.35Z"/><path class="cls-2" d="M124.84,30h4v1.65h-1.11v4.29c0,3-1.71,4.38-4.25,4.38s-4.19-1.36-4.19-4.38V31.65h-1.11V30h4v1.65h-1.11v4.29c0,1.93.88,2.73,2.4,2.73s2.47-.8,2.47-2.75V31.65h-1.11Z"/><path class="cls-2" d="M133.65,38.49h1.1V31.65h-1.86v1.12h-1.53V30h8.52v2.77h-1.53V31.65h-1.8v6.84h1.11v1.64h-4Z"/><path class="cls-2" d="M149.05,30h4v1.65H152v4.29c0,3-1.72,4.38-4.25,4.38s-4.19-1.36-4.19-4.38V31.65H142.4V30h4v1.65h-1.11v4.29c0,1.93.88,2.73,2.41,2.73s2.46-.8,2.46-2.75V31.65h-1.11Z"/><path class="cls-2" d="M157.29,30h3.31l3.79,8.49h1.1v1.64h-3.76V38.49h.77L162,37.44h-3.81l-.45,1.05h.86v1.64h-3.78V38.49H156L159,31.65h-1.73Zm1.56,6h2.59l-1.3-3Z"/><path class="cls-2" d="M167.82,40.13V38.49h1.11V31.65h-1.11V30h4.43v1.65h-1.54v6.84H174V37.36h1.53v2.77Z"/><path class="cls-2" d="M190.09,32.77V31.65H186.8v3h2.47v1.58H186.8v2.31h1.8v1.64h-4.68V38.49H185V31.65h-1.11V30h7.69v2.77Z"/><path class="cls-2" d="M200.73,30h4v1.65h-1.11v4.29c0,3-1.72,4.38-4.25,4.38s-4.19-1.36-4.19-4.38V31.65h-1.11V30h4v1.65H197v4.29c0,1.93.88,2.73,2.41,2.73s2.46-.8,2.46-2.75V31.65h-1.11Z"/><path class="cls-2" d="M214.63,30h4v1.65h-1.1v8.48h-1.34l-5.49-6.64v5h1.11v1.64h-4V38.49h1.11V31.65H207.8V30H210l5.78,6.76V31.65h-1.11Z"/><path class="cls-2" d="M221.8,30h4.93c3.14,0,5.42,2.12,5.42,5.06a5.13,5.13,0,0,1-5.42,5.07H221.8V38.49h1.11V31.65H221.8Zm2.91,1.65v6.84h2a3.42,3.42,0,1,0,0-6.84Z"/><path class="cls-2" d="M236.65,37v.19c0,1.15,1,1.48,2,1.48,1.15,0,1.67-.59,1.67-1.24s-.38-1.08-2.21-1.75-2.65-1.75-2.65-3a2.87,2.87,0,0,1,3.11-2.79,1.91,1.91,0,0,1,1.78.82L240.2,30h1.61v3h-1.61v-.48c-.07-.85-.75-1.08-1.55-1.08-1,0-1.42.53-1.42,1.15s.55,1.15,2,1.72c2.26.89,2.91,1.77,2.91,3.09A2.89,2.89,0,0,1,239,40.3c-2,0-2.46-1-2.46-1l.13.84h-1.62V37Z"/></svg>